<?xml version="1.0" encoding="UTF-8" standalone="no"?>
<!-- Created with Inkscape (http://www.inkscape.org/) -->

<svg
   width="41.500309mm"
   height="26.782383mm"
   viewBox="0 0 41.500309 26.782383"
   version="1.1"
   id="svg10039"
   inkscape:version="1.2.2 (732a01da63, 2022-12-09)"
   sodipodi:docname="a.svg"
   xmlns:inkscape="http://www.inkscape.org/namespaces/inkscape"
   xmlns:sodipodi="http://sodipodi.sourceforge.net/DTD/sodipodi-0.dtd"
   xmlns="http://www.w3.org/2000/svg"
   xmlns:svg="http://www.w3.org/2000/svg">
  <sodipodi:namedview
     id="namedview10041"
     pagecolor="#ffffff"
     bordercolor="#000000"
     borderopacity="0.25"
     inkscape:showpageshadow="2"
     inkscape:pageopacity="0"
     inkscape:pagecheckerboard="0"
     inkscape:deskcolor="#d1d1d1"
     inkscape:document-units="mm"
     showgrid="false"
     inkscape:zoom="2.9825758"
     inkscape:cx="12.070104"
     inkscape:cy="16.428753"
     inkscape:window-width="1920"
     inkscape:window-height="1017"
     inkscape:window-x="-8"
     inkscape:window-y="-8"
     inkscape:window-maximized="1"
     inkscape:current-layer="layer1" />
  <defs
     id="defs10036">
    <clipPath
       clipPathUnits="userSpaceOnUse"
       id="clipPath420">
      <path
         d="M 591.86957,383.12061 H 908.19696 V 699.448 H 591.86957 Z"
         clip-rule="evenodd"
         id="path418" />
    </clipPath>
  </defs>
  <g
     inkscape:label="Layer 1"
     inkscape:groupmode="layer"
     id="layer1"
     transform="translate(-6.9272639,-79.57655)">
    <g
       id="g414"
       style="display:inline"
       transform="matrix(0.08466666,0,0,0.08466666,-28.466429,47.139008)">
      <g
         id="g416"
         clip-path="url(#clipPath420)">
        <g
           id="g422"
           transform="matrix(4.8815956,0,0,4.8815956,591.86957,383.12061)">
          <path
             d="M 32.400002,64.800003 C 14.5,64.800003 0,50.200001 0,32.400002 0,14.600002 14.5,0 32.400002,0 c 17.900001,0 32.400001,14.5 32.400001,32.400002 0,17.900001 -14.600002,32.400001 -32.400001,32.400001 z M 32.400002,2 C 15.6,2 2,15.6 2,32.400002 c 0,16.799999 13.6,30.400001 30.400002,30.400001 16.799999,0 30.400001,-13.599998 30.400001,-30.400001 C 62.799999,15.6 49.099998,2 32.400002,2 Z"
             style="fill:#000000;fill-opacity:1;fill-rule:nonzero;stroke:none"
             id="path424" />
        </g>
      </g>
    </g>
    <path
       style="color:#000000;fill:#000000;-inkscape-stroke:none"
       d="m -22.929687,-91.087891 c -0.648001,3.916702 1.260237,7.814478 4.75,9.707032 3.489763,1.892553 7.797378,1.36513 10.726562,-1.314453 l -0.3828125,-0.419922 c -2.7517445,2.517264 -6.7939015,3.012283 -10.0722655,1.234375 -3.278364,-1.777909 -5.069685,-5.435788 -4.460938,-9.115235 z"
       id="path4185"
       transform="matrix(-0.99997986,-0.00634704,0.00635225,-0.99997982,0,0)" />
  </g>
</svg>
