<?xml version="1.0" encoding="UTF-8" standalone="no"?>
<!-- Created with Inkscape (http://www.inkscape.org/) -->

<svg
   width="28.139198mm"
   height="31.397579mm"
   viewBox="0 0 28.139198 31.397579"
   version="1.1"
   id="svg21229"
   inkscape:version="1.2.2 (732a01da63, 2022-12-09)"
   sodipodi:docname="c.svg"
   xmlns:inkscape="http://www.inkscape.org/namespaces/inkscape"
   xmlns:sodipodi="http://sodipodi.sourceforge.net/DTD/sodipodi-0.dtd"
   xmlns="http://www.w3.org/2000/svg"
   xmlns:svg="http://www.w3.org/2000/svg">
  <sodipodi:namedview
     id="namedview21231"
     pagecolor="#ffffff"
     bordercolor="#000000"
     borderopacity="0.25"
     inkscape:showpageshadow="2"
     inkscape:pageopacity="0.0"
     inkscape:pagecheckerboard="0"
     inkscape:deskcolor="#d1d1d1"
     inkscape:document-units="mm"
     showgrid="false"
     inkscape:zoom="0.74564394"
     inkscape:cx="-198.48616"
     inkscape:cy="-22.799086"
     inkscape:window-width="1920"
     inkscape:window-height="1017"
     inkscape:window-x="-8"
     inkscape:window-y="-8"
     inkscape:window-maximized="1"
     inkscape:current-layer="layer1" />
  <defs
     id="defs21226" />
  <g
     inkscape:label="Layer 1"
     inkscape:groupmode="layer"
     id="layer1"
     transform="translate(-143.83362,-154.6238)">
    <path
       style="color:#000000;fill:#000000;-inkscape-stroke:none"
       d="m 156.06055,154.625 c -4.71322,0.0656 -9.25047,2.25742 -12.22657,6.12695 l 0.79883,0.61328 c 3.71547,-4.83086 10.02184,-6.8646 15.85938,-5.11523 5.83753,1.74937 9.9866,6.91782 10.43359,12.99609 0.44699,6.07828 -2.9011,11.79617 -8.41992,14.38086 -5.51881,2.58469 -12.05532,1.495 -16.4375,-2.74023 l -0.70117,0.72461 c 4.68018,4.52324 11.67225,5.68821 17.5664,2.92773 5.89416,-2.76047 9.47348,-8.87563 8.9961,-15.36719 -0.47739,-6.49155 -4.91388,-12.01836 -11.14844,-13.88671 -1.55864,-0.46709 -3.14963,-0.68201 -4.7207,-0.66016 z"
       id="path21161" />
  </g>
</svg>
