<?xml version="1.0" encoding="UTF-8" standalone="no"?>
<!-- Created with Inkscape (http://www.inkscape.org/) -->

<svg
   width="1000"
   height="1000"
   viewBox="0 0 264.58335 264.58336"
   version="1.1"
   id="svg48671"
   inkscape:version="1.2.2 (732a01da63, 2022-12-09)"
   sodipodi:docname="CapitalS.svg"
   xmlns:inkscape="http://www.inkscape.org/namespaces/inkscape"
   xmlns:sodipodi="http://sodipodi.sourceforge.net/DTD/sodipodi-0.dtd"
   xmlns="http://www.w3.org/2000/svg"
   xmlns:svg="http://www.w3.org/2000/svg">
  <sodipodi:namedview
     id="namedview48673"
     pagecolor="#ffffff"
     bordercolor="#000000"
     borderopacity="0.25"
     inkscape:showpageshadow="2"
     inkscape:pageopacity="0.0"
     inkscape:pagecheckerboard="0"
     inkscape:deskcolor="#d1d1d1"
     inkscape:document-units="px"
     showgrid="false"
     inkscape:zoom="0.37282197"
     inkscape:cx="-61.691643"
     inkscape:cy="619.59868"
     inkscape:window-width="1920"
     inkscape:window-height="1017"
     inkscape:window-x="-8"
     inkscape:window-y="-8"
     inkscape:window-maximized="1"
     inkscape:current-layer="layer1"
     showguides="true">
    <sodipodi:guide
       position="0,79.375007"
       orientation="0,1"
       id="guide1122"
       inkscape:locked="false"
       inkscape:label=""
       inkscape:color="rgb(0,134,229)" />
    <sodipodi:guide
       position="0,52.916671"
       orientation="0,1"
       id="guide1124"
       inkscape:label=""
       inkscape:locked="false"
       inkscape:color="rgb(0,134,229)" />
    <sodipodi:guide
       position="13.229168,264.58336"
       orientation="-1,0"
       id="guide1126"
       inkscape:locked="false"
       inkscape:label=""
       inkscape:color="rgb(0,134,229)" />
    <sodipodi:guide
       position="145.5208,145.52085"
       orientation="1,0"
       id="guide1128"
       inkscape:locked="false" />
    <sodipodi:guide
       position="158.75001,145.52085"
       orientation="-1,0"
       id="guide1130"
       inkscape:label=""
       inkscape:locked="false"
       inkscape:color="rgb(0,134,229)" />
  </sodipodi:namedview>
  <defs
     id="defs48668">
    <inkscape:path-effect
       effect="bspline"
       id="path-effect9613"
       is_visible="true"
       lpeversion="1"
       weight="33.333333"
       steps="2"
       helper_size="0"
       apply_no_weight="true"
       apply_with_weight="true"
       only_selected="false" />
    <clipPath
       clipPathUnits="userSpaceOnUse"
       id="clipPath1768">
      <path
         d="m 3214.0178,557.229 h 378.125 v 378.125 h -378.125 z"
         clip-rule="evenodd"
         id="path1766" />
    </clipPath>
    <clipPath
       clipPathUnits="userSpaceOnUse"
       id="clipPath1780">
      <path
         d="M 0,0 H 6000 V 3406.25 H 0 Z"
         id="path1778" />
    </clipPath>
    <clipPath
       clipPathUnits="userSpaceOnUse"
       id="clipPath1786">
      <path
         d="M 0,0 H 6000 V 3375 H 0 Z"
         id="path1784" />
    </clipPath>
    <clipPath
       clipPathUnits="userSpaceOnUse"
       id="clipPath1792">
      <path
         d="M 0,0 H 6000 V 3375 H 0 Z"
         id="path1790" />
    </clipPath>
    <clipPath
       clipPathUnits="userSpaceOnUse"
       id="clipPath1798">
      <path
         d="m 3214.021,670.82422 222.1558,-35.66199 18.8217,117.2489 -222.156,35.66199 z"
         id="path1796" />
    </clipPath>
    <clipPath
       clipPathUnits="userSpaceOnUse"
       id="clipPath1804">
      <path
         d="m 3214.021,670.82422 225.2415,-36.15729 18.8215,117.2489 -225.2415,36.15729 z"
         id="path1802" />
    </clipPath>
    <clipPath
       clipPathUnits="userSpaceOnUse"
       id="clipPath1810">
      <path
         d="m 3214.021,670.82422 336.3193,-53.98828 18.8216,117.2489 -336.3194,53.98828 z"
         id="path1808" />
    </clipPath>
  </defs>
  <g
     inkscape:label="Layer 1"
     inkscape:groupmode="layer"
     id="layer1"
     transform="translate(-40.766902,-140.47658)"
     style="display:inline">
    <g
       id="g1762"
       style="display:inline"
       transform="matrix(0.34986229,0,0,0.3498623,-1070.4676,-1.5601738)">
      <g
         id="g1764"
         clip-path="url(#clipPath1768)">
        <g
           id="g1770"
           transform="matrix(5.8352618,0,0,5.8352618,3214.0178,557.229)">
          <path
             d="M 32.400002,64.800003 C 14.5,64.800003 0,50.200001 0,32.400002 0,14.600002 14.5,0 32.400002,0 c 17.900001,0 32.400001,14.5 32.400001,32.400002 0,17.900001 -14.600002,32.400001 -32.400001,32.400001 z M 32.400002,2 C 15.6,2 2,15.6 2,32.400002 c 0,16.799999 13.6,30.400001 30.400002,30.400001 16.799999,0 30.400001,-13.599998 30.400001,-30.400001 C 62.799999,15.6 49.099998,2 32.400002,2 Z"
             style="fill:#000000;fill-opacity:1;fill-rule:nonzero;stroke:none"
             id="path1772" />
        </g>
      </g>
    </g>
    <path
       style="color:#000000;fill:#000000;stroke-width:4.13223;-inkscape-stroke:none"
       d="m 58.994639,244.00496 -1.638364,3.13145 c 14.899441,7.81322 29.876096,15.73757 43.590205,17.61848 13.71404,1.88095 25.59466,-2.46368 37.12552,-6.6503 l -1.21061,-3.3171 c -11.53088,4.18661 -22.71525,8.21673 -35.43066,6.47277 -12.715359,-1.74393 -27.536651,-9.44207 -42.436091,-17.2553 z"
       id="path9611" />
  </g>
</svg>
