<?xml version="1.0" encoding="UTF-8" standalone="no"?>
<!-- Created with Inkscape (http://www.inkscape.org/) -->

<svg
   width="1000"
   height="1000"
   viewBox="0 0 264.58333 264.58333"
   version="1.1"
   id="svg59379"
   inkscape:version="1.2.2 (732a01da63, 2022-12-09)"
   sodipodi:docname="CapitalY.svg"
   xmlns:inkscape="http://www.inkscape.org/namespaces/inkscape"
   xmlns:sodipodi="http://sodipodi.sourceforge.net/DTD/sodipodi-0.dtd"
   xmlns="http://www.w3.org/2000/svg"
   xmlns:svg="http://www.w3.org/2000/svg">
  <sodipodi:namedview
     id="namedview59381"
     pagecolor="#ffffff"
     bordercolor="#000000"
     borderopacity="0.25"
     inkscape:showpageshadow="2"
     inkscape:pageopacity="0.0"
     inkscape:pagecheckerboard="0"
     inkscape:deskcolor="#d1d1d1"
     inkscape:document-units="px"
     showgrid="false"
     inkscape:zoom="0.74564395"
     inkscape:cx="118.01879"
     inkscape:cy="276.27127"
     inkscape:window-width="1920"
     inkscape:window-height="1017"
     inkscape:window-x="-8"
     inkscape:window-y="-8"
     inkscape:window-maximized="1"
     inkscape:current-layer="layer1"
     showguides="true">
    <sodipodi:guide
       position="0,79.374999"
       orientation="0,1"
       id="guide240"
       inkscape:locked="false"
       inkscape:label=""
       inkscape:color="rgb(0,134,229)" />
    <sodipodi:guide
       position="0,52.916666"
       orientation="0,1"
       id="guide242"
       inkscape:label=""
       inkscape:locked="false"
       inkscape:color="rgb(0,134,229)" />
    <sodipodi:guide
       position="13.229166,264.58333"
       orientation="-1,0"
       id="guide244"
       inkscape:locked="false"
       inkscape:label=""
       inkscape:color="rgb(0,134,229)" />
    <sodipodi:guide
       position="17.322271,264.58333"
       orientation="-1,0"
       id="guide354"
       inkscape:label=""
       inkscape:locked="false"
       inkscape:color="rgb(0,134,229)" />
    <sodipodi:guide
       position="242.4369,153.36798"
       orientation="-1,0"
       id="guide412"
       inkscape:locked="false"
       inkscape:label=""
       inkscape:color="rgb(0,134,229)" />
  </sodipodi:namedview>
  <defs
     id="defs59376" />
  <g
     inkscape:label="Layer 1"
     inkscape:groupmode="layer"
     id="layer1"
     transform="translate(-54.425613,-125.33614)">
    <path
       id="path1998"
       style="display:inline;fill:#000000;fill-opacity:1;fill-rule:nonzero;stroke:none;stroke-width:2.04316"
       d="M 244.08535 126.16245 L 198.01788 200.02874 C 185.90448 186.58554 168.35974 178.13498 148.83225 178.13498 C 127.88757 178.13498 109.22506 187.92421 97.097943 203.12002 L 57.667792 151.95519 L 54.425613 154.45374 L 94.554429 206.52395 C 87.047104 217.2681 82.639911 230.31655 82.639911 244.33973 C 82.639911 280.71138 112.26298 310.54447 148.83225 310.54447 C 185.19722 310.54447 215.02511 280.91571 215.02511 244.33973 C 215.02511 228.83976 209.70324 214.58875 200.78929 203.31019 L 200.79394 203.31277 L 247.55852 128.32821 L 244.08535 126.16245 z M 148.83225 182.22207 C 182.94994 182.22207 210.93905 210.01146 210.93906 244.33973 C 210.93906 278.66802 183.15424 306.4579 148.83225 306.4579 C 114.51025 306.4579 86.725967 278.66802 86.725967 244.33973 C 86.725967 210.01146 114.51025 182.22207 148.83225 182.22207 z " />
    <g
       id="path41044-4"
       transform="matrix(3.8595323,1.2565419,-1.3856032,3.8157239,-165.52987,-382.01945)">
      <path
         style="color:#000000;fill:#ff0101;fill-opacity:0.995204;stroke-linecap:round;-inkscape-stroke:none"
         d="m 146.70703,98.783203 a 0.83388001,0.83388001 0 0 0 -0.98437,0.648438 c -1.17253,5.730729 -0.20427,12.241809 2.63867,15.484379 0.71073,0.81064 1.51635,1.36048 2.38672,1.58789 0.87037,0.2274 1.78433,0.10753 2.59179,-0.30274 1.61493,-0.82053 2.86376,-2.66036 3.70703,-5.26758 a 0.83388001,0.83388001 0 0 0 -0.5371,-1.05078 0.83388001,0.83388001 0 0 0 -1.05079,0.53711 c -0.76121,2.35352 -1.88759,3.79323 -2.875,4.29492 -0.4937,0.25085 -0.93737,0.30033 -1.41406,0.17579 -0.47668,-0.12455 -1.00819,-0.44895 -1.55469,-1.07227 -2.18599,-2.49328 -3.33833,-8.77167 -2.25781,-14.052735 a 0.83388001,0.83388001 0 0 0 -0.65039,-0.982422 z"
         id="path309" />
      <g
         id="g301">
        <path
           style="color:#000000;fill:#ff0101;stroke-linecap:round;-inkscape-stroke:none"
           d="m 146.81445,98.257812 -5.65625,3.736328 a 0.714755,0.714755 0 0 0 -0.20312,0.99024 0.714755,0.714755 0 0 0 0.99023,0.20312 l 4.46485,-2.94727 2.94726,4.4629 a 0.714755,0.714755 0 0 0 0.99024,0.20312 0.714755,0.714755 0 0 0 0.20312,-0.99023 z"
           id="path303" />
      </g>
    </g>
  </g>
</svg>
