<?xml version="1.0" encoding="UTF-8" standalone="no"?>
<!-- Created with Inkscape (http://www.inkscape.org/) -->

<svg
   width="1000"
   height="1000"
   viewBox="0 0 264.58334 264.58333"
   version="1.1"
   id="svg58221"
   inkscape:version="1.2.2 (732a01da63, 2022-12-09)"
   sodipodi:docname="CapitalX.svg"
   xmlns:inkscape="http://www.inkscape.org/namespaces/inkscape"
   xmlns:sodipodi="http://sodipodi.sourceforge.net/DTD/sodipodi-0.dtd"
   xmlns="http://www.w3.org/2000/svg"
   xmlns:svg="http://www.w3.org/2000/svg">
  <sodipodi:namedview
     id="namedview58223"
     pagecolor="#ffffff"
     bordercolor="#000000"
     borderopacity="0.25"
     inkscape:showpageshadow="2"
     inkscape:pageopacity="0.0"
     inkscape:pagecheckerboard="0"
     inkscape:deskcolor="#d1d1d1"
     inkscape:document-units="px"
     showgrid="false"
     inkscape:zoom="0.26362494"
     inkscape:cx="440.01906"
     inkscape:cy="-220.00953"
     inkscape:window-width="1920"
     inkscape:window-height="1017"
     inkscape:window-x="-8"
     inkscape:window-y="-8"
     inkscape:window-maximized="1"
     inkscape:current-layer="layer1"
     showguides="true">
    <sodipodi:guide
       position="13.229167,264.58333"
       orientation="-1,0"
       id="guide2950"
       inkscape:locked="false"
       inkscape:label=""
       inkscape:color="rgb(0,134,229)" />
    <sodipodi:guide
       position="0,79.375"
       orientation="0,1"
       id="guide2952"
       inkscape:locked="false"
       inkscape:label=""
       inkscape:color="rgb(0,134,229)" />
    <sodipodi:guide
       position="0,52.916667"
       orientation="0,1"
       id="guide2954"
       inkscape:label=""
       inkscape:locked="false"
       inkscape:color="rgb(0,134,229)" />
    <sodipodi:guide
       position="199.22728,203.26748"
       orientation="-1,0"
       id="guide2968"
       inkscape:locked="false"
       inkscape:label=""
       inkscape:color="rgb(0,134,229)" />
    <sodipodi:guide
       position="189.96686,203.26748"
       orientation="-1,0"
       id="guide2611"
       inkscape:label=""
       inkscape:locked="false"
       inkscape:color="rgb(0,134,229)" />
  </sodipodi:namedview>
  <defs
     id="defs58218" />
  <g
     inkscape:label="Layer 1"
     inkscape:groupmode="layer"
     id="layer1"
     transform="translate(-73.890164,-113.2152)">
    <path
       d="m 153.26555,319.44307 c -36.54375,0 -66.146219,-29.7919 -66.146219,-66.11356 0,-36.32163 29.602469,-66.11357 66.146219,-66.11357 36.54375,0 66.14624,29.58786 66.14624,66.11357 0,36.5257 -29.80664,66.11356 -66.14624,66.11356 z m 0,-128.14604 c -34.29805,0 -62.063121,27.75137 -62.063121,62.03248 0,34.2811 27.765071,62.03248 62.063121,62.03248 34.29804,0 62.06314,-27.75134 62.06314,-62.03248 0,-34.28111 -27.96926,-62.03248 -62.06314,-62.03248 z"
       style="display:inline;fill:#000000;fill-opacity:1;fill-rule:nonzero;stroke:none;stroke-width:2.04105"
       id="path1954" />
    <g
       id="path56743"
       transform="matrix(4.0983855,0,0,4.0963621,-215.71105,-350.55378)">
      <path
         style="color:#000000;fill:#ff0000;stroke-width:1.68202;stroke-linecap:round;-inkscape-stroke:none"
         d="m 111.96699,114.05621 v 18.11454"
         id="path9830" />
      <path
         style="color:#000000;fill:#ff0000;stroke-linecap:round;-inkscape-stroke:none"
         d="m 111.9668,113.21484 a 0.84100997,0.84100997 0 0 0 -0.83985,0.8418 v 18.11328 a 0.84100997,0.84100997 0 0 0 0.83985,0.8418 0.84100997,0.84100997 0 0 0 0.84179,-0.8418 v -18.11328 a 0.84100997,0.84100997 0 0 0 -0.84179,-0.8418 z"
         id="path9832" />
      <g
         id="g9822">
        <path
           style="color:#000000;fill:#ff0000;stroke-linecap:round;-inkscape-stroke:none"
           d="m 107.13281,127.69531 a 0.72086501,0.72086501 0 0 0 0,1.01953 l 4.83399,4.83594 4.83593,-4.83594 a 0.72086501,0.72086501 0 0 0 0,-1.01953 0.72086501,0.72086501 0 0 0 -1.01953,0 l -3.8164,3.81641 -3.81446,-3.81641 a 0.72086501,0.72086501 0 0 0 -1.01953,0 z"
           id="path9824" />
      </g>
    </g>
    <rect
       style="fill:#000000;stroke-width:3.94999"
       id="rect2960"
       width="3.7459538"
       height="40.916214"
       x="151.4527"
       y="115.65514" />
    <rect
       style="fill:#000000;stroke-width:5.15784"
       id="rect2964"
       width="3.7459538"
       height="69.765114"
       x="113.78217"
       y="-221.21782"
       transform="rotate(90)" />
    <rect
       style="fill:#000000;stroke-width:3.94999"
       id="rect2966"
       width="3.7459564"
       height="127.20128"
       x="220.08131"
       y="110.14669"
       transform="rotate(1.3)" />
  </g>
</svg>
