<?xml version="1.0" encoding="UTF-8" standalone="no"?>
<!-- Created with Inkscape (http://www.inkscape.org/) -->

<svg
   width="1000"
   height="1000"
   viewBox="0 0 264.58333 264.58333"
   version="1.1"
   id="svg36933"
   inkscape:version="1.2.2 (732a01da63, 2022-12-09)"
   sodipodi:docname="CapitalH.svg"
   xmlns:inkscape="http://www.inkscape.org/namespaces/inkscape"
   xmlns:sodipodi="http://sodipodi.sourceforge.net/DTD/sodipodi-0.dtd"
   xmlns="http://www.w3.org/2000/svg"
   xmlns:svg="http://www.w3.org/2000/svg">
  <sodipodi:namedview
     id="namedview36935"
     pagecolor="#ffffff"
     bordercolor="#000000"
     borderopacity="0.25"
     inkscape:showpageshadow="2"
     inkscape:pageopacity="0.0"
     inkscape:pagecheckerboard="0"
     inkscape:deskcolor="#d1d1d1"
     inkscape:document-units="px"
     showgrid="false"
     inkscape:zoom="0.37282198"
     inkscape:cx="-73.761745"
     inkscape:cy="630.32764"
     inkscape:window-width="1920"
     inkscape:window-height="1017"
     inkscape:window-x="-8"
     inkscape:window-y="-8"
     inkscape:window-maximized="1"
     inkscape:current-layer="layer1"
     showguides="true">
    <sodipodi:guide
       position="0,79.374999"
       orientation="0,1"
       id="guide240"
       inkscape:locked="false"
       inkscape:label=""
       inkscape:color="rgb(0,134,229)" />
    <sodipodi:guide
       position="0,52.916666"
       orientation="0,1"
       id="guide242"
       inkscape:label=""
       inkscape:locked="false"
       inkscape:color="rgb(0,134,229)" />
    <sodipodi:guide
       position="145.45446,104.00166"
       orientation="1,0"
       id="guide298"
       inkscape:locked="false" />
    <sodipodi:guide
       position="13.229166,264.58333"
       orientation="-1,0"
       id="guide317"
       inkscape:locked="false"
       inkscape:label=""
       inkscape:color="rgb(0,134,229)" />
    <sodipodi:guide
       position="26.458333,114.79074"
       orientation="-1,0"
       id="guide319"
       inkscape:locked="false"
       inkscape:label=""
       inkscape:color="rgb(0,134,229)" />
    <sodipodi:guide
       position="158.68363,104.00166"
       orientation="-1,0"
       id="guide321"
       inkscape:label=""
       inkscape:locked="false"
       inkscape:color="rgb(0,134,229)" />
    <sodipodi:guide
       position="46.187597,167.48025"
       orientation="1,0"
       id="guide6656"
       inkscape:locked="false" />
    <sodipodi:guide
       position="42.562806,167.48025"
       orientation="-1,0"
       id="guide6658"
       inkscape:label=""
       inkscape:locked="false"
       inkscape:color="rgb(0,134,229)" />
    <sodipodi:guide
       position="26.979232,216.17026"
       orientation="1,0"
       id="guide6664"
       inkscape:locked="false" />
  </sodipodi:namedview>
  <defs
     id="defs36930" />
  <g
     inkscape:label="Layer 1"
     inkscape:groupmode="layer"
     id="layer1"
     transform="translate(-26.726677,-186.02728)">
    <path
       id="path1576"
       style="color:#000000;fill:#000000;stroke-miterlimit:10;-inkscape-stroke:none"
       d="M 82.931514 187.4551 L 74.016813 282.67513 L 57.406974 270.7265 L 54.193217 234.39642 L 53.2186 234.48427 L 56.357943 269.97151 L 21.62673 244.98647 L 21.058806 245.77557 L 56.471114 271.25257 L 59.272494 302.92247 C 47.656398 326.26183 52.382223 355.52484 72.776062 373.837 C 97.131234 395.70611 134.92571 393.80738 156.92131 369.31945 C 178.91692 344.83144 176.89473 307.18016 152.40273 285.18815 C 130.25092 265.29749 97.229401 265.16402 74.938204 283.33658 L 83.906132 187.54708 L 82.931514 187.4551 z M 57.520146 272.00704 L 74.165124 283.98202 C 72.09375 285.73015 70.116867 287.63562 68.257475 289.7057 C 65.021797 293.30802 62.310764 297.20611 60.111719 301.3019 L 57.520146 272.00704 z M 112.27184 273.60488 C 125.68496 273.52557 139.16988 278.24866 149.94499 287.9239 C 172.79505 308.44157 174.82896 343.87909 154.18505 366.86223 C 133.54112 389.84534 98.220691 391.74176 75.233793 371.10125 C 52.246892 350.46071 50.350342 315.14607 70.994259 292.16292 C 81.961345 279.95314 97.070313 273.69476 112.27184 273.60488 z " />
    <rect
       style="fill:#000000;stroke-width:4.06062"
       id="rect6289"
       width="3.624794"
       height="99.576172"
       x="98.995567"
       y="178.85403"
       transform="rotate(5.35)"
       ry="0" />
    <rect
       style="fill:#000000;stroke-width:3.94999"
       id="rect6660"
       width="3.6247864"
       height="65.489357"
       x="185.37967"
       y="-226.065"
       transform="rotate(125.73718)" />
    <rect
       style="fill:#000000;stroke-width:3.94999"
       id="rect6662"
       width="3.5941973"
       height="71.379181"
       x="-34.621456"
       y="-309.64014"
       transform="rotate(174.94491)" />
    <path
       style="color:#000000;fill:#ff0101;stroke-width:0.976728;stroke-linecap:round;-inkscape-stroke:none"
       d="m 153.60273,396.26798 a 1.4393292,1.4390931 0 0 1 0.38347,1.99907 c -11.00524,16.22343 -25.82698,25.46728 -41.37133,25.46728 -15.544344,0 -30.368011,-9.24385 -41.373249,-25.46728 a 1.4393292,1.4390931 0 0 1 0.383476,-1.99907 1.4393292,1.4390931 0 0 1 1.999403,0.38341 c 10.618323,15.65307 24.586566,24.20641 38.99037,24.20641 14.40379,0 28.37013,-8.55334 38.98844,-24.20641 a 1.4393292,1.4390931 0 0 1 1.99942,-0.38341 z"
       id="path36903" />
    <path
       style="color:#000000;fill:#ff0101;stroke-width:0.976728;stroke-linecap:round;-inkscape-stroke:none"
       d="m 70.886765,395.18067 13.408238,2.5694 a 1.4393292,1.4390931 0 0 1 1.142792,1.68437 1.4393292,1.4390931 0 0 1 -1.684615,1.14261 l -10.580835,-2.02768 -2.029928,10.57907 a 1.4393292,1.4390931 0 0 1 -1.684616,1.14258 1.4393292,1.4390931 0 0 1 -1.142789,-1.6843 z"
       id="path36897" />
    <path
       style="color:#000000;fill:#ff0101;stroke-width:0.976728;stroke-linecap:round;-inkscape-stroke:none"
       d="m 154.34106,395.18067 2.57175,13.40605 a 1.4393292,1.4390931 0 0 1 -1.14278,1.6843 1.4393292,1.4390931 0 0 1 -1.68462,-1.14258 l -2.02802,-10.57907 -10.58085,2.02768 a 1.4393292,1.4390931 0 0 1 -1.6846,-1.14261 1.4393292,1.4390931 0 0 1 1.14087,-1.68437 z"
       id="path36885" />
  </g>
</svg>
