<?xml version="1.0" encoding="UTF-8" standalone="no"?>
<!-- Created with Inkscape (http://www.inkscape.org/) -->

<svg
   width="1000"
   height="1000"
   viewBox="0 0 264.58334 264.58333"
   version="1.1"
   id="svg46614"
   inkscape:version="1.2.2 (732a01da63, 2022-12-09)"
   sodipodi:docname="CapitalR.svg"
   xmlns:inkscape="http://www.inkscape.org/namespaces/inkscape"
   xmlns:sodipodi="http://sodipodi.sourceforge.net/DTD/sodipodi-0.dtd"
   xmlns="http://www.w3.org/2000/svg"
   xmlns:svg="http://www.w3.org/2000/svg">
  <sodipodi:namedview
     id="namedview46616"
     pagecolor="#ffffff"
     bordercolor="#000000"
     borderopacity="0.25"
     inkscape:showpageshadow="2"
     inkscape:pageopacity="0.0"
     inkscape:pagecheckerboard="0"
     inkscape:deskcolor="#d1d1d1"
     inkscape:document-units="px"
     showgrid="false"
     inkscape:zoom="1.0544998"
     inkscape:cx="111.9014"
     inkscape:cy="261.73547"
     inkscape:window-width="1920"
     inkscape:window-height="1017"
     inkscape:window-x="-8"
     inkscape:window-y="-8"
     inkscape:window-maximized="1"
     inkscape:current-layer="layer1"
     showguides="true">
    <sodipodi:guide
       position="0,52.916667"
       orientation="0,1"
       id="guide951"
       inkscape:locked="false"
       inkscape:label=""
       inkscape:color="rgb(0,134,229)" />
    <sodipodi:guide
       position="0,79.375"
       orientation="0,1"
       id="guide953"
       inkscape:label=""
       inkscape:locked="false"
       inkscape:color="rgb(0,134,229)" />
    <sodipodi:guide
       position="13.229167,264.58333"
       orientation="-1,0"
       id="guide955"
       inkscape:locked="false"
       inkscape:label=""
       inkscape:color="rgb(0,134,229)" />
    <sodipodi:guide
       position="145.59458,126.42225"
       orientation="1,0"
       id="guide977"
       inkscape:locked="false" />
    <sodipodi:guide
       position="158.82375,126.42225"
       orientation="-1,0"
       id="guide979"
       inkscape:label=""
       inkscape:locked="false"
       inkscape:color="rgb(0,134,229)" />
  </sodipodi:namedview>
  <defs
     id="defs46611" />
  <g
     inkscape:label="Layer 1"
     inkscape:groupmode="layer"
     id="layer1"
     transform="translate(-86.970915,-137.29295)">
    <path
       id="path1744"
       style="display:inline;fill:#000000;fill-opacity:1;fill-rule:nonzero;stroke:none;stroke-width:2.04231"
       d="M 144.12143 136.99943 L 133.44456 190.58014 L 101.95553 137.29243 L 98.438432 139.37034 L 132.24774 196.58442 L 127.13694 222.2335 C 110.79763 234.31709 100.20008 253.71525 100.20008 275.45403 C 100.20008 311.8007 129.81873 341.6133 166.38261 341.6133 C 202.74219 341.6133 232.56565 312.00491 232.56565 275.45403 C 232.56565 238.90314 202.94648 209.29476 166.38261 209.29476 C 159.38824 209.29476 152.64971 210.38938 146.32233 212.40826 L 146.33783 212.39896 L 136.5591 195.85113 L 148.12791 137.79783 L 144.12143 136.99943 z M 135.36279 201.85593 L 142.41559 213.79112 C 138.75793 215.21844 135.2576 216.96086 131.94905 218.98667 L 135.36279 201.85593 z M 166.38261 213.37875 C 200.49524 213.37875 228.48011 241.1493 228.48011 275.45403 C 228.48011 309.75874 200.69953 337.52931 166.38261 337.52931 C 132.06568 337.52931 104.28562 309.75874 104.28562 275.45403 C 104.28562 241.1493 132.06568 213.37875 166.38261 213.37875 z " />
  </g>
</svg>
