<?xml version="1.0" encoding="UTF-8" standalone="no"?>
<!-- Created with Inkscape (http://www.inkscape.org/) -->

<svg
   width="1000"
   height="1000"
   viewBox="0 0 264.58333 264.58333"
   version="1.1"
   id="svg59379"
   inkscape:version="1.2.2 (732a01da63, 2022-12-09)"
   sodipodi:docname="CapitalY.svg"
   xmlns:inkscape="http://www.inkscape.org/namespaces/inkscape"
   xmlns:sodipodi="http://sodipodi.sourceforge.net/DTD/sodipodi-0.dtd"
   xmlns="http://www.w3.org/2000/svg"
   xmlns:svg="http://www.w3.org/2000/svg">
  <sodipodi:namedview
     id="namedview59381"
     pagecolor="#ffffff"
     bordercolor="#000000"
     borderopacity="0.25"
     inkscape:showpageshadow="2"
     inkscape:pageopacity="0.0"
     inkscape:pagecheckerboard="0"
     inkscape:deskcolor="#d1d1d1"
     inkscape:document-units="px"
     showgrid="false"
     inkscape:zoom="0.74564395"
     inkscape:cx="218.60299"
     inkscape:cy="336.62179"
     inkscape:window-width="1920"
     inkscape:window-height="1017"
     inkscape:window-x="-8"
     inkscape:window-y="-8"
     inkscape:window-maximized="1"
     inkscape:current-layer="layer1"
     showguides="true">
    <sodipodi:guide
       position="0,79.374999"
       orientation="0,1"
       id="guide240"
       inkscape:locked="false"
       inkscape:label=""
       inkscape:color="rgb(0,134,229)" />
    <sodipodi:guide
       position="0,52.916666"
       orientation="0,1"
       id="guide242"
       inkscape:label=""
       inkscape:locked="false"
       inkscape:color="rgb(0,134,229)" />
    <sodipodi:guide
       position="246.36595,153.88584"
       orientation="-1,0"
       id="guide412"
       inkscape:locked="false"
       inkscape:label=""
       inkscape:color="rgb(0,134,229)" />
    <sodipodi:guide
       position="13.229166,143.39435"
       orientation="-1,0"
       id="guide2799"
       inkscape:locked="false"
       inkscape:label=""
       inkscape:color="rgb(0,134,229)" />
    <sodipodi:guide
       position="255.62637,153.88584"
       orientation="-1,0"
       id="guide297"
       inkscape:label=""
       inkscape:locked="false"
       inkscape:color="rgb(0,134,229)" />
  </sodipodi:namedview>
  <defs
     id="defs59376" />
  <g
     inkscape:label="Layer 1"
     inkscape:groupmode="layer"
     id="layer1"
     transform="translate(-54.425613,-125.33614)">
    <path
       id="path1998"
       style="display:inline;fill:#000000;fill-opacity:1;fill-rule:nonzero;stroke:none;stroke-width:2.04316"
       d="m 257.31452,126.16245 -46.06747,73.86629 c -12.1134,-13.4432 -29.65814,-21.89376 -49.18563,-21.89376 -20.94468,0 -39.60719,9.78923 -51.73431,24.98504 l -39.430152,-51.16483 -3.242179,2.49855 40.128811,52.07021 c -7.50732,10.74415 -11.914513,23.7926 -11.914513,37.81578 0,36.37165 29.623073,66.20474 66.192343,66.20474 36.36497,0 66.19286,-29.62876 66.19286,-66.20474 0,-15.49997 -5.32187,-29.75098 -14.23582,-41.02954 l 0.005,0.003 46.76458,-74.98456 z m -95.2531,56.05962 c 34.11769,0 62.1068,27.78939 62.10681,62.11766 0,34.32829 -27.78482,62.11817 -62.10681,62.11817 -34.322,0 -62.106287,-27.78988 -62.106287,-62.11817 0,-34.32827 27.784287,-62.11766 62.106287,-62.11766 z" />
    <g
       id="path41044-4"
       transform="matrix(3.8595323,1.2565419,-1.3856032,3.8157239,-152.3007,-382.01945)">
      <path
         style="color:#000000;fill:#ff0101;fill-opacity:0.995204;stroke-linecap:round;-inkscape-stroke:none"
         d="m 146.70703,98.783203 a 0.83388001,0.83388001 0 0 0 -0.98437,0.648438 c -1.17253,5.730729 -0.20427,12.241809 2.63867,15.484379 0.71073,0.81064 1.51635,1.36048 2.38672,1.58789 0.87037,0.2274 1.78433,0.10753 2.59179,-0.30274 1.61493,-0.82053 2.86376,-2.66036 3.70703,-5.26758 a 0.83388001,0.83388001 0 0 0 -0.5371,-1.05078 0.83388001,0.83388001 0 0 0 -1.05079,0.53711 c -0.76121,2.35352 -1.88759,3.79323 -2.875,4.29492 -0.4937,0.25085 -0.93737,0.30033 -1.41406,0.17579 -0.47668,-0.12455 -1.00819,-0.44895 -1.55469,-1.07227 -2.18599,-2.49328 -3.33833,-8.77167 -2.25781,-14.052735 a 0.83388001,0.83388001 0 0 0 -0.65039,-0.982422 z"
         id="path309" />
      <g
         id="g301">
        <path
           style="color:#000000;fill:#ff0101;stroke-linecap:round;-inkscape-stroke:none"
           d="m 146.81445,98.257812 -5.65625,3.736328 a 0.714755,0.714755 0 0 0 -0.20312,0.99024 0.714755,0.714755 0 0 0 0.99023,0.20312 l 4.46485,-2.94727 2.94726,4.4629 a 0.714755,0.714755 0 0 0 0.99024,0.20312 0.714755,0.714755 0 0 0 0.20312,-0.99023 z"
           id="path303" />
      </g>
    </g>
  </g>
</svg>
