<?xml version="1.0" encoding="UTF-8" standalone="no"?>
<!-- Created with Inkscape (http://www.inkscape.org/) -->

<svg
   width="1000"
   height="1000"
   viewBox="0 0 264.58333 264.58333"
   version="1.1"
   id="svg36933"
   inkscape:version="1.2.2 (732a01da63, 2022-12-09)"
   sodipodi:docname="CapitalH.svg"
   xmlns:inkscape="http://www.inkscape.org/namespaces/inkscape"
   xmlns:sodipodi="http://sodipodi.sourceforge.net/DTD/sodipodi-0.dtd"
   xmlns="http://www.w3.org/2000/svg"
   xmlns:svg="http://www.w3.org/2000/svg">
  <sodipodi:namedview
     id="namedview36935"
     pagecolor="#ffffff"
     bordercolor="#000000"
     borderopacity="0.25"
     inkscape:showpageshadow="2"
     inkscape:pageopacity="0.0"
     inkscape:pagecheckerboard="0"
     inkscape:deskcolor="#d1d1d1"
     inkscape:document-units="px"
     showgrid="false"
     inkscape:zoom="0.5272499"
     inkscape:cx="278.80517"
     inkscape:cy="464.67529"
     inkscape:window-width="1920"
     inkscape:window-height="1017"
     inkscape:window-x="-8"
     inkscape:window-y="-8"
     inkscape:window-maximized="1"
     inkscape:current-layer="layer1"
     showguides="true">
    <sodipodi:guide
       position="0,79.374999"
       orientation="0,1"
       id="guide240"
       inkscape:locked="false"
       inkscape:label=""
       inkscape:color="rgb(0,134,229)" />
    <sodipodi:guide
       position="0,52.916666"
       orientation="0,1"
       id="guide242"
       inkscape:label=""
       inkscape:locked="false"
       inkscape:color="rgb(0,134,229)" />
    <sodipodi:guide
       position="152.23255,121.31438"
       orientation="1,0"
       id="guide298"
       inkscape:locked="false" />
    <sodipodi:guide
       position="13.229166,264.58333"
       orientation="-1,0"
       id="guide1625"
       inkscape:locked="false"
       inkscape:label=""
       inkscape:color="rgb(0,134,229)" />
    <sodipodi:guide
       position="85.888193,26.87628"
       orientation="0,-1"
       id="guide1914"
       inkscape:locked="false" />
    <sodipodi:guide
       position="165.46172,121.31438"
       orientation="-1,0"
       id="guide1916"
       inkscape:label=""
       inkscape:locked="false"
       inkscape:color="rgb(0,134,229)" />
  </sodipodi:namedview>
  <defs
     id="defs36930" />
  <g
     inkscape:label="Layer 1"
     inkscape:groupmode="layer"
     id="layer1"
     transform="translate(-26.726677,-186.02728)">
    <path
       id="path1576"
       style="color:#000000;fill:#000000;stroke-miterlimit:10;-inkscape-stroke:none"
       d="m 89.709653,187.4551 -8.914701,95.22003 -16.609839,-11.94863 -3.213757,-36.33008 -0.974617,0.0879 3.139343,35.48724 -34.731213,-24.98504 -0.567924,0.7891 35.412308,25.477 2.80138,31.6699 c -11.616096,23.33936 -6.890271,52.60237 13.503568,70.91453 24.355169,21.86911 62.149649,19.97038 84.145249,-4.51755 21.99561,-24.48801 19.97342,-62.13929 -4.51858,-84.1313 -22.15181,-19.89066 -55.17333,-20.02413 -77.464527,-1.85157 l 8.967928,-95.7895 z m -25.411368,84.55194 16.644978,11.97498 c -2.071374,1.74813 -4.048257,3.6536 -5.907649,5.72368 -3.235678,3.60232 -5.946711,7.50041 -8.145756,11.5962 z m 54.751695,1.59784 c 13.41312,-0.0793 26.89804,4.64378 37.67315,14.31902 22.85006,20.51767 24.88397,55.95519 4.24006,78.93833 -20.64393,22.98311 -55.96436,24.87953 -78.951258,4.23902 -22.986901,-20.64054 -24.883451,-55.95518 -4.239534,-78.93833 10.967086,-12.20978 26.076052,-18.46816 41.277582,-18.55804 z" />
    <rect
       style="fill:#000000;stroke-width:4.06062"
       id="rect6289"
       width="3.624794"
       height="99.576172"
       x="105.74418"
       y="178.22205"
       transform="rotate(5.35)"
       ry="0" />
    <rect
       style="fill:#000000;stroke-width:3.94999"
       id="rect6660"
       width="3.6247864"
       height="65.489357"
       x="181.42078"
       y="-231.56685"
       transform="rotate(125.73718)" />
    <rect
       style="fill:#000000;stroke-width:3.94999"
       id="rect6662"
       width="3.5941973"
       height="71.379181"
       x="-41.37323"
       y="-310.2374"
       transform="rotate(174.94491)" />
    <path
       style="color:#000000;fill:#ff0101;stroke-width:0.976728;stroke-linecap:round;-inkscape-stroke:none"
       d="m 160.38087,396.26798 a 1.4393292,1.4390931 0 0 1 0.38347,1.99907 c -11.00524,16.22343 -25.82698,25.46728 -41.37133,25.46728 -15.54435,0 -30.368012,-9.24385 -41.37325,-25.46728 a 1.4393292,1.4390931 0 0 1 0.383476,-1.99907 1.4393292,1.4390931 0 0 1 1.999403,0.38341 c 10.618323,15.65307 24.586561,24.20641 38.990371,24.20641 14.40379,0 28.37013,-8.55334 38.98844,-24.20641 a 1.4393292,1.4390931 0 0 1 1.99942,-0.38341 z"
       id="path36903" />
    <path
       style="color:#000000;fill:#ff0101;stroke-width:0.976728;stroke-linecap:round;-inkscape-stroke:none"
       d="m 77.664904,395.18067 13.408238,2.5694 a 1.4393292,1.4390931 0 0 1 1.142792,1.68437 1.4393292,1.4390931 0 0 1 -1.684615,1.14261 l -10.580835,-2.02768 -2.029928,10.57907 a 1.4393292,1.4390931 0 0 1 -1.684616,1.14258 1.4393292,1.4390931 0 0 1 -1.142789,-1.6843 z"
       id="path36897" />
    <path
       style="color:#000000;fill:#ff0101;stroke-width:0.976728;stroke-linecap:round;-inkscape-stroke:none"
       d="m 161.1192,395.18067 2.57175,13.40605 a 1.4393292,1.4390931 0 0 1 -1.14278,1.6843 1.4393292,1.4390931 0 0 1 -1.68462,-1.14258 l -2.02802,-10.57907 -10.58085,2.02768 a 1.4393292,1.4390931 0 0 1 -1.6846,-1.14261 1.4393292,1.4390931 0 0 1 1.14087,-1.68437 z"
       id="path36885" />
  </g>
</svg>
