<?xml version="1.0" encoding="UTF-8" standalone="no"?>
<!-- Created with Inkscape (http://www.inkscape.org/) -->

<svg
   width="1000"
   height="1000"
   viewBox="0 0 264.58333 264.58332"
   version="1.1"
   id="svg45951"
   inkscape:version="1.2.2 (732a01da63, 2022-12-09)"
   sodipodi:docname="CapitalO.svg"
   xmlns:inkscape="http://www.inkscape.org/namespaces/inkscape"
   xmlns:sodipodi="http://sodipodi.sourceforge.net/DTD/sodipodi-0.dtd"
   xmlns="http://www.w3.org/2000/svg"
   xmlns:svg="http://www.w3.org/2000/svg">
  <sodipodi:namedview
     id="namedview45953"
     pagecolor="#ffffff"
     bordercolor="#000000"
     borderopacity="0.25"
     inkscape:showpageshadow="2"
     inkscape:pageopacity="0.0"
     inkscape:pagecheckerboard="0"
     inkscape:deskcolor="#d1d1d1"
     inkscape:document-units="px"
     showgrid="false"
     inkscape:zoom="0.52724989"
     inkscape:cx="164.05883"
     inkscape:cy="506.40125"
     inkscape:window-width="1920"
     inkscape:window-height="1017"
     inkscape:window-x="-8"
     inkscape:window-y="-8"
     inkscape:window-maximized="1"
     inkscape:current-layer="layer1"
     showguides="true">
    <sodipodi:guide
       position="0,79.374998"
       orientation="0,1"
       id="guide6008"
       inkscape:locked="false"
       inkscape:label=""
       inkscape:color="rgb(0,134,229)" />
    <sodipodi:guide
       position="0,52.916665"
       orientation="0,1"
       id="guide6010"
       inkscape:label=""
       inkscape:locked="false"
       inkscape:color="rgb(0,134,229)" />
    <sodipodi:guide
       position="13.229166,264.58333"
       orientation="-1,0"
       id="guide6012"
       inkscape:locked="false"
       inkscape:label=""
       inkscape:color="rgb(0,134,229)" />
    <sodipodi:guide
       position="145.52083,145.5208"
       orientation="1,0"
       id="guide6014"
       inkscape:locked="false" />
    <sodipodi:guide
       position="158.75,145.5208"
       orientation="-1,0"
       id="guide6016"
       inkscape:label=""
       inkscape:locked="false"
       inkscape:color="rgb(0,134,229)" />
  </sodipodi:namedview>
  <defs
     id="defs45948" />
  <g
     inkscape:label="Layer 1"
     inkscape:groupmode="layer"
     id="layer1"
     transform="translate(-73.474638,-156.15206)">
    <path
       d="m 152.84964,341.36039 c -36.54353,0 -66.145836,-29.80645 -66.145836,-66.14581 0,-36.3394 29.602306,-66.14585 66.145836,-66.14585 36.54353,0 66.14583,29.60229 66.14583,66.14585 0,36.54353 -29.80646,66.14581 -66.14583,66.14581 z m 0,-128.20857 c -34.29784,0 -62.062762,27.76489 -62.062762,62.06276 0,34.29784 27.764922,62.06276 62.062762,62.06276 34.29784,0 62.06274,-27.76492 62.06274,-62.06276 0,-34.29787 -27.96907,-62.06276 -62.06274,-62.06276 z"
       style="display:inline;fill:#000000;fill-opacity:1;fill-rule:nonzero;stroke:none;stroke-width:2.04154"
       id="path1692" />
    <path
       d="m 153.24718,308.95828 c -18.42277,0 -33.34624,-15.02639 -33.34624,-33.34624 0,-18.31986 14.92347,-33.34625 33.34624,-33.34625 18.42277,0 33.34624,14.92348 33.34624,33.34625 0,18.42276 -15.02639,33.34624 -33.34624,33.34624 z m 0,-64.63408 c -17.29064,0 -31.28783,13.99721 -31.28783,31.28784 0,17.29062 13.99719,31.28783 31.28783,31.28783 17.29064,0 31.28783,-13.99717 31.28783,-31.28783 0,-17.29063 -14.10011,-31.28784 -31.28783,-31.28784 z"
       style="display:inline;fill:#000000;fill-opacity:1;fill-rule:nonzero;stroke:none;stroke-width:1.0292"
       id="path1704" />
  </g>
</svg>
