<?xml version="1.0" encoding="UTF-8" standalone="no"?>
<!-- Created with Inkscape (http://www.inkscape.org/) -->

<svg
   width="33.865215mm"
   height="45.5984mm"
   viewBox="0 0 33.865215 45.5984"
   version="1.1"
   id="svg26432"
   inkscape:version="1.2.2 (732a01da63, 2022-12-09)"
   sodipodi:docname="g.svg"
   xmlns:inkscape="http://www.inkscape.org/namespaces/inkscape"
   xmlns:sodipodi="http://sodipodi.sourceforge.net/DTD/sodipodi-0.dtd"
   xmlns="http://www.w3.org/2000/svg"
   xmlns:svg="http://www.w3.org/2000/svg">
  <sodipodi:namedview
     id="namedview26434"
     pagecolor="#ffffff"
     bordercolor="#000000"
     borderopacity="0.25"
     inkscape:showpageshadow="2"
     inkscape:pageopacity="0.0"
     inkscape:pagecheckerboard="0"
     inkscape:deskcolor="#d1d1d1"
     inkscape:document-units="mm"
     showgrid="false"
     inkscape:zoom="0.74564394"
     inkscape:cx="-355.39751"
     inkscape:cy="136.79451"
     inkscape:window-width="1920"
     inkscape:window-height="1017"
     inkscape:window-x="-8"
     inkscape:window-y="-8"
     inkscape:window-maximized="1"
     inkscape:current-layer="layer1" />
  <defs
     id="defs26429" />
  <g
     inkscape:label="Layer 1"
     inkscape:groupmode="layer"
     id="layer1"
     transform="translate(-147.35815,-112.39434)">
    <path
       d="m 166.50333,157.99274 c -8.13236,0 -14.72003,-6.63311 -14.72003,-14.72004 0,-8.08693 6.58767,-14.72003 14.72003,-14.72003 8.13237,0 14.72004,6.58767 14.72004,14.72003 0,8.13237 -6.63311,14.72004 -14.72004,14.72004 z m 0,-28.53143 c -7.63261,0 -13.81139,6.17878 -13.81139,13.81139 0,7.63261 6.17878,13.81139 13.81139,13.81139 7.63261,0 13.81139,-6.17878 13.81139,-13.81139 0,-7.63261 -6.22421,-13.81139 -13.81139,-13.81139 z"
       style="display:inline;fill:#000000;fill-opacity:1;fill-rule:nonzero;stroke:none;stroke-width:0.454322"
       id="path1002" />
    <path
       d="m 154.87723,112.40926 -2.53228,32.40238"
       style="display:inline;fill:none;stroke:#000000;stroke-width:0.383008;stroke-linecap:butt;stroke-linejoin:miter;stroke-miterlimit:10;stroke-dasharray:none;stroke-opacity:1"
       id="path1014" />
    <path
       d="m 147.53763,128.55506 5.07379,14.43272"
       style="display:inline;fill:none;stroke:#000000;stroke-width:0.380485;stroke-linecap:butt;stroke-linejoin:miter;stroke-miterlimit:10;stroke-dasharray:none;stroke-opacity:1"
       id="path1018" />
  </g>
</svg>
