<?xml version="1.0" encoding="UTF-8" standalone="no"?>
<!-- Created with Inkscape (http://www.inkscape.org/) -->

<svg
   width="40.933743mm"
   height="64.397049mm"
   viewBox="0 0 40.933743 64.397049"
   version="1.1"
   id="svg36933"
   inkscape:version="1.2.2 (732a01da63, 2022-12-09)"
   sodipodi:docname="h.svg"
   xmlns:inkscape="http://www.inkscape.org/namespaces/inkscape"
   xmlns:sodipodi="http://sodipodi.sourceforge.net/DTD/sodipodi-0.dtd"
   xmlns="http://www.w3.org/2000/svg"
   xmlns:svg="http://www.w3.org/2000/svg">
  <sodipodi:namedview
     id="namedview36935"
     pagecolor="#ffffff"
     bordercolor="#000000"
     borderopacity="0.25"
     inkscape:showpageshadow="2"
     inkscape:pageopacity="0.0"
     inkscape:pagecheckerboard="0"
     inkscape:deskcolor="#d1d1d1"
     inkscape:document-units="mm"
     showgrid="false"
     inkscape:zoom="0.74564394"
     inkscape:cx="100.5842"
     inkscape:cy="-140.81788"
     inkscape:window-width="1920"
     inkscape:window-height="1017"
     inkscape:window-x="-8"
     inkscape:window-y="-8"
     inkscape:window-maximized="1"
     inkscape:current-layer="layer1" />
  <defs
     id="defs36930" />
  <g
     inkscape:label="Layer 1"
     inkscape:groupmode="layer"
     id="layer1"
     transform="translate(-26.726677,-186.02728)">
    <path
       d="m 26.803709,202.10666 14.820604,10.66432"
       style="display:inline;fill:none;stroke:#000000;stroke-width:0.263778;stroke-linecap:butt;stroke-linejoin:miter;stroke-miterlimit:10;stroke-dasharray:none;stroke-opacity:1"
       id="path1576" />
    <path
       d="m 35.569651,199.14286 1.725385,19.50557"
       style="display:inline;fill:none;stroke:#000000;stroke-width:0.2652;stroke-linecap:butt;stroke-linejoin:miter;stroke-miterlimit:10;stroke-dasharray:none;stroke-opacity:1"
       id="path1572" />
    <path
       d="M 43.716974,186.03963 41.275486,212.1208"
       style="display:inline;fill:none;stroke:#000000;stroke-width:0.26498;stroke-linecap:butt;stroke-linejoin:miter;stroke-miterlimit:10;stroke-dasharray:none;stroke-opacity:1"
       id="path1568" />
    <path
       d="m 40.735109,236.90672 c -6.634025,-5.95784 -7.148486,-16.19502 -1.223931,-22.79198 5.924556,-6.59696 16.157953,-7.18177 22.791976,-1.22393 6.634024,5.95784 7.18177,16.15795 1.22393,22.79198 -5.957839,6.63402 -16.195013,7.14848 -22.791975,1.22393 z m 20.902366,-23.27468 c -6.226347,-5.59171 -15.793349,-5.07796 -21.385066,1.14838 -5.591715,6.22635 -5.077966,15.79335 1.148381,21.38507 6.226344,5.59171 15.793347,5.07796 21.385064,-1.14838 5.591715,-6.22635 5.040903,-15.82664 -1.148379,-21.38507 z"
       style="display:inline;fill:#000000;fill-opacity:1;fill-rule:nonzero;stroke:none;stroke-width:0.498136"
       id="path1556" />
    <path
       style="color:#000000;fill:#ff0101;stroke-width:0.264583;stroke-linecap:round;-inkscape-stroke:none"
       d="m 62.628168,242.98344 a 0.38986354,0.38986354 0 0 1 0.10387,0.54157 c -2.980931,4.39508 -6.99562,6.89932 -11.206035,6.89932 -4.210415,0 -8.225621,-2.50424 -11.206552,-6.89932 a 0.38986354,0.38986354 0 0 1 0.10387,-0.54157 0.38986354,0.38986354 0 0 1 0.541568,0.10387 c 2.876129,4.24056 6.659634,6.55774 10.561114,6.55774 3.901479,0 7.684468,-2.31718 10.560595,-6.55774 a 0.38986354,0.38986354 0 0 1 0.54157,-0.10387 z"
       id="path36903" />
    <path
       style="color:#000000;fill:#ff0101;stroke-width:0.264583;stroke-linecap:round;-inkscape-stroke:none"
       d="m 40.223333,242.68888 3.631819,0.69608 a 0.38986354,0.38986354 0 0 1 0.309542,0.45631 0.38986354,0.38986354 0 0 1 -0.456303,0.30954 l -2.865975,-0.54932 -0.549836,2.86597 a 0.38986354,0.38986354 0 0 1 -0.456303,0.30954 0.38986354,0.38986354 0 0 1 -0.309541,-0.4563 z"
       id="path36897" />
    <path
       style="color:#000000;fill:#ff0101;stroke-width:0.264583;stroke-linecap:round;-inkscape-stroke:none"
       d="m 62.828156,242.68888 0.696597,3.63182 a 0.38986354,0.38986354 0 0 1 -0.309541,0.4563 0.38986354,0.38986354 0 0 1 -0.456303,-0.30954 l -0.54932,-2.86597 -2.865977,0.54932 a 0.38986354,0.38986354 0 0 1 -0.456301,-0.30954 0.38986354,0.38986354 0 0 1 0.309023,-0.45631 z"
       id="path36885" />
  </g>
</svg>
