<?xml version="1.0" encoding="UTF-8" standalone="no"?>
<!-- Created with Inkscape (http://www.inkscape.org/) -->

<svg
   width="33.337498mm"
   height="39.895111mm"
   viewBox="0 0 33.337498 39.895111"
   version="1.1"
   id="svg39445"
   inkscape:version="1.2.2 (732a01da63, 2022-12-09)"
   sodipodi:docname="i.svg"
   xmlns:inkscape="http://www.inkscape.org/namespaces/inkscape"
   xmlns:sodipodi="http://sodipodi.sourceforge.net/DTD/sodipodi-0.dtd"
   xmlns="http://www.w3.org/2000/svg"
   xmlns:svg="http://www.w3.org/2000/svg">
  <sodipodi:namedview
     id="namedview39447"
     pagecolor="#ffffff"
     bordercolor="#000000"
     borderopacity="0.25"
     inkscape:showpageshadow="2"
     inkscape:pageopacity="0.0"
     inkscape:pagecheckerboard="0"
     inkscape:deskcolor="#d1d1d1"
     inkscape:document-units="mm"
     showgrid="false"
     inkscape:zoom="0.74564394"
     inkscape:cx="100.5842"
     inkscape:cy="142.159"
     inkscape:window-width="1920"
     inkscape:window-height="1017"
     inkscape:window-x="-8"
     inkscape:window-y="-8"
     inkscape:window-maximized="1"
     inkscape:current-layer="layer1" />
  <defs
     id="defs39442" />
  <g
     inkscape:label="Layer 1"
     inkscape:groupmode="layer"
     id="layer1"
     transform="translate(-26.621573,-110.98793)">
    <path
       d="m 43.290323,150.88304 c -9.208971,0 -16.66875,-7.51123 -16.66875,-16.66875 0,-9.15752 7.459779,-16.66875 16.66875,-16.66875 9.208969,0 16.668749,7.45978 16.668749,16.66875 0,9.20897 -7.511227,16.66875 -16.668749,16.66875 z m 0,-32.30856 c -8.643056,0 -15.639815,6.99675 -15.639815,15.63981 0,8.64305 6.996759,15.63981 15.639815,15.63981 8.643054,0 15.639814,-6.99675 15.639814,-15.63981 -2e-6,-8.64306 -7.048208,-15.63981 -15.639814,-15.63981 z"
       style="display:inline;fill:#000000;fill-opacity:1;fill-rule:nonzero;stroke:none;stroke-width:0.514468"
       id="path1182" />
    <path
       d="m 58.734767,110.99111 0.637004,26.45383"
       style="display:inline;fill:none;stroke:#000000;stroke-width:0.264439;stroke-linecap:butt;stroke-linejoin:miter;stroke-miterlimit:10;stroke-dasharray:none;stroke-opacity:1"
       id="path1194" />
  </g>
</svg>
