<?xml version="1.0" encoding="UTF-8" standalone="no"?>
<!-- Created with Inkscape (http://www.inkscape.org/) -->

<svg
   width="48.990143mm"
   height="47.738983mm"
   viewBox="0 0 48.990143 47.738983"
   version="1.1"
   id="svg45406"
   inkscape:version="1.2.2 (732a01da63, 2022-12-09)"
   sodipodi:docname="l.svg"
   xmlns:inkscape="http://www.inkscape.org/namespaces/inkscape"
   xmlns:sodipodi="http://sodipodi.sourceforge.net/DTD/sodipodi-0.dtd"
   xmlns="http://www.w3.org/2000/svg"
   xmlns:svg="http://www.w3.org/2000/svg">
  <sodipodi:namedview
     id="namedview45408"
     pagecolor="#ffffff"
     bordercolor="#000000"
     borderopacity="0.25"
     inkscape:showpageshadow="2"
     inkscape:pageopacity="0.0"
     inkscape:pagecheckerboard="0"
     inkscape:deskcolor="#d1d1d1"
     inkscape:document-units="mm"
     showgrid="false"
     inkscape:zoom="0.74564394"
     inkscape:cx="-50.962662"
     inkscape:cy="29.504699"
     inkscape:window-width="1920"
     inkscape:window-height="1017"
     inkscape:window-x="-8"
     inkscape:window-y="-8"
     inkscape:window-maximized="1"
     inkscape:current-layer="layer1" />
  <defs
     id="defs45403" />
  <g
     inkscape:label="Layer 1"
     inkscape:groupmode="layer"
     id="layer1"
     transform="translate(-66.698477,-140.77567)">
    <path
       d="m 99.681329,188.51465 c -8.843535,0 -16.007291,-7.21316 -16.007291,-16.00729 0,-8.79413 7.163756,-16.00729 16.007291,-16.00729 8.843531,0 16.007291,7.16376 16.007291,16.00729 0,8.84354 -7.21316,16.00729 -16.007291,16.00729 z m 0,-31.02648 c -8.300077,0 -15.019187,6.71911 -15.019187,15.01919 0,8.30008 6.71911,15.01919 15.019187,15.01919 8.300081,0 15.019191,-6.71911 15.019191,-15.01919 -1e-5,-8.30008 -6.76852,-15.01919 -15.019191,-15.01919 z"
       style="display:inline;fill:#000000;fill-opacity:1;fill-rule:nonzero;stroke:none;stroke-width:0.494052"
       id="path1266" />
    <path
       d="M 84.227704,172.52379 83.673123,140.77798"
       style="display:inline;fill:none;stroke:#000000;stroke-width:0.264721;stroke-linecap:butt;stroke-linejoin:miter;stroke-miterlimit:10;stroke-dasharray:none;stroke-opacity:1"
       id="path1278" />
    <path
       d="M 86.279867,180.31219 H 66.698477"
       style="display:inline;fill:none;stroke:#000000;stroke-width:0.264388;stroke-linecap:butt;stroke-linejoin:miter;stroke-miterlimit:10;stroke-dasharray:none;stroke-opacity:1"
       id="path1282" />
  </g>
</svg>
