<?xml version="1.0" encoding="UTF-8" standalone="no"?>
<!-- Created with Inkscape (http://www.inkscape.org/) -->

<svg
   width="37.570835mm"
   height="55.359901mm"
   viewBox="0 0 37.570835 55.359901"
   version="1.1"
   id="svg45775"
   inkscape:version="1.2.2 (732a01da63, 2022-12-09)"
   sodipodi:docname="n.svg"
   xmlns:inkscape="http://www.inkscape.org/namespaces/inkscape"
   xmlns:sodipodi="http://sodipodi.sourceforge.net/DTD/sodipodi-0.dtd"
   xmlns="http://www.w3.org/2000/svg"
   xmlns:svg="http://www.w3.org/2000/svg">
  <sodipodi:namedview
     id="namedview45777"
     pagecolor="#ffffff"
     bordercolor="#000000"
     borderopacity="0.25"
     inkscape:showpageshadow="2"
     inkscape:pageopacity="0.0"
     inkscape:pagecheckerboard="0"
     inkscape:deskcolor="#d1d1d1"
     inkscape:document-units="mm"
     showgrid="false"
     inkscape:zoom="0.74564394"
     inkscape:cx="-174.34595"
     inkscape:cy="40.23368"
     inkscape:window-width="1920"
     inkscape:window-height="1017"
     inkscape:window-x="-8"
     inkscape:window-y="-8"
     inkscape:window-maximized="1"
     inkscape:current-layer="layer1" />
  <defs
     id="defs45772" />
  <g
     inkscape:label="Layer 1"
     inkscape:groupmode="layer"
     id="layer1"
     transform="translate(-99.375875,-138.02973)">
    <path
       d="m 118.16129,175.60056 c -10.37836,0 -18.785415,-8.46503 -18.785415,-18.78541 0,-10.32039 8.407055,-18.78542 18.785415,-18.78542 10.37836,0 18.78542,8.40705 18.78542,18.78542 0,10.37836 -8.46504,18.78541 -18.78542,18.78541 z m 0,-36.41124 c -9.74059,0 -17.62582,7.88524 -17.62582,17.62583 0,9.74058 7.88523,17.62582 17.62582,17.62582 9.74059,0 17.62582,-7.88524 17.62582,-17.62582 0,-9.74059 -7.94322,-17.62583 -17.62582,-17.62583 z"
       style="display:inline;fill:#000000;fill-opacity:1;fill-rule:nonzero;stroke:none;stroke-width:0.579797"
       id="path1326" />
    <path
       d="M 108.89741,172.11239 V 190.371"
       style="display:inline;fill:none;stroke:#000000;stroke-width:0.265064;stroke-linecap:butt;stroke-linejoin:miter;stroke-miterlimit:10;stroke-dasharray:none;stroke-opacity:1"
       id="path1338" />
    <path
       d="m 118.84024,174.60312 v 18.78651"
       style="display:inline;fill:none;stroke:#000000;stroke-width:0.265197;stroke-linecap:butt;stroke-linejoin:miter;stroke-miterlimit:10;stroke-dasharray:none;stroke-opacity:1"
       id="path1342" />
  </g>
</svg>
