<?xml version="1.0" encoding="UTF-8" standalone="no"?>
<!-- Created with Inkscape (http://www.inkscape.org/) -->

<svg
   width="32.599113mm"
   height="32.59911mm"
   viewBox="0 0 32.599113 32.59911"
   version="1.1"
   id="svg45951"
   inkscape:version="1.2.2 (732a01da63, 2022-12-09)"
   sodipodi:docname="o.svg"
   xmlns:inkscape="http://www.inkscape.org/namespaces/inkscape"
   xmlns:sodipodi="http://sodipodi.sourceforge.net/DTD/sodipodi-0.dtd"
   xmlns="http://www.w3.org/2000/svg"
   xmlns:svg="http://www.w3.org/2000/svg">
  <sodipodi:namedview
     id="namedview45953"
     pagecolor="#ffffff"
     bordercolor="#000000"
     borderopacity="0.25"
     inkscape:showpageshadow="2"
     inkscape:pageopacity="0.0"
     inkscape:pagecheckerboard="0"
     inkscape:deskcolor="#d1d1d1"
     inkscape:document-units="mm"
     showgrid="false"
     inkscape:zoom="0.74564394"
     inkscape:cx="-76.443993"
     inkscape:cy="-28.163576"
     inkscape:window-width="1920"
     inkscape:window-height="1017"
     inkscape:window-x="-8"
     inkscape:window-y="-8"
     inkscape:window-maximized="1"
     inkscape:current-layer="layer1" />
  <defs
     id="defs45948" />
  <g
     inkscape:label="Layer 1"
     inkscape:groupmode="layer"
     id="layer1"
     transform="translate(-73.474638,-156.15206)">
    <path
       d="m 89.774194,188.75117 c -9.005002,0 -16.299556,-7.34486 -16.299556,-16.29955 0,-8.9547 7.294554,-16.29956 16.299556,-16.29956 9.005002,0 16.299556,7.29455 16.299556,16.29956 0,9.005 -7.344862,16.29955 -16.299556,16.29955 z m 0,-31.59296 c -8.451622,0 -15.293411,6.84178 -15.293411,15.29341 0,8.45162 6.841789,15.29341 15.293411,15.29341 8.451621,0 15.293406,-6.84179 15.293406,-15.29341 0,-8.45163 -6.892094,-15.29341 -15.293406,-15.29341 z"
       style="display:inline;fill:#000000;fill-opacity:1;fill-rule:nonzero;stroke:none;stroke-width:0.503073"
       id="path1692" />
    <path
       d="m 89.872156,180.76669 c -4.539712,0 -8.217131,-3.70278 -8.217131,-8.21713 0,-4.51435 3.677419,-8.21713 8.217131,-8.21713 4.539711,0 8.21713,3.67742 8.21713,8.21713 0,4.53971 -3.702781,8.21713 -8.21713,8.21713 z m 0,-15.92703 c -4.260735,0 -7.709901,3.44917 -7.709901,7.7099 0,4.26073 3.449166,7.7099 7.709901,7.7099 4.260734,0 7.7099,-3.44916 7.7099,-7.7099 -10e-7,-4.26073 -3.474529,-7.7099 -7.7099,-7.7099 z"
       style="display:inline;fill:#000000;fill-opacity:1;fill-rule:nonzero;stroke:none;stroke-width:0.253615"
       id="path1704" />
  </g>
</svg>
