<?xml version="1.0" encoding="UTF-8" standalone="no"?>
<!-- Created with Inkscape (http://www.inkscape.org/) -->

<svg
   width="37.176769mm"
   height="44.980949mm"
   viewBox="0 0 37.176769 44.980949"
   version="1.1"
   id="svg46435"
   inkscape:version="1.2.2 (732a01da63, 2022-12-09)"
   sodipodi:docname="q.svg"
   xmlns:inkscape="http://www.inkscape.org/namespaces/inkscape"
   xmlns:sodipodi="http://sodipodi.sourceforge.net/DTD/sodipodi-0.dtd"
   xmlns="http://www.w3.org/2000/svg"
   xmlns:svg="http://www.w3.org/2000/svg">
  <sodipodi:namedview
     id="namedview46437"
     pagecolor="#ffffff"
     bordercolor="#000000"
     borderopacity="0.25"
     inkscape:showpageshadow="2"
     inkscape:pageopacity="0.0"
     inkscape:pagecheckerboard="0"
     inkscape:deskcolor="#d1d1d1"
     inkscape:document-units="mm"
     showgrid="false"
     inkscape:zoom="0.74564394"
     inkscape:cx="-65.715011"
     inkscape:cy="-13.411227"
     inkscape:window-width="1920"
     inkscape:window-height="1017"
     inkscape:window-x="-8"
     inkscape:window-y="-8"
     inkscape:window-maximized="1"
     inkscape:current-layer="layer1" />
  <defs
     id="defs46432" />
  <g
     inkscape:label="Layer 1"
     inkscape:groupmode="layer"
     id="layer1"
     transform="translate(-70.47603,-152.09017)">
    <path
       d="m 92.103598,183.18856 c -8.590452,0 -15.549197,-7.00673 -15.549197,-15.54919 0,-8.54246 6.958745,-15.5492 15.549197,-15.5492 8.590452,0 15.549202,6.95875 15.549202,15.5492 0,8.59045 -7.00674,15.54919 -15.549202,15.54919 z m 0,-30.13856 c -8.062547,0 -14.58937,6.52682 -14.58937,14.58937 0,8.06254 6.526823,14.58937 14.58937,14.58937 8.062542,0 14.589372,-6.52682 14.589372,-14.58937 0,-8.06255 -6.57482,-14.58937 -14.589372,-14.58937 z"
       style="display:inline;fill:#000000;fill-opacity:1;fill-rule:nonzero;stroke:none;stroke-width:0.479913"
       id="path1716" />
    <path
       d="m 77.064709,169.15298 v 27.91814"
       style="display:inline;fill:none;stroke:#000000;stroke-width:0.353706;stroke-linecap:butt;stroke-linejoin:miter;stroke-miterlimit:10;stroke-dasharray:none;stroke-opacity:1"
       id="path1728" />
    <path
       d="m 77.086061,167.73549 -6.450687,13.36782"
       style="display:inline;fill:none;stroke:#000000;stroke-width:0.353852;stroke-linecap:butt;stroke-linejoin:miter;stroke-miterlimit:10;stroke-dasharray:none;stroke-opacity:1"
       id="path1732" />
  </g>
</svg>
