<?xml version="1.0" encoding="UTF-8" standalone="no"?>
<!-- Created with Inkscape (http://www.inkscape.org/) -->

<svg
   width="1000"
   height="1000"
   viewBox="0 0 264.58334 264.58333"
   version="1.1"
   id="svg44410"
   inkscape:version="1.2.2 (732a01da63, 2022-12-09)"
   sodipodi:docname="SmallJ.svg"
   xmlns:inkscape="http://www.inkscape.org/namespaces/inkscape"
   xmlns:sodipodi="http://sodipodi.sourceforge.net/DTD/sodipodi-0.dtd"
   xmlns="http://www.w3.org/2000/svg"
   xmlns:svg="http://www.w3.org/2000/svg">
  <sodipodi:namedview
     id="namedview44412"
     pagecolor="#ffffff"
     bordercolor="#000000"
     borderopacity="0.25"
     inkscape:showpageshadow="2"
     inkscape:pageopacity="0.0"
     inkscape:pagecheckerboard="0"
     inkscape:deskcolor="#d1d1d1"
     inkscape:document-units="px"
     showgrid="false"
     inkscape:zoom="0.52724989"
     inkscape:cx="292.08161"
     inkscape:cy="477.95173"
     inkscape:window-width="1920"
     inkscape:window-height="1017"
     inkscape:window-x="-8"
     inkscape:window-y="-8"
     inkscape:window-maximized="1"
     inkscape:current-layer="layer1"
     showguides="true">
    <sodipodi:guide
       position="0,79.375"
       orientation="0,1"
       id="guide4974"
       inkscape:locked="false"
       inkscape:label=""
       inkscape:color="rgb(0,134,229)" />
    <sodipodi:guide
       position="0,52.916667"
       orientation="0,1"
       id="guide4976"
       inkscape:label=""
       inkscape:locked="false"
       inkscape:color="rgb(0,134,229)" />
    <sodipodi:guide
       position="13.229167,264.58333"
       orientation="-1,0"
       id="guide4978"
       inkscape:locked="false"
       inkscape:label=""
       inkscape:color="rgb(0,134,229)" />
    <sodipodi:guide
       position="119.06247,132.30403"
       orientation="1,0"
       id="guide4980"
       inkscape:locked="false" />
    <sodipodi:guide
       position="148.3631,74.143513"
       orientation="-1,0"
       id="guide4982"
       inkscape:label=""
       inkscape:locked="false"
       inkscape:color="rgb(0,134,229)" />
    <sodipodi:guide
       position="157.62352,74.143513"
       orientation="-1,0"
       id="guide2233"
       inkscape:label=""
       inkscape:locked="false"
       inkscape:color="rgb(0,134,229)" />
  </sodipodi:namedview>
  <defs
     id="defs44407">
    <clipPath
       clipPathUnits="userSpaceOnUse"
       id="clipPath1202">
      <path
         d="m 2060.4019,1837.1929 h 393.75 v 393.75 h -393.75 z"
         clip-rule="evenodd"
         id="path1200" />
    </clipPath>
    <clipPath
       clipPathUnits="userSpaceOnUse"
       id="clipPath1214">
      <path
         d="M 0,0 H 6000 V 3375 H 0 Z"
         clip-rule="evenodd"
         id="path1212" />
    </clipPath>
  </defs>
  <g
     inkscape:label="Layer 1"
     inkscape:groupmode="layer"
     id="layer1"
     transform="translate(-58.199767,-100.08301)">
    <g
       id="path41044"
       transform="matrix(3.018709,0.98258127,-1.0837409,2.9837915,-113.33514,-159.24972)">
      <path
         style="color:#000000;fill:#ff0101;fill-opacity:0.995204;stroke-linecap:round;-inkscape-stroke:none"
         d="m 135.91797,95.457031 a 0.58527499,0.58527499 0 0 0 -0.69141,0.455078 c -0.82296,4.022233 -0.14381,8.593281 1.85156,10.869141 0.49885,0.56897 1.0649,0.95563 1.67579,1.11523 0.61088,0.15961 1.25162,0.0731 1.81836,-0.21484 1.13346,-0.57591 2.00969,-1.86733 2.60156,-3.69726 a 0.58527499,0.58527499 0 0 0 -0.37696,-0.73633 0.58527499,0.58527499 0 0 0 -0.73632,0.37695 c -0.53428,1.65187 -1.32455,2.66155 -2.01758,3.01367 -0.34652,0.17606 -0.65957,0.21242 -0.99414,0.125 -0.33457,-0.0874 -0.70627,-0.31641 -1.08985,-0.7539 -1.53428,-1.74996 -2.34432,-6.154709 -1.58593,-9.861333 a 0.58527499,0.58527499 0 0 0 -0.45508,-0.691406 z"
         id="path45010" />
      <g
         id="g45002">
        <path
           style="color:#000000;fill:#ff0101;stroke-linecap:round;-inkscape-stroke:none"
           d="m 135.99219,95.089844 -3.9668,2.621093 a 0.50133002,0.50133002 0 0 0 -0.14258,0.69336 0.50133002,0.50133002 0 0 0 0.69336,0.142578 l 3.13281,-2.066406 2.06641,3.130859 a 0.50133002,0.50133002 0 0 0 0.69531,0.140625 0.50133002,0.50133002 0 0 0 0.14258,-0.693359 z"
           id="path45004" />
      </g>
    </g>
    <path
       id="path1182"
       style="display:inline;fill:#000000;fill-opacity:1;fill-rule:nonzero;stroke:none;stroke-width:1.63341"
       d="m 175.20511,158.5486 -3.26471,0.0909 1.50523,53.95141 c -7.82797,-19.44086 -26.85475,-33.15723 -49.10004,-33.15723 -29.234792,0 -52.916656,23.85045 -52.916656,52.92863 0,29.07814 23.681864,52.92903 52.916656,52.92903 29.07146,0 52.91665,-23.68751 52.91665,-52.92903 0,-0.0304 -8e-4,-0.0606 -0.002,-0.091 h 0.002 l -0.002,-0.0761 c -0.002,-0.90363 -0.0278,-1.80179 -0.0752,-2.6942 z m -50.85952,24.15232 c 26.38136,0 48.17723,20.78555 49.57711,46.98212 l 0.0719,2.56893 c 8e-5,0.0369 0.002,0.0734 0.002,0.11039 0,27.44458 -22.21205,49.66184 -49.65029,49.66184 -27.438236,0 -49.650289,-22.21729 -49.650289,-49.66184 0,-27.4446 22.212053,-49.66144 49.650289,-49.66144 z" />
  </g>
</svg>
