<?xml version="1.0" encoding="UTF-8" standalone="no"?>
<!-- Created with Inkscape (http://www.inkscape.org/) -->

<svg
   width="1000"
   height="1000"
   viewBox="0 0 264.58334 264.58333"
   version="1.1"
   id="svg44410"
   inkscape:version="1.3.2 (091e20e, 2023-11-25, custom)"
   sodipodi:docname="SmallJ.svg"
   xml:space="preserve"
   xmlns:inkscape="http://www.inkscape.org/namespaces/inkscape"
   xmlns:sodipodi="http://sodipodi.sourceforge.net/DTD/sodipodi-0.dtd"
   xmlns="http://www.w3.org/2000/svg"
   xmlns:svg="http://www.w3.org/2000/svg"><sodipodi:namedview
     id="namedview44412"
     pagecolor="#ffffff"
     bordercolor="#000000"
     borderopacity="0.25"
     inkscape:showpageshadow="2"
     inkscape:pageopacity="0.0"
     inkscape:pagecheckerboard="0"
     inkscape:deskcolor="#d1d1d1"
     inkscape:document-units="px"
     showgrid="false"
     inkscape:zoom="1.0544998"
     inkscape:cx="229.96686"
     inkscape:cy="508.77204"
     inkscape:window-width="1920"
     inkscape:window-height="1017"
     inkscape:window-x="-8"
     inkscape:window-y="-8"
     inkscape:window-maximized="1"
     inkscape:current-layer="layer1"
     showguides="true"><sodipodi:guide
       position="0,79.375"
       orientation="0,1"
       id="guide4974"
       inkscape:locked="false"
       inkscape:label=""
       inkscape:color="rgb(0,134,229)" /><sodipodi:guide
       position="0,52.916667"
       orientation="0,1"
       id="guide4976"
       inkscape:label=""
       inkscape:locked="false"
       inkscape:color="rgb(0,134,229)" /><sodipodi:guide
       position="13.229167,264.58333"
       orientation="-1,0"
       id="guide4978"
       inkscape:locked="false"
       inkscape:label=""
       inkscape:color="rgb(0,134,229)" /><sodipodi:guide
       position="119.06247,132.30403"
       orientation="1,0"
       id="guide4980"
       inkscape:locked="false" /><sodipodi:guide
       position="148.3631,74.143513"
       orientation="-1,0"
       id="guide4982"
       inkscape:label=""
       inkscape:locked="false"
       inkscape:color="rgb(0,134,229)" /><sodipodi:guide
       position="157.62352,74.143513"
       orientation="-1,0"
       id="guide2233"
       inkscape:label=""
       inkscape:locked="false"
       inkscape:color="rgb(0,134,229)" /></sodipodi:namedview><defs
     id="defs44407"><clipPath
       clipPathUnits="userSpaceOnUse"
       id="clipPath1202"><path
         d="m 2060.4019,1837.1929 h 393.75 v 393.75 h -393.75 z"
         clip-rule="evenodd"
         id="path1200" /></clipPath><clipPath
       clipPathUnits="userSpaceOnUse"
       id="clipPath1214"><path
         d="M 0,0 H 6000 V 3375 H 0 Z"
         clip-rule="evenodd"
         id="path1212" /></clipPath><clipPath
       clipPathUnits="userSpaceOnUse"
       id="clipPath420"><path
         d="M 591.86957,383.12061 H 908.19696 V 699.448 H 591.86957 Z"
         clip-rule="evenodd"
         id="path418" /></clipPath></defs><g
     inkscape:label="Layer 1"
     inkscape:groupmode="layer"
     id="layer1"
     transform="translate(-58.199767,-100.08301)"><path
       id="path45004"
       style="display:inline;color:#000000;fill:#ff0101;stroke-linecap:round;-inkscape-stroke:none"
       d="M 135.99221 95.089791 L 132.02545 97.710931 A 0.50133002 0.50133002 22.5 0 0 131.88285 98.404238 A 0.50133002 0.50133002 22.5 0 0 132.57619 98.546892 L 135.05527 96.911671 C 134.52488 100.66905 135.24635 104.69208 137.07804 106.78126 C 137.57689 107.35023 138.14305 107.7369 138.75394 107.8965 C 139.36482 108.05611 140.00547 107.96964 140.57221 107.6817 C 141.70567 107.10579 142.58187 105.81426 143.17374 103.98433 A 0.58527499 0.58527499 0 0 0 142.79692 103.24801 A 0.58527499 0.58527499 0 0 0 142.0606 103.62505 C 141.52632 105.27692 140.73601 106.2865 140.04298 106.63862 C 139.69646 106.81468 139.38336 106.85115 139.04879 106.76373 C 138.71422 106.67633 138.34254 106.44719 137.95896 106.0097 C 136.57063 104.42621 135.77557 100.6691 136.19872 97.222346 L 137.77538 99.611356 A 0.50133002 0.50133002 22.5 0 0 138.47072 99.751964 A 0.50133002 0.50133002 22.5 0 0 138.61332 99.058658 L 135.99221 95.089791 z "
       transform="matrix(3.0187091,0.98258128,-1.0837409,2.9837915,-113.33514,-159.24972)" /><path
       id="path1"
       style="color:#000000;display:inline;fill:#000000;fill-opacity:1;fill-rule:evenodd;-inkscape-stroke:none"
       d="m 175.266,158.55256 -6.612,0.17311 1.22629,46.82609 c -9.21255,-15.6025 -26.19312,-26.09349 -45.59309,-26.09349 -29.18584,0 -52.916154,23.72979 -52.916154,52.91563 0,29.18583 23.730314,52.91615 52.916154,52.91615 29.1167,0 52.80097,-23.61917 52.91305,-52.70996 h 0.005 l -0.003,-0.0915 c 8e-5,-0.0385 0.003,-0.0762 0.003,-0.11472 0,-0.9656 -0.0298,-1.92383 -0.0811,-2.87683 z m -50.9788,27.51874 c 24.74291,0 44.88994,19.31403 46.22767,43.71723 l 0.0713,2.72851 c -0.0774,25.5446 -20.73593,46.15997 -46.29899,46.15997 -25.61106,0 -46.300537,-20.69205 -46.300537,-46.30311 0,-25.61107 20.689477,-46.30259 46.300537,-46.30259 z" /></g></svg>
