<?xml version="1.0" encoding="UTF-8" standalone="no"?>
<!-- Created with Inkscape (http://www.inkscape.org/) -->

<svg
   width="1000"
   height="1000"
   viewBox="0 0 264.58333 264.58333"
   version="1.1"
   id="svg59379"
   inkscape:version="1.2.2 (732a01da63, 2022-12-09)"
   sodipodi:docname="SmallY.svg"
   xmlns:inkscape="http://www.inkscape.org/namespaces/inkscape"
   xmlns:sodipodi="http://sodipodi.sourceforge.net/DTD/sodipodi-0.dtd"
   xmlns="http://www.w3.org/2000/svg"
   xmlns:svg="http://www.w3.org/2000/svg">
  <sodipodi:namedview
     id="namedview59381"
     pagecolor="#ffffff"
     bordercolor="#000000"
     borderopacity="0.25"
     inkscape:showpageshadow="2"
     inkscape:pageopacity="0.0"
     inkscape:pagecheckerboard="0"
     inkscape:deskcolor="#d1d1d1"
     inkscape:document-units="px"
     showgrid="false"
     inkscape:zoom="0.74564395"
     inkscape:cx="210.55626"
     inkscape:cy="382.21996"
     inkscape:window-width="1920"
     inkscape:window-height="1017"
     inkscape:window-x="-8"
     inkscape:window-y="-8"
     inkscape:window-maximized="1"
     inkscape:current-layer="layer1"
     showguides="true">
    <sodipodi:guide
       position="0,79.374999"
       orientation="0,1"
       id="guide240"
       inkscape:locked="false"
       inkscape:label=""
       inkscape:color="rgb(0,134,229)" />
    <sodipodi:guide
       position="0,52.916666"
       orientation="0,1"
       id="guide242"
       inkscape:label=""
       inkscape:locked="false"
       inkscape:color="rgb(0,134,229)" />
    <sodipodi:guide
       position="199.74659,138.92931"
       orientation="-1,0"
       id="guide2782"
       inkscape:label=""
       inkscape:locked="false"
       inkscape:color="rgb(0,134,229)" />
    <sodipodi:guide
       position="13.229166,143.39435"
       orientation="-1,0"
       id="guide2799"
       inkscape:locked="false"
       inkscape:label=""
       inkscape:color="rgb(0,134,229)" />
    <sodipodi:guide
       position="209.00701,138.92931"
       orientation="-1,0"
       id="guide1787"
       inkscape:label=""
       inkscape:locked="false"
       inkscape:color="rgb(0,134,229)" />
  </sodipodi:namedview>
  <defs
     id="defs59376" />
  <g
     inkscape:label="Layer 1"
     inkscape:groupmode="layer"
     id="layer1"
     transform="translate(-54.425613,-125.33614)">
    <path
       id="path1998"
       style="display:inline;fill:#000000;fill-opacity:1;fill-rule:nonzero;stroke:none;stroke-width:1.63453"
       d="m 219.38258,163.03884 -36.85397,59.09304 c -9.69073,-10.75456 -23.72652,-17.51501 -39.34851,-17.51501 -16.75575,0 -31.68576,7.83138 -41.38745,19.98803 l -31.544128,-40.93187 -2.593743,1.99884 32.103055,41.65618 c -6.00586,8.59532 -9.531615,19.03408 -9.531615,30.25262 0,29.09733 23.698461,52.9638 52.953881,52.9638 29.09198,0 52.95429,-23.70301 52.95429,-52.9638 0,-12.39997 -4.2575,-23.80078 -11.38866,-32.82363 l 0.004,0.002 37.41167,-59.98765 z m -76.20248,44.8477 c 27.29415,0 49.68544,22.23151 49.68545,49.69413 0,27.46264 -22.22786,49.69454 -49.68545,49.69454 -27.4576,0 -49.685036,-22.2319 -49.685036,-49.69454 0,-27.46262 22.227436,-49.69413 49.685036,-49.69413 z" />
    <g
       id="path41044-4"
       transform="matrix(3.0876261,1.0052336,-1.1084826,3.0525794,-108.30962,-243.50672)">
      <path
         style="color:#000000;fill:#ff0101;fill-opacity:0.995204;stroke-linecap:round;-inkscape-stroke:none"
         d="m 146.70703,98.783203 a 0.83388001,0.83388001 0 0 0 -0.98437,0.648438 c -1.17253,5.730729 -0.20427,12.241809 2.63867,15.484379 0.71073,0.81064 1.51635,1.36048 2.38672,1.58789 0.87037,0.2274 1.78433,0.10753 2.59179,-0.30274 1.61493,-0.82053 2.86376,-2.66036 3.70703,-5.26758 a 0.83388001,0.83388001 0 0 0 -0.5371,-1.05078 0.83388001,0.83388001 0 0 0 -1.05079,0.53711 c -0.76121,2.35352 -1.88759,3.79323 -2.875,4.29492 -0.4937,0.25085 -0.93737,0.30033 -1.41406,0.17579 -0.47668,-0.12455 -1.00819,-0.44895 -1.55469,-1.07227 -2.18599,-2.49328 -3.33833,-8.77167 -2.25781,-14.052735 a 0.83388001,0.83388001 0 0 0 -0.65039,-0.982422 z"
         id="path309" />
      <g
         id="g301">
        <path
           style="color:#000000;fill:#ff0101;stroke-linecap:round;-inkscape-stroke:none"
           d="m 146.81445,98.257812 -5.65625,3.736328 a 0.714755,0.714755 0 0 0 -0.20312,0.99024 0.714755,0.714755 0 0 0 0.99023,0.20312 l 4.46485,-2.94727 2.94726,4.4629 a 0.714755,0.714755 0 0 0 0.99024,0.20312 0.714755,0.714755 0 0 0 0.20312,-0.99023 z"
           id="path303" />
      </g>
    </g>
  </g>
</svg>
