<?xml version="1.0" encoding="UTF-8" standalone="no"?>
<!-- Created with Inkscape (http://www.inkscape.org/) -->

<svg
   width="1000"
   height="1000"
   viewBox="0 0 264.58333 264.58333"
   version="1.1"
   id="svg20980"
   inkscape:version="1.3.2 (091e20e, 2023-11-25, custom)"
   sodipodi:docname="SmallB.svg"
   xml:space="preserve"
   xmlns:inkscape="http://www.inkscape.org/namespaces/inkscape"
   xmlns:sodipodi="http://sodipodi.sourceforge.net/DTD/sodipodi-0.dtd"
   xmlns="http://www.w3.org/2000/svg"
   xmlns:svg="http://www.w3.org/2000/svg"><sodipodi:namedview
     id="namedview20982"
     pagecolor="#ffffff"
     bordercolor="#000000"
     borderopacity="0.25"
     inkscape:showpageshadow="2"
     inkscape:pageopacity="0.0"
     inkscape:pagecheckerboard="0"
     inkscape:deskcolor="#d1d1d1"
     inkscape:document-units="px"
     showgrid="false"
     inkscape:zoom="0.74564395"
     inkscape:cx="153.55855"
     inkscape:cy="440.5588"
     inkscape:window-width="1920"
     inkscape:window-height="1017"
     inkscape:window-x="-8"
     inkscape:window-y="-8"
     inkscape:window-maximized="1"
     inkscape:current-layer="layer1"
     showguides="true"><sodipodi:guide
       position="0,52.916666"
       orientation="0,1"
       id="guide437"
       inkscape:locked="false"
       inkscape:label=""
       inkscape:color="rgb(0,134,229)" /><sodipodi:guide
       position="0,79.374999"
       orientation="0,1"
       id="guide3355"
       inkscape:locked="false"
       inkscape:label=""
       inkscape:color="rgb(0,134,229)" /><sodipodi:guide
       position="13.229166,111.64785"
       orientation="-1,0"
       id="guide3636"
       inkscape:locked="false"
       inkscape:label=""
       inkscape:color="rgb(0,134,229)" /><sodipodi:guide
       position="119.0625,132.2917"
       orientation="-1,0"
       id="guide3638"
       inkscape:label=""
       inkscape:locked="false"
       inkscape:color="rgb(0,134,229)" /><sodipodi:guide
       position="132.29166,132.2917"
       orientation="-1,0"
       id="guide428"
       inkscape:label=""
       inkscape:locked="false"
       inkscape:color="rgb(0,134,229)" /></sodipodi:namedview><defs
     id="defs20977"><clipPath
       clipPathUnits="userSpaceOnUse"
       id="clipPath420"><path
         d="M 591.86957,383.12061 H 908.19696 V 699.448 H 591.86957 Z"
         clip-rule="evenodd"
         id="path418" /></clipPath></defs><g
     inkscape:label="Layer 1"
     inkscape:groupmode="layer"
     id="layer1"
     transform="translate(-35.783184,-100.21801)"><path
       id="path1"
       style="color:#000000;fill:#000000;fill-opacity:1;fill-rule:evenodd;-inkscape-stroke:none"
       d="M 108.50329 128.43231 L 108.50329 180.01624 C 106.34765 179.74796 104.15684 179.59353 101.92953 179.59353 C 99.983926 179.59353 98.065016 179.70687 96.173296 179.91237 L 96.173296 128.86071 L 89.558712 128.86071 L 89.558712 181.06785 C 83.848006 182.4405 78.498137 184.73932 73.672344 187.79923 L 73.672344 140.34218 L 67.05776 140.34218 L 67.05776 192.75345 C 56.006198 202.45778 49.011835 216.67562 49.011834 232.50967 C 49.011831 261.69551 72.743695 285.42582 101.92953 285.42582 C 131.11537 285.42582 154.84569 261.69551 154.84568 232.50967 C 154.84568 216.27789 147.49926 201.74114 135.96311 192.02791 L 135.96311 138.49526 L 129.34853 138.49526 L 129.34853 187.26231 C 124.97844 184.60498 120.19445 182.56327 115.11788 181.25699 L 115.11788 128.43231 L 108.50329 128.43231 z M 101.92953 186.20708 C 127.54059 186.20708 148.23058 206.89861 148.23058 232.50967 C 148.23058 258.12073 127.54059 278.81227 101.92953 278.81227 C 77.335947 278.81227 57.290303 259.72914 55.735454 235.53481 L 87.970179 237.61944 L 88.397026 231.01881 L 55.779379 228.90938 C 57.6131 204.98919 77.531649 186.20708 101.92953 186.20708 z " /></g></svg>
