<?xml version="1.0" encoding="UTF-8" standalone="no"?>
<!-- Created with Inkscape (http://www.inkscape.org/) -->

<svg
   width="1000"
   height="1000"
   viewBox="0 0 264.58333 264.58333"
   version="1.1"
   id="svg59379"
   inkscape:version="1.3.2 (091e20e, 2023-11-25, custom)"
   sodipodi:docname="SmallY.svg"
   xml:space="preserve"
   xmlns:inkscape="http://www.inkscape.org/namespaces/inkscape"
   xmlns:sodipodi="http://sodipodi.sourceforge.net/DTD/sodipodi-0.dtd"
   xmlns="http://www.w3.org/2000/svg"
   xmlns:svg="http://www.w3.org/2000/svg"><sodipodi:namedview
     id="namedview59381"
     pagecolor="#ffffff"
     bordercolor="#000000"
     borderopacity="0.25"
     inkscape:showpageshadow="2"
     inkscape:pageopacity="0.0"
     inkscape:pagecheckerboard="0"
     inkscape:deskcolor="#d1d1d1"
     inkscape:document-units="px"
     showgrid="false"
     inkscape:zoom="0.52724989"
     inkscape:cx="483.64163"
     inkscape:cy="414.4145"
     inkscape:window-width="1920"
     inkscape:window-height="1017"
     inkscape:window-x="-8"
     inkscape:window-y="-8"
     inkscape:window-maximized="1"
     inkscape:current-layer="layer1"
     showguides="true"><sodipodi:guide
       position="0,79.374999"
       orientation="0,1"
       id="guide240"
       inkscape:locked="false"
       inkscape:label=""
       inkscape:color="rgb(0,134,229)" /><sodipodi:guide
       position="0,52.916666"
       orientation="0,1"
       id="guide242"
       inkscape:label=""
       inkscape:locked="false"
       inkscape:color="rgb(0,134,229)" /><sodipodi:guide
       position="199.74659,138.92931"
       orientation="-1,0"
       id="guide2782"
       inkscape:label=""
       inkscape:locked="false"
       inkscape:color="rgb(0,134,229)" /><sodipodi:guide
       position="13.229166,143.39435"
       orientation="-1,0"
       id="guide2799"
       inkscape:locked="false"
       inkscape:label=""
       inkscape:color="rgb(0,134,229)" /><sodipodi:guide
       position="209.00701,138.92931"
       orientation="-1,0"
       id="guide1787"
       inkscape:label=""
       inkscape:locked="false"
       inkscape:color="rgb(0,134,229)" /></sodipodi:namedview><defs
     id="defs59376"><clipPath
       clipPathUnits="userSpaceOnUse"
       id="clipPath420"><path
         d="M 591.86957,383.12061 H 908.19696 V 699.448 H 591.86957 Z"
         clip-rule="evenodd"
         id="path418" /></clipPath></defs><g
     inkscape:label="Layer 1"
     inkscape:groupmode="layer"
     id="layer1"
     transform="translate(-54.425613,-125.33614)"><path
       id="path303"
       style="color:#000000;fill:#ff0101;stroke-linecap:round;-inkscape-stroke:none"
       d="M 146.8144 98.257903 L 141.15819 101.99421 A 0.714755 0.714755 45 0 0 140.95501 102.98441 A 0.714755 0.714755 45 0 0 141.94526 103.18751 L 145.47864 100.85501 C 144.72287 106.20836 145.75141 111.93928 148.36126 114.91599 C 149.07199 115.72662 149.87773 116.2765 150.7481 116.50391 C 151.61846 116.73131 152.53239 116.61139 153.33985 116.20112 C 154.95477 115.38059 156.20355 113.54078 157.04682 110.93357 A 0.83388001 0.83388001 0 0 0 156.50973 109.88276 A 0.83388001 0.83388001 0 0 0 155.45904 110.41988 C 154.69783 112.7734 153.5714 114.21314 152.58399 114.71483 C 152.09029 114.96568 151.64663 115.0152 151.16994 114.89066 C 150.69327 114.76611 150.16178 114.44175 149.61528 113.81843 C 147.63752 111.56265 146.50606 106.20856 147.10863 101.29792 L 149.35739 104.70307 A 0.714755 0.714755 45 0 0 150.3477 104.90632 A 0.714755 0.714755 45 0 0 150.55082 103.91597 L 146.8144 98.257903 z "
       transform="matrix(3.0876261,1.0052336,-1.1084826,3.0525794,-108.30962,-243.50673)" /><path
       id="path1"
       style="color:#000000;fill:#000000;fill-opacity:1;fill-rule:evenodd;-inkscape-stroke:none"
       d="M 217.96705 162.1525 L 181.29332 220.84297 C 171.66581 210.87781 158.17894 204.66411 143.25585 204.66411 C 127.23924 204.66411 112.87661 211.82058 103.16631 223.09348 L 71.5579 182.63652 L 66.345299 186.70862 L 99.03891 228.55464 C 93.547203 236.89421 90.339699 246.86624 90.339699 257.58026 C 90.339699 286.76609 114.07002 310.49796 143.25585 310.49796 C 172.44168 310.49796 196.17201 286.76609 196.172 257.58026 C 196.172 245.80978 192.30815 234.92965 185.78762 226.13257 L 223.57653 165.65771 L 217.96705 162.1525 z M 143.25585 211.27921 C 168.8669 211.27921 189.55845 231.9692 189.55845 257.58026 C 189.55845 283.19132 168.8669 303.88286 143.25585 303.88286 C 117.64479 303.88286 96.953249 283.19132 96.953249 257.58026 C 96.953249 231.9692 117.64479 211.27921 143.25585 211.27921 z " /></g></svg>
