<?xml version="1.0" encoding="UTF-8" standalone="no"?>
<!-- Created with Inkscape (http://www.inkscape.org/) -->

<svg
   width="1000"
   height="1000"
   viewBox="0 0 264.58334 264.58333"
   version="1.1"
   id="svg58221"
   inkscape:version="1.3.2 (091e20e, 2023-11-25, custom)"
   sodipodi:docname="SmallX.svg"
   xml:space="preserve"
   xmlns:inkscape="http://www.inkscape.org/namespaces/inkscape"
   xmlns:sodipodi="http://sodipodi.sourceforge.net/DTD/sodipodi-0.dtd"
   xmlns="http://www.w3.org/2000/svg"
   xmlns:svg="http://www.w3.org/2000/svg"><sodipodi:namedview
     id="namedview58223"
     pagecolor="#ffffff"
     bordercolor="#000000"
     borderopacity="0.25"
     inkscape:showpageshadow="2"
     inkscape:pageopacity="0.0"
     inkscape:pagecheckerboard="0"
     inkscape:deskcolor="#d1d1d1"
     inkscape:document-units="px"
     showgrid="false"
     inkscape:zoom="0.52724989"
     inkscape:cx="256.04557"
     inkscape:cy="289.23667"
     inkscape:window-width="1920"
     inkscape:window-height="1017"
     inkscape:window-x="-8"
     inkscape:window-y="-8"
     inkscape:window-maximized="1"
     inkscape:current-layer="layer1"
     showguides="true"><sodipodi:guide
       position="13.229167,264.58333"
       orientation="-1,0"
       id="guide2950"
       inkscape:locked="false"
       inkscape:label=""
       inkscape:color="rgb(0,134,229)" /><sodipodi:guide
       position="0,79.375"
       orientation="0,1"
       id="guide2952"
       inkscape:locked="false"
       inkscape:label=""
       inkscape:color="rgb(0,134,229)" /><sodipodi:guide
       position="0,52.916667"
       orientation="0,1"
       id="guide2954"
       inkscape:label=""
       inkscape:locked="false"
       inkscape:color="rgb(0,134,229)" /><sodipodi:guide
       position="154.61932,195.17567"
       orientation="-1,0"
       id="guide2611"
       inkscape:label=""
       inkscape:locked="false"
       inkscape:color="rgb(0,134,229)" /><sodipodi:guide
       position="163.87974,195.17567"
       orientation="-1,0"
       id="guide2631"
       inkscape:label=""
       inkscape:locked="false"
       inkscape:color="rgb(0,134,229)" /></sodipodi:namedview><defs
     id="defs58218"><clipPath
       clipPathUnits="userSpaceOnUse"
       id="clipPath420"><path
         d="M 591.86957,383.12061 H 908.19696 V 699.448 H 591.86957 Z"
         clip-rule="evenodd"
         id="path418" /></clipPath></defs><g
     inkscape:label="Layer 1"
     inkscape:groupmode="layer"
     id="layer1"
     transform="translate(-73.890164,-113.2152)"><path
       id="rect1"
       style="fill:#000000;fill-opacity:1;fill-rule:evenodd;stroke:none;stroke-width:2.98676"
       d="M 138.58596 133.89456 L 138.58596 140.50914 L 138.58596 168.12606 L 145.20054 168.12606 L 145.20054 140.50914 L 186.32051 140.50914 L 186.32051 219.84228 C 177.27297 203.61613 159.94411 192.61501 140.07837 192.61501 C 110.89254 192.61501 87.160155 216.34739 87.160155 245.53322 C 87.160155 274.71906 110.89254 298.44937 140.07837 298.44937 C 168.44417 298.44937 191.64998 276.03237 192.93199 247.97855 L 192.93509 247.97855 L 192.93509 247.86435 C 192.96879 247.09079 192.99401 246.31496 192.99401 245.53322 C 192.99401 244.75148 192.96879 243.97566 192.93509 243.2021 L 192.93509 140.50914 L 192.93509 133.89456 L 186.32051 133.89456 L 145.20054 133.89456 L 138.58596 133.89456 z M 140.07837 199.23062 C 164.90971 199.23062 185.11325 218.68156 186.32051 243.2083 L 186.32051 247.85763 C 185.11326 272.38427 164.90972 291.83376 140.07837 291.83376 C 114.46732 291.83376 93.775255 271.14429 93.775255 245.53322 C 93.775255 219.92217 114.46732 199.23062 140.07837 199.23062 z " /><g
       id="path56743"
       transform="matrix(3.2787083,0,0,3.27709,-155.14497,-237.574)"><path
         style="color:#000000;fill:#ff0000;stroke-width:1.68202;stroke-linecap:round;-inkscape-stroke:none"
         d="m 111.96699,114.05621 v 18.11454"
         id="path9830" /><path
         id="path9832"
         style="color:#000000;fill:#ff0000;stroke-linecap:round;-inkscape-stroke:none"
         d="M 111.96674 113.21488 A 0.84100997 0.84100997 0 0 0 111.12699 114.05663 L 111.12699 130.67148 L 108.15237 127.69524 A 0.72086501 0.72086501 0 0 0 107.13278 127.69524 A 0.72086501 0.72086501 0 0 0 107.13278 128.71486 L 111.96674 133.55074 L 116.80276 128.71486 A 0.72086501 0.72086501 0 0 0 116.80276 127.69524 A 0.72086501 0.72086501 0 0 0 115.78317 127.69524 L 112.80855 130.6699 L 112.80855 114.05663 A 0.84100997 0.84100997 0 0 0 111.96674 113.21488 z " /><g
         id="g9822" /></g></g></svg>
