<?xml version="1.0" encoding="UTF-8" standalone="no"?>
<!-- Created with Inkscape (http://www.inkscape.org/) -->

<svg
   width="1000"
   height="1000"
   viewBox="0 0 264.58334 264.58333"
   version="1.1"
   id="svg24777"
   inkscape:version="1.3.2 (091e20e, 2023-11-25, custom)"
   sodipodi:docname="SmallT.svg"
   xml:space="preserve"
   xmlns:inkscape="http://www.inkscape.org/namespaces/inkscape"
   xmlns:sodipodi="http://sodipodi.sourceforge.net/DTD/sodipodi-0.dtd"
   xmlns="http://www.w3.org/2000/svg"
   xmlns:svg="http://www.w3.org/2000/svg"><sodipodi:namedview
     id="namedview24779"
     pagecolor="#ffffff"
     bordercolor="#000000"
     borderopacity="0.25"
     inkscape:showpageshadow="2"
     inkscape:pageopacity="0.0"
     inkscape:pagecheckerboard="0"
     inkscape:deskcolor="#d1d1d1"
     inkscape:document-units="px"
     showgrid="false"
     inkscape:zoom="0.5"
     inkscape:cx="554"
     inkscape:cy="191"
     inkscape:window-width="1920"
     inkscape:window-height="1017"
     inkscape:window-x="-8"
     inkscape:window-y="-8"
     inkscape:window-maximized="1"
     inkscape:current-layer="layer1"
     showguides="true"><sodipodi:guide
       position="0,79.375"
       orientation="0,1"
       id="guide4712"
       inkscape:locked="false"
       inkscape:label=""
       inkscape:color="rgb(0,134,229)" /><sodipodi:guide
       position="0,52.916667"
       orientation="0,1"
       id="guide4714"
       inkscape:label=""
       inkscape:locked="false"
       inkscape:color="rgb(0,134,229)" /><sodipodi:guide
       position="178.79938,132.29167"
       orientation="1,0"
       id="guide4720"
       inkscape:locked="false" /><sodipodi:guide
       position="13.229167,264.58333"
       orientation="-1,0"
       id="guide5071"
       inkscape:locked="false"
       inkscape:label=""
       inkscape:color="rgb(0,134,229)" /><sodipodi:guide
       position="192.02855,132.29167"
       orientation="-1,0"
       id="guide1298"
       inkscape:label=""
       inkscape:locked="false"
       inkscape:color="rgb(0,134,229)" /><sodipodi:guide
       position="19.489208,264.58333"
       orientation="-1,0"
       id="guide4014"
       inkscape:label=""
       inkscape:locked="false"
       inkscape:color="rgb(0,134,229)" /><sodipodi:guide
       position="78.832809,113.71035"
       orientation="1,0"
       id="guide4070"
       inkscape:locked="false" /><sodipodi:guide
       position="69.569937,126.92584"
       orientation="0.54463904,0.83867057"
       id="guide1"
       inkscape:locked="false"
       inkscape:label=""
       inkscape:color="rgb(0,134,229)" /></sodipodi:namedview><defs
     id="defs24774"><clipPath
       clipPathUnits="userSpaceOnUse"
       id="clipPath420"><path
         d="M 591.86957,383.12061 H 908.19696 V 699.448 H 591.86957 Z"
         clip-rule="evenodd"
         id="path418" /></clipPath><clipPath
       clipPathUnits="userSpaceOnUse"
       id="clipPath420-4"><path
         d="M 591.86957,383.12061 H 908.19696 V 699.448 H 591.86957 Z"
         clip-rule="evenodd"
         id="path418-2" /></clipPath></defs><g
     inkscape:label="Layer 1"
     inkscape:groupmode="layer"
     id="layer1"
     transform="translate(-17.986758,-127.46743)"><path
       id="rect1"
       style="fill:#000000;fill-opacity:1;fill-rule:evenodd;stroke:none;stroke-width:4.54851"
       d="M -184.53833 -135.95581 L -229.76162 -115.82109 C -228.89552 -113.22799 -228.21565 -110.53719 -227.75044 -107.75716 C -226.76798 -101.88624 -226.81209 -96.080542 -227.72448 -90.509923 L -180.56685 -105.37885 L -178.57806 -99.07059 L -229.52715 -83.006568 C -233.21876 -71.449255 -240.80825 -61.416901 -250.99883 -54.738016 L -250.99819 -10.483736 L -236.78367 5.0288903 L -241.66049 9.497446 L -250.9982 -0.6932034 L -250.99826 23.765839 L -264.1515 23.765824 L -264.15171 -15.047309 L -294.48562 -48.150341 C -313.47786 -53.608835 -328.65873 -69.529066 -332.13284 -90.289533 C -336.94989 -119.0751 -317.46199 -146.39864 -288.67643 -151.21569 C -276.52568 -153.24903 -264.64298 -150.9381 -254.59602 -145.43853 L -209.37888 -172.60782 L -205.97226 -166.93818 L -248.38247 -141.45574 C -241.60262 -136.41493 -236.01839 -129.76333 -232.25842 -121.9495 L -187.22826 -141.99846 L -184.53833 -135.95581 z M -234.27481 -106.66535 C -238.50186 -131.92516 -262.3248 -148.91836 -287.58462 -144.69131 C -312.84443 -140.46427 -329.8355 -116.64115 -325.60846 -91.381339 C -321.38142 -66.121525 -297.56042 -49.130625 -272.30061 -53.357668 C -247.04079 -57.584713 -230.04777 -81.405537 -234.27481 -106.66535 z M -264.1519 -48.528206 C -266.43451 -47.816246 -268.78548 -47.238816 -271.2088 -46.83329 C -275.45251 -46.123137 -279.66181 -45.954337 -283.77445 -46.252596 L -264.15169 -24.837841 L -264.1519 -48.528206 z "
       transform="matrix(-0.16504761,-0.9862856,-0.9862856,0.16504761,0,0)" /></g></svg>
