<?xml version="1.0" encoding="UTF-8" standalone="no"?>
<!-- Created with Inkscape (http://www.inkscape.org/) -->

<svg
   width="57.213634mm"
   height="45.262932mm"
   viewBox="0 0 57.213634 45.262932"
   version="1.1"
   id="svg59379"
   inkscape:version="1.2.2 (732a01da63, 2022-12-09)"
   sodipodi:docname="y.svg"
   xmlns:inkscape="http://www.inkscape.org/namespaces/inkscape"
   xmlns:sodipodi="http://sodipodi.sourceforge.net/DTD/sodipodi-0.dtd"
   xmlns="http://www.w3.org/2000/svg"
   xmlns:svg="http://www.w3.org/2000/svg">
  <sodipodi:namedview
     id="namedview59381"
     pagecolor="#ffffff"
     bordercolor="#000000"
     borderopacity="0.25"
     inkscape:showpageshadow="2"
     inkscape:pageopacity="0.0"
     inkscape:pagecheckerboard="0"
     inkscape:deskcolor="#d1d1d1"
     inkscape:document-units="mm"
     showgrid="false"
     inkscape:zoom="2.9825758"
     inkscape:cx="111.98374"
     inkscape:cy="96.560833"
     inkscape:window-width="1920"
     inkscape:window-height="1017"
     inkscape:window-x="-8"
     inkscape:window-y="-8"
     inkscape:window-maximized="1"
     inkscape:current-layer="layer1" />
  <defs
     id="defs59376" />
  <g
     inkscape:label="Layer 1"
     inkscape:groupmode="layer"
     id="layer1"
     transform="translate(-54.425613,-125.33614)">
    <path
       d="m 77.450978,170.59907 c -9.009758,0 -16.308165,-7.34874 -16.308165,-16.30817 0,-8.95942 7.298407,-16.30816 16.308165,-16.30816 9.009758,0 16.308164,7.29841 16.308164,16.30816 0,9.00976 -7.348741,16.30817 -16.308164,16.30817 z m 0,-31.60965 c -8.456086,0 -15.301488,6.8454 -15.301488,15.30148 0,8.45609 6.845402,15.30149 15.301488,15.30149 8.456084,0 15.301487,-6.8454 15.301487,-15.30149 -2e-6,-8.45608 -6.895738,-15.30148 -15.301487,-15.30148 z"
       style="display:inline;fill:#000000;fill-opacity:1;fill-rule:nonzero;stroke:none;stroke-width:0.503338"
       id="path1998" />
    <path
       d="m 54.590884,131.84153 10.21192,13.24813"
       style="display:inline;fill:none;stroke:#000000;stroke-width:0.417344;stroke-linecap:butt;stroke-linejoin:miter;stroke-miterlimit:10;stroke-dasharray:none;stroke-opacity:1"
       id="path2010" />
    <path
       d="M 101.3467,125.44706 89.615296,144.25679"
       style="display:inline;fill:none;stroke:#000000;stroke-width:0.41921;stroke-linecap:butt;stroke-linejoin:miter;stroke-miterlimit:10;stroke-dasharray:none;stroke-opacity:1"
       id="path2014" />
    <g
       id="path41044-4"
       transform="matrix(0.95089176,0.3095236,-0.34137782,0.93992616,0,0)">
      <path
         style="color:#000000;fill:#ff0101;fill-opacity:0.995204;stroke-linecap:round;-inkscape-stroke:none"
         d="m 146.70703,98.783203 a 0.83388001,0.83388001 0 0 0 -0.98437,0.648438 c -1.17253,5.730729 -0.20427,12.241809 2.63867,15.484379 0.71073,0.81064 1.51635,1.36048 2.38672,1.58789 0.87037,0.2274 1.78433,0.10753 2.59179,-0.30274 1.61493,-0.82053 2.86376,-2.66036 3.70703,-5.26758 a 0.83388001,0.83388001 0 0 0 -0.5371,-1.05078 0.83388001,0.83388001 0 0 0 -1.05079,0.53711 c -0.76121,2.35352 -1.88759,3.79323 -2.875,4.29492 -0.4937,0.25085 -0.93737,0.30033 -1.41406,0.17579 -0.47668,-0.12455 -1.00819,-0.44895 -1.55469,-1.07227 -2.18599,-2.49328 -3.33833,-8.77167 -2.25781,-14.052735 a 0.83388001,0.83388001 0 0 0 -0.65039,-0.982422 z"
         id="path309" />
      <g
         id="g301">
        <path
           style="color:#000000;fill:#ff0101;stroke-linecap:round;-inkscape-stroke:none"
           d="m 146.81445,98.257812 -5.65625,3.736328 a 0.714755,0.714755 0 0 0 -0.20312,0.99024 0.714755,0.714755 0 0 0 0.99023,0.20312 l 4.46485,-2.94727 2.94726,4.4629 a 0.714755,0.714755 0 0 0 0.99024,0.20312 0.714755,0.714755 0 0 0 0.20312,-0.99023 z"
           id="path303" />
      </g>
    </g>
  </g>
</svg>
