<?xml version="1.0" encoding="UTF-8" standalone="no"?>
<!-- Created with Inkscape (http://www.inkscape.org/) -->

<svg
   width="46.556274mm"
   height="54.992332mm"
   viewBox="0 0 46.556274 54.992332"
   version="1.1"
   id="svg60350"
   inkscape:version="1.2.2 (732a01da63, 2022-12-09)"
   sodipodi:docname="z.svg"
   xmlns:inkscape="http://www.inkscape.org/namespaces/inkscape"
   xmlns:sodipodi="http://sodipodi.sourceforge.net/DTD/sodipodi-0.dtd"
   xmlns="http://www.w3.org/2000/svg"
   xmlns:svg="http://www.w3.org/2000/svg">
  <sodipodi:namedview
     id="namedview60352"
     pagecolor="#ffffff"
     bordercolor="#000000"
     borderopacity="0.25"
     inkscape:showpageshadow="2"
     inkscape:pageopacity="0.0"
     inkscape:pagecheckerboard="0"
     inkscape:deskcolor="#d1d1d1"
     inkscape:document-units="mm"
     showgrid="false"
     inkscape:zoom="1.4912879"
     inkscape:cx="70.07366"
     inkscape:cy="-5.3644907"
     inkscape:window-width="1920"
     inkscape:window-height="1017"
     inkscape:window-x="-8"
     inkscape:window-y="-8"
     inkscape:window-maximized="1"
     inkscape:current-layer="layer1" />
  <defs
     id="defs60347" />
  <g
     inkscape:label="Layer 1"
     inkscape:groupmode="layer"
     id="layer1"
     transform="translate(-75.012206,-125.79416)">
    <path
       d="m 92.695961,180.78649 c -9.679699,0 -17.520796,-7.89517 -17.520796,-17.52079 0,-9.62563 7.841097,-17.5208 17.520796,-17.5208 9.679699,0 17.520799,7.8411 17.520799,17.5208 0,9.6797 -7.89518,17.52079 -17.520799,17.52079 z m 0,-33.96006 c -9.084857,0 -16.439265,7.35441 -16.439265,16.43927 0,9.08485 7.354408,16.43926 16.439265,16.43926 9.084859,0 16.439269,-7.35441 16.439269,-16.43926 -1e-5,-9.08486 -7.40849,-16.43927 -16.439269,-16.43927 z"
       style="display:inline;fill:#000000;fill-opacity:1;fill-rule:nonzero;stroke:none;stroke-width:0.540765"
       id="path2062" />
    <path
       d="m 75.174381,125.79686 0.648664,38.93127"
       style="display:inline;fill:none;stroke:#000000;stroke-width:0.324396;stroke-linecap:butt;stroke-linejoin:miter;stroke-miterlimit:10;stroke-dasharray:none;stroke-opacity:1"
       id="path2074" />
    <g
       id="path391"
       style="display:inline;fill:#ff0000">
      <path
         style="color:#000000;fill:#ff0000;stroke-linejoin:bevel;-inkscape-stroke:none"
         d="m 120.94831,129.18043 h -12.08142 v 3.11511 h 6.72769 l -7.01196,7.45022 v 2.73608 l 10.66348,0.0396 -0.0664,-3.2539 -5.13675,0.0399 6.90536,-7.43837 z"
         id="path1353"
         sodipodi:nodetypes="ccccccccccc" />
      <g
         id="g1345"
         style="display:inline;fill:#ff0000">
        <path
           style="color:#000000;fill:#ff0000;stroke-linecap:round;-inkscape-stroke:none"
           d="m 114.84766,135.56836 a 0.77345502,0.77345502 0 0 0 -0.54102,0.23828 0.77345502,0.77345502 0 0 0 0.0215,1.09375 l 4.17773,4.00977 -4.00977,4.17578 a 0.77345502,0.77345502 0 0 0 0.0234,1.09375 0.77345502,0.77345502 0 0 0 1.09375,-0.0215 l 5.08008,-5.29492 -5.29492,-5.07812 a 0.77345502,0.77345502 0 0 0 -0.55078,-0.2168 z"
           id="path1347" />
      </g>
    </g>
  </g>
</svg>
