<?xml version="1.0" encoding="UTF-8" standalone="no"?>
<!-- Created with Inkscape (http://www.inkscape.org/) -->

<svg
   width="1000"
   height="1000"
   viewBox="0 0 264.58333 264.58335"
   version="1.1"
   id="svg10039"
   inkscape:version="1.3.2 (091e20e, 2023-11-25, custom)"
   sodipodi:docname="AGOSTO.svg"
   xml:space="preserve"
   xmlns:inkscape="http://www.inkscape.org/namespaces/inkscape"
   xmlns:sodipodi="http://sodipodi.sourceforge.net/DTD/sodipodi-0.dtd"
   xmlns="http://www.w3.org/2000/svg"
   xmlns:svg="http://www.w3.org/2000/svg"><sodipodi:namedview
     id="namedview10041"
     pagecolor="#ffffff"
     bordercolor="#000000"
     borderopacity="0.25"
     inkscape:showpageshadow="2"
     inkscape:pageopacity="0"
     inkscape:pagecheckerboard="0"
     inkscape:deskcolor="#d1d1d1"
     inkscape:document-units="px"
     showgrid="false"
     inkscape:zoom="0.70710678"
     inkscape:cx="309.71277"
     inkscape:cy="359.91735"
     inkscape:window-width="1920"
     inkscape:window-height="1001"
     inkscape:window-x="-9"
     inkscape:window-y="-9"
     inkscape:window-maximized="1"
     inkscape:current-layer="layer1"
     showguides="true"><sodipodi:guide
       position="0,52.916668"
       orientation="0,1"
       id="guide294"
       inkscape:locked="false"
       inkscape:label=""
       inkscape:color="rgb(0,134,229)" /><sodipodi:guide
       position="0,79.375002"
       orientation="0,1"
       id="guide3203"
       inkscape:locked="false"
       inkscape:label=""
       inkscape:color="rgb(0,134,229)" /><sodipodi:guide
       position="13.229167,264.58334"
       orientation="-1,0"
       id="guide3205"
       inkscape:locked="false"
       inkscape:label=""
       inkscape:color="rgb(0,134,229)" /><sodipodi:guide
       position="163.83551,132.29188"
       orientation="-1,0"
       id="guide3207"
       inkscape:label=""
       inkscape:locked="false"
       inkscape:color="rgb(0,134,229)" /><sodipodi:guide
       position="177.06468,132.29188"
       orientation="-1,0"
       id="guide310"
       inkscape:label=""
       inkscape:locked="false"
       inkscape:color="rgb(0,134,229)" /><sodipodi:guide
       position="0,172.71543"
       orientation="1,0"
       id="guide1"
       inkscape:locked="false" /><sodipodi:guide
       position="110.96546,132.29185"
       orientation="-0.70710678,0.70710678"
       id="guide2"
       inkscape:locked="false"
       inkscape:label=""
       inkscape:color="rgb(0,134,229)" /></sodipodi:namedview><defs
     id="defs10036"><clipPath
       clipPathUnits="userSpaceOnUse"
       id="clipPath420"><path
         d="M 591.86957,383.12061 H 908.19696 V 699.448 H 591.86957 Z"
         clip-rule="evenodd"
         id="path418" /></clipPath><clipPath
       clipPathUnits="userSpaceOnUse"
       id="clipPath420-8"><path
         d="M 591.86957,383.12061 H 908.19696 V 699.448 H 591.86957 Z"
         clip-rule="evenodd"
         id="path418-4" /></clipPath><clipPath
       clipPathUnits="userSpaceOnUse"
       id="clipPath420-6"><path
         d="M 591.86957,383.12061 H 908.19696 V 699.448 H 591.86957 Z"
         clip-rule="evenodd"
         id="path418-3" /></clipPath><clipPath
       clipPathUnits="userSpaceOnUse"
       id="clipPath420-5"><path
         d="M 591.86957,383.12061 H 908.19696 V 699.448 H 591.86957 Z"
         clip-rule="evenodd"
         id="path418-2" /></clipPath><clipPath
       clipPathUnits="userSpaceOnUse"
       id="clipPath420-7"><path
         d="M 591.86957,383.12061 H 908.19696 V 699.448 H 591.86957 Z"
         clip-rule="evenodd"
         id="path418-4-5" /></clipPath><clipPath
       clipPathUnits="userSpaceOnUse"
       id="clipPath420-4"><path
         d="M 591.86957,383.12061 H 908.19696 V 699.448 H 591.86957 Z"
         clip-rule="evenodd"
         id="path418-0" /></clipPath></defs><g
     inkscape:label="Layer 1"
     inkscape:groupmode="layer"
     id="layer1"
     transform="translate(-6.9272639,-79.57655)"><path
       id="path6"
       style="color:#000000;fill:#ff0000;fill-rule:evenodd;stroke-linecap:round;-inkscape-stroke:none"
       d="m 97.105675,148.54322 a 3.3072901,3.3072901 0 0 0 -3.648873,2.9254 l -3.417879,31.1857 31.183627,3.41581 a 3.3072901,3.3072901 0 0 0 3.64835,-2.9254 3.3072901,3.3072901 0 0 0 -2.92747,-3.64888 l -19.40863,-2.127 c 10.02928,-6.6993 32.48262,-19.6913 55.86584,-19.6913 23.38326,0 45.83658,12.99201 55.86584,19.6913 l -19.40915,2.127 a 3.3072901,3.3072901 0 0 0 -2.92747,3.64888 3.3072901,3.3072901 0 0 0 3.64629,2.9254 l 31.18569,-3.41581 -3.41788,-31.1857 a 3.3072901,3.3072901 0 0 0 -3.64887,-2.9254 3.3072901,3.3072901 0 0 0 -2.92747,3.64629 l 2.22984,20.33364 c -9.94397,-6.89736 -34.04858,-21.4607 -60.59682,-21.4607 -26.54695,0 -50.65144,14.56189 -60.5963,21.45967 l 2.22674,-20.33261 a 3.3072901,3.3072901 0 0 0 -2.925405,-3.64629 z"
       transform="translate(-40.508055,-40.766555)" /><path
       id="path1"
       style="color:#000000;display:inline;fill:#000000;fill-opacity:1;fill-rule:evenodd;-inkscape-stroke:none"
       d="M 117.89259 158.95104 C 97.196902 158.95104 79.256013 170.89031 70.562658 188.23865 C 67.773497 177.76892 60.510129 168.74721 50.280691 163.94195 C 35.555254 157.02467 18.023358 160.40571 6.9282974 172.30474 L 10.153424 175.31231 C 19.954467 164.80108 35.397345 161.82191 48.405353 167.9324 C 59.585874 173.18443 66.738712 184.10847 67.365954 196.12499 C 65.813611 201.09952 64.976435 206.38697 64.976435 211.86719 C 64.976435 241.05296 88.706802 264.7854 117.89259 264.7854 C 147.07836 264.7854 170.80874 241.05296 170.80874 211.86719 C 170.80874 200.68176 167.28389 190.32781 161.34006 181.77497 L 161.34006 168.42178 L 147.98791 168.42178 C 139.43446 162.47667 129.07935 158.95104 117.89259 158.95104 z M 117.89259 165.56665 C 127.94999 165.56665 137.21859 168.79601 144.80257 174.22349 L 144.80257 184.9572 L 155.53732 184.9572 C 160.96547 192.54096 164.19519 201.80942 164.19519 211.86719 C 164.19519 237.47818 143.50358 258.16979 117.89259 258.16979 C 92.281571 258.16979 71.589985 237.47818 71.589985 211.86719 C 71.589985 186.25616 92.281571 165.56665 117.89259 165.56665 z M 148.10935 171.72855 L 158.03122 171.72855 L 158.03122 181.65043 L 148.10935 181.65043 L 148.10935 171.72855 z "
       transform="translate(4.2121449e-8)" /></g></svg>
