<?xml version="1.0" encoding="UTF-8" standalone="no"?>
<!-- Created with Inkscape (http://www.inkscape.org/) -->

<svg
   width="1000"
   height="1000"
   viewBox="0 0 264.58333 264.58332"
   version="1.1"
   id="svg45951"
   inkscape:version="1.3.2 (091e20e, 2023-11-25, custom)"
   sodipodi:docname="ANO.svg"
   xml:space="preserve"
   xmlns:inkscape="http://www.inkscape.org/namespaces/inkscape"
   xmlns:sodipodi="http://sodipodi.sourceforge.net/DTD/sodipodi-0.dtd"
   xmlns="http://www.w3.org/2000/svg"
   xmlns:svg="http://www.w3.org/2000/svg"><sodipodi:namedview
     id="namedview45953"
     pagecolor="#ffffff"
     bordercolor="#000000"
     borderopacity="0.25"
     inkscape:showpageshadow="2"
     inkscape:pageopacity="0.0"
     inkscape:pagecheckerboard="0"
     inkscape:deskcolor="#d1d1d1"
     inkscape:document-units="px"
     showgrid="false"
     inkscape:zoom="1.0544998"
     inkscape:cx="584.16322"
     inkscape:cy="676.62412"
     inkscape:window-width="1920"
     inkscape:window-height="1001"
     inkscape:window-x="-9"
     inkscape:window-y="-9"
     inkscape:window-maximized="1"
     inkscape:current-layer="layer1"
     showguides="true"><sodipodi:guide
       position="0,79.374998"
       orientation="0,1"
       id="guide6008"
       inkscape:locked="false"
       inkscape:label=""
       inkscape:color="rgb(0,134,229)" /><sodipodi:guide
       position="0,52.916665"
       orientation="0,1"
       id="guide6010"
       inkscape:label=""
       inkscape:locked="false"
       inkscape:color="rgb(0,134,229)" /><sodipodi:guide
       position="13.229166,264.58333"
       orientation="-1,0"
       id="guide6012"
       inkscape:locked="false"
       inkscape:label=""
       inkscape:color="rgb(0,134,229)" /><sodipodi:guide
       position="0,132.29166"
       orientation="0,1"
       id="guide1"
       inkscape:locked="false"
       inkscape:label=""
       inkscape:color="rgb(0,134,229)" /><sodipodi:guide
       position="119.0612,79.374996"
       orientation="1,0"
       id="guide2"
       inkscape:locked="false" /><sodipodi:guide
       position="66.14519,185.20994"
       orientation="0,-1"
       id="guide3"
       inkscape:locked="false" /><sodipodi:guide
       position="66.145191,185.20994"
       orientation="1,0"
       id="guide4"
       inkscape:locked="false" /><sodipodi:guide
       position="66.14519,185.20994"
       orientation="0.5,0.8660254"
       id="guide5"
       inkscape:label=""
       inkscape:locked="false"
       inkscape:color="rgb(0,134,229)" /><sodipodi:guide
       position="171.97724,79.375963"
       orientation="1,0"
       id="guide6"
       inkscape:locked="false" /><sodipodi:guide
       position="171.97724,79.375963"
       orientation="0.70710678,-0.70710678"
       id="guide7"
       inkscape:label=""
       inkscape:locked="false"
       inkscape:color="rgb(0,134,229)" /><sodipodi:guide
       position="207.37146,114.77017"
       orientation="-0.25881905,0.96592583"
       id="guide8"
       inkscape:locked="false"
       inkscape:label=""
       inkscape:color="rgb(0,134,229)" /><sodipodi:guide
       position="224.89326,79.374996"
       orientation="1,0"
       id="guide11"
       inkscape:locked="false" /><sodipodi:guide
       position="238.12499,79.374996"
       orientation="-1,0"
       id="guide12"
       inkscape:label=""
       inkscape:locked="false"
       inkscape:color="rgb(0,134,229)" /></sodipodi:namedview><defs
     id="defs45948"><clipPath
       clipPathUnits="userSpaceOnUse"
       id="clipPath420"><path
         d="M 591.86957,383.12061 H 908.19696 V 699.448 H 591.86957 Z"
         clip-rule="evenodd"
         id="path418" /></clipPath><clipPath
       clipPathUnits="userSpaceOnUse"
       id="clipPath420-8"><path
         d="M 591.86957,383.12061 H 908.19696 V 699.448 H 591.86957 Z"
         clip-rule="evenodd"
         id="path418-1" /></clipPath></defs><g
     inkscape:label="Layer 1"
     inkscape:groupmode="layer"
     id="layer1"
     transform="translate(-73.474638,-156.15206)"><path
       style="color:#000000;fill:#000000;fill-opacity:1;fill-rule:evenodd;-inkscape-stroke:none"
       d="m 245.45187,288.44243 c -29.18586,0 -52.91602,23.7321 -52.91602,52.91796 0,29.18586 23.73016,52.91602 52.91602,52.91602 29.18586,0 52.91602,-23.73016 52.91602,-52.91602 0,-29.18586 -23.73016,-52.91796 -52.91602,-52.91796 z m 0,6.61524 c 25.61108,0 46.30273,20.69164 46.30273,46.30272 0,25.61108 -20.69165,46.30078 -46.30273,46.30078 -25.61108,0 -46.30273,-20.6897 -46.30273,-46.30078 0,-25.61108 20.69165,-46.30272 46.30273,-46.30272 z"
       id="path1" /><path
       style="color:#000000;fill:#000000;fill-opacity:1;fill-rule:evenodd;-inkscape-stroke:none"
       d="m 125.92391,184.41155 c -28.191377,7.55385 -44.97064,36.61912 -37.416786,64.8105 7.553854,28.19137 36.617246,44.97113 64.808626,37.41728 28.19138,-7.55386 44.97114,-36.61725 37.41728,-64.80862 -7.55385,-28.19138 -36.61774,-44.97301 -64.80912,-37.41916 z m 1.71215,6.38983 c 24.7384,-6.62863 50.08039,8.00257 56.70902,32.74097 6.62864,24.73841 -8.00307,50.07851 -32.74148,56.70715 -24.7384,6.62863 -50.0799,-8.00069 -56.708532,-32.7391 -6.628634,-24.7384 8.002582,-50.08038 32.740992,-56.70902 z"
       id="path2" /><rect
       style="fill:#000000;fill-opacity:1;fill-rule:evenodd;stroke:none;stroke-width:3.21629"
       id="rect1"
       width="6.6145859"
       height="50.111168"
       x="-137.46837"
       y="188.56589"
       inkscape:transform-center-x="57.283989"
       inkscape:transform-center-y="-33.072925"
       transform="rotate(-59.99999,6.2684162e-6,1.1874695e-6)" /><rect
       style="fill:#000000;fill-opacity:1;fill-rule:evenodd;stroke:none;stroke-width:3.21629"
       id="rect1-3"
       width="6.6145935"
       height="39.525913"
       x="364.92075"
       y="-192.08684"
       inkscape:transform-center-x="63.891962"
       inkscape:transform-center-y="17.119809"
       transform="rotate(74.999994,5.7679691e-7,1.7375224e-6)" /><path
       id="path11"
       style="color:#000000;fill:#ff0000;-inkscape-stroke:none"
       d="M 235.52934 174.71113 C 227.53164 174.71113 221.04076 180.97133 216.67003 189.7128 C 212.29929 198.45427 209.73247 210.13063 209.73247 222.99811 C 209.73247 235.86558 212.29929 247.53987 216.67003 256.28135 C 221.04076 265.02282 227.53164 271.28301 235.52934 271.28301 C 243.52704 271.28301 250.02 265.02282 254.39072 256.28135 C 258.056 248.95078 260.44437 239.55343 261.12209 229.12383 L 275.52535 243.52554 A 3.3072901 3.3072901 0 0 0 280.20103 243.52554 A 3.3072901 3.3072901 0 0 0 280.20103 238.84985 L 261.2704 219.91767 C 260.89521 208.27286 258.40959 197.75054 254.39072 189.7128 C 250.02 180.97133 243.52704 174.71113 235.52934 174.71113 z M 235.52934 181.32623 C 239.95227 181.32623 244.70593 185.13405 248.4748 192.67179 C 251.92926 199.5807 254.28563 209.24626 254.65582 220.03033 L 235.83785 238.84985 A 3.3072901 3.3072901 0 0 0 235.83785 243.52554 A 3.3072901 3.3072901 0 0 0 240.51353 243.52554 L 254.461 229.57962 C 253.74343 238.90172 251.53892 247.19618 248.4748 253.32442 C 244.70593 260.86217 239.95227 264.66998 235.52934 264.66998 C 231.10642 264.66998 226.35482 260.86217 222.58595 253.32442 C 218.81707 245.78667 216.34757 234.97188 216.34757 222.99811 C 216.34757 211.02432 218.81707 200.20955 222.58595 192.67179 C 226.35482 185.13405 231.10642 181.32623 235.52934 181.32623 z " /></g></svg>
