<?xml version="1.0" encoding="UTF-8" standalone="no"?>
<!-- Created with Inkscape (http://www.inkscape.org/) -->

<svg
   width="1000"
   height="1000"
   viewBox="0 0 264.58333 264.58335"
   version="1.1"
   id="svg10039"
   inkscape:version="1.3.2 (091e20e, 2023-11-25, custom)"
   sodipodi:docname="AZUL.svg"
   xml:space="preserve"
   xmlns:inkscape="http://www.inkscape.org/namespaces/inkscape"
   xmlns:sodipodi="http://sodipodi.sourceforge.net/DTD/sodipodi-0.dtd"
   xmlns="http://www.w3.org/2000/svg"
   xmlns:svg="http://www.w3.org/2000/svg"><sodipodi:namedview
     id="namedview10041"
     pagecolor="#ffffff"
     bordercolor="#000000"
     borderopacity="0.25"
     inkscape:showpageshadow="2"
     inkscape:pageopacity="0"
     inkscape:pagecheckerboard="0"
     inkscape:deskcolor="#d1d1d1"
     inkscape:document-units="px"
     showgrid="false"
     inkscape:zoom="0.25"
     inkscape:cx="620"
     inkscape:cy="-82"
     inkscape:window-width="1920"
     inkscape:window-height="1017"
     inkscape:window-x="-8"
     inkscape:window-y="-8"
     inkscape:window-maximized="1"
     inkscape:current-layer="layer1"
     showguides="true"><sodipodi:guide
       position="0,52.916668"
       orientation="0,1"
       id="guide294"
       inkscape:locked="false"
       inkscape:label=""
       inkscape:color="rgb(0,134,229)" /><sodipodi:guide
       position="0,79.375002"
       orientation="0,1"
       id="guide3203"
       inkscape:locked="false"
       inkscape:label=""
       inkscape:color="rgb(0,134,229)" /><sodipodi:guide
       position="13.229167,264.58334"
       orientation="-1,0"
       id="guide3205"
       inkscape:locked="false"
       inkscape:label=""
       inkscape:color="rgb(0,134,229)" /><sodipodi:guide
       position="177.11065,132.29167"
       orientation="-1,0"
       id="guide3207"
       inkscape:label=""
       inkscape:locked="false"
       inkscape:color="rgb(0,134,229)" /><sodipodi:guide
       position="0,172.71543"
       orientation="1,0"
       id="guide1"
       inkscape:locked="false" /><sodipodi:guide
       position="338.65014,111.23984"
       orientation="1,0"
       id="guide3"
       inkscape:locked="false" /><sodipodi:guide
       position="527.10063,132.29322"
       orientation="-1,0"
       id="guide6"
       inkscape:label=""
       inkscape:locked="false"
       inkscape:color="rgb(0,134,229)" /><sodipodi:guide
       position="203.56899,132.29167"
       orientation="-1,0"
       id="guide7"
       inkscape:label=""
       inkscape:locked="false"
       inkscape:color="rgb(0,134,229)" /><sodipodi:guide
       position="365.10847,111.23984"
       orientation="-1,0"
       id="guide8"
       inkscape:label=""
       inkscape:locked="false"
       inkscape:color="rgb(0,134,229)" /><sodipodi:guide
       position="540.3298,132.29322"
       orientation="-1,0"
       id="guide9"
       inkscape:label=""
       inkscape:locked="false"
       inkscape:color="rgb(0,134,229)" /></sodipodi:namedview><defs
     id="defs10036"><clipPath
       clipPathUnits="userSpaceOnUse"
       id="clipPath420"><path
         d="M 591.86957,383.12061 H 908.19696 V 699.448 H 591.86957 Z"
         clip-rule="evenodd"
         id="path418" /></clipPath><clipPath
       clipPathUnits="userSpaceOnUse"
       id="clipPath420-8"><path
         d="M 591.86957,383.12061 H 908.19696 V 699.448 H 591.86957 Z"
         clip-rule="evenodd"
         id="path418-4" /></clipPath><inkscape:path-effect
       effect="mirror_symmetry"
       start_point="160.9029,72.272244"
       end_point="160.9029,96.455072"
       center_point="160.9029,84.363658"
       id="path-effect5"
       is_visible="true"
       lpeversion="1.2"
       lpesatellites=""
       mode="free"
       discard_orig_path="false"
       fuse_paths="false"
       oposite_fuse="false"
       split_items="false"
       split_open="false"
       link_styles="false" /><clipPath
       clipPathUnits="userSpaceOnUse"
       id="clipPath420-0"><path
         d="M 591.86957,383.12061 H 908.19696 V 699.448 H 591.86957 Z"
         clip-rule="evenodd"
         id="path418-0" /></clipPath><clipPath
       clipPathUnits="userSpaceOnUse"
       id="clipPath420-1"><path
         d="M 591.86957,383.12061 H 908.19696 V 699.448 H 591.86957 Z"
         clip-rule="evenodd"
         id="path418-7" /></clipPath><clipPath
       clipPathUnits="userSpaceOnUse"
       id="clipPath420-12"><path
         d="M 591.86957,383.12061 H 908.19696 V 699.448 H 591.86957 Z"
         clip-rule="evenodd"
         id="path418-8" /></clipPath><clipPath
       clipPathUnits="userSpaceOnUse"
       id="clipPath420-5"><path
         d="M 591.86957,383.12061 H 908.19696 V 699.448 H 591.86957 Z"
         clip-rule="evenodd"
         id="path418-2" /></clipPath><clipPath
       clipPathUnits="userSpaceOnUse"
       id="clipPath420-7"><path
         d="M 591.86957,383.12061 H 908.19696 V 699.448 H 591.86957 Z"
         clip-rule="evenodd"
         id="path418-4-8" /></clipPath><clipPath
       clipPathUnits="userSpaceOnUse"
       id="clipPath420-127"><path
         d="M 591.86957,383.12061 H 908.19696 V 699.448 H 591.86957 Z"
         clip-rule="evenodd"
         id="path418-44" /></clipPath></defs><g
     inkscape:label="Layer 1"
     inkscape:groupmode="layer"
     id="layer1"
     transform="translate(-6.9272639,-79.57655)"><path
       id="path1"
       style="color:#000000;display:inline;fill:#000000;fill-opacity:1;fill-rule:evenodd;-inkscape-stroke:none"
       d="m 131.12176,158.95104 c -20.69573,0 -38.636562,11.93923 -47.329935,29.28761 -2.789167,-10.46975 -10.052509,-19.49142 -20.281967,-24.2967 -14.725467,-6.91728 -32.257311,-3.53626 -43.352394,8.36279 l 3.225127,3.00757 c 9.801063,-10.51125 25.243895,-13.49042 38.251929,-7.37991 11.180543,5.25205 18.333359,16.17603 18.960601,28.19259 -1.552345,4.97453 -2.389519,10.26198 -2.389519,15.7422 0,29.18583 23.730318,52.91821 52.916158,52.91821 29.18583,0 52.91615,-23.73238 52.91615,-52.91821 0,-29.18584 -23.73032,-52.91615 -52.91615,-52.91615 z m 0,6.61561 c 25.61105,0 46.3026,20.68947 46.3026,46.30054 0,25.61105 -20.69155,46.3026 -46.3026,46.3026 -25.61107,0 -46.302608,-20.69155 -46.302608,-46.3026 0,-25.61107 20.691538,-46.30054 46.302608,-46.30054 z" /><g
       id="path5"
       transform="translate(117.11127,116.96555)"><path
         id="path7"
         style="color:#000000;fill:#ff0000;fill-rule:evenodd;stroke-linecap:round;-inkscape-stroke:none"
         d="m 221.30643,78.338138 a 3.3072901,3.3072901 0 0 0 -2.91765,3.656108 l 2.28513,20.325374 C 210.72278,95.461237 186.63904,81.008038 160.10914,80.99224 a 3.3072901,3.3072901 0 0 0 -0.01,-0.0021 h -0.0176 -0.0155 a 3.3072901,3.3072901 0 0 0 -0.004,0.0021 c -34.73547,0.01787 -65.478692,24.90442 -65.478692,24.90442 a 3.3072901,3.3072901 0 0 0 -0.523482,4.64623 3.3072901,3.3072901 0 0 0 4.648295,0.52348 c 0,0 29.846339,-23.452361 61.372999,-23.461097 23.39932,0.0058 45.84396,12.913327 55.87617,19.575037 l -19.40295,2.18126 a 3.3072901,3.3072901 0 0 0 -2.91816,3.6561 3.3072901,3.3072901 0 0 0 3.6561,2.91611 l 31.17381,-3.50418 -3.50366,-31.17381 a 3.3072901,3.3072901 0 0 0 -3.65663,-2.917652 z" /><g
         id="g6" /></g><path
       id="path1-9"
       style="color:#000000;fill:#080000;fill-opacity:1;fill-rule:evenodd;-inkscape-stroke:none"
       d="m 432.96843,106.87204 -6.60632,0.11523 1.83762,105.27989 h 0.005 c 0.059,7.88497 1.84979,15.36163 5.01054,22.07307 h -61.17956 v 6.61459 h 64.89785 c 9.47461,14.34425 25.73271,23.83007 44.17818,23.83007 29.18583,0 52.91615,-23.73238 52.91615,-52.91822 0,-29.18583 -23.73032,-52.91615 -52.91615,-52.91615 -20.23709,0 -37.84343,11.41434 -46.74288,28.1404 z m 48.14331,58.6941 c 25.61106,0 46.30105,20.68948 46.30105,46.30053 0,25.61106 -20.68999,46.3026 -46.30105,46.3026 -25.61106,0 -46.3026,-20.69154 -46.3026,-46.3026 0,-25.61105 20.69154,-46.30053 46.3026,-46.30053 z" /></g></svg>
