<?xml version="1.0" encoding="UTF-8" standalone="no"?>
<!-- Created with Inkscape (http://www.inkscape.org/) -->

<svg
   width="1000"
   height="1000"
   viewBox="0 0 264.58334 264.58333"
   version="1.1"
   id="svg22843"
   inkscape:version="1.3.2 (091e20e, 2023-11-25, custom)"
   sodipodi:docname="DIA.svg"
   xml:space="preserve"
   xmlns:inkscape="http://www.inkscape.org/namespaces/inkscape"
   xmlns:sodipodi="http://sodipodi.sourceforge.net/DTD/sodipodi-0.dtd"
   xmlns="http://www.w3.org/2000/svg"
   xmlns:svg="http://www.w3.org/2000/svg"><sodipodi:namedview
     id="namedview22845"
     pagecolor="#ffffff"
     bordercolor="#000000"
     borderopacity="0.25"
     inkscape:showpageshadow="2"
     inkscape:pageopacity="0.0"
     inkscape:pagecheckerboard="0"
     inkscape:deskcolor="#d1d1d1"
     inkscape:document-units="px"
     showgrid="false"
     inkscape:zoom="0.70710678"
     inkscape:cx="138.59293"
     inkscape:cy="409.41483"
     inkscape:window-width="1920"
     inkscape:window-height="1017"
     inkscape:window-x="-8"
     inkscape:window-y="-8"
     inkscape:window-maximized="1"
     inkscape:current-layer="layer1"
     showguides="true"><sodipodi:guide
       position="0,52.916667"
       orientation="0,1"
       id="guide713"
       inkscape:locked="false"
       inkscape:label=""
       inkscape:color="rgb(0,134,229)" /><sodipodi:guide
       position="83.815726,79.365549"
       orientation="0,-1"
       id="guide3782"
       inkscape:locked="false" /><sodipodi:guide
       position="13.229167,33.3375"
       orientation="-1,0"
       id="guide3784"
       inkscape:label=""
       inkscape:locked="false"
       inkscape:color="rgb(0,134,229)" /><sodipodi:guide
       position="147.15501,132.28288"
       orientation="-1,0"
       id="guide905"
       inkscape:label=""
       inkscape:locked="false"
       inkscape:color="rgb(0,134,229)" /><sodipodi:guide
       position="133.92585,132.28288"
       orientation="-1,0"
       id="guide4"
       inkscape:label=""
       inkscape:locked="false"
       inkscape:color="rgb(0,134,229)" /><sodipodi:guide
       position="272.83263,-2.5585938e-06"
       orientation="1,0"
       id="guide5"
       inkscape:locked="false" /><sodipodi:guide
       position="286.0618,-2.5585938e-06"
       orientation="-1,0"
       id="guide6"
       inkscape:label=""
       inkscape:locked="false"
       inkscape:color="rgb(0,134,229)" /></sodipodi:namedview><defs
     id="defs22840"><clipPath
       clipPathUnits="userSpaceOnUse"
       id="clipPath886"><path
         d="m 2757.6108,360.38428 h 337.3921 v 337.39221 h -337.3921 z"
         clip-rule="evenodd"
         id="path884" /></clipPath><clipPath
       clipPathUnits="userSpaceOnUse"
       id="clipPath898"><path
         d="M 0,0 H 6000 V 3375 H 0 Z"
         clip-rule="evenodd"
         id="path896" /></clipPath><clipPath
       clipPathUnits="userSpaceOnUse"
       id="clipPath420"><path
         d="M 591.86957,383.12061 H 908.19696 V 699.448 H 591.86957 Z"
         clip-rule="evenodd"
         id="path418" /></clipPath></defs><g
     inkscape:label="Layer 1"
     inkscape:groupmode="layer"
     id="layer1"
     transform="translate(-130.13643,-140.69541)"><path
       id="rect1"
       style="fill:#000000;fill-opacity:1;fill-rule:evenodd;stroke:none;stroke-width:3.05473"
       d="m 376.51071,146.12698 v 83.46564 c -9.03147,-16.28218 -26.39319,-27.32753 -46.30105,-27.32753 -29.18583,0 -52.91822,23.7298 -52.91822,52.91563 0,29.18584 23.73239,52.91822 52.91822,52.91822 29.18584,0 52.91615,-23.73238 52.91615,-52.91822 0,-0.007 -5.2e-4,-0.0134 -5.2e-4,-0.0202 V 146.12698 Z m -46.30105,62.75321 c 25.61106,0 46.30053,20.68948 46.30053,46.30053 0,25.61107 -20.68947,46.30312 -46.30053,46.30312 -25.61106,0 -46.3026,-20.69205 -46.3026,-46.30312 0,-25.61105 20.69154,-46.30053 46.3026,-46.30053 z"
       sodipodi:nodetypes="ccsssssccsssss" /><rect
       style="fill:#000000;fill-opacity:0.997685;fill-rule:evenodd;stroke:none;stroke-width:3.21629"
       id="rect1-9"
       width="6.6145935"
       height="36.294769"
       x="309.55203"
       y="330.20456"
       inkscape:transform-center-y="29.836397"
       transform="rotate(-3.3633077)"
       inkscape:transform-center-x="-1.7534375" /><rect
       style="fill:#000000;fill-opacity:1;fill-rule:evenodd;stroke:none;stroke-width:2.11937"
       id="rect1-1"
       width="6.6145835"
       height="57.44244"
       x="359.1539"
       y="347.8363" /><rect
       style="fill:#000000;fill-opacity:1;fill-rule:evenodd;stroke:none;stroke-width:2.11937"
       id="rect2"
       width="6.6145835"
       height="57.44244"
       x="396.35446"
       y="347.8363" /><rect
       style="fill:#000000;fill-opacity:0.997685;fill-rule:evenodd;stroke:none;stroke-width:3.82234"
       id="rect3"
       width="6.6145835"
       height="186.84406"
       x="371.61871"
       y="-330.20966"
       transform="rotate(90)" /><g
       id="path3-6"><path
         id="path10"
         style="color:#000000;fill:#ff0000;fill-rule:evenodd;stroke-linecap:round;-inkscape-stroke:none"
         d="m 264.06262,251.87519 c -14.7955,0 -40.42743,7.35484 -63.07263,23.50761 -21.31836,15.20634 -35.47053,38.5793 -37.56213,70.852 l -14.40067,-14.40067 c -1.29164,-1.29193 -3.38611,-1.29193 -4.67775,0 -1.29056,1.2914 -1.29056,3.38429 0,4.67569 l 22.18159,22.18365 22.18366,-22.18365 c 1.29056,-1.2914 1.29056,-3.38429 0,-4.67569 -1.29164,-1.29193 -3.38611,-1.29193 -4.67775,0 l -13.9516,13.95316 c 2.19174,-29.59142 14.74045,-50.74934 34.74679,-65.01981 21.4586,-15.30636 46.75157,-22.27926 59.23049,-22.27926 1.82616,-2.8e-4 3.30649,-1.48061 3.30678,-3.30677 -5.7e-4,-1.82596 -1.48082,-3.30598 -3.30678,-3.30626 z"
         sodipodi:nodetypes="cscccccccccsccc" /><g
         id="g9" /></g></g></svg>
