<?xml version="1.0" encoding="UTF-8" standalone="no"?>
<!-- Created with Inkscape (http://www.inkscape.org/) -->

<svg
   width="1000"
   height="1000"
   viewBox="0 0 264.58334 264.58333"
   version="1.1"
   id="svg22843"
   inkscape:version="1.3.2 (091e20e, 2023-11-25, custom)"
   sodipodi:docname="DOMINGO.svg"
   xml:space="preserve"
   xmlns:inkscape="http://www.inkscape.org/namespaces/inkscape"
   xmlns:sodipodi="http://sodipodi.sourceforge.net/DTD/sodipodi-0.dtd"
   xmlns="http://www.w3.org/2000/svg"
   xmlns:svg="http://www.w3.org/2000/svg"><sodipodi:namedview
     id="namedview22845"
     pagecolor="#ffffff"
     bordercolor="#000000"
     borderopacity="0.25"
     inkscape:showpageshadow="2"
     inkscape:pageopacity="0.0"
     inkscape:pagecheckerboard="0"
     inkscape:deskcolor="#d1d1d1"
     inkscape:document-units="px"
     showgrid="false"
     inkscape:zoom="11.313709"
     inkscape:cx="691.94818"
     inkscape:cy="134.04093"
     inkscape:window-width="1920"
     inkscape:window-height="1017"
     inkscape:window-x="-8"
     inkscape:window-y="-8"
     inkscape:window-maximized="1"
     inkscape:current-layer="layer1"
     showguides="true"><sodipodi:guide
       position="0,52.916667"
       orientation="0,1"
       id="guide713"
       inkscape:locked="false"
       inkscape:label=""
       inkscape:color="rgb(0,134,229)" /><sodipodi:guide
       position="83.815726,79.365549"
       orientation="0,-1"
       id="guide3782"
       inkscape:locked="false" /><sodipodi:guide
       position="13.229167,33.3375"
       orientation="-1,0"
       id="guide3784"
       inkscape:label=""
       inkscape:locked="false"
       inkscape:color="rgb(0,134,229)" /><sodipodi:guide
       position="356.51712,137.84176"
       orientation="1,0"
       id="guide1"
       inkscape:locked="false" /><sodipodi:guide
       position="369.74629,137.84176"
       orientation="-1,0"
       id="guide6"
       inkscape:label=""
       inkscape:locked="false"
       inkscape:color="rgb(0,134,229)" /><sodipodi:guide
       position="186.49865,228.6"
       orientation="0,1"
       id="guide10"
       inkscape:locked="false"
       inkscape:label=""
       inkscape:color="rgb(0,134,229)" /></sodipodi:namedview><defs
     id="defs22840"><inkscape:path-effect
       center_point="198.72966,171.51936"
       end_point="198.72966,181.30894"
       start_point="198.72966,161.72978"
       effect="mirror_symmetry"
       id="path-effect4"
       is_visible="true"
       lpeversion="1.2"
       lpesatellites=""
       mode="free"
       discard_orig_path="false"
       fuse_paths="false"
       oposite_fuse="false"
       split_items="false"
       split_open="false"
       link_styles="false" /><inkscape:path-effect
       effect="mirror_symmetry"
       start_point="225.48565,171.51936"
       end_point="225.48565,191.09853"
       center_point="225.48565,181.30894"
       id="path-effect3"
       is_visible="true"
       lpeversion="1.2"
       lpesatellites=""
       mode="X"
       discard_orig_path="false"
       fuse_paths="false"
       oposite_fuse="false"
       split_items="false"
       split_open="false"
       link_styles="false" /><inkscape:path-effect
       effect="mirror_symmetry"
       start_point="225.48565,171.51936"
       end_point="225.48565,191.09853"
       center_point="225.48565,181.30894"
       id="path-effect2"
       is_visible="true"
       lpeversion="1.2"
       lpesatellites=""
       mode="X"
       discard_orig_path="false"
       fuse_paths="false"
       oposite_fuse="true"
       split_items="false"
       split_open="false"
       link_styles="false" /><clipPath
       clipPathUnits="userSpaceOnUse"
       id="clipPath886"><path
         d="m 2757.6108,360.38428 h 337.3921 v 337.39221 h -337.3921 z"
         clip-rule="evenodd"
         id="path884" /></clipPath><clipPath
       clipPathUnits="userSpaceOnUse"
       id="clipPath898"><path
         d="M 0,0 H 6000 V 3375 H 0 Z"
         clip-rule="evenodd"
         id="path896" /></clipPath><clipPath
       clipPathUnits="userSpaceOnUse"
       id="clipPath420"><path
         d="M 591.86957,383.12061 H 908.19696 V 699.448 H 591.86957 Z"
         clip-rule="evenodd"
         id="path418" /></clipPath><clipPath
       clipPathUnits="userSpaceOnUse"
       id="clipPath420-1"><path
         d="M 591.86957,383.12061 H 908.19696 V 699.448 H 591.86957 Z"
         clip-rule="evenodd"
         id="path418-1" /></clipPath><clipPath
       clipPathUnits="userSpaceOnUse"
       id="clipPath420-13"><path
         d="M 591.86957,383.12061 H 908.19696 V 699.448 H 591.86957 Z"
         clip-rule="evenodd"
         id="path418-71" /></clipPath><clipPath
       clipPathUnits="userSpaceOnUse"
       id="clipPath420-8"><path
         d="M 591.86957,383.12061 H 908.19696 V 699.448 H 591.86957 Z"
         clip-rule="evenodd"
         id="path418-4" /></clipPath><clipPath
       clipPathUnits="userSpaceOnUse"
       id="clipPath420-3"><path
         d="M 591.86957,383.12061 H 908.19696 V 699.448 H 591.86957 Z"
         clip-rule="evenodd"
         id="path418-2" /></clipPath><clipPath
       clipPathUnits="userSpaceOnUse"
       id="clipPath420-0"><path
         d="M 591.86957,383.12061 H 908.19696 V 699.448 H 591.86957 Z"
         clip-rule="evenodd"
         id="path418-1-3" /></clipPath><clipPath
       clipPathUnits="userSpaceOnUse"
       id="clipPath420-2"><path
         d="M 591.86957,383.12061 H 908.19696 V 699.448 H 591.86957 Z"
         clip-rule="evenodd"
         id="path418-8" /></clipPath><clipPath
       clipPathUnits="userSpaceOnUse"
       id="clipPath420-9"><path
         d="M 591.86957,383.12061 H 908.19696 V 699.448 H 591.86957 Z"
         clip-rule="evenodd"
         id="path418-3" /></clipPath><clipPath
       clipPathUnits="userSpaceOnUse"
       id="clipPath420-35"><path
         d="M 591.86957,383.12061 H 908.19696 V 699.448 H 591.86957 Z"
         clip-rule="evenodd"
         id="path418-7" /></clipPath><clipPath
       clipPathUnits="userSpaceOnUse"
       id="clipPath420-06"><path
         d="M 591.86957,383.12061 H 908.19696 V 699.448 H 591.86957 Z"
         clip-rule="evenodd"
         id="path418-88" /></clipPath><clipPath
       clipPathUnits="userSpaceOnUse"
       id="clipPath420-4"><path
         d="M 591.86957,383.12061 H 908.19696 V 699.448 H 591.86957 Z"
         clip-rule="evenodd"
         id="path418-28" /></clipPath><clipPath
       clipPathUnits="userSpaceOnUse"
       id="clipPath420-8-7"><path
         d="M 591.86957,383.12061 H 908.19696 V 699.448 H 591.86957 Z"
         clip-rule="evenodd"
         id="path418-4-9" /></clipPath><clipPath
       clipPathUnits="userSpaceOnUse"
       id="clipPath420-3-5"><path
         d="M 591.86957,383.12061 H 908.19696 V 699.448 H 591.86957 Z"
         clip-rule="evenodd"
         id="path418-2-4" /></clipPath><clipPath
       clipPathUnits="userSpaceOnUse"
       id="clipPath420-0-4"><path
         d="M 591.86957,383.12061 H 908.19696 V 699.448 H 591.86957 Z"
         clip-rule="evenodd"
         id="path418-1-5" /></clipPath><clipPath
       clipPathUnits="userSpaceOnUse"
       id="clipPath420-2-8"><path
         d="M 591.86957,383.12061 H 908.19696 V 699.448 H 591.86957 Z"
         clip-rule="evenodd"
         id="path418-8-9" /></clipPath><clipPath
       clipPathUnits="userSpaceOnUse"
       id="clipPath420-9-6"><path
         d="M 591.86957,383.12061 H 908.19696 V 699.448 H 591.86957 Z"
         clip-rule="evenodd"
         id="path418-3-9" /></clipPath><clipPath
       clipPathUnits="userSpaceOnUse"
       id="clipPath420-35-8"><path
         d="M 591.86957,383.12061 H 908.19696 V 699.448 H 591.86957 Z"
         clip-rule="evenodd"
         id="path418-7-6" /></clipPath><clipPath
       clipPathUnits="userSpaceOnUse"
       id="clipPath420-06-9"><path
         d="M 591.86957,383.12061 H 908.19696 V 699.448 H 591.86957 Z"
         clip-rule="evenodd"
         id="path418-88-9" /></clipPath><inkscape:path-effect
       effect="bspline"
       id="path-effect9613"
       is_visible="true"
       lpeversion="1"
       weight="33.333333"
       steps="2"
       helper_size="0"
       apply_no_weight="true"
       apply_with_weight="true"
       only_selected="false" /><clipPath
       clipPathUnits="userSpaceOnUse"
       id="clipPath1768"><path
         d="m 3214.0178,557.229 h 378.125 v 378.125 h -378.125 z"
         clip-rule="evenodd"
         id="path1766" /></clipPath><clipPath
       clipPathUnits="userSpaceOnUse"
       id="clipPath1780"><path
         d="M 0,0 H 6000 V 3406.25 H 0 Z"
         id="path1778" /></clipPath><clipPath
       clipPathUnits="userSpaceOnUse"
       id="clipPath1786"><path
         d="M 0,0 H 6000 V 3375 H 0 Z"
         id="path1784" /></clipPath><clipPath
       clipPathUnits="userSpaceOnUse"
       id="clipPath1792"><path
         d="M 0,0 H 6000 V 3375 H 0 Z"
         id="path1790" /></clipPath><clipPath
       clipPathUnits="userSpaceOnUse"
       id="clipPath1798"><path
         d="m 3214.021,670.82422 222.1558,-35.66199 18.8217,117.2489 -222.156,35.66199 z"
         id="path1796" /></clipPath><clipPath
       clipPathUnits="userSpaceOnUse"
       id="clipPath1804"><path
         d="m 3214.021,670.82422 225.2415,-36.15729 18.8215,117.2489 -225.2415,36.15729 z"
         id="path1802" /></clipPath><clipPath
       clipPathUnits="userSpaceOnUse"
       id="clipPath1810"><path
         d="m 3214.021,670.82422 336.3193,-53.98828 18.8216,117.2489 -336.3194,53.98828 z"
         id="path1808" /></clipPath><clipPath
       clipPathUnits="userSpaceOnUse"
       id="clipPath420-42"><path
         d="M 591.86957,383.12061 H 908.19696 V 699.448 H 591.86957 Z"
         clip-rule="evenodd"
         id="path418-9" /></clipPath><clipPath
       clipPathUnits="userSpaceOnUse"
       id="clipPath420-33"><path
         d="M 591.86957,383.12061 H 908.19696 V 699.448 H 591.86957 Z"
         clip-rule="evenodd"
         id="path418-70" /></clipPath><clipPath
       clipPathUnits="userSpaceOnUse"
       id="clipPath420-8-6"><path
         d="M 591.86957,383.12061 H 908.19696 V 699.448 H 591.86957 Z"
         clip-rule="evenodd"
         id="path418-4-2" /></clipPath><clipPath
       clipPathUnits="userSpaceOnUse"
       id="clipPath420-1-2"><path
         d="M 591.86957,383.12061 H 908.19696 V 699.448 H 591.86957 Z"
         clip-rule="evenodd"
         id="path418-8-3" /></clipPath><clipPath
       clipPathUnits="userSpaceOnUse"
       id="clipPath3"><path
         d="M 9.12e-6,0 H 612.00001 V 792 H 9.12e-6 Z"
         transform="matrix(1,0,0,-1,-72.024002,250.37001)"
         clip-rule="evenodd"
         id="path3-7" /></clipPath><clipPath
       clipPathUnits="userSpaceOnUse"
       id="clipPath3-5"><path
         d="M 9.12e-6,0 H 612.00001 V 792 H 9.12e-6 Z"
         transform="matrix(1,0,0,-1,-191.81001,250.37001)"
         clip-rule="evenodd"
         id="path3" /></clipPath><clipPath
       clipPathUnits="userSpaceOnUse"
       id="clipPath420-338"><path
         d="M 591.86957,383.12061 H 908.19696 V 699.448 H 591.86957 Z"
         clip-rule="evenodd"
         id="path418-22" /></clipPath><clipPath
       clipPathUnits="userSpaceOnUse"
       id="clipPath420-26"><path
         d="M 591.86957,383.12061 H 908.19696 V 699.448 H 591.86957 Z"
         clip-rule="evenodd"
         id="path418-91" /></clipPath></defs><g
     inkscape:label="Layer 1"
     inkscape:groupmode="layer"
     id="layer1"
     transform="translate(-130.13643,-140.69541)"><rect
       style="display:inline;fill:#000000;fill-opacity:1;fill-rule:evenodd;stroke:none;stroke-width:2.41834"
       id="rect1"
       width="13.229167"
       height="37.396214"
       x="263.71796"
       y="340.96384" /><path
       style="color:#000000;fill:#000000;fill-opacity:1;fill-rule:evenodd;-inkscape-stroke:none"
       d="m 270.33364,220.05902 c -29.18586,0 -52.91602,23.73211 -52.91602,52.91797 0,29.18586 23.73016,52.91602 52.91602,52.91602 29.18586,0 52.91602,-23.73016 52.91602,-52.91602 0,-29.18586 -23.73016,-52.91797 -52.91602,-52.91797 z m 0,6.61524 c 25.61108,0 46.30273,20.69165 46.30273,46.30273 0,25.61108 -20.69165,46.30078 -46.30273,46.30078 -25.61108,0 -46.30274,-20.6897 -46.30274,-46.30078 0,-25.61108 20.69166,-46.30273 46.30274,-46.30273 z"
       id="path1" /><rect
       style="fill:#000000;fill-opacity:1;fill-rule:evenodd;stroke:none;stroke-width:2.74408"
       id="rect1-3"
       width="6.6145835"
       height="96.297264"
       x="316.63507"
       y="176.67874" /><circle
       style="opacity:1;fill:none;fill-opacity:1;fill-rule:evenodd;stroke:#000000;stroke-width:6.61458;stroke-linecap:round;stroke-dasharray:none;stroke-opacity:1"
       id="path2"
       cx="270.33365"
       cy="272.97601"
       r="123.66075" /><g
       id="path4"><path
         style="color:#000000;fill:#ff0000;fill-rule:evenodd;stroke-linecap:round;-inkscape-stroke:none"
         d="m 441.24023,152.27148 c -1.76189,0.14558 -3.49995,0.61997 -5.13476,1.40039 -6.53925,3.12169 -11.62678,10.46372 -15.33789,21.07422 -7.42223,21.22101 -7.26367,50.51915 0.41601,71.32813 3.83985,10.40449 9.04474,17.50393 15.69141,20.25976 3.32333,1.37792 7.02491,1.48246 10.42969,0.21485 3.40478,-1.26761 6.48401,-3.77342 9.22851,-7.30078 10.978,-14.10945 15.23015,-41.47961 11.57422,-66.9043 a 3.3072901,3.3072901 0 0 0 -3.74414,-2.80273 3.3072901,3.3072901 0 0 0 -2.80273,3.74414 c 3.4453,23.95992 -1.45151,50.59466 -10.24805,61.90039 -2.19913,2.82643 -4.38171,4.44376 -6.31641,5.16406 -1.9347,0.7203 -3.65345,0.67705 -5.58789,-0.125 -3.86887,-1.60411 -8.53603,-7.00248 -12.01953,-16.44141 -6.96699,-18.87786 -7.14241,-47.51588 -0.3789,-66.85351 3.38175,-9.66882 8.02274,-15.41652 11.94531,-17.28907 1.96128,-0.93627 3.68923,-1.07106 5.59765,-0.47851 1.90842,0.59255 4.06318,2.04328 6.27344,4.71094 a 3.3072901,3.3072901 0 0 0 4.6582,0.4375 3.3072901,3.3072901 0 0 0 0.43555,-4.65821 c -2.80463,-3.38502 -5.95421,-5.73481 -9.40625,-6.80664 -1.72602,-0.53591 -3.51154,-0.71979 -5.27344,-0.57422 z"
         id="path10" /><g
         id="g7"><g
           id="path7"><path
             style="color:#000000;fill:#ff0000;fill-rule:evenodd;-inkscape-stroke:none"
             d="m 462.11754,173.92609 20.4399,25.96317 -32.7362,4.70728 z"
             id="path8" /><path
             style="color:#000000;fill:#ff0000;fill-rule:evenodd;-inkscape-stroke:none"
             d="m 461.49023,169.56445 -15.13671,37.75782 40.30078,-5.79493 z"
             id="path9"
             sodipodi:nodetypes="cccc" /></g></g></g></g></svg>
