<?xml version="1.0" encoding="UTF-8" standalone="no"?>
<!-- Created with Inkscape (http://www.inkscape.org/) -->

<svg
   width="1000"
   height="1000"
   viewBox="0 0 264.58333 264.58333"
   version="1.1"
   id="svg46130"
   inkscape:version="1.3.2 (091e20e, 2023-11-25, custom)"
   sodipodi:docname="FEVEREIRO.svg"
   xml:space="preserve"
   xmlns:inkscape="http://www.inkscape.org/namespaces/inkscape"
   xmlns:sodipodi="http://sodipodi.sourceforge.net/DTD/sodipodi-0.dtd"
   xmlns="http://www.w3.org/2000/svg"
   xmlns:svg="http://www.w3.org/2000/svg"><sodipodi:namedview
     id="namedview46132"
     pagecolor="#ffffff"
     bordercolor="#000000"
     borderopacity="0.25"
     inkscape:showpageshadow="2"
     inkscape:pageopacity="0.0"
     inkscape:pagecheckerboard="0"
     inkscape:deskcolor="#d1d1d1"
     inkscape:document-units="px"
     showgrid="false"
     inkscape:zoom="0.70710678"
     inkscape:cx="446.89149"
     inkscape:cy="318.90516"
     inkscape:window-width="1920"
     inkscape:window-height="1017"
     inkscape:window-x="-8"
     inkscape:window-y="-8"
     inkscape:window-maximized="1"
     inkscape:current-layer="layer1"
     showguides="true"><sodipodi:guide
       position="0,79.374999"
       orientation="0,1"
       id="guide343"
       inkscape:locked="false"
       inkscape:label=""
       inkscape:color="rgb(0,134,229)" /><sodipodi:guide
       position="0,52.916666"
       orientation="0,1"
       id="guide345"
       inkscape:label=""
       inkscape:locked="false"
       inkscape:color="rgb(0,134,229)" /><sodipodi:guide
       position="13.229166,264.58333"
       orientation="-1,0"
       id="guide3"
       inkscape:locked="false"
       inkscape:label=""
       inkscape:color="rgb(0,134,229)" /><sodipodi:guide
       position="186.51895,223.50798"
       orientation="1,0"
       id="guide4"
       inkscape:locked="false" /><sodipodi:guide
       position="199.74812,223.50798"
       orientation="-1,0"
       id="guide5"
       inkscape:label=""
       inkscape:locked="false"
       inkscape:color="rgb(0,134,229)" /></sodipodi:namedview><defs
     id="defs46127"><clipPath
       clipPathUnits="userSpaceOnUse"
       id="clipPath420"><path
         d="M 591.86957,383.12061 H 908.19696 V 699.448 H 591.86957 Z"
         clip-rule="evenodd"
         id="path418" /></clipPath><clipPath
       clipPathUnits="userSpaceOnUse"
       id="clipPath420-5"><path
         d="M 591.86957,383.12061 H 908.19696 V 699.448 H 591.86957 Z"
         clip-rule="evenodd"
         id="path418-2" /></clipPath><clipPath
       clipPathUnits="userSpaceOnUse"
       id="clipPath420-7"><path
         d="M 591.86957,383.12061 H 908.19696 V 699.448 H 591.86957 Z"
         clip-rule="evenodd"
         id="path418-4" /></clipPath></defs><g
     inkscape:label="Layer 1"
     inkscape:groupmode="layer"
     id="layer1"
     transform="translate(-40.241963,-145.01527)"><path
       style="color:#000000;fill:#000000;fill-opacity:1;fill-rule:evenodd;-inkscape-stroke:none"
       d="m 160.24743,224.33659 c -29.18586,0 -52.91601,23.7321 -52.91601,52.91796 0,29.18586 23.73015,52.91602 52.91601,52.91602 29.18586,0 52.91602,-23.73016 52.91602,-52.91602 0,-29.18586 -23.73016,-52.91796 -52.91602,-52.91796 z m 0,6.61524 c 25.61108,0 46.30273,20.69164 46.30273,46.30272 0,25.61108 -20.69165,46.30078 -46.30273,46.30078 -25.61108,0 -46.30274,-20.6897 -46.30274,-46.30078 0,-25.61108 20.69166,-46.30272 46.30274,-46.30272 z"
       id="path1-6" /><rect
       style="fill:#000000;fill-opacity:1;fill-rule:evenodd;stroke:none;stroke-width:3.21629"
       id="rect1"
       width="6.6145935"
       height="72.674652"
       x="-281.98001"
       y="-3.6353614"
       inkscape:transform-center-x="65.302507"
       inkscape:transform-center-y="10.528719"
       transform="rotate(-99.158947)" /><rect
       style="fill:#000000;fill-opacity:1;fill-rule:evenodd;stroke:none;stroke-width:3.21629"
       id="rect1-3"
       width="6.6145782"
       height="71.244766"
       x="-185.48891"
       y="186.36856"
       inkscape:transform-center-x="55.061356"
       inkscape:transform-center-y="-36.654039"
       transform="rotate(-56.348515)" /><rect
       style="fill:#000000;fill-opacity:1;fill-rule:evenodd;stroke:none;stroke-width:3.21629"
       id="rect1-9"
       width="6.614563"
       height="51.705154"
       x="163.95177"
       y="162.61305"
       inkscape:transform-center-x="-2.9748451"
       inkscape:transform-center-y="-25.968199"
       transform="rotate(6.5351715)" /><rect
       style="fill:#000000;fill-opacity:1;fill-rule:evenodd;stroke:none;stroke-width:2.03416"
       id="rect1-4"
       width="6.6145782"
       height="49.567623"
       x="217.4422"
       y="132.98552"
       inkscape:transform-center-x="-6.2134519"
       inkscape:transform-center-y="-25.718412"
       transform="rotate(13.582128)" /><rect
       style="fill:#000000;fill-opacity:1;fill-rule:evenodd;stroke:none;stroke-width:2.14705"
       id="rect1-0"
       width="6.6145935"
       height="49.967468"
       x="271.20572"
       y="100.09029"
       inkscape:transform-center-x="-11.210731"
       inkscape:transform-center-y="-27.261347"
       transform="rotate(22.354022)" /><g
       id="path2"><path
         id="path6"
         style="color:#000000;fill:#ff0000;fill-rule:evenodd;stroke-linecap:round;-inkscape-stroke:none"
         d="M 97.105675 148.54322 A 3.3072901 3.3072901 0 0 0 93.456802 151.46862 L 90.038923 182.65432 L 121.22255 186.07013 A 3.3072901 3.3072901 0 0 0 124.8709 183.14473 A 3.3072901 3.3072901 0 0 0 121.94343 179.49585 L 102.5348 177.36885 C 112.56408 170.66955 135.01742 157.67755 158.40064 157.67755 C 181.7839 157.67755 204.23722 170.66956 214.26648 177.36885 L 194.85733 179.49585 A 3.3072901 3.3072901 0 0 0 191.92986 183.14473 A 3.3072901 3.3072901 0 0 0 195.57615 186.07013 L 226.76184 182.65432 L 223.34396 151.46862 A 3.3072901 3.3072901 0 0 0 219.69509 148.54322 A 3.3072901 3.3072901 0 0 0 216.76762 152.18951 L 218.99746 172.52315 C 209.05349 165.62579 184.94888 151.06245 158.40064 151.06245 C 131.85369 151.06245 107.7492 165.62434 97.80434 172.52212 L 100.03108 152.18951 A 3.3072901 3.3072901 0 0 0 97.105675 148.54322 z " /><g
         id="g2" /></g></g></svg>
