<?xml version="1.0" encoding="UTF-8" standalone="no"?>
<!-- Created with Inkscape (http://www.inkscape.org/) -->

<svg
   width="1000"
   height="1000"
   viewBox="0 0 264.58333 264.58333"
   version="1.1"
   id="svg39445"
   inkscape:version="1.3.2 (091e20e, 2023-11-25, custom)"
   sodipodi:docname="JANEIRO.svg"
   xml:space="preserve"
   xmlns:inkscape="http://www.inkscape.org/namespaces/inkscape"
   xmlns:sodipodi="http://sodipodi.sourceforge.net/DTD/sodipodi-0.dtd"
   xmlns="http://www.w3.org/2000/svg"
   xmlns:svg="http://www.w3.org/2000/svg"><sodipodi:namedview
     id="namedview39447"
     pagecolor="#ffffff"
     bordercolor="#000000"
     borderopacity="0.25"
     inkscape:showpageshadow="2"
     inkscape:pageopacity="0.0"
     inkscape:pagecheckerboard="0"
     inkscape:deskcolor="#d1d1d1"
     inkscape:document-units="px"
     showgrid="false"
     inkscape:zoom="0.70710678"
     inkscape:cx="480.1255"
     inkscape:cy="475.88286"
     inkscape:window-width="1920"
     inkscape:window-height="1001"
     inkscape:window-x="-9"
     inkscape:window-y="-9"
     inkscape:window-maximized="1"
     inkscape:current-layer="layer1"
     showguides="true"><sodipodi:guide
       position="0,79.374999"
       orientation="0,1"
       id="guide4809"
       inkscape:locked="false"
       inkscape:label=""
       inkscape:color="rgb(0,134,229)" /><sodipodi:guide
       position="0,52.916666"
       orientation="0,1"
       id="guide4811"
       inkscape:locked="false"
       inkscape:label=""
       inkscape:color="rgb(0,134,229)" /><sodipodi:guide
       position="13.229166,264.58333"
       orientation="-1,0"
       id="guide4813"
       inkscape:locked="false"
       inkscape:label=""
       inkscape:color="rgb(0,134,229)" /><sodipodi:guide
       position="216.25632,91.178284"
       orientation="-1,0"
       id="guide2086"
       inkscape:label=""
       inkscape:locked="false"
       inkscape:color="rgb(0,134,229)" /><sodipodi:guide
       position="229.48549,91.178284"
       orientation="-1,0"
       id="guide2"
       inkscape:label=""
       inkscape:locked="false"
       inkscape:color="rgb(0,134,229)" /></sodipodi:namedview><defs
     id="defs39442"><clipPath
       clipPathUnits="userSpaceOnUse"
       id="clipPath420"><path
         d="M 591.86957,383.12061 H 908.19696 V 699.448 H 591.86957 Z"
         clip-rule="evenodd"
         id="path418" /></clipPath><clipPath
       clipPathUnits="userSpaceOnUse"
       id="clipPath420-2"><path
         d="M 591.86957,383.12061 H 908.19696 V 699.448 H 591.86957 Z"
         clip-rule="evenodd"
         id="path418-1" /></clipPath><clipPath
       clipPathUnits="userSpaceOnUse"
       id="clipPath420-24"><path
         d="M 591.86957,383.12061 H 908.19696 V 699.448 H 591.86957 Z"
         clip-rule="evenodd"
         id="path418-4" /></clipPath></defs><g
     inkscape:label="Layer 1"
     inkscape:groupmode="layer"
     id="layer1"
     transform="translate(-26.621573,-110.98793)"><path
       id="path1"
       style="color:#000000;display:inline;fill:#000000;fill-opacity:1;fill-rule:evenodd;-inkscape-stroke:none"
       d="m 143.66817,169.45775 -6.612,0.17311 1.22629,46.82608 c -9.21255,-15.6025 -26.19312,-26.09349 -45.593086,-26.09349 -29.185835,0 -52.916149,23.72979 -52.916149,52.91563 0,29.18583 23.730314,52.91615 52.916149,52.91615 29.116696,0 52.800966,-23.61917 52.913046,-52.70996 h 0.005 l -0.003,-0.0915 c 8e-5,-0.0385 0.003,-0.0762 0.003,-0.11472 0,-0.9656 -0.0298,-1.92383 -0.0811,-2.87683 z m -50.978796,27.51873 c 24.742906,0 44.889936,19.31403 46.227666,43.71723 l 0.0713,2.72851 c -0.0774,25.54459 -20.73593,46.15997 -46.298986,46.15997 -25.611057,0 -46.300532,-20.69206 -46.300532,-46.30311 0,-25.61107 20.689475,-46.3026 46.300532,-46.3026 z" /><path
       id="path11"
       style="color:#000000;display:inline;fill:#ff0000;fill-opacity:1;stroke:none;stroke-width:1.00012;stroke-linecap:round;stroke-dasharray:none"
       d="m 182.73771,222.14473 -20.79666,5.456 c -1.76603,0.46371 -2.82233,2.27121 -2.35955,4.03748 0.46371,1.76603 2.27122,2.82182 4.03748,2.35903 l 10.3079,-2.70371 c -2.98216,6.46565 -5.70386,14.74006 -6.9665,22.95674 -0.82342,5.35842 -1.02521,10.68065 -0.0837,15.50965 0.94152,4.82898 3.13711,9.30341 7.17785,12.15636 3.35584,2.36936 7.21041,2.88622 10.51719,2.1916 3.30677,-0.69461 6.13716,-2.39781 8.51007,-4.24626 4.74585,-3.69689 7.86309,-8.27546 7.86309,-8.27546 a 3.3072901,3.3072901 0 0 0 -0.84181,-4.60179 3.3072901,3.3072901 0 0 0 -4.59972,0.84181 c 0,0 -2.73839,3.89741 -6.48591,6.81664 -1.87375,1.45961 -3.94862,2.60009 -5.80481,2.99 -1.85619,0.38991 -3.42308,0.23383 -5.34179,-1.12086 -2.32199,-1.63942 -3.77542,-4.2928 -4.50205,-8.01967 -0.72663,-3.72687 -0.61657,-8.38826 0.12867,-13.23795 1.05816,-6.88603 3.39535,-14.15868 5.87303,-19.87579 l 2.27583,8.67234 c 0.46368,1.767 2.27212,2.82306 4.03903,2.35903 1.76603,-0.4637 2.82232,-2.2707 2.35954,-4.03696 z" /><path
       id="path2"
       style="color:#000000;display:inline;fill:#ff0000;fill-opacity:1;stroke:none;stroke-width:1.00012;stroke-linecap:round;stroke-dasharray:none"
       d="m 224.08431,222.14473 -20.79666,5.456 c -1.76603,0.46371 -2.82233,2.27121 -2.35955,4.03748 0.46371,1.76603 2.27122,2.82182 4.03748,2.35903 l 10.3079,-2.70371 c -2.98216,6.46565 -5.70386,14.74006 -6.9665,22.95674 -0.82342,5.35842 -1.02521,10.68065 -0.0837,15.50965 0.94152,4.82898 3.13711,9.30341 7.17785,12.15636 3.35584,2.36936 7.21041,2.88622 10.51719,2.1916 3.30677,-0.69461 6.13716,-2.39781 8.51007,-4.24626 4.74585,-3.69689 7.86309,-8.27546 7.86309,-8.27546 a 3.3072901,3.3072901 0 0 0 -0.84181,-4.60179 3.3072901,3.3072901 0 0 0 -4.59972,0.84181 c 0,0 -2.73839,3.89741 -6.48591,6.81664 -1.87375,1.45961 -3.94862,2.60009 -5.80481,2.99 -1.85619,0.38991 -3.42308,0.23383 -5.34179,-1.12086 -2.32199,-1.63942 -3.77542,-4.2928 -4.50205,-8.01967 -0.72663,-3.72687 -0.61657,-8.38826 0.12867,-13.23795 1.05816,-6.88603 3.39535,-14.15868 5.87303,-19.87579 l 2.27583,8.67234 c 0.46368,1.767 2.27212,2.82306 4.03903,2.35903 1.76603,-0.4637 2.82232,-2.2707 2.35954,-4.03696 z" /></g></svg>
