<?xml version="1.0" encoding="UTF-8" standalone="no"?>
<!-- Created with Inkscape (http://www.inkscape.org/) -->

<svg
   width="1000"
   height="1000"
   viewBox="0 0 264.58334 264.58333"
   version="1.1"
   id="svg44410"
   inkscape:version="1.3.2 (091e20e, 2023-11-25, custom)"
   sodipodi:docname="JULHO.svg"
   xml:space="preserve"
   xmlns:inkscape="http://www.inkscape.org/namespaces/inkscape"
   xmlns:sodipodi="http://sodipodi.sourceforge.net/DTD/sodipodi-0.dtd"
   xmlns="http://www.w3.org/2000/svg"
   xmlns:svg="http://www.w3.org/2000/svg"><sodipodi:namedview
     id="namedview44412"
     pagecolor="#ffffff"
     bordercolor="#000000"
     borderopacity="0.25"
     inkscape:showpageshadow="2"
     inkscape:pageopacity="0.0"
     inkscape:pagecheckerboard="0"
     inkscape:deskcolor="#d1d1d1"
     inkscape:document-units="px"
     showgrid="false"
     inkscape:zoom="0.5272499"
     inkscape:cx="773.8266"
     inkscape:cy="387.86162"
     inkscape:window-width="1920"
     inkscape:window-height="1001"
     inkscape:window-x="-9"
     inkscape:window-y="-9"
     inkscape:window-maximized="1"
     inkscape:current-layer="layer1"
     showguides="true"><sodipodi:guide
       position="0,79.375"
       orientation="0,1"
       id="guide4974"
       inkscape:locked="false"
       inkscape:label=""
       inkscape:color="rgb(0,134,229)" /><sodipodi:guide
       position="0,52.916667"
       orientation="0,1"
       id="guide4976"
       inkscape:label=""
       inkscape:locked="false"
       inkscape:color="rgb(0,134,229)" /><sodipodi:guide
       position="13.229167,264.58333"
       orientation="-1,0"
       id="guide4978"
       inkscape:locked="false"
       inkscape:label=""
       inkscape:color="rgb(0,134,229)" /><sodipodi:guide
       position="119.06247,132.30403"
       orientation="1,0"
       id="guide4980"
       inkscape:locked="false" /><sodipodi:guide
       position="162.2832,70.410264"
       orientation="-1,0"
       id="guide4982"
       inkscape:label=""
       inkscape:locked="false"
       inkscape:color="rgb(0,134,229)" /><sodipodi:guide
       position="175.51237,70.410264"
       orientation="-1,0"
       id="guide1"
       inkscape:label=""
       inkscape:locked="false"
       inkscape:color="rgb(0,134,229)" /><sodipodi:guide
       position="188.74154,70.410264"
       orientation="-1,0"
       id="guide2"
       inkscape:label=""
       inkscape:locked="false"
       inkscape:color="rgb(0,134,229)" /><sodipodi:guide
       position="350.73372,132.29321"
       orientation="1,0"
       id="guide3"
       inkscape:locked="false" /><sodipodi:guide
       position="363.96289,132.29321"
       orientation="-1,0"
       id="guide4"
       inkscape:label=""
       inkscape:locked="false"
       inkscape:color="rgb(0,134,229)" /></sodipodi:namedview><defs
     id="defs44407"><clipPath
       clipPathUnits="userSpaceOnUse"
       id="clipPath1202"><path
         d="m 2060.4019,1837.1929 h 393.75 v 393.75 h -393.75 z"
         clip-rule="evenodd"
         id="path1200" /></clipPath><clipPath
       clipPathUnits="userSpaceOnUse"
       id="clipPath1214"><path
         d="M 0,0 H 6000 V 3375 H 0 Z"
         clip-rule="evenodd"
         id="path1212" /></clipPath><clipPath
       clipPathUnits="userSpaceOnUse"
       id="clipPath420"><path
         d="M 591.86957,383.12061 H 908.19696 V 699.448 H 591.86957 Z"
         clip-rule="evenodd"
         id="path418" /></clipPath><clipPath
       clipPathUnits="userSpaceOnUse"
       id="clipPath420-2"><path
         d="M 591.86957,383.12061 H 908.19696 V 699.448 H 591.86957 Z"
         clip-rule="evenodd"
         id="path418-9" /></clipPath><clipPath
       clipPathUnits="userSpaceOnUse"
       id="clipPath420-1"><path
         d="M 591.86957,383.12061 H 908.19696 V 699.448 H 591.86957 Z"
         clip-rule="evenodd"
         id="path418-1" /></clipPath><clipPath
       clipPathUnits="userSpaceOnUse"
       id="clipPath420-9"><path
         d="M 591.86957,383.12061 H 908.19696 V 699.448 H 591.86957 Z"
         clip-rule="evenodd"
         id="path418-0" /></clipPath></defs><g
     inkscape:label="Layer 1"
     inkscape:groupmode="layer"
     id="layer1"
     transform="translate(-58.199767,-100.08301)"><path
       id="path1"
       style="color:#000000;display:inline;fill:#000000;fill-opacity:1;fill-rule:evenodd;-inkscape-stroke:none"
       d="m 175.266,158.55256 -6.612,0.17311 1.22629,46.82609 c -9.21255,-15.6025 -26.19312,-26.09349 -45.59309,-26.09349 -29.18584,0 -52.916154,23.72979 -52.916154,52.91563 0,29.18583 23.730314,52.91615 52.916154,52.91615 29.1167,0 52.80097,-23.61917 52.91305,-52.70996 h 0.005 l -0.003,-0.0915 c 8e-5,-0.0385 0.003,-0.0762 0.003,-0.11472 0,-0.9656 -0.0298,-1.92383 -0.0811,-2.87683 z m -50.9788,27.51874 c 24.74291,0 44.88994,19.31403 46.22767,43.71723 l 0.0713,2.72851 c -0.0774,25.5446 -20.73593,46.15997 -46.29899,46.15997 -25.61106,0 -46.300537,-20.69205 -46.300537,-46.30311 0,-25.61107 20.689477,-46.30259 46.300537,-46.30259 z" /><path
       id="path11"
       style="color:#000000;display:inline;fill:#ff0000;fill-opacity:1;stroke:none;stroke-width:1.00012;stroke-linecap:round;stroke-dasharray:none"
       d="m 201.68938,246.69481 -20.79666,5.456 c -1.76603,0.46371 -2.82233,2.27121 -2.35955,4.03748 0.46371,1.76603 2.27122,2.82182 4.03748,2.35903 l 10.3079,-2.70371 c -2.98216,6.46565 -5.70386,14.74006 -6.9665,22.95674 -0.82342,5.35842 -1.02521,10.68065 -0.0837,15.50965 0.94152,4.82898 3.13711,9.30341 7.17785,12.15636 3.35584,2.36936 7.21041,2.88622 10.51719,2.1916 3.30677,-0.69461 6.13716,-2.39781 8.51007,-4.24626 4.74585,-3.69689 7.86309,-8.27546 7.86309,-8.27546 a 3.3072901,3.3072901 0 0 0 -0.84181,-4.60179 3.3072901,3.3072901 0 0 0 -4.59972,0.84181 c 0,0 -2.73839,3.89741 -6.48591,6.81664 -1.87375,1.45961 -3.94862,2.60009 -5.80481,2.99 -1.85619,0.38991 -3.42308,0.23383 -5.34179,-1.12086 -2.32199,-1.63942 -3.77542,-4.2928 -4.50205,-8.01967 -0.72663,-3.72687 -0.61657,-8.38826 0.12867,-13.23795 1.05816,-6.88603 3.39535,-14.15868 5.87303,-19.87579 l 2.27583,8.67234 c 0.46368,1.767 2.27212,2.82306 4.03903,2.35903 1.76603,-0.4637 2.82232,-2.2707 2.35954,-4.03696 z" /><path
       id="path1-2"
       style="color:#000000;fill:#080000;fill-opacity:1;fill-rule:evenodd;-inkscape-stroke:none"
       d="m 307.87403,127.3785 -6.60632,0.11523 1.83762,105.27989 h 0.005 c 0.059,7.88497 1.84979,15.36163 5.01054,22.07307 h -61.17956 v 6.61459 h 64.89785 c 9.47461,14.34425 25.73271,23.83007 44.17818,23.83007 29.18583,0 52.91615,-23.73238 52.91615,-52.91822 0,-29.18583 -23.73032,-52.91615 -52.91615,-52.91615 -20.23709,0 -37.84343,11.41434 -46.74288,28.1404 z m 48.14331,58.6941 c 25.61106,0 46.30105,20.68948 46.30105,46.30053 0,25.61106 -20.68999,46.3026 -46.30105,46.3026 -25.61106,0 -46.3026,-20.69154 -46.3026,-46.3026 0,-25.61105 20.69154,-46.30053 46.3026,-46.30053 z" /></g></svg>
