<?xml version="1.0" encoding="UTF-8" standalone="no"?>
<!-- Created with Inkscape (http://www.inkscape.org/) -->

<svg
   width="1000"
   height="1000"
   viewBox="0 0 264.58333 264.58333"
   version="1.1"
   id="svg45588"
   inkscape:version="1.3.2 (091e20e, 2023-11-25, custom)"
   sodipodi:docname="MAIO.svg"
   xml:space="preserve"
   xmlns:inkscape="http://www.inkscape.org/namespaces/inkscape"
   xmlns:sodipodi="http://sodipodi.sourceforge.net/DTD/sodipodi-0.dtd"
   xmlns="http://www.w3.org/2000/svg"
   xmlns:svg="http://www.w3.org/2000/svg"><sodipodi:namedview
     id="namedview45590"
     pagecolor="#ffffff"
     bordercolor="#000000"
     borderopacity="0.25"
     inkscape:showpageshadow="2"
     inkscape:pageopacity="0.0"
     inkscape:pagecheckerboard="0"
     inkscape:deskcolor="#d1d1d1"
     inkscape:document-units="px"
     showgrid="false"
     inkscape:zoom="0.26362495"
     inkscape:cx="1270.7447"
     inkscape:cy="574.68005"
     inkscape:window-width="1920"
     inkscape:window-height="1001"
     inkscape:window-x="-9"
     inkscape:window-y="-9"
     inkscape:window-maximized="1"
     inkscape:current-layer="layer1"
     showguides="true"><sodipodi:guide
       position="0,52.916666"
       orientation="0,1"
       id="guide3042"
       inkscape:locked="false"
       inkscape:label=""
       inkscape:color="rgb(0,134,229)" /><sodipodi:guide
       position="0,79.374999"
       orientation="0,1"
       id="guide3053"
       inkscape:locked="false"
       inkscape:label=""
       inkscape:color="rgb(0,134,229)" /><sodipodi:guide
       position="13.229166,264.58333"
       orientation="-1,0"
       id="guide3055"
       inkscape:locked="false"
       inkscape:label=""
       inkscape:color="rgb(0,134,229)" /><sodipodi:guide
       position="119.0625,132.29153"
       orientation="-1,0"
       id="guide3059"
       inkscape:label=""
       inkscape:locked="false"
       inkscape:color="rgb(0,134,229)" /><sodipodi:guide
       position="132.29166,132.29153"
       orientation="-1,0"
       id="guide3102"
       inkscape:label=""
       inkscape:locked="false"
       inkscape:color="rgb(0,134,229)" /><sodipodi:guide
       position="296.1721,132.29256"
       orientation="1,0"
       id="guide1"
       inkscape:locked="false" /><sodipodi:guide
       position="309.40127,132.29256"
       orientation="-1,0"
       id="guide2"
       inkscape:label=""
       inkscape:locked="false"
       inkscape:color="rgb(0,134,229)" /><sodipodi:guide
       position="322.63044,132.29256"
       orientation="-1,0"
       id="guide3"
       inkscape:label=""
       inkscape:locked="false"
       inkscape:color="rgb(0,134,229)" /><sodipodi:guide
       position="428.46463,142.74515"
       orientation="1,0"
       id="guide4"
       inkscape:locked="false" /><sodipodi:guide
       position="441.6938,142.74515"
       orientation="-1,0"
       id="guide5"
       inkscape:label=""
       inkscape:locked="false"
       inkscape:color="rgb(0,134,229)" /><sodipodi:guide
       position="454.92297,142.74515"
       orientation="-1,0"
       id="guide6"
       inkscape:label=""
       inkscape:locked="false"
       inkscape:color="rgb(0,134,229)" /><sodipodi:guide
       position="560.75629,132.29166"
       orientation="1,0"
       id="guide7"
       inkscape:locked="false" /><sodipodi:guide
       position="573.98546,132.29166"
       orientation="-1,0"
       id="guide8"
       inkscape:label=""
       inkscape:locked="false"
       inkscape:color="rgb(0,134,229)" /></sodipodi:namedview><defs
     id="defs45585"><clipPath
       clipPathUnits="userSpaceOnUse"
       id="clipPath420"><path
         d="M 591.86957,383.12061 H 908.19696 V 699.448 H 591.86957 Z"
         clip-rule="evenodd"
         id="path418" /></clipPath><clipPath
       clipPathUnits="userSpaceOnUse"
       id="clipPath420-9"><path
         d="M 591.86957,383.12061 H 908.19696 V 699.448 H 591.86957 Z"
         clip-rule="evenodd"
         id="path418-1" /></clipPath><clipPath
       clipPathUnits="userSpaceOnUse"
       id="clipPath420-8"><path
         d="M 591.86957,383.12061 H 908.19696 V 699.448 H 591.86957 Z"
         clip-rule="evenodd"
         id="path418-4" /></clipPath><clipPath
       clipPathUnits="userSpaceOnUse"
       id="clipPath420-4"><path
         d="M 591.86957,383.12061 H 908.19696 V 699.448 H 591.86957 Z"
         clip-rule="evenodd"
         id="path418-7" /></clipPath><clipPath
       clipPathUnits="userSpaceOnUse"
       id="clipPath420-46"><path
         d="M 591.86957,383.12061 H 908.19696 V 699.448 H 591.86957 Z"
         clip-rule="evenodd"
         id="path418-9" /></clipPath></defs><g
     inkscape:label="Layer 1"
     inkscape:groupmode="layer"
     id="layer1"
     transform="translate(-82.698455,-140.86843)"><path
       id="path1"
       style="color:#000000;fill:#030000;fill-opacity:1;fill-rule:evenodd;-inkscape-stroke:none"
       d="M 148.8846 220.24395 C 119.69875 220.24395 95.968963 243.97425 95.968963 273.16009 C 95.968963 291.45459 105.29446 307.60288 119.44143 317.10935 L 119.44143 367.68352 L 126.05601 367.68352 L 126.05601 320.89465 C 132.56363 324.01829 139.80831 325.83463 147.44954 326.03955 L 147.44954 376.18688 L 154.06412 376.18688 L 154.06412 325.81941 C 159.97702 325.2427 165.601 323.6809 170.78507 321.31478 L 170.78507 369.16767 L 177.39965 369.16767 L 177.39965 317.70518 C 192.06266 308.2886 201.80281 291.84912 201.80281 273.16009 C 201.80281 243.97425 178.07043 220.24395 148.8846 220.24395 z M 148.8846 226.8575 C 174.49565 226.8575 195.18771 247.54903 195.18771 273.16009 C 195.18771 298.77115 174.49565 319.46269 148.8846 319.46269 C 123.27353 319.46269 102.58406 298.77115 102.58406 273.16009 C 102.58406 247.54903 123.27353 226.8575 148.8846 226.8575 z " /><path
       id="path1-6"
       style="color:#000000;display:inline;fill:#000000;fill-opacity:1;fill-rule:evenodd;-inkscape-stroke:none"
       d="m 325.9544,220.24305 c -20.69572,0 -38.63655,11.93923 -47.32993,29.28761 -2.78916,-10.46975 -10.05251,-19.49142 -20.28196,-24.2967 -14.72547,-6.91728 -32.25731,-3.53626 -43.3524,8.36279 l 3.22513,3.00757 c 9.80106,-10.51125 25.2439,-13.49042 38.25193,-7.37991 11.18054,5.25205 18.33336,16.17603 18.9606,28.19259 -1.55235,4.97453 -2.38952,10.26198 -2.38952,15.7422 0,29.18583 23.73032,52.91821 52.91615,52.91821 29.18583,0 52.91615,-23.73238 52.91615,-52.91821 0,-29.18584 -23.73032,-52.91615 -52.91615,-52.91615 z m 0,6.61561 c 25.61105,0 46.3026,20.68947 46.3026,46.30054 0,25.61105 -20.69155,46.3026 -46.3026,46.3026 -25.61105,0 -46.3026,-20.69155 -46.3026,-46.3026 0,-25.61107 20.69155,-46.30054 46.3026,-46.30054 z" /><path
       id="path1-3"
       style="color:#000000;fill:#000000;fill-opacity:1;fill-rule:evenodd;-inkscape-stroke:none"
       d="m 509.22383,199.33787 -6.612,0.17311 1.22629,46.82608 c -9.21255,-15.6025 -26.19312,-26.09349 -45.59308,-26.09349 -29.18584,0 -52.91615,23.72979 -52.91615,52.91563 0,29.18583 23.73031,52.91615 52.91615,52.91615 29.11669,0 52.80096,-23.61917 52.91304,-52.70996 h 0.005 l -0.003,-0.0915 c 8e-5,-0.0385 0.003,-0.0762 0.003,-0.11472 0,-0.9656 -0.0298,-1.92383 -0.0811,-2.87683 z m -50.97879,27.51873 c 24.7429,0 44.88993,19.31403 46.22766,43.71723 l 0.0713,2.72851 c -0.0774,25.54459 -20.73593,46.15997 -46.29898,46.15997 -25.61106,0 -46.30053,-20.69206 -46.30053,-46.30311 0,-25.61107 20.68947,-46.3026 46.30053,-46.3026 z" /><g
       inkscape:label="Layer 1"
       id="layer1-5"
       transform="translate(450.91762,-15.283626)"><circle
         style="display:inline;fill:none;fill-rule:evenodd;stroke:#000000;stroke-width:6.61458;stroke-dasharray:none;stroke-opacity:1"
         id="path1-0"
         cx="139.62047"
         cy="288.44373"
         r="49.609371" /><ellipse
         style="fill:none;fill-rule:evenodd;stroke:#000000;stroke-width:3.30729;stroke-linecap:round;stroke-dasharray:none;stroke-opacity:1"
         id="path7"
         cx="139.93851"
         cy="288.76172"
         rx="25.851711"
         ry="25.851709" /></g></g></svg>
