<?xml version="1.0" encoding="UTF-8" standalone="no"?>
<!-- Created with Inkscape (http://www.inkscape.org/) -->

<svg
   width="1000"
   height="1000"
   viewBox="0 0 264.58335 264.58335"
   version="1.1"
   id="svg21229"
   inkscape:version="1.3.2 (091e20e, 2023-11-25, custom)"
   sodipodi:docname="MARROM.svg"
   xml:space="preserve"
   xmlns:inkscape="http://www.inkscape.org/namespaces/inkscape"
   xmlns:sodipodi="http://sodipodi.sourceforge.net/DTD/sodipodi-0.dtd"
   xmlns="http://www.w3.org/2000/svg"
   xmlns:svg="http://www.w3.org/2000/svg"><sodipodi:namedview
     id="namedview21231"
     pagecolor="#ffffff"
     bordercolor="#000000"
     borderopacity="0.25"
     inkscape:showpageshadow="2"
     inkscape:pageopacity="0.0"
     inkscape:pagecheckerboard="0"
     inkscape:deskcolor="#d1d1d1"
     inkscape:document-units="px"
     showgrid="false"
     inkscape:zoom="0.70710678"
     inkscape:cx="816.00123"
     inkscape:cy="-10.606602"
     inkscape:window-width="1920"
     inkscape:window-height="1017"
     inkscape:window-x="-8"
     inkscape:window-y="-8"
     inkscape:window-maximized="1"
     inkscape:current-layer="layer1"
     showguides="true"><sodipodi:guide
       position="0,52.91667"
       orientation="0,1"
       id="guide572"
       inkscape:locked="false"
       inkscape:label=""
       inkscape:color="rgb(0,134,229)" /><sodipodi:guide
       position="13.229167,264.58335"
       orientation="-1,0"
       id="guide3492"
       inkscape:locked="false"
       inkscape:label=""
       inkscape:color="rgb(0,134,229)" /><sodipodi:guide
       position="0,79.375005"
       orientation="0,1"
       id="guide3496"
       inkscape:locked="false"
       inkscape:label=""
       inkscape:color="rgb(0,134,229)" /><sodipodi:guide
       position="386.85807,215.10756"
       orientation="-1,0"
       id="guide4"
       inkscape:label=""
       inkscape:locked="false"
       inkscape:color="rgb(0,134,229)" /><sodipodi:guide
       position="400.08724,215.10756"
       orientation="-1,0"
       id="guide5"
       inkscape:label=""
       inkscape:locked="false"
       inkscape:color="rgb(0,134,229)" /></sodipodi:namedview><defs
     id="defs21226"><clipPath
       clipPathUnits="userSpaceOnUse"
       id="clipPath420"><path
         d="M 591.86957,383.12061 H 908.19696 V 699.448 H 591.86957 Z"
         clip-rule="evenodd"
         id="path418" /></clipPath><clipPath
       clipPathUnits="userSpaceOnUse"
       id="clipPath420-12"><path
         d="M 591.86957,383.12061 H 908.19696 V 699.448 H 591.86957 Z"
         clip-rule="evenodd"
         id="path418-24" /></clipPath><clipPath
       clipPathUnits="userSpaceOnUse"
       id="clipPath1460"><path
         d="M 0,0 H 6000 V 3406.25 H 0 Z"
         id="path1458" /></clipPath><clipPath
       clipPathUnits="userSpaceOnUse"
       id="clipPath1466"><path
         d="M 0,0 H 6000 V 3375 H 0 Z"
         id="path1464" /></clipPath><clipPath
       clipPathUnits="userSpaceOnUse"
       id="clipPath1472"><path
         d="M 0,0 H 6000 V 3375 H 0 Z"
         id="path1470" /></clipPath><clipPath
       clipPathUnits="userSpaceOnUse"
       id="clipPath1478"><path
         d="m 3173.9099,1877.2783 283.6526,254.7407 -254.7407,283.6524 -283.6526,-254.7407 z"
         id="path1476" /></clipPath><clipPath
       clipPathUnits="userSpaceOnUse"
       id="clipPath1484"><path
         d="m 3173.9099,1877.2783 283.6526,254.7407 -254.7407,283.6524 -283.6526,-254.7407 z"
         id="path1482" /></clipPath><clipPath
       clipPathUnits="userSpaceOnUse"
       id="clipPath1490"><path
         d="m 3173.9099,1877.2783 283.6526,254.7407 -254.7407,283.6524 -283.6526,-254.7407 z"
         id="path1488" /></clipPath><clipPath
       clipPathUnits="userSpaceOnUse"
       id="clipPath420-1"><path
         d="M 591.86957,383.12061 H 908.19696 V 699.448 H 591.86957 Z"
         clip-rule="evenodd"
         id="path418-1" /></clipPath><clipPath
       clipPathUnits="userSpaceOnUse"
       id="clipPath420-5"><path
         d="M 591.86957,383.12061 H 908.19696 V 699.448 H 591.86957 Z"
         clip-rule="evenodd"
         id="path418-2" /></clipPath><clipPath
       clipPathUnits="userSpaceOnUse"
       id="clipPath420-89"><path
         d="M 591.86957,383.12061 H 908.19696 V 699.448 H 591.86957 Z"
         clip-rule="evenodd"
         id="path418-242" /></clipPath><clipPath
       clipPathUnits="userSpaceOnUse"
       id="clipPath420-8"><path
         d="M 591.86957,383.12061 H 908.19696 V 699.448 H 591.86957 Z"
         clip-rule="evenodd"
         id="path418-4" /></clipPath><clipPath
       clipPathUnits="userSpaceOnUse"
       id="clipPath420-3"><path
         d="M 591.86957,383.12061 H 908.19696 V 699.448 H 591.86957 Z"
         clip-rule="evenodd"
         id="path418-2-1" /></clipPath><clipPath
       clipPathUnits="userSpaceOnUse"
       id="clipPath420-0"><path
         d="M 591.86957,383.12061 H 908.19696 V 699.448 H 591.86957 Z"
         clip-rule="evenodd"
         id="path418-1-0" /></clipPath></defs><g
     inkscape:label="Layer 1"
     inkscape:groupmode="layer"
     id="layer1"
     transform="translate(-143.83362,-154.6238)"><rect
       style="fill:#000000;fill-opacity:1;fill-rule:evenodd;stroke:none;stroke-width:1.99824"
       id="rect1"
       width="6.614584"
       height="51.064594"
       x="328.34549"
       y="282.30518" /><rect
       style="fill:#000000;fill-opacity:1;fill-rule:evenodd;stroke:none;stroke-width:1.99824"
       id="rect2"
       width="6.614584"
       height="51.064594"
       x="298.18298"
       y="282.30518" /><rect
       style="fill:#000000;fill-opacity:1;fill-rule:evenodd;stroke:none;stroke-width:3.05124"
       id="rect3"
       width="6.614584"
       height="119.06252"
       x="304.53018"
       y="-276.12531"
       transform="rotate(90)" /><path
       id="rect2-5"
       style="fill:#ff0000;fill-rule:evenodd;stroke-width:4.26512;stroke-linecap:round"
       d="m 530.69169,204.09959 -16.62276,-9.60717 v 5.1599 h -32.0058 v -5.1599 l -16.62535,9.60717 16.62535,9.60976 v -5.16145 h 32.0058 v 5.16145 z" /><path
       id="rect1-4"
       style="fill:#000000;fill-opacity:1;fill-rule:evenodd;stroke:none;stroke-width:2.18329"
       d="m 420.17452,174.68512 v 59.64183 c 5.79251,0.63867 11.30605,2.21571 16.38504,4.57441 l 0,-47.87686 h 6.61459 l 0,51.55466 c 14.48366,9.44779 24.07812,25.78528 24.07812,44.33683 0,29.18581 -23.7319,52.91615 -52.91771,52.91615 -29.1858,0 -52.91615,-23.73034 -52.91615,-52.91615 0,-18.16575 9.19604,-34.21547 23.17584,-43.74823 v -59.19329 h 6.61459 v 55.35167 c 6.77123,-3.30296 14.3489,-5.19289 22.35109,-5.30873 v -59.33229 z m -5.83996,65.92827 c -25.61103,0 -46.30105,20.69159 -46.30105,46.3026 0,25.61104 20.69002,46.30055 46.30105,46.30055 25.61104,0 46.30261,-20.68951 46.30261,-46.30055 0,-25.61101 -20.69157,-46.3026 -46.30261,-46.3026 z"
       sodipodi:nodetypes="ccccccssscccccccsssss" /></g></svg>
