<?xml version="1.0" encoding="UTF-8" standalone="no"?>
<!-- Created with Inkscape (http://www.inkscape.org/) -->

<svg
   width="1000"
   height="1000"
   viewBox="0 0 264.58333 264.58333"
   version="1.1"
   id="svg45588"
   inkscape:version="1.3.2 (091e20e, 2023-11-25, custom)"
   sodipodi:docname="MARÇO.svg"
   xml:space="preserve"
   xmlns:inkscape="http://www.inkscape.org/namespaces/inkscape"
   xmlns:sodipodi="http://sodipodi.sourceforge.net/DTD/sodipodi-0.dtd"
   xmlns="http://www.w3.org/2000/svg"
   xmlns:svg="http://www.w3.org/2000/svg"><sodipodi:namedview
     id="namedview45590"
     pagecolor="#ffffff"
     bordercolor="#000000"
     borderopacity="0.25"
     inkscape:showpageshadow="2"
     inkscape:pageopacity="0.0"
     inkscape:pagecheckerboard="0"
     inkscape:deskcolor="#d1d1d1"
     inkscape:document-units="px"
     showgrid="false"
     inkscape:zoom="0.37282198"
     inkscape:cx="40.233679"
     inkscape:cy="602.16407"
     inkscape:window-width="1920"
     inkscape:window-height="1017"
     inkscape:window-x="-8"
     inkscape:window-y="-8"
     inkscape:window-maximized="1"
     inkscape:current-layer="layer1"
     showguides="true"><sodipodi:guide
       position="0,52.916666"
       orientation="0,1"
       id="guide3042"
       inkscape:locked="false"
       inkscape:label=""
       inkscape:color="rgb(0,134,229)" /><sodipodi:guide
       position="0,79.374999"
       orientation="0,1"
       id="guide3053"
       inkscape:locked="false"
       inkscape:label=""
       inkscape:color="rgb(0,134,229)" /><sodipodi:guide
       position="13.229166,264.58333"
       orientation="-1,0"
       id="guide3055"
       inkscape:locked="false"
       inkscape:label=""
       inkscape:color="rgb(0,134,229)" /><sodipodi:guide
       position="119.0625,132.29153"
       orientation="-1,0"
       id="guide3059"
       inkscape:label=""
       inkscape:locked="false"
       inkscape:color="rgb(0,134,229)" /><sodipodi:guide
       position="132.29166,132.29153"
       orientation="-1,0"
       id="guide3102"
       inkscape:label=""
       inkscape:locked="false"
       inkscape:color="rgb(0,134,229)" /><sodipodi:guide
       position="240.37662,132.2927"
       orientation="-1,0"
       id="guide1"
       inkscape:label=""
       inkscape:locked="false"
       inkscape:color="rgb(0,134,229)" /><sodipodi:guide
       position="145.52083,132.29153"
       orientation="-1,0"
       id="guide2"
       inkscape:label=""
       inkscape:locked="false"
       inkscape:color="rgb(0,134,229)" /><sodipodi:guide
       position="253.60579,132.2927"
       orientation="-1,0"
       id="guide3"
       inkscape:label=""
       inkscape:locked="false"
       inkscape:color="rgb(0,134,229)" /></sodipodi:namedview><defs
     id="defs45585"><clipPath
       clipPathUnits="userSpaceOnUse"
       id="clipPath420"><path
         d="M 591.86957,383.12061 H 908.19696 V 699.448 H 591.86957 Z"
         clip-rule="evenodd"
         id="path418" /></clipPath><clipPath
       clipPathUnits="userSpaceOnUse"
       id="clipPath420-0"><path
         d="M 591.86957,383.12061 H 908.19696 V 699.448 H 591.86957 Z"
         clip-rule="evenodd"
         id="path418-8" /></clipPath></defs><g
     inkscape:label="Layer 1"
     inkscape:groupmode="layer"
     id="layer1"
     transform="translate(-82.698455,-140.86843)"><path
       id="path1"
       style="color:#000000;fill:#030000;fill-opacity:1;fill-rule:evenodd;-inkscape-stroke:none"
       d="M 148.8846 220.24395 C 119.69875 220.24395 95.968963 243.97425 95.968963 273.16009 C 95.968963 291.45459 105.29446 307.60288 119.44143 317.10935 L 119.44143 367.68352 L 126.05601 367.68352 L 126.05601 320.89465 C 132.56363 324.01829 139.80831 325.83463 147.44954 326.03955 L 147.44954 376.18688 L 154.06412 376.18688 L 154.06412 325.81941 C 159.97702 325.2427 165.601 323.6809 170.78507 321.31478 L 170.78507 369.16767 L 177.39965 369.16767 L 177.39965 317.70518 C 192.06266 308.2886 201.80281 291.84912 201.80281 273.16009 C 201.80281 243.97425 178.07043 220.24395 148.8846 220.24395 z M 148.8846 226.8575 C 174.49565 226.8575 195.18771 247.54903 195.18771 273.16009 C 195.18771 298.77115 174.49565 319.46269 148.8846 319.46269 C 123.27353 319.46269 102.58406 298.77115 102.58406 273.16009 C 102.58406 247.54903 123.27353 226.8575 148.8846 226.8575 z " /><g
       inkscape:label="Layer 1"
       id="layer1-0"
       transform="translate(71.163685,-13.754874)"><path
         style="display:inline;fill:none;fill-rule:evenodd;stroke:#000000;stroke-width:6.61458;stroke-dasharray:none;stroke-opacity:1"
         id="path1-5"
         sodipodi:type="arc"
         sodipodi:cx="198.99417"
         sodipodi:cy="286.91547"
         sodipodi:rx="49.609375"
         sodipodi:ry="49.609375"
         sodipodi:start="3.7974261"
         sodipodi:end="2.3388979"
         sodipodi:arc-type="arc"
         d="m 159.67676,256.66268 a 49.609375,49.609375 0 0 1 53.56042,-17.26802 49.609375,49.609375 0 0 1 35.23268,43.88123 49.609375,49.609375 0 0 1 -28.43209,48.56459 49.609375,49.609375 0 0 1 -55.51076,-9.24442"
         sodipodi:open="true" /><path
         style="opacity:1;fill:none;fill-rule:evenodd;stroke:#000000;stroke-width:6.61458;stroke-linecap:round;stroke-opacity:1"
         d="m 168.95888,360.20506 c 15.27573,26.45834 44.79485,-26.45833 60.07058,0"
         id="path10"
         sodipodi:nodetypes="cc" /></g></g></svg>
