<?xml version="1.0" encoding="UTF-8" standalone="no"?>
<!-- Created with Inkscape (http://www.inkscape.org/) -->

<svg
   width="1000"
   height="1000"
   viewBox="0 0 264.58334 264.58333"
   version="1.1"
   id="svg22843"
   inkscape:version="1.3.2 (091e20e, 2023-11-25, custom)"
   sodipodi:docname="MÊS.svg"
   xml:space="preserve"
   xmlns:inkscape="http://www.inkscape.org/namespaces/inkscape"
   xmlns:sodipodi="http://sodipodi.sourceforge.net/DTD/sodipodi-0.dtd"
   xmlns="http://www.w3.org/2000/svg"
   xmlns:svg="http://www.w3.org/2000/svg"><sodipodi:namedview
     id="namedview22845"
     pagecolor="#ffffff"
     bordercolor="#000000"
     borderopacity="0.25"
     inkscape:showpageshadow="2"
     inkscape:pageopacity="0.0"
     inkscape:pagecheckerboard="0"
     inkscape:deskcolor="#d1d1d1"
     inkscape:document-units="px"
     showgrid="false"
     inkscape:zoom="0.5"
     inkscape:cx="516"
     inkscape:cy="507"
     inkscape:window-width="1920"
     inkscape:window-height="1001"
     inkscape:window-x="-9"
     inkscape:window-y="-9"
     inkscape:window-maximized="1"
     inkscape:current-layer="layer1"
     showguides="true"><sodipodi:guide
       position="0,52.916667"
       orientation="0,1"
       id="guide713"
       inkscape:locked="false"
       inkscape:label=""
       inkscape:color="rgb(0,134,229)" /><sodipodi:guide
       position="83.815726,79.365549"
       orientation="0,-1"
       id="guide3782"
       inkscape:locked="false" /><sodipodi:guide
       position="13.229167,33.3375"
       orientation="-1,0"
       id="guide3784"
       inkscape:label=""
       inkscape:locked="false"
       inkscape:color="rgb(0,134,229)" /><sodipodi:guide
       position="119.0625,132.28264"
       orientation="-1,0"
       id="guide8230"
       inkscape:label=""
       inkscape:locked="false"
       inkscape:color="rgb(0,134,229)" /><sodipodi:guide
       position="132.29167,132.28264"
       orientation="-1,0"
       id="guide905"
       inkscape:label=""
       inkscape:locked="false"
       inkscape:color="rgb(0,134,229)" /><sodipodi:guide
       position="145.52084,132.28264"
       orientation="-1,0"
       id="guide1"
       inkscape:label=""
       inkscape:locked="false"
       inkscape:color="rgb(0,134,229)" /><sodipodi:guide
       position="226.22028,132.29069"
       orientation="1,0"
       id="guide3"
       inkscape:locked="false" /><sodipodi:guide
       position="189.17785,132.28264"
       orientation="-1,0"
       id="guide4"
       inkscape:label=""
       inkscape:locked="false"
       inkscape:color="rgb(0,134,229)" /><sodipodi:guide
       position="280.17525,185.20866"
       orientation="1,0"
       id="guide5"
       inkscape:locked="false" /><sodipodi:guide
       position="253.53087,178.59407"
       orientation="1,0"
       id="guide8"
       inkscape:locked="false" /><sodipodi:guide
       position="152.13545,178.59407"
       orientation="1,0"
       id="guide9"
       inkscape:locked="false" /><sodipodi:guide
       position="202.83316,178.59407"
       orientation="-1,0"
       id="guide10"
       inkscape:label=""
       inkscape:locked="false"
       inkscape:color="rgb(0,134,229)" /><sodipodi:guide
       position="332.05233,132.29069"
       orientation="1,0"
       id="guide11"
       inkscape:locked="false" /><sodipodi:guide
       position="345.2815,132.29069"
       orientation="-1,0"
       id="guide12"
       inkscape:label=""
       inkscape:locked="false"
       inkscape:color="rgb(0,134,229)" /></sodipodi:namedview><defs
     id="defs22840"><clipPath
       clipPathUnits="userSpaceOnUse"
       id="clipPath886"><path
         d="m 2757.6108,360.38428 h 337.3921 v 337.39221 h -337.3921 z"
         clip-rule="evenodd"
         id="path884" /></clipPath><clipPath
       clipPathUnits="userSpaceOnUse"
       id="clipPath898"><path
         d="M 0,0 H 6000 V 3375 H 0 Z"
         clip-rule="evenodd"
         id="path896" /></clipPath><clipPath
       clipPathUnits="userSpaceOnUse"
       id="clipPath420"><path
         d="M 591.86957,383.12061 H 908.19696 V 699.448 H 591.86957 Z"
         clip-rule="evenodd"
         id="path418" /></clipPath><clipPath
       clipPathUnits="userSpaceOnUse"
       id="clipPath420-3"><path
         d="M 591.86957,383.12061 H 908.19696 V 699.448 H 591.86957 Z"
         clip-rule="evenodd"
         id="path418-2" /></clipPath><clipPath
       clipPathUnits="userSpaceOnUse"
       id="clipPath420-4"><path
         d="M 591.86957,383.12061 H 908.19696 V 699.448 H 591.86957 Z"
         clip-rule="evenodd"
         id="path418-3" /></clipPath></defs><g
     inkscape:label="Layer 1"
     inkscape:groupmode="layer"
     id="layer1"
     transform="translate(-130.13643,-140.69541)"><path
       id="rect1"
       style="fill:#000000;fill-opacity:1;fill-rule:evenodd;stroke:none;stroke-width:3.05473"
       d="M 242.58435 153.65224 L 242.58435 247.40776 C 233.55288 231.12558 216.19116 220.08023 196.2833 220.08023 C 167.09747 220.08023 143.36508 243.81003 143.36508 272.99586 C 143.36508 302.1817 167.09747 325.91408 196.2833 325.91408 C 225.46914 325.91408 249.19945 302.1817 249.19945 272.99586 C 249.19945 272.9891 249.19893 272.98247 249.19893 272.97571 L 249.19893 153.65224 L 242.58435 153.65224 z M 196.2833 226.69533 C 221.89436 226.69533 242.58383 247.38481 242.58383 272.99586 C 242.58383 298.60693 221.89436 319.29898 196.2833 319.29898 C 170.67224 319.29898 149.9807 298.60693 149.9807 272.99586 C 149.9807 247.38481 170.67224 226.69533 196.2833 226.69533 z " /><path
       style="color:#000000;fill:#000000;fill-opacity:1;fill-rule:evenodd;-inkscape-stroke:none"
       d="m 409.27273,220.07008 c -29.18586,0 -52.91602,23.73211 -52.91602,52.91797 0,29.18586 23.73016,52.91602 52.91602,52.91602 29.18586,0 52.91602,-23.73016 52.91602,-52.91602 0,-29.18586 -23.73016,-52.91797 -52.91602,-52.91797 z m 0,6.61524 c 25.61108,0 46.30273,20.69165 46.30273,46.30273 0,25.61108 -20.69165,46.30078 -46.30273,46.30078 -25.61108,0 -46.30274,-20.6897 -46.30274,-46.30078 0,-25.61108 20.69166,-46.30273 46.30274,-46.30273 z"
       id="path1" /><rect
       style="fill:#000000;fill-opacity:1;fill-rule:evenodd;stroke:none;stroke-width:3.24488"
       id="rect1-6"
       width="6.6145835"
       height="134.6544"
       x="220.07008"
       y="-410.31168"
       transform="rotate(90)" /><rect
       style="fill:#000000;fill-opacity:1;fill-rule:evenodd;stroke:none;stroke-width:2.09678"
       id="rect2"
       width="6.6145835"
       height="56.225224"
       x="-282.27188"
       y="-276.29535"
       transform="scale(-1)" /><rect
       style="fill:#000000;fill-opacity:1;fill-rule:evenodd;stroke:none;stroke-width:1.84763"
       id="rect3"
       width="6.6145835"
       height="43.656994"
       x="-276.29535"
       y="275.65729"
       transform="rotate(-90)" /><g
       id="path1-7"
       transform="matrix(1,0,0,-1,79.488624,352.96073)"><path
         id="path5"
         style="color:#000000;fill:#ff0000;stroke-linecap:round;-inkscape-stroke:none"
         d="m 223.71688,143.68475 c -1.82758,-8.6e-4 -3.30942,1.48075 -3.30885,3.30833 v 42.23884 L 206.21097,175.0333 c -0.62001,-0.62014 -1.46092,-0.96866 -2.33784,-0.96893 -0.87763,-2.8e-4 -1.71939,0.34828 -2.33991,0.96893 -1.29055,1.2914 -1.29055,3.38428 0,4.67568 l 22.18366,22.18366 22.18159,-22.18366 c 1.29055,-1.2914 1.29055,-3.38428 0,-4.67568 -1.29164,-1.29193 -3.38611,-1.29193 -4.67775,0 l -14.19707,14.19707 v -42.23729 c 5.7e-4,-1.82677 -1.48,-3.30804 -3.30677,-3.30833 z"
         sodipodi:nodetypes="ccccsccccccccc" /><g
         id="g2" /></g><g
       id="g8"
       transform="matrix(1,0,0,-1,139.01887,352.96073)"><path
         style="color:#000000;fill:#ff0000;stroke-linecap:round;-inkscape-stroke:none"
         d="m 223.71583,136.19846 v 59.36298"
         id="path6" /><path
         id="path7"
         style="color:#000000;fill:#ff0000;stroke-linecap:round;-inkscape-stroke:none"
         d="m 223.71688,143.68475 c -1.82758,-8.6e-4 -3.30942,1.48075 -3.30885,3.30833 v 42.23884 L 206.21097,175.0333 c -0.62001,-0.62014 -1.46092,-0.96866 -2.33784,-0.96893 -0.87763,-2.8e-4 -1.71939,0.34828 -2.33991,0.96893 -1.29055,1.2914 -1.29055,3.38428 0,4.67568 l 22.18366,22.18366 22.18159,-22.18366 c 1.29055,-1.2914 1.29055,-3.38428 0,-4.67568 -1.29164,-1.29193 -3.38611,-1.29193 -4.67775,0 l -14.19707,14.19707 v -42.23729 c 5.7e-4,-1.82677 -1.48,-3.30804 -3.30677,-3.30833 z"
         sodipodi:nodetypes="ccccsccccccccc" /><g
         id="g7" /></g></g></svg>
