<?xml version="1.0" encoding="UTF-8" standalone="no"?>
<!-- Created with Inkscape (http://www.inkscape.org/) -->

<svg
   width="1000"
   height="1000"
   viewBox="0 0 264.58333 264.58333"
   version="1.1"
   id="svg45588"
   inkscape:version="1.3.2 (091e20e, 2023-11-25, custom)"
   sodipodi:docname="NOVEMBRO.svg"
   xml:space="preserve"
   xmlns:inkscape="http://www.inkscape.org/namespaces/inkscape"
   xmlns:sodipodi="http://sodipodi.sourceforge.net/DTD/sodipodi-0.dtd"
   xmlns="http://www.w3.org/2000/svg"
   xmlns:svg="http://www.w3.org/2000/svg"><sodipodi:namedview
     id="namedview45590"
     pagecolor="#ffffff"
     bordercolor="#000000"
     borderopacity="0.25"
     inkscape:showpageshadow="2"
     inkscape:pageopacity="0.0"
     inkscape:pagecheckerboard="0"
     inkscape:deskcolor="#d1d1d1"
     inkscape:document-units="px"
     showgrid="false"
     inkscape:zoom="0.74564396"
     inkscape:cx="399.65455"
     inkscape:cy="440.55879"
     inkscape:window-width="1920"
     inkscape:window-height="1001"
     inkscape:window-x="-9"
     inkscape:window-y="-9"
     inkscape:window-maximized="1"
     inkscape:current-layer="layer1"
     showguides="true"><sodipodi:guide
       position="0,52.916666"
       orientation="0,1"
       id="guide3042"
       inkscape:locked="false"
       inkscape:label=""
       inkscape:color="rgb(0,134,229)" /><sodipodi:guide
       position="0,79.374999"
       orientation="0,1"
       id="guide3053"
       inkscape:locked="false"
       inkscape:label=""
       inkscape:color="rgb(0,134,229)" /><sodipodi:guide
       position="13.229166,264.58333"
       orientation="-1,0"
       id="guide3055"
       inkscape:locked="false"
       inkscape:label=""
       inkscape:color="rgb(0,134,229)" /><sodipodi:guide
       position="120.7604,232.7093"
       orientation="-1,0"
       id="guide3059"
       inkscape:label=""
       inkscape:locked="false"
       inkscape:color="rgb(0,134,229)" /><sodipodi:guide
       position="133.98957,232.7093"
       orientation="-1,0"
       id="guide1"
       inkscape:label=""
       inkscape:locked="false"
       inkscape:color="rgb(0,134,229)" /></sodipodi:namedview><defs
     id="defs45585"><clipPath
       clipPathUnits="userSpaceOnUse"
       id="clipPath420"><path
         d="M 591.86957,383.12061 H 908.19696 V 699.448 H 591.86957 Z"
         clip-rule="evenodd"
         id="path418" /></clipPath><clipPath
       clipPathUnits="userSpaceOnUse"
       id="clipPath1460"><path
         d="M 0,0 H 6000 V 3406.25 H 0 Z"
         id="path1458" /></clipPath><clipPath
       clipPathUnits="userSpaceOnUse"
       id="clipPath1466"><path
         d="M 0,0 H 6000 V 3375 H 0 Z"
         id="path1464" /></clipPath><clipPath
       clipPathUnits="userSpaceOnUse"
       id="clipPath1472"><path
         d="M 0,0 H 6000 V 3375 H 0 Z"
         id="path1470" /></clipPath><clipPath
       clipPathUnits="userSpaceOnUse"
       id="clipPath1478"><path
         d="m 3173.9099,1877.2783 283.6526,254.7407 -254.7407,283.6524 -283.6526,-254.7407 z"
         id="path1476" /></clipPath><clipPath
       clipPathUnits="userSpaceOnUse"
       id="clipPath1484"><path
         d="m 3173.9099,1877.2783 283.6526,254.7407 -254.7407,283.6524 -283.6526,-254.7407 z"
         id="path1482" /></clipPath><clipPath
       clipPathUnits="userSpaceOnUse"
       id="clipPath1490"><path
         d="m 3173.9099,1877.2783 283.6526,254.7407 -254.7407,283.6524 -283.6526,-254.7407 z"
         id="path1488" /></clipPath><clipPath
       clipPathUnits="userSpaceOnUse"
       id="clipPath420-1"><path
         d="M 591.86957,383.12061 H 908.19696 V 699.448 H 591.86957 Z"
         clip-rule="evenodd"
         id="path418-1" /></clipPath><clipPath
       clipPathUnits="userSpaceOnUse"
       id="clipPath420-5"><path
         d="M 591.86957,383.12061 H 908.19696 V 699.448 H 591.86957 Z"
         clip-rule="evenodd"
         id="path418-2" /></clipPath></defs><g
     inkscape:label="Layer 1"
     inkscape:groupmode="layer"
     id="layer1"
     transform="translate(-82.698455,-140.86843)"><path
       id="path1"
       style="color:#000000;fill:#000000;fill-opacity:1;fill-rule:evenodd;-inkscape-stroke:none"
       d="M 148.8846 220.24395 C 119.69875 220.24395 95.968963 243.97425 95.968963 273.16009 C 95.968963 291.45459 105.29446 307.60288 119.44143 317.10935 L 119.44143 367.68352 L 126.05601 367.68352 L 126.05601 320.89465 C 132.56363 324.01829 139.80831 325.83463 147.44954 326.03955 L 147.44954 376.18688 L 154.06412 376.18688 L 154.06412 325.81941 C 180.82652 323.20913 201.80281 300.59818 201.80281 273.16009 C 201.80281 243.97425 178.07043 220.24395 148.8846 220.24395 z M 148.8846 226.8575 C 174.49565 226.8575 195.18771 247.54903 195.18771 273.16009 C 195.18771 298.77115 174.49565 319.46269 148.8846 319.46269 C 123.27353 319.46269 102.58406 298.77115 102.58406 273.16009 C 102.58406 247.54903 123.27353 226.8575 148.8846 226.8575 z " /><g
       inkscape:label="Layer 1"
       id="layer1-7"
       transform="translate(29.48794,-45.15781)"><path
         id="rect2"
         style="fill:#ff0000;fill-rule:evenodd;stroke-width:4.26512;stroke-linecap:round"
         d="m 164.36117,201.27751 -9.60717,16.62276 h 5.15989 v 32.0058 H 154.754 l 9.60717,16.62534 9.60975,-16.62534 h -5.16144 v -32.0058 h 5.16144 z" /></g></g></svg>
