<?xml version="1.0" encoding="UTF-8" standalone="no"?>
<!-- Created with Inkscape (http://www.inkscape.org/) -->

<svg
   width="1000"
   height="1000"
   viewBox="0 0 264.58333 264.58332"
   version="1.1"
   id="svg45951"
   inkscape:version="1.3.2 (091e20e, 2023-11-25, custom)"
   sodipodi:docname="OUTUBRO.svg"
   xml:space="preserve"
   xmlns:inkscape="http://www.inkscape.org/namespaces/inkscape"
   xmlns:sodipodi="http://sodipodi.sourceforge.net/DTD/sodipodi-0.dtd"
   xmlns="http://www.w3.org/2000/svg"
   xmlns:svg="http://www.w3.org/2000/svg"><sodipodi:namedview
     id="namedview45953"
     pagecolor="#ffffff"
     bordercolor="#000000"
     borderopacity="0.25"
     inkscape:showpageshadow="2"
     inkscape:pageopacity="0.0"
     inkscape:pagecheckerboard="0"
     inkscape:deskcolor="#d1d1d1"
     inkscape:document-units="px"
     showgrid="false"
     inkscape:zoom="0.74564396"
     inkscape:cx="41.574802"
     inkscape:cy="445.92328"
     inkscape:window-width="1920"
     inkscape:window-height="1001"
     inkscape:window-x="-9"
     inkscape:window-y="-9"
     inkscape:window-maximized="1"
     inkscape:current-layer="layer1"
     showguides="true"><sodipodi:guide
       position="0,79.374998"
       orientation="0,1"
       id="guide6008"
       inkscape:locked="false"
       inkscape:label=""
       inkscape:color="rgb(0,134,229)" /><sodipodi:guide
       position="0,52.916665"
       orientation="0,1"
       id="guide6010"
       inkscape:label=""
       inkscape:locked="false"
       inkscape:color="rgb(0,134,229)" /><sodipodi:guide
       position="13.229166,231.58332"
       orientation="-1,0"
       id="guide1"
       inkscape:locked="false"
       inkscape:label=""
       inkscape:color="rgb(0,134,229)" /><sodipodi:guide
       position="163.18126,188.64116"
       orientation="-1,0"
       id="guide2"
       inkscape:locked="false"
       inkscape:label=""
       inkscape:color="rgb(0,134,229)" /><sodipodi:guide
       position="149.95209,188.64116"
       orientation="1,0"
       id="guide3"
       inkscape:locked="false" /></sodipodi:namedview><defs
     id="defs45948"><clipPath
       clipPathUnits="userSpaceOnUse"
       id="clipPath420"><path
         d="M 591.86957,383.12061 H 908.19696 V 699.448 H 591.86957 Z"
         clip-rule="evenodd"
         id="path418" /></clipPath><clipPath
       clipPathUnits="userSpaceOnUse"
       id="clipPath420-71"><path
         d="M 591.86957,383.12061 H 908.19696 V 699.448 H 591.86957 Z"
         clip-rule="evenodd"
         id="path418-7" /></clipPath><clipPath
       clipPathUnits="userSpaceOnUse"
       id="clipPath420-5"><path
         d="M 591.86957,383.12061 H 908.19696 V 699.448 H 591.86957 Z"
         clip-rule="evenodd"
         id="path418-2" /></clipPath><clipPath
       clipPathUnits="userSpaceOnUse"
       id="clipPath420-7"><path
         d="M 591.86957,383.12061 H 908.19696 V 699.448 H 591.86957 Z"
         clip-rule="evenodd"
         id="path418-4" /></clipPath></defs><g
     inkscape:label="Layer 1"
     inkscape:groupmode="layer"
     id="layer1"
     transform="translate(-73.474638,-156.15206)"><circle
       style="display:inline;fill:none;fill-rule:evenodd;stroke:#000000;stroke-width:6.61458;stroke-dasharray:none;stroke-opacity:1"
       id="path1"
       cx="155.06526"
       cy="288.44373"
       r="49.609371" /><ellipse
       style="fill:none;fill-rule:evenodd;stroke:#000000;stroke-width:3.30729;stroke-linecap:round;stroke-dasharray:none;stroke-opacity:1"
       id="path7"
       cx="155.3833"
       cy="288.76172"
       rx="25.851711"
       ry="25.851709" /><g
       id="path2"
       transform="translate(-3.335119,49.439897)"><path
         id="path6"
         style="color:#000000;fill:#ff0000;fill-rule:evenodd;stroke-linecap:round;-inkscape-stroke:none"
         d="m 97.105675,148.54322 a 3.3072901,3.3072901 0 0 0 -3.648873,2.9254 l -3.417879,31.1857 31.183627,3.41581 a 3.3072901,3.3072901 0 0 0 3.64835,-2.9254 3.3072901,3.3072901 0 0 0 -2.92747,-3.64888 l -19.40863,-2.127 c 10.02928,-6.6993 32.48262,-19.6913 55.86584,-19.6913 23.38326,0 45.83658,12.99201 55.86584,19.6913 l -19.40915,2.127 a 3.3072901,3.3072901 0 0 0 -2.92747,3.64888 3.3072901,3.3072901 0 0 0 3.64629,2.9254 l 31.18569,-3.41581 -3.41788,-31.1857 a 3.3072901,3.3072901 0 0 0 -3.64887,-2.9254 3.3072901,3.3072901 0 0 0 -2.92747,3.64629 l 2.22984,20.33364 c -9.94397,-6.89736 -34.04858,-21.4607 -60.59682,-21.4607 -26.54695,0 -50.65144,14.56189 -60.5963,21.45967 l 2.22674,-20.33261 a 3.3072901,3.3072901 0 0 0 -2.925405,-3.64629 z" /><g
         id="g2" /></g></g></svg>
