<?xml version="1.0" encoding="UTF-8" standalone="no"?>
<!-- Created with Inkscape (http://www.inkscape.org/) -->

<svg
   width="1000"
   height="1000"
   viewBox="0 0 264.58333 264.58335"
   version="1.1"
   id="svg10039"
   inkscape:version="1.3.2 (091e20e, 2023-11-25, custom)"
   sodipodi:docname="PRETO.svg"
   xml:space="preserve"
   xmlns:inkscape="http://www.inkscape.org/namespaces/inkscape"
   xmlns:sodipodi="http://sodipodi.sourceforge.net/DTD/sodipodi-0.dtd"
   xmlns="http://www.w3.org/2000/svg"
   xmlns:svg="http://www.w3.org/2000/svg"><sodipodi:namedview
     id="namedview10041"
     pagecolor="#ffffff"
     bordercolor="#000000"
     borderopacity="0.25"
     inkscape:showpageshadow="2"
     inkscape:pageopacity="0"
     inkscape:pagecheckerboard="0"
     inkscape:deskcolor="#d1d1d1"
     inkscape:document-units="px"
     showgrid="false"
     inkscape:zoom="0.5"
     inkscape:cx="578"
     inkscape:cy="387"
     inkscape:window-width="1920"
     inkscape:window-height="1017"
     inkscape:window-x="-8"
     inkscape:window-y="-8"
     inkscape:window-maximized="1"
     inkscape:current-layer="layer1"
     showguides="true"><sodipodi:guide
       position="0,52.916668"
       orientation="0,1"
       id="guide294"
       inkscape:locked="false"
       inkscape:label=""
       inkscape:color="rgb(0,134,229)" /><sodipodi:guide
       position="0,79.375002"
       orientation="0,1"
       id="guide3203"
       inkscape:locked="false"
       inkscape:label=""
       inkscape:color="rgb(0,134,229)" /><sodipodi:guide
       position="13.229167,264.58334"
       orientation="-1,0"
       id="guide3205"
       inkscape:locked="false"
       inkscape:label=""
       inkscape:color="rgb(0,134,229)" /><sodipodi:guide
       position="0,172.71543"
       orientation="1,0"
       id="guide1"
       inkscape:locked="false" /><sodipodi:guide
       position="125.67707,104.1797"
       orientation="1,0"
       id="guide2"
       inkscape:locked="false" /><sodipodi:guide
       position="296.1721,132.29167"
       orientation="1,0"
       id="guide4"
       inkscape:locked="false" /><sodipodi:guide
       position="370.51637,100.75904"
       orientation="1,0"
       id="guide6"
       inkscape:locked="false" /><sodipodi:guide
       position="132.29165,171.85516"
       orientation="1,0"
       id="guide8"
       inkscape:locked="false" /><sodipodi:guide
       position="309.40127,132.29167"
       orientation="-1,0"
       id="guide9"
       inkscape:label=""
       inkscape:locked="false"
       inkscape:color="rgb(0,134,229)" /><sodipodi:guide
       position="383.74554,100.75904"
       orientation="-1,0"
       id="guide10"
       inkscape:label=""
       inkscape:locked="false"
       inkscape:color="rgb(0,134,229)" /></sodipodi:namedview><defs
     id="defs10036"><clipPath
       clipPathUnits="userSpaceOnUse"
       id="clipPath420"><path
         d="M 591.86957,383.12061 H 908.19696 V 699.448 H 591.86957 Z"
         clip-rule="evenodd"
         id="path418" /></clipPath><clipPath
       clipPathUnits="userSpaceOnUse"
       id="clipPath420-8"><path
         d="M 591.86957,383.12061 H 908.19696 V 699.448 H 591.86957 Z"
         clip-rule="evenodd"
         id="path418-4" /></clipPath><clipPath
       clipPathUnits="userSpaceOnUse"
       id="clipPath420-81"><path
         d="M 591.86957,383.12061 H 908.19696 V 699.448 H 591.86957 Z"
         clip-rule="evenodd"
         id="path418-38" /></clipPath><clipPath
       clipPathUnits="userSpaceOnUse"
       id="clipPath420-3"><path
         d="M 591.86957,383.12061 H 908.19696 V 699.448 H 591.86957 Z"
         clip-rule="evenodd"
         id="path418-7" /></clipPath><inkscape:path-effect
       center_point="198.72966,171.51936"
       end_point="198.72966,181.30894"
       start_point="198.72966,161.72978"
       effect="mirror_symmetry"
       id="path-effect4"
       is_visible="true"
       lpeversion="1.2"
       lpesatellites=""
       mode="free"
       discard_orig_path="false"
       fuse_paths="false"
       oposite_fuse="false"
       split_items="false"
       split_open="false"
       link_styles="false" /><inkscape:path-effect
       effect="mirror_symmetry"
       start_point="225.48565,171.51936"
       end_point="225.48565,191.09853"
       center_point="225.48565,181.30894"
       id="path-effect3"
       is_visible="true"
       lpeversion="1.2"
       lpesatellites=""
       mode="X"
       discard_orig_path="false"
       fuse_paths="false"
       oposite_fuse="false"
       split_items="false"
       split_open="false"
       link_styles="false" /><inkscape:path-effect
       effect="mirror_symmetry"
       start_point="225.48565,171.51936"
       end_point="225.48565,191.09853"
       center_point="225.48565,181.30894"
       id="path-effect2"
       is_visible="true"
       lpeversion="1.2"
       lpesatellites=""
       mode="X"
       discard_orig_path="false"
       fuse_paths="false"
       oposite_fuse="true"
       split_items="false"
       split_open="false"
       link_styles="false" /><clipPath
       clipPathUnits="userSpaceOnUse"
       id="clipPath886"><path
         d="m 2757.6108,360.38428 h 337.3921 v 337.39221 h -337.3921 z"
         clip-rule="evenodd"
         id="path884" /></clipPath><clipPath
       clipPathUnits="userSpaceOnUse"
       id="clipPath898"><path
         d="M 0,0 H 6000 V 3375 H 0 Z"
         clip-rule="evenodd"
         id="path896" /></clipPath><clipPath
       clipPathUnits="userSpaceOnUse"
       id="clipPath420-12"><path
         d="M 591.86957,383.12061 H 908.19696 V 699.448 H 591.86957 Z"
         clip-rule="evenodd"
         id="path418-6" /></clipPath><clipPath
       clipPathUnits="userSpaceOnUse"
       id="clipPath420-1"><path
         d="M 591.86957,383.12061 H 908.19696 V 699.448 H 591.86957 Z"
         clip-rule="evenodd"
         id="path418-1" /></clipPath><clipPath
       clipPathUnits="userSpaceOnUse"
       id="clipPath420-13"><path
         d="M 591.86957,383.12061 H 908.19696 V 699.448 H 591.86957 Z"
         clip-rule="evenodd"
         id="path418-71" /></clipPath><clipPath
       clipPathUnits="userSpaceOnUse"
       id="clipPath420-8-2"><path
         d="M 591.86957,383.12061 H 908.19696 V 699.448 H 591.86957 Z"
         clip-rule="evenodd"
         id="path418-4-0" /></clipPath><clipPath
       clipPathUnits="userSpaceOnUse"
       id="clipPath420-3-3"><path
         d="M 591.86957,383.12061 H 908.19696 V 699.448 H 591.86957 Z"
         clip-rule="evenodd"
         id="path418-2" /></clipPath><clipPath
       clipPathUnits="userSpaceOnUse"
       id="clipPath420-0"><path
         d="M 591.86957,383.12061 H 908.19696 V 699.448 H 591.86957 Z"
         clip-rule="evenodd"
         id="path418-1-3" /></clipPath><clipPath
       clipPathUnits="userSpaceOnUse"
       id="clipPath420-2"><path
         d="M 591.86957,383.12061 H 908.19696 V 699.448 H 591.86957 Z"
         clip-rule="evenodd"
         id="path418-8" /></clipPath><clipPath
       clipPathUnits="userSpaceOnUse"
       id="clipPath420-9"><path
         d="M 591.86957,383.12061 H 908.19696 V 699.448 H 591.86957 Z"
         clip-rule="evenodd"
         id="path418-3" /></clipPath><clipPath
       clipPathUnits="userSpaceOnUse"
       id="clipPath420-35"><path
         d="M 591.86957,383.12061 H 908.19696 V 699.448 H 591.86957 Z"
         clip-rule="evenodd"
         id="path418-7-69" /></clipPath><clipPath
       clipPathUnits="userSpaceOnUse"
       id="clipPath420-06"><path
         d="M 591.86957,383.12061 H 908.19696 V 699.448 H 591.86957 Z"
         clip-rule="evenodd"
         id="path418-88" /></clipPath><clipPath
       clipPathUnits="userSpaceOnUse"
       id="clipPath420-4"><path
         d="M 591.86957,383.12061 H 908.19696 V 699.448 H 591.86957 Z"
         clip-rule="evenodd"
         id="path418-28" /></clipPath><clipPath
       clipPathUnits="userSpaceOnUse"
       id="clipPath420-8-7"><path
         d="M 591.86957,383.12061 H 908.19696 V 699.448 H 591.86957 Z"
         clip-rule="evenodd"
         id="path418-4-9" /></clipPath><clipPath
       clipPathUnits="userSpaceOnUse"
       id="clipPath420-3-5"><path
         d="M 591.86957,383.12061 H 908.19696 V 699.448 H 591.86957 Z"
         clip-rule="evenodd"
         id="path418-2-4" /></clipPath><clipPath
       clipPathUnits="userSpaceOnUse"
       id="clipPath420-0-4"><path
         d="M 591.86957,383.12061 H 908.19696 V 699.448 H 591.86957 Z"
         clip-rule="evenodd"
         id="path418-1-5" /></clipPath><clipPath
       clipPathUnits="userSpaceOnUse"
       id="clipPath420-2-8"><path
         d="M 591.86957,383.12061 H 908.19696 V 699.448 H 591.86957 Z"
         clip-rule="evenodd"
         id="path418-8-9" /></clipPath><clipPath
       clipPathUnits="userSpaceOnUse"
       id="clipPath420-9-6"><path
         d="M 591.86957,383.12061 H 908.19696 V 699.448 H 591.86957 Z"
         clip-rule="evenodd"
         id="path418-3-9" /></clipPath><clipPath
       clipPathUnits="userSpaceOnUse"
       id="clipPath420-35-8"><path
         d="M 591.86957,383.12061 H 908.19696 V 699.448 H 591.86957 Z"
         clip-rule="evenodd"
         id="path418-7-6" /></clipPath><clipPath
       clipPathUnits="userSpaceOnUse"
       id="clipPath420-06-9"><path
         d="M 591.86957,383.12061 H 908.19696 V 699.448 H 591.86957 Z"
         clip-rule="evenodd"
         id="path418-88-9" /></clipPath><inkscape:path-effect
       effect="bspline"
       id="path-effect9613"
       is_visible="true"
       lpeversion="1"
       weight="33.333333"
       steps="2"
       helper_size="0"
       apply_no_weight="true"
       apply_with_weight="true"
       only_selected="false"
       uniform="false" /><clipPath
       clipPathUnits="userSpaceOnUse"
       id="clipPath1768"><path
         d="m 3214.0178,557.229 h 378.125 v 378.125 h -378.125 z"
         clip-rule="evenodd"
         id="path1766" /></clipPath><clipPath
       clipPathUnits="userSpaceOnUse"
       id="clipPath1780"><path
         d="M 0,0 H 6000 V 3406.25 H 0 Z"
         id="path1778" /></clipPath><clipPath
       clipPathUnits="userSpaceOnUse"
       id="clipPath1786"><path
         d="M 0,0 H 6000 V 3375 H 0 Z"
         id="path1784" /></clipPath><clipPath
       clipPathUnits="userSpaceOnUse"
       id="clipPath1792"><path
         d="M 0,0 H 6000 V 3375 H 0 Z"
         id="path1790" /></clipPath><clipPath
       clipPathUnits="userSpaceOnUse"
       id="clipPath1798"><path
         d="m 3214.021,670.82422 222.1558,-35.66199 18.8217,117.2489 -222.156,35.66199 z"
         id="path1796" /></clipPath><clipPath
       clipPathUnits="userSpaceOnUse"
       id="clipPath1804"><path
         d="m 3214.021,670.82422 225.2415,-36.15729 18.8215,117.2489 -225.2415,36.15729 z"
         id="path1802" /></clipPath><clipPath
       clipPathUnits="userSpaceOnUse"
       id="clipPath1810"><path
         d="m 3214.021,670.82422 336.3193,-53.98828 18.8216,117.2489 -336.3194,53.98828 z"
         id="path1808" /></clipPath><clipPath
       clipPathUnits="userSpaceOnUse"
       id="clipPath420-42"><path
         d="M 591.86957,383.12061 H 908.19696 V 699.448 H 591.86957 Z"
         clip-rule="evenodd"
         id="path418-9" /></clipPath><clipPath
       clipPathUnits="userSpaceOnUse"
       id="clipPath420-33"><path
         d="M 591.86957,383.12061 H 908.19696 V 699.448 H 591.86957 Z"
         clip-rule="evenodd"
         id="path418-70" /></clipPath><clipPath
       clipPathUnits="userSpaceOnUse"
       id="clipPath420-8-6"><path
         d="M 591.86957,383.12061 H 908.19696 V 699.448 H 591.86957 Z"
         clip-rule="evenodd"
         id="path418-4-2" /></clipPath><clipPath
       clipPathUnits="userSpaceOnUse"
       id="clipPath420-1-2"><path
         d="M 591.86957,383.12061 H 908.19696 V 699.448 H 591.86957 Z"
         clip-rule="evenodd"
         id="path418-8-3" /></clipPath><clipPath
       clipPathUnits="userSpaceOnUse"
       id="clipPath3"><path
         d="M 9.12e-6,0 H 612.00001 V 792 H 9.12e-6 Z"
         transform="matrix(1,0,0,-1,-72.024002,250.37001)"
         clip-rule="evenodd"
         id="path3-7" /></clipPath><clipPath
       clipPathUnits="userSpaceOnUse"
       id="clipPath3-5"><path
         d="M 9.12e-6,0 H 612.00001 V 792 H 9.12e-6 Z"
         transform="matrix(1,0,0,-1,-191.81001,250.37001)"
         clip-rule="evenodd"
         id="path3" /></clipPath><clipPath
       clipPathUnits="userSpaceOnUse"
       id="clipPath420-7"><path
         d="M 591.86957,383.12061 H 908.19696 V 699.448 H 591.86957 Z"
         clip-rule="evenodd"
         id="path418-0" /></clipPath></defs><g
     inkscape:label="Layer 1"
     inkscape:groupmode="layer"
     id="layer1"
     transform="translate(-6.9272639,-79.57655)"><path
       id="path1"
       style="color:#000000;display:inline;fill:#000000;fill-opacity:1;fill-rule:evenodd;-inkscape-stroke:none"
       d="m 250.18321,158.95104 c -20.69572,0 -38.63655,11.93923 -47.32993,29.28761 -2.78916,-10.46975 -10.0525,-19.49142 -20.28196,-24.2967 -14.72547,-6.91728 -32.25731,-3.53626 -43.3524,8.36279 l 3.22513,3.00757 c 9.80106,-10.51125 25.2439,-13.49042 38.25193,-7.37991 11.18054,5.25205 18.33336,16.17603 18.9606,28.19259 -1.55234,4.97453 -2.38952,10.26198 -2.38952,15.7422 0,29.18583 23.73031,52.91821 52.91615,52.91821 29.18583,0 52.91615,-23.73238 52.91615,-52.91821 0,-29.18584 -23.73032,-52.91615 -52.91615,-52.91615 z m 0,6.61561 c 25.61105,0 46.3026,20.68947 46.3026,46.30054 0,25.61105 -20.69155,46.3026 -46.3026,46.3026 -25.61106,0 -46.3026,-20.69155 -46.3026,-46.3026 0,-25.61107 20.69154,-46.30054 46.3026,-46.30054 z" /><path
       style="fill:none;stroke:#000000;stroke-width:6.61458;stroke-linecap:butt;stroke-dasharray:none;stroke-opacity:1"
       id="path4"
       sodipodi:type="arc"
       sodipodi:cx="76.380386"
       sodipodi:cy="-239.98019"
       sodipodi:rx="52.916664"
       sodipodi:ry="52.916664"
       sodipodi:start="0"
       sodipodi:end="3.1415833"
       sodipodi:open="true"
       sodipodi:arc-type="arc"
       d="M 129.29705,-239.98019 A 52.916664,52.916664 0 0 1 76.380634,-187.06353 52.916664,52.916664 0 0 1 23.463722,-239.9797"
       transform="scale(1,-1)" /><path
       id="path11"
       style="color:#000000;display:inline;fill:#ff0000;fill-opacity:1;stroke:none;stroke-width:1.00012;stroke-linecap:round;stroke-dasharray:none"
       d="m 374.79643,264.7377 2.6472,-21.33685 c 0.22444,-1.81205 -1.06231,-3.46344 -2.87424,-3.68883 -1.81204,-0.22443 -3.46297,1.06252 -3.68834,2.87444 l -1.31262,10.57543 c -4.89825,-5.16769 -11.57285,-10.76441 -18.73503,-14.98474 -4.67073,-2.75226 -9.53844,-4.9138 -14.37219,-5.83065 -4.83373,-0.91683 -9.80336,-0.53755 -13.9516,2.15671 -3.4451,2.23759 -5.35485,5.62547 -5.93634,8.954 -0.58151,3.32853 -0.0497,6.58877 0.78674,9.47803 1.67282,5.77857 4.7685,10.37174 4.7685,10.37174 a 3.3072902,3.3072902 0 0 0 4.58576,0.92516 3.3072902,3.3072902 0 0 0 0.9244,-4.58384 c 0,0 -2.60365,-3.98869 -3.92458,-8.55168 -0.66047,-2.28149 -0.94997,-4.63137 -0.62356,-6.49978 0.32642,-1.8684 1.05256,-3.26562 3.02231,-4.54496 2.38375,-1.54825 5.38696,-1.9138 9.11749,-1.2062 3.73053,0.7076 8.01857,2.53882 12.24587,5.02977 6.0023,3.53688 11.88922,8.40494 16.27945,12.82649 l -8.89784,-1.1033 c -1.81293,-0.22483 -3.46445,1.06288 -3.68892,2.87587 -0.22444,1.81204 1.06185,3.46324 2.87377,3.68862 z" /></g></svg>
