<?xml version="1.0" encoding="UTF-8" standalone="no"?>
<!-- Created with Inkscape (http://www.inkscape.org/) -->

<svg
   width="1000"
   height="1000"
   viewBox="0 0 264.58334 264.58333"
   version="1.1"
   id="svg46614"
   inkscape:version="1.3.2 (091e20e, 2023-11-25, custom)"
   sodipodi:docname="ROSA.svg"
   xml:space="preserve"
   xmlns:inkscape="http://www.inkscape.org/namespaces/inkscape"
   xmlns:sodipodi="http://sodipodi.sourceforge.net/DTD/sodipodi-0.dtd"
   xmlns="http://www.w3.org/2000/svg"
   xmlns:svg="http://www.w3.org/2000/svg"><sodipodi:namedview
     id="namedview46616"
     pagecolor="#ffffff"
     bordercolor="#000000"
     borderopacity="0.25"
     inkscape:showpageshadow="2"
     inkscape:pageopacity="0.0"
     inkscape:pagecheckerboard="0"
     inkscape:deskcolor="#d1d1d1"
     inkscape:document-units="px"
     showgrid="false"
     inkscape:zoom="0.5272499"
     inkscape:cx="460.88202"
     inkscape:cy="384.06835"
     inkscape:window-width="1920"
     inkscape:window-height="1017"
     inkscape:window-x="-8"
     inkscape:window-y="-8"
     inkscape:window-maximized="1"
     inkscape:current-layer="layer1"
     showguides="true"><sodipodi:guide
       position="0,52.916667"
       orientation="0,1"
       id="guide951"
       inkscape:locked="false"
       inkscape:label=""
       inkscape:color="rgb(0,134,229)" /><sodipodi:guide
       position="0,79.375"
       orientation="0,1"
       id="guide953"
       inkscape:label=""
       inkscape:locked="false"
       inkscape:color="rgb(0,134,229)" /><sodipodi:guide
       position="119.12173,132.30244"
       orientation="1,0"
       id="guide977"
       inkscape:locked="false" /><sodipodi:guide
       position="132.3509,132.30244"
       orientation="-1,0"
       id="guide356"
       inkscape:label=""
       inkscape:locked="false"
       inkscape:color="rgb(0,134,229)" /><sodipodi:guide
       position="13.229167,132.35264"
       orientation="-1,0"
       id="guide2"
       inkscape:locked="false"
       inkscape:label=""
       inkscape:color="rgb(0,134,229)" /><sodipodi:guide
       position="264.58334,158.75"
       orientation="0,1"
       id="guide3"
       inkscape:locked="false"
       inkscape:label=""
       inkscape:color="rgb(0,134,229)" /><sodipodi:guide
       position="215.03319,162.05728"
       orientation="1,0"
       id="guide8"
       inkscape:locked="false" /><sodipodi:guide
       position="228.26236,162.05728"
       orientation="-1,0"
       id="guide9"
       inkscape:label=""
       inkscape:locked="false"
       inkscape:color="rgb(0,134,229)" /><sodipodi:guide
       position="320.74763,144.07541"
       orientation="1,0"
       id="guide10"
       inkscape:locked="false" /><sodipodi:guide
       position="333.9768,144.07541"
       orientation="-1,0"
       id="guide11"
       inkscape:label=""
       inkscape:locked="false"
       inkscape:color="rgb(0,134,229)" /></sodipodi:namedview><defs
     id="defs46611"><clipPath
       clipPathUnits="userSpaceOnUse"
       id="clipPath420"><path
         d="M 591.86957,383.12061 H 908.19696 V 699.448 H 591.86957 Z"
         clip-rule="evenodd"
         id="path418" /></clipPath><clipPath
       clipPathUnits="userSpaceOnUse"
       id="clipPath420-44"><path
         d="M 591.86957,383.12061 H 908.19696 V 699.448 H 591.86957 Z"
         clip-rule="evenodd"
         id="path418-283" /></clipPath><clipPath
       clipPathUnits="userSpaceOnUse"
       id="clipPath420-3"><path
         d="M 591.86957,383.12061 H 908.19696 V 699.448 H 591.86957 Z"
         clip-rule="evenodd"
         id="path418-7" /></clipPath><inkscape:path-effect
       center_point="198.72966,171.51936"
       end_point="198.72966,181.30894"
       start_point="198.72966,161.72978"
       effect="mirror_symmetry"
       id="path-effect4"
       is_visible="true"
       lpeversion="1.2"
       lpesatellites=""
       mode="free"
       discard_orig_path="false"
       fuse_paths="false"
       oposite_fuse="false"
       split_items="false"
       split_open="false"
       link_styles="false" /><inkscape:path-effect
       effect="mirror_symmetry"
       start_point="225.48565,171.51936"
       end_point="225.48565,191.09853"
       center_point="225.48565,181.30894"
       id="path-effect3"
       is_visible="true"
       lpeversion="1.2"
       lpesatellites=""
       mode="X"
       discard_orig_path="false"
       fuse_paths="false"
       oposite_fuse="false"
       split_items="false"
       split_open="false"
       link_styles="false" /><inkscape:path-effect
       effect="mirror_symmetry"
       start_point="225.48565,171.51936"
       end_point="225.48565,191.09853"
       center_point="225.48565,181.30894"
       id="path-effect2"
       is_visible="true"
       lpeversion="1.2"
       lpesatellites=""
       mode="X"
       discard_orig_path="false"
       fuse_paths="false"
       oposite_fuse="true"
       split_items="false"
       split_open="false"
       link_styles="false" /><clipPath
       clipPathUnits="userSpaceOnUse"
       id="clipPath886"><path
         d="m 2757.6108,360.38428 h 337.3921 v 337.39221 h -337.3921 z"
         clip-rule="evenodd"
         id="path884" /></clipPath><clipPath
       clipPathUnits="userSpaceOnUse"
       id="clipPath898"><path
         d="M 0,0 H 6000 V 3375 H 0 Z"
         clip-rule="evenodd"
         id="path896" /></clipPath><clipPath
       clipPathUnits="userSpaceOnUse"
       id="clipPath420-12"><path
         d="M 591.86957,383.12061 H 908.19696 V 699.448 H 591.86957 Z"
         clip-rule="evenodd"
         id="path418-6" /></clipPath><clipPath
       clipPathUnits="userSpaceOnUse"
       id="clipPath420-1"><path
         d="M 591.86957,383.12061 H 908.19696 V 699.448 H 591.86957 Z"
         clip-rule="evenodd"
         id="path418-1" /></clipPath><clipPath
       clipPathUnits="userSpaceOnUse"
       id="clipPath420-13"><path
         d="M 591.86957,383.12061 H 908.19696 V 699.448 H 591.86957 Z"
         clip-rule="evenodd"
         id="path418-71" /></clipPath><clipPath
       clipPathUnits="userSpaceOnUse"
       id="clipPath420-8"><path
         d="M 591.86957,383.12061 H 908.19696 V 699.448 H 591.86957 Z"
         clip-rule="evenodd"
         id="path418-4" /></clipPath><clipPath
       clipPathUnits="userSpaceOnUse"
       id="clipPath420-3-3"><path
         d="M 591.86957,383.12061 H 908.19696 V 699.448 H 591.86957 Z"
         clip-rule="evenodd"
         id="path418-2" /></clipPath><clipPath
       clipPathUnits="userSpaceOnUse"
       id="clipPath420-0"><path
         d="M 591.86957,383.12061 H 908.19696 V 699.448 H 591.86957 Z"
         clip-rule="evenodd"
         id="path418-1-3" /></clipPath><clipPath
       clipPathUnits="userSpaceOnUse"
       id="clipPath420-2"><path
         d="M 591.86957,383.12061 H 908.19696 V 699.448 H 591.86957 Z"
         clip-rule="evenodd"
         id="path418-8" /></clipPath><clipPath
       clipPathUnits="userSpaceOnUse"
       id="clipPath420-9"><path
         d="M 591.86957,383.12061 H 908.19696 V 699.448 H 591.86957 Z"
         clip-rule="evenodd"
         id="path418-3" /></clipPath><clipPath
       clipPathUnits="userSpaceOnUse"
       id="clipPath420-35"><path
         d="M 591.86957,383.12061 H 908.19696 V 699.448 H 591.86957 Z"
         clip-rule="evenodd"
         id="path418-7-69" /></clipPath><clipPath
       clipPathUnits="userSpaceOnUse"
       id="clipPath420-06"><path
         d="M 591.86957,383.12061 H 908.19696 V 699.448 H 591.86957 Z"
         clip-rule="evenodd"
         id="path418-88" /></clipPath><clipPath
       clipPathUnits="userSpaceOnUse"
       id="clipPath420-4"><path
         d="M 591.86957,383.12061 H 908.19696 V 699.448 H 591.86957 Z"
         clip-rule="evenodd"
         id="path418-28" /></clipPath><clipPath
       clipPathUnits="userSpaceOnUse"
       id="clipPath420-8-7"><path
         d="M 591.86957,383.12061 H 908.19696 V 699.448 H 591.86957 Z"
         clip-rule="evenodd"
         id="path418-4-9" /></clipPath><clipPath
       clipPathUnits="userSpaceOnUse"
       id="clipPath420-3-5"><path
         d="M 591.86957,383.12061 H 908.19696 V 699.448 H 591.86957 Z"
         clip-rule="evenodd"
         id="path418-2-4" /></clipPath><clipPath
       clipPathUnits="userSpaceOnUse"
       id="clipPath420-0-4"><path
         d="M 591.86957,383.12061 H 908.19696 V 699.448 H 591.86957 Z"
         clip-rule="evenodd"
         id="path418-1-5" /></clipPath><clipPath
       clipPathUnits="userSpaceOnUse"
       id="clipPath420-2-8"><path
         d="M 591.86957,383.12061 H 908.19696 V 699.448 H 591.86957 Z"
         clip-rule="evenodd"
         id="path418-8-9" /></clipPath><clipPath
       clipPathUnits="userSpaceOnUse"
       id="clipPath420-9-6"><path
         d="M 591.86957,383.12061 H 908.19696 V 699.448 H 591.86957 Z"
         clip-rule="evenodd"
         id="path418-3-9" /></clipPath><clipPath
       clipPathUnits="userSpaceOnUse"
       id="clipPath420-35-8"><path
         d="M 591.86957,383.12061 H 908.19696 V 699.448 H 591.86957 Z"
         clip-rule="evenodd"
         id="path418-7-6" /></clipPath><clipPath
       clipPathUnits="userSpaceOnUse"
       id="clipPath420-06-9"><path
         d="M 591.86957,383.12061 H 908.19696 V 699.448 H 591.86957 Z"
         clip-rule="evenodd"
         id="path418-88-9" /></clipPath><inkscape:path-effect
       effect="bspline"
       id="path-effect9613"
       is_visible="true"
       lpeversion="1"
       weight="33.333333"
       steps="2"
       helper_size="0"
       apply_no_weight="true"
       apply_with_weight="true"
       only_selected="false"
       uniform="false" /><clipPath
       clipPathUnits="userSpaceOnUse"
       id="clipPath1768"><path
         d="m 3214.0178,557.229 h 378.125 v 378.125 h -378.125 z"
         clip-rule="evenodd"
         id="path1766" /></clipPath><clipPath
       clipPathUnits="userSpaceOnUse"
       id="clipPath1780"><path
         d="M 0,0 H 6000 V 3406.25 H 0 Z"
         id="path1778" /></clipPath><clipPath
       clipPathUnits="userSpaceOnUse"
       id="clipPath1786"><path
         d="M 0,0 H 6000 V 3375 H 0 Z"
         id="path1784" /></clipPath><clipPath
       clipPathUnits="userSpaceOnUse"
       id="clipPath1792"><path
         d="M 0,0 H 6000 V 3375 H 0 Z"
         id="path1790" /></clipPath><clipPath
       clipPathUnits="userSpaceOnUse"
       id="clipPath1798"><path
         d="m 3214.021,670.82422 222.1558,-35.66199 18.8217,117.2489 -222.156,35.66199 z"
         id="path1796" /></clipPath><clipPath
       clipPathUnits="userSpaceOnUse"
       id="clipPath1804"><path
         d="m 3214.021,670.82422 225.2415,-36.15729 18.8215,117.2489 -225.2415,36.15729 z"
         id="path1802" /></clipPath><clipPath
       clipPathUnits="userSpaceOnUse"
       id="clipPath1810"><path
         d="m 3214.021,670.82422 336.3193,-53.98828 18.8216,117.2489 -336.3194,53.98828 z"
         id="path1808" /></clipPath><clipPath
       clipPathUnits="userSpaceOnUse"
       id="clipPath420-42"><path
         d="M 591.86957,383.12061 H 908.19696 V 699.448 H 591.86957 Z"
         clip-rule="evenodd"
         id="path418-9" /></clipPath><clipPath
       clipPathUnits="userSpaceOnUse"
       id="clipPath420-33"><path
         d="M 591.86957,383.12061 H 908.19696 V 699.448 H 591.86957 Z"
         clip-rule="evenodd"
         id="path418-70" /></clipPath><clipPath
       clipPathUnits="userSpaceOnUse"
       id="clipPath420-8-6"><path
         d="M 591.86957,383.12061 H 908.19696 V 699.448 H 591.86957 Z"
         clip-rule="evenodd"
         id="path418-4-2" /></clipPath><clipPath
       clipPathUnits="userSpaceOnUse"
       id="clipPath420-1-2"><path
         d="M 591.86957,383.12061 H 908.19696 V 699.448 H 591.86957 Z"
         clip-rule="evenodd"
         id="path418-8-3" /></clipPath><clipPath
       clipPathUnits="userSpaceOnUse"
       id="clipPath3"><path
         d="M 9.12e-6,0 H 612.00001 V 792 H 9.12e-6 Z"
         transform="matrix(1,0,0,-1,-72.024002,250.37001)"
         clip-rule="evenodd"
         id="path3-7" /></clipPath><clipPath
       clipPathUnits="userSpaceOnUse"
       id="clipPath3-5"><path
         d="M 9.12e-6,0 H 612.00001 V 792 H 9.12e-6 Z"
         transform="matrix(1,0,0,-1,-191.81001,250.37001)"
         clip-rule="evenodd"
         id="path3" /></clipPath></defs><g
     inkscape:label="Layer 1"
     inkscape:groupmode="layer"
     id="layer1"
     transform="translate(-86.970915,-137.29295)"><path
       id="path1"
       style="color:#000000;fill:#0b0b0b;fill-opacity:1;fill-rule:evenodd;-inkscape-stroke:none"
       d="m 103.06451,158.22087 -5.728853,3.30729 26.759603,46.34808 -3.95014,20.32176 c -12.12745,9.70409 -19.91455,24.61588 -19.91455,41.32564 0,29.18583 23.73032,52.91563 52.91615,52.91563 29.18584,0 52.91563,-23.7298 52.91563,-52.91563 0,-29.18584 -23.72979,-52.91822 -52.91563,-52.91822 -5.24646,0 -10.31214,0.7785 -15.09985,2.20607 l -6.98666,-12.10107 9.12606,-46.94959 -6.49314,-1.26194 -7.67395,39.47976 z m 26.07179,58.38662 2.61586,4.53047 c -1.3151,0.58362 -2.60804,1.20777 -3.86436,1.89291 z m 24.01042,6.61303 c 25.61107,0 46.3026,20.69205 46.3026,46.30312 0,25.61105 -20.69153,46.30053 -46.3026,46.30053 -25.61105,0 -46.30312,-20.68948 -46.30312,-46.30053 0,-27.64138 22.7844,-46.30312 46.30312,-46.30312 z"
       sodipodi:nodetypes="ccccssssccccccccccsssss" /><path
       style="fill:none;stroke:#000000;stroke-width:6.61458;stroke-linecap:butt;stroke-dasharray:none;stroke-opacity:1"
       id="path4"
       sodipodi:type="arc"
       sodipodi:cx="-239.819"
       sodipodi:cy="219.32181"
       sodipodi:rx="79.375"
       sodipodi:ry="79.375"
       sodipodi:start="0"
       sodipodi:end="3.1415833"
       sodipodi:open="true"
       sodipodi:arc-type="arc"
       d="m -160.444,219.32181 a 79.375,79.375 0 0 1 -79.37463,79.375 79.375,79.375 0 0 1 -79.37537,-79.37426"
       transform="rotate(-90)" /><path
       id="path2"
       style="color:#000000;fill:#ff0000;fill-rule:evenodd;stroke-width:1.47179;stroke-linecap:round;-inkscape-stroke:none"
       d="m 356.60752,170.18397 c -22.82192,0 -41.37424,18.55235 -41.37424,41.37424 0,22.82193 18.55232,41.37426 41.37424,41.37426 19.4683,0 35.8195,-13.50418 40.20753,-31.63895 h 5.94843 v 36.50735 h 4.86766 v -36.50735 h 0.0874 v -4.86766 h -0.0874 -4.86766 -5.07757 c 0.18802,-1.59778 0.29586,-3.21996 0.29586,-4.86765 0,-22.82189 -18.55235,-41.37424 -41.37425,-41.37424 z m 0,4.86689 c 20.19123,0 36.50737,16.31612 36.50737,36.50735 0,1.65181 -0.11922,3.27454 -0.33086,4.86765 h -36.17574 v 4.86766 h 35.18852 c -4.25225,15.44941 -18.37192,26.77206 -35.18929,26.77206 -20.19126,0 -36.50736,-16.31611 -36.50736,-36.50737 0,-20.19123 16.3161,-36.50735 36.50736,-36.50735 z" /></g></svg>
