<?xml version="1.0" encoding="UTF-8" standalone="no"?>
<!-- Created with Inkscape (http://www.inkscape.org/) -->

<svg
   width="1000"
   height="1000"
   viewBox="0 0 264.58335 264.58335"
   version="1.1"
   id="svg21229"
   inkscape:version="1.3.2 (091e20e, 2023-11-25, custom)"
   sodipodi:docname="ROXO.svg"
   xml:space="preserve"
   xmlns:inkscape="http://www.inkscape.org/namespaces/inkscape"
   xmlns:sodipodi="http://sodipodi.sourceforge.net/DTD/sodipodi-0.dtd"
   xmlns="http://www.w3.org/2000/svg"
   xmlns:svg="http://www.w3.org/2000/svg"><sodipodi:namedview
     id="namedview21231"
     pagecolor="#ffffff"
     bordercolor="#000000"
     borderopacity="0.25"
     inkscape:showpageshadow="2"
     inkscape:pageopacity="0.0"
     inkscape:pagecheckerboard="0"
     inkscape:deskcolor="#d1d1d1"
     inkscape:document-units="px"
     showgrid="false"
     inkscape:zoom="0.5"
     inkscape:cx="880"
     inkscape:cy="407"
     inkscape:window-width="1920"
     inkscape:window-height="1017"
     inkscape:window-x="-8"
     inkscape:window-y="-8"
     inkscape:window-maximized="1"
     inkscape:current-layer="layer1"
     showguides="true"><sodipodi:guide
       position="0,52.91667"
       orientation="0,1"
       id="guide572"
       inkscape:locked="false"
       inkscape:label=""
       inkscape:color="rgb(0,134,229)" /><sodipodi:guide
       position="13.229167,264.58335"
       orientation="-1,0"
       id="guide3492"
       inkscape:locked="false"
       inkscape:label=""
       inkscape:color="rgb(0,134,229)" /><sodipodi:guide
       position="0,79.375005"
       orientation="0,1"
       id="guide3496"
       inkscape:locked="false"
       inkscape:label=""
       inkscape:color="rgb(0,134,229)" /><sodipodi:guide
       position="386.85807,215.10756"
       orientation="-1,0"
       id="guide4"
       inkscape:label=""
       inkscape:locked="false"
       inkscape:color="rgb(0,134,229)" /><sodipodi:guide
       position="400.08724,215.10756"
       orientation="-1,0"
       id="guide5"
       inkscape:label=""
       inkscape:locked="false"
       inkscape:color="rgb(0,134,229)" /><sodipodi:guide
       position="270.50263,85.99038"
       orientation="1,0"
       id="guide6"
       inkscape:locked="false" /></sodipodi:namedview><defs
     id="defs21226"><clipPath
       clipPathUnits="userSpaceOnUse"
       id="clipPath420"><path
         d="M 591.86957,383.12061 H 908.19696 V 699.448 H 591.86957 Z"
         clip-rule="evenodd"
         id="path418" /></clipPath><clipPath
       clipPathUnits="userSpaceOnUse"
       id="clipPath420-12"><path
         d="M 591.86957,383.12061 H 908.19696 V 699.448 H 591.86957 Z"
         clip-rule="evenodd"
         id="path418-24" /></clipPath><clipPath
       clipPathUnits="userSpaceOnUse"
       id="clipPath1460"><path
         d="M 0,0 H 6000 V 3406.25 H 0 Z"
         id="path1458" /></clipPath><clipPath
       clipPathUnits="userSpaceOnUse"
       id="clipPath1466"><path
         d="M 0,0 H 6000 V 3375 H 0 Z"
         id="path1464" /></clipPath><clipPath
       clipPathUnits="userSpaceOnUse"
       id="clipPath1472"><path
         d="M 0,0 H 6000 V 3375 H 0 Z"
         id="path1470" /></clipPath><clipPath
       clipPathUnits="userSpaceOnUse"
       id="clipPath1478"><path
         d="m 3173.9099,1877.2783 283.6526,254.7407 -254.7407,283.6524 -283.6526,-254.7407 z"
         id="path1476" /></clipPath><clipPath
       clipPathUnits="userSpaceOnUse"
       id="clipPath1484"><path
         d="m 3173.9099,1877.2783 283.6526,254.7407 -254.7407,283.6524 -283.6526,-254.7407 z"
         id="path1482" /></clipPath><clipPath
       clipPathUnits="userSpaceOnUse"
       id="clipPath1490"><path
         d="m 3173.9099,1877.2783 283.6526,254.7407 -254.7407,283.6524 -283.6526,-254.7407 z"
         id="path1488" /></clipPath><clipPath
       clipPathUnits="userSpaceOnUse"
       id="clipPath420-1"><path
         d="M 591.86957,383.12061 H 908.19696 V 699.448 H 591.86957 Z"
         clip-rule="evenodd"
         id="path418-1" /></clipPath><clipPath
       clipPathUnits="userSpaceOnUse"
       id="clipPath420-5"><path
         d="M 591.86957,383.12061 H 908.19696 V 699.448 H 591.86957 Z"
         clip-rule="evenodd"
         id="path418-2" /></clipPath><clipPath
       clipPathUnits="userSpaceOnUse"
       id="clipPath420-89"><path
         d="M 591.86957,383.12061 H 908.19696 V 699.448 H 591.86957 Z"
         clip-rule="evenodd"
         id="path418-242" /></clipPath><clipPath
       clipPathUnits="userSpaceOnUse"
       id="clipPath420-8"><path
         d="M 591.86957,383.12061 H 908.19696 V 699.448 H 591.86957 Z"
         clip-rule="evenodd"
         id="path418-4" /></clipPath><clipPath
       clipPathUnits="userSpaceOnUse"
       id="clipPath420-3"><path
         d="M 591.86957,383.12061 H 908.19696 V 699.448 H 591.86957 Z"
         clip-rule="evenodd"
         id="path418-2-1" /></clipPath><clipPath
       clipPathUnits="userSpaceOnUse"
       id="clipPath420-0"><path
         d="M 591.86957,383.12061 H 908.19696 V 699.448 H 591.86957 Z"
         clip-rule="evenodd"
         id="path418-1-0" /></clipPath><clipPath
       clipPathUnits="userSpaceOnUse"
       id="clipPath420-9"><path
         d="M 591.86957,383.12061 H 908.19696 V 699.448 H 591.86957 Z"
         clip-rule="evenodd"
         id="path418-26" /></clipPath><clipPath
       clipPathUnits="userSpaceOnUse"
       id="clipPath420-7"><path
         d="M 591.86957,383.12061 H 908.19696 V 699.448 H 591.86957 Z"
         clip-rule="evenodd"
         id="path418-5" /></clipPath></defs><g
     inkscape:label="Layer 1"
     inkscape:groupmode="layer"
     id="layer1"
     transform="translate(-143.83362,-154.6238)"><rect
       style="fill:#000000;fill-opacity:1;fill-rule:evenodd;stroke:none;stroke-width:1.99824"
       id="rect1"
       width="6.614584"
       height="51.064594"
       x="328.34549"
       y="282.30518" /><rect
       style="fill:#000000;fill-opacity:1;fill-rule:evenodd;stroke:none;stroke-width:1.99824"
       id="rect2"
       width="6.614584"
       height="51.064594"
       x="298.18298"
       y="282.30518" /><rect
       style="fill:#000000;fill-opacity:1;fill-rule:evenodd;stroke:none;stroke-width:3.05124"
       id="rect3"
       width="6.614584"
       height="119.06252"
       x="304.53018"
       y="-276.12531"
       transform="rotate(90)" /><path
       id="rect2-5"
       style="fill:#ff0000;fill-rule:evenodd;stroke-width:4.26512;stroke-linecap:round"
       d="m 488.65543,188.38414 -16.62276,-9.60717 v 5.1599 h -32.0058 v -5.1599 l -16.62535,9.60717 16.62535,9.60976 v -5.16145 h 32.0058 v 5.16145 z" /><rect
       style="fill:#000000;fill-opacity:1;fill-rule:evenodd;stroke:none;stroke-width:2.87672"
       id="rect1-2"
       width="6.614584"
       height="105.83205"
       x="-366.29047"
       y="361.42023"
       transform="rotate(-90)" /><path
       id="path1-2"
       style="color:#000000;fill:#0b0b0b;fill-opacity:1;fill-rule:evenodd;-inkscape-stroke:none"
       d="m 364.25442,175.61321 -5.72886,3.30729 26.75961,46.34809 -3.95014,20.32176 c -12.12745,9.70409 -19.91455,24.61588 -19.91455,41.32564 0,29.18583 23.73032,52.91563 52.91615,52.91563 29.18584,0 52.91564,-23.7298 52.91564,-52.91563 0,-29.18584 -23.7298,-52.91822 -52.91564,-52.91822 -5.24646,0 -10.31214,0.7785 -15.09985,2.20607 l -6.98666,-12.10107 9.12606,-46.9496 -6.49314,-1.26194 -7.67395,39.47977 z m 26.07179,58.38663 2.61586,4.53047 c -1.3151,0.58362 -2.60804,1.20777 -3.86436,1.89291 z m 24.01042,6.61303 c 25.61107,0 46.3026,20.69205 46.3026,46.30312 0,25.61105 -20.69153,46.30053 -46.3026,46.30053 -25.61105,0 -46.30312,-20.68948 -46.30312,-46.30053 0,-27.64138 22.7844,-46.30312 46.30312,-46.30312 z"
       sodipodi:nodetypes="ccccssssccccccccccsssss" /></g></svg>
