<?xml version="1.0" encoding="UTF-8" standalone="no"?>
<!-- Created with Inkscape (http://www.inkscape.org/) -->

<svg
   width="1000"
   height="1000"
   viewBox="0 0 264.58333 264.58333"
   version="1.1"
   id="svg45406"
   inkscape:version="1.3.2 (091e20e, 2023-11-25, custom)"
   sodipodi:docname="SEMANA.svg"
   xml:space="preserve"
   xmlns:inkscape="http://www.inkscape.org/namespaces/inkscape"
   xmlns:sodipodi="http://sodipodi.sourceforge.net/DTD/sodipodi-0.dtd"
   xmlns="http://www.w3.org/2000/svg"
   xmlns:svg="http://www.w3.org/2000/svg"><sodipodi:namedview
     id="namedview45408"
     pagecolor="#ffffff"
     bordercolor="#000000"
     borderopacity="0.25"
     inkscape:showpageshadow="2"
     inkscape:pageopacity="0.0"
     inkscape:pagecheckerboard="0"
     inkscape:deskcolor="#d1d1d1"
     inkscape:document-units="px"
     showgrid="false"
     inkscape:zoom="0.37282198"
     inkscape:cx="227.99085"
     inkscape:cy="384.9022"
     inkscape:window-width="1920"
     inkscape:window-height="1017"
     inkscape:window-x="-8"
     inkscape:window-y="-8"
     inkscape:window-maximized="1"
     inkscape:current-layer="layer1"
     showguides="true"><sodipodi:guide
       position="0,79.374999"
       orientation="0,1"
       id="guide5498"
       inkscape:locked="false"
       inkscape:label=""
       inkscape:color="rgb(0,134,229)" /><sodipodi:guide
       position="0,52.916666"
       orientation="0,1"
       id="guide5500"
       inkscape:label=""
       inkscape:locked="false"
       inkscape:color="rgb(0,134,229)" /><sodipodi:guide
       position="13.229166,264.58333"
       orientation="-1,0"
       id="guide5502"
       inkscape:locked="false"
       inkscape:label=""
       inkscape:color="rgb(0,134,229)" /><sodipodi:guide
       position="335.32613,221.07843"
       orientation="1,0"
       id="guide9"
       inkscape:locked="false" /><sodipodi:guide
       position="175.22134,59.1458"
       orientation="1,0"
       id="guide11"
       inkscape:locked="false" /><sodipodi:guide
       position="201.67967,59.1458"
       orientation="-1,0"
       id="guide12"
       inkscape:label=""
       inkscape:locked="false"
       inkscape:color="rgb(0,134,229)" /><sodipodi:guide
       position="348.5553,221.07843"
       orientation="-1,0"
       id="guide13"
       inkscape:label=""
       inkscape:locked="false"
       inkscape:color="rgb(0,134,229)" /></sodipodi:namedview><defs
     id="defs45403"><inkscape:path-effect
       effect="mirror_symmetry"
       start_point="160.9029,72.272244"
       end_point="160.9029,96.455072"
       center_point="160.9029,84.363658"
       id="path-effect5"
       is_visible="true"
       lpeversion="1.2"
       lpesatellites=""
       mode="free"
       discard_orig_path="false"
       fuse_paths="false"
       oposite_fuse="false"
       split_items="false"
       split_open="false"
       link_styles="false" /><clipPath
       clipPathUnits="userSpaceOnUse"
       id="clipPath420"><path
         d="M 591.86957,383.12061 H 908.19696 V 699.448 H 591.86957 Z"
         clip-rule="evenodd"
         id="path418" /></clipPath><clipPath
       clipPathUnits="userSpaceOnUse"
       id="clipPath420-1"><path
         d="M 591.86957,383.12061 H 908.19696 V 699.448 H 591.86957 Z"
         clip-rule="evenodd"
         id="path418-7" /></clipPath><clipPath
       clipPathUnits="userSpaceOnUse"
       id="clipPath420-12"><path
         d="M 591.86957,383.12061 H 908.19696 V 699.448 H 591.86957 Z"
         clip-rule="evenodd"
         id="path418-8" /></clipPath><clipPath
       clipPathUnits="userSpaceOnUse"
       id="clipPath420-5"><path
         d="M 591.86957,383.12061 H 908.19696 V 699.448 H 591.86957 Z"
         clip-rule="evenodd"
         id="path418-2" /></clipPath><clipPath
       clipPathUnits="userSpaceOnUse"
       id="clipPath420-7"><path
         d="M 591.86957,383.12061 H 908.19696 V 699.448 H 591.86957 Z"
         clip-rule="evenodd"
         id="path418-4" /></clipPath></defs><g
     inkscape:label="Layer 1"
     inkscape:groupmode="layer"
     id="layer1"
     transform="translate(-66.698477,-140.77567)"><path
       id="path1"
       style="color:#000000;fill:#080000;fill-opacity:1;fill-rule:evenodd;-inkscape-stroke:none"
       d="m 180.98745,201.14441 6.60632,0.11523 -1.83762,105.27988 h -0.005 c -0.059,7.88497 -1.84979,15.36163 -5.01054,22.07307 h 61.17921 v 6.61459 h -64.89785 c -9.47461,14.34425 -25.73271,23.83007 -44.17818,23.83007 -29.18583,0 -52.916147,-23.73238 -52.916147,-52.91822 0,-29.18583 23.730317,-52.91615 52.916147,-52.91615 20.23709,0 37.84343,11.41434 46.74288,28.1404 z m -48.14331,58.69409 c -25.61106,0 -46.301047,20.68948 -46.301047,46.30053 0,25.61106 20.689987,46.3026 46.301047,46.3026 25.61106,0 46.3026,-20.69154 46.3026,-46.3026 0,-25.61105 -20.69154,-46.30053 -46.3026,-46.30053 z" /><rect
       style="fill:#000000;fill-opacity:1;fill-rule:evenodd;stroke:none;stroke-width:2.52571"
       id="rect1-0"
       width="6.6145825"
       height="81.581314"
       x="381.1438"
       y="-182.44382"
       transform="rotate(90)" /><path
       style="color:#000000;fill:#000000;fill-opacity:1;fill-rule:evenodd;-inkscape-stroke:none"
       d="m 346.12839,253.22359 c -29.18586,0 -52.91601,23.73211 -52.91601,52.91797 0,29.18585 23.73015,52.91601 52.91601,52.91601 29.18586,0 52.91602,-23.73016 52.91602,-52.91601 0,-29.18586 -23.73016,-52.91797 -52.91602,-52.91797 z m 0,6.61524 c 25.61108,0 46.30273,20.69165 46.30273,46.30273 0,25.61107 -20.69165,46.30077 -46.30273,46.30077 -25.61108,0 -46.30273,-20.6897 -46.30273,-46.30077 0,-25.61108 20.69165,-46.30273 46.30273,-46.30273 z"
       id="path1-8" /><rect
       style="fill:#000000;fill-opacity:1;fill-rule:evenodd;stroke:none;stroke-width:2.52571"
       id="rect1"
       width="6.6145825"
       height="81.581314"
       x="381.1438"
       y="-374.79367"
       transform="rotate(90)" /><rect
       style="fill:#000000;fill-opacity:1;fill-rule:evenodd;stroke:none;stroke-width:2.30703"
       id="rect1-9"
       width="6.6145935"
       height="54.554012"
       x="447.94788"
       y="41.188416"
       inkscape:transform-center-y="-31.279975"
       transform="rotate(23.20383)"
       inkscape:transform-center-x="-13.409098" /><rect
       style="fill:#000000;fill-opacity:1;fill-rule:evenodd;stroke:none;stroke-width:2.30703"
       id="rect2"
       width="6.614624"
       height="56.897339"
       x="398.19189"
       y="119.3727"
       inkscape:transform-center-y="-26.661555"
       transform="rotate(12.194248)"
       inkscape:transform-center-x="-5.7616439" /><rect
       style="fill:#000000;fill-opacity:1;fill-rule:evenodd;stroke:none;stroke-width:2.30703"
       id="rect3"
       width="6.6146545"
       height="55.676651"
       x="326.37167"
       y="210.60852"
       inkscape:transform-center-y="-28.437875"
       transform="rotate(-1.5789024)"
       inkscape:transform-center-x="0.78385859" /><rect
       style="fill:#000000;fill-opacity:1;fill-rule:evenodd;stroke:none;stroke-width:2.30703"
       id="rect4"
       width="6.6146545"
       height="54.341911"
       x="185.96393"
       y="313.30972"
       inkscape:transform-center-y="-25.666005"
       transform="rotate(-22.784591)"
       inkscape:transform-center-x="10.780883" /><rect
       style="fill:#000000;fill-opacity:1;fill-rule:evenodd;stroke:none;stroke-width:2.30703"
       id="rect5"
       width="6.6146541"
       height="34.899433"
       x="-56.718857"
       y="380.76944"
       inkscape:transform-center-y="-16.476487"
       transform="rotate(-52.670334)"
       inkscape:transform-center-x="21.60526" /><g
       id="path5"
       transform="translate(-10.406417,71.850969)"><path
         id="path7"
         style="color:#000000;fill:#ff0000;fill-rule:evenodd;stroke-linecap:round;-inkscape-stroke:none"
         d="m 221.30643,78.338138 a 3.3072901,3.3072901 0 0 0 -2.91765,3.656108 l 2.28513,20.325374 C 210.72278,95.461237 186.63904,81.008038 160.10914,80.99224 a 3.3072901,3.3072901 0 0 0 -0.01,-0.0021 h -0.0176 -0.0155 a 3.3072901,3.3072901 0 0 0 -0.004,0.0021 c -34.73547,0.01787 -65.478692,24.90442 -65.478692,24.90442 a 3.3072901,3.3072901 0 0 0 -0.523482,4.64623 3.3072901,3.3072901 0 0 0 4.648295,0.52348 c 0,0 29.846339,-23.452361 61.372999,-23.461097 23.39932,0.0058 45.84396,12.913327 55.87617,19.575037 l -19.40295,2.18126 a 3.3072901,3.3072901 0 0 0 -2.91816,3.6561 3.3072901,3.3072901 0 0 0 3.6561,2.91611 l 31.17381,-3.50418 -3.50366,-31.17381 a 3.3072901,3.3072901 0 0 0 -3.65663,-2.917652 z" /><g
         id="g6" /></g><g
       id="g9"
       transform="translate(173.55848,71.850969)"><path
         id="path8"
         style="color:#000000;fill:#ff0000;fill-rule:evenodd;stroke-linecap:round;-inkscape-stroke:none"
         d="m 221.30643,78.338138 a 3.3072901,3.3072901 0 0 0 -2.91765,3.656108 l 2.28513,20.325374 C 210.72278,95.461237 186.63904,81.008038 160.10914,80.99224 a 3.3072901,3.3072901 0 0 0 -0.01,-0.0021 h -0.0176 -0.0155 a 3.3072901,3.3072901 0 0 0 -0.004,0.0021 c -34.73547,0.01787 -65.478692,24.90442 -65.478692,24.90442 a 3.3072901,3.3072901 0 0 0 -0.523482,4.64623 3.3072901,3.3072901 0 0 0 4.648295,0.52348 c 0,0 29.846339,-23.452361 61.372999,-23.461097 23.39932,0.0058 45.84396,12.913327 55.87617,19.575037 l -19.40295,2.18126 a 3.3072901,3.3072901 0 0 0 -2.91816,3.6561 3.3072901,3.3072901 0 0 0 3.6561,2.91611 l 31.17381,-3.50418 -3.50366,-31.17381 a 3.3072901,3.3072901 0 0 0 -3.65663,-2.917652 z" /><g
         id="g8" /></g></g></svg>
