<?xml version="1.0" encoding="UTF-8" standalone="no"?>
<!-- Created with Inkscape (http://www.inkscape.org/) -->

<svg
   width="510.71667"
   height="142.25053"
   viewBox="0 0 135.12712 37.63712"
   version="1.1"
   id="svg45406"
   inkscape:version="1.3.2 (091e20e, 2023-11-25, custom)"
   sodipodi:docname="curvedArrowLeft.svg"
   xml:space="preserve"
   xmlns:inkscape="http://www.inkscape.org/namespaces/inkscape"
   xmlns:sodipodi="http://sodipodi.sourceforge.net/DTD/sodipodi-0.dtd"
   xmlns="http://www.w3.org/2000/svg"
   xmlns:svg="http://www.w3.org/2000/svg"><sodipodi:namedview
     id="namedview45408"
     pagecolor="#ffffff"
     bordercolor="#000000"
     borderopacity="0.25"
     inkscape:showpageshadow="2"
     inkscape:pageopacity="0.0"
     inkscape:pagecheckerboard="0"
     inkscape:deskcolor="#d1d1d1"
     inkscape:document-units="px"
     showgrid="false"
     inkscape:zoom="0.37282198"
     inkscape:cx="166.29921"
     inkscape:cy="350.03301"
     inkscape:window-width="1920"
     inkscape:window-height="1017"
     inkscape:window-x="-8"
     inkscape:window-y="-8"
     inkscape:window-maximized="1"
     inkscape:current-layer="path5"
     showguides="true" /><defs
     id="defs45403"><inkscape:path-effect
       effect="mirror_symmetry"
       start_point="160.9029,72.272244"
       end_point="160.9029,96.455072"
       center_point="160.9029,84.363658"
       id="path-effect5"
       is_visible="true"
       lpeversion="1.2"
       lpesatellites=""
       mode="free"
       discard_orig_path="false"
       fuse_paths="false"
       oposite_fuse="false"
       split_items="false"
       split_open="false"
       link_styles="false" /><clipPath
       clipPathUnits="userSpaceOnUse"
       id="clipPath420"><path
         d="M 591.86957,383.12061 H 908.19696 V 699.448 H 591.86957 Z"
         clip-rule="evenodd"
         id="path418" /></clipPath><clipPath
       clipPathUnits="userSpaceOnUse"
       id="clipPath420-1"><path
         d="M 591.86957,383.12061 H 908.19696 V 699.448 H 591.86957 Z"
         clip-rule="evenodd"
         id="path418-7" /></clipPath><clipPath
       clipPathUnits="userSpaceOnUse"
       id="clipPath420-12"><path
         d="M 591.86957,383.12061 H 908.19696 V 699.448 H 591.86957 Z"
         clip-rule="evenodd"
         id="path418-8" /></clipPath><clipPath
       clipPathUnits="userSpaceOnUse"
       id="clipPath420-5"><path
         d="M 591.86957,383.12061 H 908.19696 V 699.448 H 591.86957 Z"
         clip-rule="evenodd"
         id="path418-2" /></clipPath><clipPath
       clipPathUnits="userSpaceOnUse"
       id="clipPath420-7"><path
         d="M 591.86957,383.12061 H 908.19696 V 699.448 H 591.86957 Z"
         clip-rule="evenodd"
         id="path418-4" /></clipPath></defs><g
     inkscape:label="Layer 1"
     inkscape:groupmode="layer"
     id="layer1"
     transform="translate(-82.932592,-150.16835)"><g
       id="path5"
       transform="translate(-10.406417,71.850969)"><path
         id="path7"
         style="color:#000000;fill:#ff0000;fill-rule:evenodd;stroke-linecap:round;-inkscape-stroke:none"
         d="m 221.30643,78.338138 a 3.3072901,3.3072901 0 0 0 -2.91765,3.656108 l 2.28513,20.325374 C 210.72278,95.461237 186.63904,81.008038 160.10914,80.99224 a 3.3072901,3.3072901 0 0 0 -0.01,-0.0021 h -0.0176 -0.0155 a 3.3072901,3.3072901 0 0 0 -0.004,0.0021 c -34.73547,0.01787 -65.478692,24.90442 -65.478692,24.90442 a 3.3072901,3.3072901 0 0 0 -0.523482,4.64623 3.3072901,3.3072901 0 0 0 4.648295,0.52348 c 0,0 29.846339,-23.452361 61.372999,-23.461097 23.39932,0.0058 45.84396,12.913327 55.87617,19.575037 l -19.40295,2.18126 a 3.3072901,3.3072901 0 0 0 -2.91816,3.6561 3.3072901,3.3072901 0 0 0 3.6561,2.91611 l 31.17381,-3.50418 -3.50366,-31.17381 a 3.3072901,3.3072901 0 0 0 -3.65663,-2.917652 z" /><g
         id="g6" /></g></g></svg>
