<?xml version="1.0" encoding="UTF-8" standalone="no"?>
<!-- Created with Inkscape (http://www.inkscape.org/) -->

<svg
   width="516.74805"
   height="141.98354"
   viewBox="0 0 136.72292 37.566477"
   version="1.1"
   id="svg46130"
   inkscape:version="1.3.2 (091e20e, 2023-11-25, custom)"
   sodipodi:docname="sideToSideArrow.svg"
   xml:space="preserve"
   xmlns:inkscape="http://www.inkscape.org/namespaces/inkscape"
   xmlns:sodipodi="http://sodipodi.sourceforge.net/DTD/sodipodi-0.dtd"
   xmlns="http://www.w3.org/2000/svg"
   xmlns:svg="http://www.w3.org/2000/svg"><sodipodi:namedview
     id="namedview46132"
     pagecolor="#ffffff"
     bordercolor="#000000"
     borderopacity="0.25"
     inkscape:showpageshadow="2"
     inkscape:pageopacity="0.0"
     inkscape:pagecheckerboard="0"
     inkscape:deskcolor="#d1d1d1"
     inkscape:document-units="px"
     showgrid="false"
     inkscape:zoom="0.70710678"
     inkscape:cx="446.89149"
     inkscape:cy="318.90516"
     inkscape:window-width="1920"
     inkscape:window-height="1017"
     inkscape:window-x="-8"
     inkscape:window-y="-8"
     inkscape:window-maximized="1"
     inkscape:current-layer="layer1"
     showguides="true" /><defs
     id="defs46127"><clipPath
       clipPathUnits="userSpaceOnUse"
       id="clipPath420"><path
         d="M 591.86957,383.12061 H 908.19696 V 699.448 H 591.86957 Z"
         clip-rule="evenodd"
         id="path418" /></clipPath><clipPath
       clipPathUnits="userSpaceOnUse"
       id="clipPath420-5"><path
         d="M 591.86957,383.12061 H 908.19696 V 699.448 H 591.86957 Z"
         clip-rule="evenodd"
         id="path418-2" /></clipPath><clipPath
       clipPathUnits="userSpaceOnUse"
       id="clipPath420-7"><path
         d="M 591.86957,383.12061 H 908.19696 V 699.448 H 591.86957 Z"
         clip-rule="evenodd"
         id="path418-4" /></clipPath></defs><g
     inkscape:label="Layer 1"
     inkscape:groupmode="layer"
     id="layer1"
     transform="translate(-40.241963,-145.01527)"><g
       id="path2"
       transform="translate(-49.79696,-3.5081381)"><path
         id="path6"
         style="color:#000000;fill:#ff0000;fill-rule:evenodd;stroke-linecap:round;-inkscape-stroke:none"
         d="m 97.105675,148.54322 a 3.3072901,3.3072901 0 0 0 -3.648873,2.9254 l -3.417879,31.1857 31.183627,3.41581 a 3.3072901,3.3072901 0 0 0 3.64835,-2.9254 3.3072901,3.3072901 0 0 0 -2.92747,-3.64888 l -19.40863,-2.127 c 10.02928,-6.6993 32.48262,-19.6913 55.86584,-19.6913 23.38326,0 45.83658,12.99201 55.86584,19.6913 l -19.40915,2.127 a 3.3072901,3.3072901 0 0 0 -2.92747,3.64888 3.3072901,3.3072901 0 0 0 3.64629,2.9254 l 31.18569,-3.41581 -3.41788,-31.1857 a 3.3072901,3.3072901 0 0 0 -3.64887,-2.9254 3.3072901,3.3072901 0 0 0 -2.92747,3.64629 l 2.22984,20.33364 c -9.94397,-6.89736 -34.04858,-21.4607 -60.59682,-21.4607 -26.54695,0 -50.65144,14.56189 -60.5963,21.45967 l 2.22674,-20.33261 a 3.3072901,3.3072901 0 0 0 -2.925405,-3.64629 z" /><g
         id="g2" /></g></g></svg>
