<?xml version="1.0" encoding="UTF-8" standalone="no"?>
<!-- Created with Inkscape (http://www.inkscape.org/) -->

<svg
   width="158.96153"
   height="235.26897"
   viewBox="0 0 42.058572 62.248247"
   version="1.1"
   id="svg59379"
   inkscape:version="1.3.2 (091e20e, 2023-11-25, custom)"
   sodipodi:docname="turningArrow.svg"
   xml:space="preserve"
   xmlns:inkscape="http://www.inkscape.org/namespaces/inkscape"
   xmlns:sodipodi="http://sodipodi.sourceforge.net/DTD/sodipodi-0.dtd"
   xmlns="http://www.w3.org/2000/svg"
   xmlns:svg="http://www.w3.org/2000/svg"><sodipodi:namedview
     id="namedview59381"
     pagecolor="#ffffff"
     bordercolor="#000000"
     borderopacity="0.25"
     inkscape:showpageshadow="2"
     inkscape:pageopacity="0.0"
     inkscape:pagecheckerboard="0"
     inkscape:deskcolor="#d1d1d1"
     inkscape:document-units="px"
     showgrid="false"
     inkscape:zoom="0.74564395"
     inkscape:cx="476.76911"
     inkscape:cy="518.34391"
     inkscape:window-width="1920"
     inkscape:window-height="1001"
     inkscape:window-x="-9"
     inkscape:window-y="-9"
     inkscape:window-maximized="1"
     inkscape:current-layer="layer1"
     showguides="true" /><defs
     id="defs59376"><clipPath
       clipPathUnits="userSpaceOnUse"
       id="clipPath420"><path
         d="M 591.86957,383.12061 H 908.19696 V 699.448 H 591.86957 Z"
         clip-rule="evenodd"
         id="path418" /></clipPath></defs><g
     inkscape:label="Layer 1"
     inkscape:groupmode="layer"
     id="layer1"
     transform="translate(-54.425613,-125.33614)"><path
       id="path11"
       style="color:#000000;display:inline;opacity:1;fill:#ff0000;fill-opacity:1;stroke:none;stroke-width:1.00012;stroke-linecap:round;stroke-dasharray:none"
       d="m 77.690611,125.33614 -20.79666,5.456 c -1.76603,0.46371 -2.82233,2.27121 -2.35955,4.03748 0.46371,1.76603 2.27122,2.82182 4.03748,2.35903 l 10.3079,-2.70371 c -2.98216,6.46565 -5.70386,14.74006 -6.9665,22.95674 -0.82342,5.35842 -1.02521,10.68065 -0.08371,15.50965 0.94152,4.82898 3.13711,9.30341 7.17785,12.15636 3.35584,2.36936 7.21041,2.88622 10.51719,2.1916 3.30677,-0.69461 6.13716,-2.39781 8.51007,-4.24626 4.74585,-3.69689 7.86309,-8.27546 7.86309,-8.27546 a 3.3072901,3.3072901 0 0 0 -0.84181,-4.60179 3.3072901,3.3072901 0 0 0 -4.59972,0.84181 c 0,0 -2.73839,3.89741 -6.48591,6.81664 -1.87375,1.45961 -3.94862,2.60009 -5.80481,2.99 -1.85619,0.38991 -3.42308,0.23383 -5.34179,-1.12086 -2.32199,-1.63942 -3.77542,-4.2928 -4.50205,-8.01967 -0.72663,-3.72687 -0.61657,-8.38826 0.12867,-13.23795 1.05816,-6.88603 3.39535,-14.15868 5.87303,-19.87579 l 2.27583,8.67234 c 0.46368,1.767 2.27212,2.82306 4.03903,2.35903 1.76603,-0.4637 2.82232,-2.2707 2.35954,-4.03696 z" /></g></svg>
