<?xml version="1.0" encoding="UTF-8" standalone="no"?>
<!-- Created with Inkscape (http://www.inkscape.org/) -->

<svg
   width="1000"
   height="1000"
   viewBox="0 0 264.58333 264.58335"
   version="1.1"
   id="svg10039"
   inkscape:version="1.3.2 (091e20e, 2023-11-25, custom)"
   sodipodi:docname="Ampersand.svg"
   xml:space="preserve"
   xmlns:inkscape="http://www.inkscape.org/namespaces/inkscape"
   xmlns:sodipodi="http://sodipodi.sourceforge.net/DTD/sodipodi-0.dtd"
   xmlns="http://www.w3.org/2000/svg"
   xmlns:svg="http://www.w3.org/2000/svg"><sodipodi:namedview
     id="namedview10041"
     pagecolor="#ffffff"
     bordercolor="#000000"
     borderopacity="0.25"
     inkscape:showpageshadow="2"
     inkscape:pageopacity="0"
     inkscape:pagecheckerboard="0"
     inkscape:deskcolor="#d1d1d1"
     inkscape:document-units="px"
     showgrid="false"
     inkscape:zoom="0.70710678"
     inkscape:cx="239.00209"
     inkscape:cy="628.61793"
     inkscape:window-width="1920"
     inkscape:window-height="1017"
     inkscape:window-x="-8"
     inkscape:window-y="-8"
     inkscape:window-maximized="1"
     inkscape:current-layer="layer1"
     showguides="true"><sodipodi:guide
       position="0,52.916668"
       orientation="0,1"
       id="guide294"
       inkscape:locked="false"
       inkscape:label=""
       inkscape:color="rgb(0,134,229)" /><sodipodi:guide
       position="0,79.375002"
       orientation="0,1"
       id="guide3203"
       inkscape:locked="false"
       inkscape:label=""
       inkscape:color="rgb(0,134,229)" /><sodipodi:guide
       position="0,172.71543"
       orientation="1,0"
       id="guide1"
       inkscape:locked="false" /><sodipodi:guide
       position="104.72288,224.89584"
       orientation="0,1"
       id="guide6"
       inkscape:locked="false"
       inkscape:label=""
       inkscape:color="rgb(0,134,229)" /><sodipodi:guide
       position="13.229167,52.916656"
       orientation="-1,0"
       id="guide14"
       inkscape:label=""
       inkscape:locked="false"
       inkscape:color="rgb(0,134,229)" /><sodipodi:guide
       position="154.62675,52.91563"
       orientation="1,0"
       id="guide5"
       inkscape:locked="false" /><sodipodi:guide
       position="0,56.22396"
       orientation="0,1"
       id="guide2"
       inkscape:label=""
       inkscape:locked="false"
       inkscape:color="rgb(0,134,229)" /><sodipodi:guide
       position="104.72288,221.58855"
       orientation="0,1"
       id="guide3"
       inkscape:label=""
       inkscape:locked="false"
       inkscape:color="rgb(0,134,229)" /><sodipodi:guide
       position="16.536459,52.916656"
       orientation="-1,0"
       id="guide4"
       inkscape:label=""
       inkscape:locked="false"
       inkscape:color="rgb(0,134,229)" /><sodipodi:guide
       position="167.85592,52.91563"
       orientation="-1,0"
       id="guide9"
       inkscape:label=""
       inkscape:locked="false"
       inkscape:color="rgb(0,134,229)" /></sodipodi:namedview><defs
     id="defs10036"><clipPath
       clipPathUnits="userSpaceOnUse"
       id="clipPath420"><path
         d="M 591.86957,383.12061 H 908.19696 V 699.448 H 591.86957 Z"
         clip-rule="evenodd"
         id="path418" /></clipPath><clipPath
       clipPathUnits="userSpaceOnUse"
       id="clipPath420-8"><path
         d="M 591.86957,383.12061 H 908.19696 V 699.448 H 591.86957 Z"
         clip-rule="evenodd"
         id="path418-4" /></clipPath><clipPath
       clipPathUnits="userSpaceOnUse"
       id="clipPath420-1"><path
         d="M 591.86957,383.12061 H 908.19696 V 699.448 H 591.86957 Z"
         clip-rule="evenodd"
         id="path418-8" /></clipPath><clipPath
       clipPathUnits="userSpaceOnUse"
       id="clipPath3"><path
         d="M 9.12e-6,0 H 612.00001 V 792 H 9.12e-6 Z"
         transform="matrix(1,0,0,-1,-72.024002,250.37001)"
         clip-rule="evenodd"
         id="path3-7" /></clipPath><clipPath
       clipPathUnits="userSpaceOnUse"
       id="clipPath3-0"><path
         d="M 9.12e-6,0 H 612.00001 V 792 H 9.12e-6 Z"
         transform="matrix(1,0,0,-1,-172.46001,250.37001)"
         clip-rule="evenodd"
         id="path3" /></clipPath><clipPath
       clipPathUnits="userSpaceOnUse"
       id="clipPath3-8"><path
         d="M 9.12e-6,0 H 612.00001 V 792 H 9.12e-6 Z"
         transform="matrix(1,0,0,-1,-145.22001,250.37001)"
         clip-rule="evenodd"
         id="path3-1" /></clipPath></defs><g
     inkscape:label="Layer 1"
     inkscape:groupmode="layer"
     id="layer1"
     transform="translate(-6.9272639,-79.57655)"><path
       id="path2"
       style="color:#000000;fill:#000000;fill-rule:evenodd;-inkscape-stroke:none"
       d="M 77.136934 119.26353 C 69.014905 119.26353 60.134627 121.20249 53.041246 126.41194 C 45.947864 131.62138 40.925706 140.29304 40.925706 152.338 C 40.925706 164.13497 47.478416 175.38873 56.792955 187.05681 C 59.156984 190.01817 61.717483 193.01561 64.416263 196.05833 C 56.677147 200.43188 48.973727 204.69229 42.386599 209.12523 C 32.756078 215.60629 20.156431 226.91489 20.156431 243.35364 C 20.156431 259.61935 28.07871 271.89476 38.843663 279.73023 C 49.608616 287.5657 63.122773 291.24426 75.189249 291.24426 C 87.548834 291.24426 105.22127 289.58813 120.43145 278.30293 C 124.12648 275.5614 127.63532 272.23048 130.87681 268.27356 C 138.85852 276.97409 146.15615 284.85334 152.42278 291.24322 L 161.55401 291.24322 C 154.09824 283.5742 142.83862 271.56028 134.81455 262.80258 C 142.85097 250.61546 148.58904 233.5158 149.90045 209.55467 L 143.29517 209.19345 C 142.07985 231.39896 137.12281 246.92809 130.26548 257.89435 C 120.22151 246.88723 108.99539 234.47398 95.650533 219.94938 C 88.401958 212.06001 81.339711 204.70188 74.870922 197.69131 C 79.277167 195.10378 83.645255 192.43996 87.76936 189.58017 C 101.46256 180.08485 112.94413 168.35993 113.14662 152.37883 C 113.24462 144.64334 110.84208 136.36332 104.98071 129.95694 C 99.119346 123.55057 89.841373 119.26353 77.136934 119.26353 z M 77.136934 125.87915 C 88.394315 125.87915 95.555302 129.45521 100.09936 134.42178 C 104.64341 139.38837 106.61295 145.99128 106.53307 152.29511 C 106.3704 165.13301 97.028057 175.1103 84.000081 184.14433 C 79.704596 187.12297 75.031966 189.9252 70.29084 192.67559 C 67.314941 189.35043 64.484771 186.08931 61.962666 182.92993 C 53.01715 171.72411 47.540807 161.61816 47.540807 152.338 C 47.540807 142.04387 51.390138 135.83093 56.957286 131.74236 C 62.524435 127.65379 70.094703 125.87915 77.136934 125.87915 z M 68.997895 201.07818 C 75.81394 208.50763 83.230736 216.20792 90.779512 224.42404 C 104.47902 239.33465 116.09045 252.18298 126.34582 263.41598 C 123.279 267.25381 119.95904 270.41628 116.49009 272.99007 C 103.01043 282.99133 86.946829 284.62916 75.189249 284.62916 C 64.493316 284.62916 52.143863 281.23012 42.736449 274.38275 C 33.329034 267.53539 26.771531 257.52095 26.771531 243.35364 C 26.771531 230.36769 37.210406 220.58012 46.079914 214.61121 C 52.652267 210.1882 60.741537 205.76731 68.997895 201.07818 z " /></g></svg>
