<?xml version="1.0" encoding="UTF-8" standalone="no"?>
<!-- Created with Inkscape (http://www.inkscape.org/) -->

<svg
   width="1000"
   height="1000"
   viewBox="0 0 264.58333 264.58335"
   version="1.1"
   id="svg10039"
   inkscape:version="1.3.2 (091e20e, 2023-11-25, custom)"
   sodipodi:docname="AtSign.svg"
   xml:space="preserve"
   xmlns:inkscape="http://www.inkscape.org/namespaces/inkscape"
   xmlns:sodipodi="http://sodipodi.sourceforge.net/DTD/sodipodi-0.dtd"
   xmlns="http://www.w3.org/2000/svg"
   xmlns:svg="http://www.w3.org/2000/svg"><sodipodi:namedview
     id="namedview10041"
     pagecolor="#ffffff"
     bordercolor="#000000"
     borderopacity="0.25"
     inkscape:showpageshadow="2"
     inkscape:pageopacity="0"
     inkscape:pagecheckerboard="0"
     inkscape:deskcolor="#d1d1d1"
     inkscape:document-units="px"
     showgrid="false"
     inkscape:zoom="0.70710678"
     inkscape:cx="212.13203"
     inkscape:cy="497.09607"
     inkscape:window-width="1920"
     inkscape:window-height="1017"
     inkscape:window-x="-8"
     inkscape:window-y="-8"
     inkscape:window-maximized="1"
     inkscape:current-layer="layer1"
     showguides="true"><sodipodi:guide
       position="0,52.916668"
       orientation="0,1"
       id="guide294"
       inkscape:locked="false"
       inkscape:label=""
       inkscape:color="rgb(0,134,229)" /><sodipodi:guide
       position="0,79.375002"
       orientation="0,1"
       id="guide3203"
       inkscape:locked="false"
       inkscape:label=""
       inkscape:color="rgb(0,134,229)" /><sodipodi:guide
       position="0,172.71543"
       orientation="1,0"
       id="guide1"
       inkscape:locked="false" /><sodipodi:guide
       position="0,224.89584"
       orientation="0,1"
       id="guide6"
       inkscape:locked="false"
       inkscape:label=""
       inkscape:color="rgb(0,134,229)" /><sodipodi:guide
       position="13.229167,52.916656"
       orientation="-1,0"
       id="guide14"
       inkscape:label=""
       inkscape:locked="false"
       inkscape:color="rgb(0,134,229)" /><sodipodi:guide
       position="187.58458,224.89585"
       orientation="1,0"
       id="guide10"
       inkscape:locked="false" /><sodipodi:guide
       position="200.81375,224.89585"
       orientation="-1,0"
       id="guide11"
       inkscape:label=""
       inkscape:locked="false"
       inkscape:color="rgb(0,134,229)" /></sodipodi:namedview><defs
     id="defs10036"><clipPath
       clipPathUnits="userSpaceOnUse"
       id="clipPath420"><path
         d="M 591.86957,383.12061 H 908.19696 V 699.448 H 591.86957 Z"
         clip-rule="evenodd"
         id="path418" /></clipPath><clipPath
       clipPathUnits="userSpaceOnUse"
       id="clipPath420-8"><path
         d="M 591.86957,383.12061 H 908.19696 V 699.448 H 591.86957 Z"
         clip-rule="evenodd"
         id="path418-4" /></clipPath><clipPath
       clipPathUnits="userSpaceOnUse"
       id="clipPath420-1"><path
         d="M 591.86957,383.12061 H 908.19696 V 699.448 H 591.86957 Z"
         clip-rule="evenodd"
         id="path418-8" /></clipPath><clipPath
       clipPathUnits="userSpaceOnUse"
       id="clipPath3"><path
         d="M 9.12e-6,0 H 612.00001 V 792 H 9.12e-6 Z"
         transform="matrix(1,0,0,-1,-72.024002,250.37001)"
         clip-rule="evenodd"
         id="path3-7" /></clipPath><clipPath
       clipPathUnits="userSpaceOnUse"
       id="clipPath3-0"><path
         d="M 9.12e-6,0 H 612.00001 V 792 H 9.12e-6 Z"
         transform="matrix(1,0,0,-1,-172.46001,250.37001)"
         clip-rule="evenodd"
         id="path3" /></clipPath><clipPath
       clipPathUnits="userSpaceOnUse"
       id="clipPath3-2"><path
         d="M 9.12e-6,0 H 612.00001 V 792 H 9.12e-6 Z"
         transform="matrix(1,0,0,-1,-99.504002,250.37001)"
         clip-rule="evenodd"
         id="path3-1" /></clipPath><clipPath
       clipPathUnits="userSpaceOnUse"
       id="clipPath2"><path
         d="M 9.12e-6,0 H 612.00001 V 792 H 9.12e-6 Z"
         transform="matrix(1,0,0,-1,-72.024002,250.97001)"
         clip-rule="evenodd"
         id="path2" /></clipPath><clipPath
       clipPathUnits="userSpaceOnUse"
       id="clipPath3-3"><path
         d="M 9.12e-6,0 H 612.00001 V 792 H 9.12e-6 Z"
         transform="matrix(1,0,0,-1,-82.344002,250.37001)"
         clip-rule="evenodd"
         id="path3-6" /></clipPath></defs><g
     inkscape:label="Layer 1"
     inkscape:groupmode="layer"
     id="layer1"
     transform="translate(-6.9272639,-79.57655)"
     style="display:inline"><path
       style="fill:none;fill-opacity:0.498442;fill-rule:evenodd;stroke:#000000;stroke-width:6.6145835;stroke-dasharray:none;stroke-opacity:1"
       d="M 150.36012,280.49882 C 44.534636,312.31265 23.463723,234.31894 23.463723,207.1597 c 0,-53.55363 39.176996,-84.58827 83.730107,-84.58836 54.80735,-1.2e-4 81.70309,37.70343 83.8807,76.39318 1.62344,28.84387 -12.20095,45.46371 -30.24408,45.46371 -25.76778,0 -20.12736,-15.78761 -20.12736,-82.29393"
       id="path7"
       sodipodi:nodetypes="cssssc" /><path
       style="fill:none;fill-opacity:0.503115;fill-rule:evenodd;stroke:#000000;stroke-width:6.6145835;stroke-dasharray:none;stroke-opacity:1"
       d="m 101.55637,167.94077 c -21.305592,3.07993 -29.635288,21.89305 -29.664169,37.94873 -0.0293,16.28538 9.686079,36.91853 29.949919,38.59968 17.48382,1.4505 35.6358,-16.43406 36.73195,-35.84023 1.09615,-19.40614 -8.95709,-44.76465 -37.0177,-40.70818 z"
       id="path8"
       sodipodi:nodetypes="saszs" /></g></svg>
