<?xml version="1.0" encoding="UTF-8" standalone="no"?>
<!-- Created with Inkscape (http://www.inkscape.org/) -->

<svg
   width="1000"
   height="1000"
   viewBox="0 0 264.58333 264.58335"
   version="1.1"
   id="svg10039"
   inkscape:version="1.3.2 (091e20e, 2023-11-25, custom)"
   sodipodi:docname="LeftDoubleQuotes.svg"
   xml:space="preserve"
   xmlns:inkscape="http://www.inkscape.org/namespaces/inkscape"
   xmlns:sodipodi="http://sodipodi.sourceforge.net/DTD/sodipodi-0.dtd"
   xmlns="http://www.w3.org/2000/svg"
   xmlns:svg="http://www.w3.org/2000/svg"><sodipodi:namedview
     id="namedview10041"
     pagecolor="#ffffff"
     bordercolor="#000000"
     borderopacity="0.25"
     inkscape:showpageshadow="2"
     inkscape:pageopacity="0"
     inkscape:pagecheckerboard="0"
     inkscape:deskcolor="#d1d1d1"
     inkscape:document-units="px"
     showgrid="false"
     inkscape:zoom="1"
     inkscape:cx="-101"
     inkscape:cy="198.5"
     inkscape:window-width="1920"
     inkscape:window-height="1017"
     inkscape:window-x="-8"
     inkscape:window-y="-8"
     inkscape:window-maximized="1"
     inkscape:current-layer="layer1"
     showguides="true"><sodipodi:guide
       position="0,52.916668"
       orientation="0,1"
       id="guide294"
       inkscape:locked="false"
       inkscape:label=""
       inkscape:color="rgb(0,134,229)" /><sodipodi:guide
       position="0,79.375002"
       orientation="0,1"
       id="guide3203"
       inkscape:locked="false"
       inkscape:label=""
       inkscape:color="rgb(0,134,229)" /><sodipodi:guide
       position="0,172.71543"
       orientation="1,0"
       id="guide1"
       inkscape:locked="false" /><sodipodi:guide
       position="66.145833,224.89584"
       orientation="0,1"
       id="guide6"
       inkscape:locked="false"
       inkscape:label=""
       inkscape:color="rgb(0,134,229)" /><sodipodi:guide
       position="6.6145835,52.916656"
       orientation="-1,0"
       id="guide14"
       inkscape:label=""
       inkscape:locked="false"
       inkscape:color="rgb(0,134,229)" /><sodipodi:guide
       position="16.536459,52.916656"
       orientation="-1,0"
       id="guide4"
       inkscape:label=""
       inkscape:locked="false"
       inkscape:color="rgb(0,134,229)" /><sodipodi:guide
       position="26.458334,52.916656"
       orientation="-1,0"
       id="guide5"
       inkscape:label=""
       inkscape:locked="false"
       inkscape:color="rgb(0,134,229)" /><sodipodi:guide
       position="39.687501,52.916656"
       orientation="-1,0"
       id="guide13"
       inkscape:label=""
       inkscape:locked="false"
       inkscape:color="rgb(0,134,229)" /><sodipodi:guide
       position="49.609375,198.43752"
       orientation="1,0"
       id="guide15"
       inkscape:locked="false" /><sodipodi:guide
       position="59.53125,224.89585"
       orientation="1,0"
       id="guide16"
       inkscape:locked="false" /><sodipodi:guide
       position="66.145835,224.89585"
       orientation="-1,0"
       id="guide17"
       inkscape:label=""
       inkscape:locked="false"
       inkscape:color="rgb(0,134,229)" /></sodipodi:namedview><defs
     id="defs10036"><clipPath
       clipPathUnits="userSpaceOnUse"
       id="clipPath420"><path
         d="M 591.86957,383.12061 H 908.19696 V 699.448 H 591.86957 Z"
         clip-rule="evenodd"
         id="path418" /></clipPath><clipPath
       clipPathUnits="userSpaceOnUse"
       id="clipPath420-8"><path
         d="M 591.86957,383.12061 H 908.19696 V 699.448 H 591.86957 Z"
         clip-rule="evenodd"
         id="path418-4" /></clipPath><clipPath
       clipPathUnits="userSpaceOnUse"
       id="clipPath420-1"><path
         d="M 591.86957,383.12061 H 908.19696 V 699.448 H 591.86957 Z"
         clip-rule="evenodd"
         id="path418-8" /></clipPath><clipPath
       clipPathUnits="userSpaceOnUse"
       id="clipPath3"><path
         d="M 9.12e-6,0 H 612.00001 V 792 H 9.12e-6 Z"
         transform="matrix(1,0,0,-1,-72.024002,250.37001)"
         clip-rule="evenodd"
         id="path3-7" /></clipPath><clipPath
       clipPathUnits="userSpaceOnUse"
       id="clipPath420-6"><path
         d="M 591.86957,383.12061 H 908.19696 V 699.448 H 591.86957 Z"
         clip-rule="evenodd"
         id="path418-1" /></clipPath><clipPath
       clipPathUnits="userSpaceOnUse"
       id="clipPath420-8-4"><path
         d="M 591.86957,383.12061 H 908.19696 V 699.448 H 591.86957 Z"
         clip-rule="evenodd"
         id="path418-4-1" /></clipPath><clipPath
       clipPathUnits="userSpaceOnUse"
       id="clipPath420-1-4"><path
         d="M 591.86957,383.12061 H 908.19696 V 699.448 H 591.86957 Z"
         clip-rule="evenodd"
         id="path418-8-7" /></clipPath><clipPath
       clipPathUnits="userSpaceOnUse"
       id="clipPath3-5"><path
         d="M 9.12e-6,0 H 612.00001 V 792 H 9.12e-6 Z"
         transform="matrix(1,0,0,-1,-72.024002,250.37001)"
         clip-rule="evenodd"
         id="path3-7-7" /></clipPath></defs><g
     inkscape:label="Layer 1"
     inkscape:groupmode="layer"
     id="layer1"
     transform="translate(-6.9272639,-79.57655)"><path
       id="path5"
       style="color:#000000;display:inline;fill:#000000;fill-opacity:0.996289;fill-rule:evenodd;stroke-width:0.749781;stroke-linecap:round;-inkscape-stroke:none"
       d="m 56.539466,119.26405 a 9.9189665,9.9189665 0 0 1 9.918967,9.91898 9.9189665,9.9189665 0 0 1 -9.918967,9.91896 9.9189665,9.9189665 0 0 1 -0.805145,-0.0578 c 1.617294,3.99959 4.568009,9.3428 9.93098,16.02455 a 3.6005832,3.6005832 0 0 1 -0.553678,5.06256 3.6005832,3.6005832 0 0 1 -5.06255,-0.55523 c -7.739178,-9.64227 -11.131778,-17.12074 -12.533934,-22.39981 -0.701074,-2.63955 -0.900425,-4.72499 -0.900455,-6.22223 -7e-6,-0.40878 0.02166,-0.78506 0.05152,-1.13022 a 9.9189665,9.9189665 0 0 1 -0.04573,-0.64086 9.9189665,9.9189665 0 0 1 9.91897,-9.91897 z" /><path
       id="path1"
       style="color:#000000;display:inline;fill:#000000;fill-opacity:0.996289;fill-rule:evenodd;stroke-width:0.749781;stroke-linecap:round;-inkscape-stroke:none"
       d="m 23.469457,119.26412 a 9.9189665,9.9189665 0 0 1 9.918967,9.91898 9.9189665,9.9189665 0 0 1 -9.918967,9.91896 9.9189665,9.9189665 0 0 1 -0.805145,-0.0578 c 1.617294,3.99959 4.568009,9.3428 9.93098,16.02455 a 3.6005832,3.6005832 0 0 1 -0.553678,5.06256 3.6005832,3.6005832 0 0 1 -5.06255,-0.55523 C 19.239886,149.93387 15.847286,142.4554 14.44513,137.17633 c -0.701074,-2.63955 -0.900425,-4.72499 -0.900455,-6.22223 -7e-6,-0.40878 0.02166,-0.78506 0.05152,-1.13022 a 9.9189665,9.9189665 0 0 1 -0.04573,-0.64086 9.9189665,9.9189665 0 0 1 9.91897,-9.91897 z" /></g></svg>
