<?xml version="1.0" encoding="UTF-8" standalone="no"?>
<!-- Created with Inkscape (http://www.inkscape.org/) -->

<svg
   width="1000"
   height="1000"
   viewBox="0 0 264.58333 264.58335"
   version="1.1"
   id="svg10039"
   inkscape:version="1.3.2 (091e20e, 2023-11-25, custom)"
   sodipodi:docname="10.svg"
   xml:space="preserve"
   xmlns:inkscape="http://www.inkscape.org/namespaces/inkscape"
   xmlns:sodipodi="http://sodipodi.sourceforge.net/DTD/sodipodi-0.dtd"
   xmlns="http://www.w3.org/2000/svg"
   xmlns:svg="http://www.w3.org/2000/svg"><sodipodi:namedview
     id="namedview10041"
     pagecolor="#ffffff"
     bordercolor="#000000"
     borderopacity="0.25"
     inkscape:showpageshadow="2"
     inkscape:pageopacity="0"
     inkscape:pagecheckerboard="0"
     inkscape:deskcolor="#d1d1d1"
     inkscape:document-units="px"
     showgrid="false"
     inkscape:zoom="0.59326259"
     inkscape:cx="315.20612"
     inkscape:cy="334.59046"
     inkscape:window-width="1920"
     inkscape:window-height="1017"
     inkscape:window-x="-8"
     inkscape:window-y="-8"
     inkscape:window-maximized="1"
     inkscape:current-layer="layer1"
     showguides="true"><sodipodi:guide
       position="0,52.916668"
       orientation="0,1"
       id="guide294"
       inkscape:locked="false"
       inkscape:label=""
       inkscape:color="rgb(0,134,229)" /><sodipodi:guide
       position="0,79.375002"
       orientation="0,1"
       id="guide3203"
       inkscape:locked="false"
       inkscape:label=""
       inkscape:color="rgb(0,134,229)" /><sodipodi:guide
       position="13.229167,264.58334"
       orientation="-1,0"
       id="guide3205"
       inkscape:locked="false"
       inkscape:label=""
       inkscape:color="rgb(0,134,229)" /><sodipodi:guide
       position="0,172.71543"
       orientation="1,0"
       id="guide1"
       inkscape:locked="false" /><sodipodi:guide
       position="159.40732,132.29115"
       orientation="1,0"
       id="guide4"
       inkscape:locked="false" /><sodipodi:guide
       position="172.63649,132.29115"
       orientation="-1,0"
       id="guide5"
       inkscape:label=""
       inkscape:locked="false"
       inkscape:color="rgb(0,134,229)" /></sodipodi:namedview><defs
     id="defs10036"><clipPath
       clipPathUnits="userSpaceOnUse"
       id="clipPath420"><path
         d="M 591.86957,383.12061 H 908.19696 V 699.448 H 591.86957 Z"
         clip-rule="evenodd"
         id="path418" /></clipPath><clipPath
       clipPathUnits="userSpaceOnUse"
       id="clipPath420-8"><path
         d="M 591.86957,383.12061 H 908.19696 V 699.448 H 591.86957 Z"
         clip-rule="evenodd"
         id="path418-4" /></clipPath><clipPath
       clipPathUnits="userSpaceOnUse"
       id="clipPath420-3"><path
         d="M 591.86957,383.12061 H 908.19696 V 699.448 H 591.86957 Z"
         clip-rule="evenodd"
         id="path418-2" /></clipPath><clipPath
       clipPathUnits="userSpaceOnUse"
       id="clipPath420-0"><path
         d="M 591.86957,383.12061 H 908.19696 V 699.448 H 591.86957 Z"
         clip-rule="evenodd"
         id="path418-1" /></clipPath><clipPath
       clipPathUnits="userSpaceOnUse"
       id="clipPath420-2"><path
         d="M 591.86957,383.12061 H 908.19696 V 699.448 H 591.86957 Z"
         clip-rule="evenodd"
         id="path418-8" /></clipPath><clipPath
       clipPathUnits="userSpaceOnUse"
       id="clipPath420-9"><path
         d="M 591.86957,383.12061 H 908.19696 V 699.448 H 591.86957 Z"
         clip-rule="evenodd"
         id="path418-3" /></clipPath><clipPath
       clipPathUnits="userSpaceOnUse"
       id="clipPath420-35"><path
         d="M 591.86957,383.12061 H 908.19696 V 699.448 H 591.86957 Z"
         clip-rule="evenodd"
         id="path418-7" /></clipPath><clipPath
       clipPathUnits="userSpaceOnUse"
       id="clipPath420-06"><path
         d="M 591.86957,383.12061 H 908.19696 V 699.448 H 591.86957 Z"
         clip-rule="evenodd"
         id="path418-88" /></clipPath></defs><g
     inkscape:label="Layer 1"
     inkscape:groupmode="layer"
     id="layer1"
     transform="translate(-6.9272639,-79.57655)"><path
       id="path1"
       style="color:#000000;display:inline;fill:#000000;fill-opacity:1;fill-rule:evenodd;-inkscape-stroke:none"
       d="M 113.41844 158.95104 C 98.265117 158.95104 84.592846 165.35832 74.938618 175.59498 C 72.689846 174.85476 69.066625 173.89535 64.452953 173.53723 C 63.137715 173.43513 61.746097 173.38264 60.287832 173.39873 C 58.829569 173.41483 57.305009 173.49964 55.724803 173.6721 C 45.377535 174.80143 32.535779 179.75918 20.156431 193.15257 L 20.156431 203.41241 C 33.102162 186.47252 46.258143 181.3573 56.441556 180.24586 C 62.34348 179.60171 67.180197 180.32597 70.386441 181.12384 C 64.174054 189.79614 60.502806 200.40739 60.502806 211.86874 C 60.502806 223.11594 64.037375 233.54485 70.039692 242.12581 C 66.835318 242.88883 62.134885 243.54093 56.441556 242.91956 C 46.258143 241.80812 33.102162 236.69289 20.156431 219.75301 L 20.156431 230.01285 C 32.535779 243.40624 45.377535 248.36399 55.724803 249.49331 C 57.305009 249.66577 58.829569 249.75058 60.287832 249.76668 C 61.746097 249.78277 63.137715 249.73029 64.452953 249.62819 C 68.793766 249.29124 72.249206 248.42304 74.521073 247.70428 C 84.196005 258.1982 98.047961 264.78489 113.41844 264.78489 C 142.60427 264.78489 166.33459 241.05457 166.33459 211.86874 C 166.33459 182.68291 142.60427 158.95104 113.41844 158.95104 z M 113.41844 165.56614 C 139.02949 165.56614 159.72156 186.25768 159.72156 211.86874 C 159.72156 237.47979 139.02949 258.16979 113.41844 258.16979 C 87.807383 258.16979 67.11584 237.47979 67.11584 211.86874 C 67.11584 186.25768 87.807383 165.56614 113.41844 165.56614 z " /><circle
       style="opacity:1;fill:#ff0000;fill-opacity:1;fill-rule:evenodd;stroke:none;stroke-width:7.04225;stroke-linecap:butt;stroke-linejoin:miter;stroke-dasharray:none;stroke-opacity:0.5"
       id="path4"
       cx="94.795731"
       cy="136.64029"
       r="6.8848186" /><circle
       style="opacity:1;fill:#ff0000;fill-opacity:1;fill-rule:evenodd;stroke:none;stroke-width:7.04225;stroke-linecap:butt;stroke-linejoin:miter;stroke-dasharray:none;stroke-opacity:0.5"
       id="circle4"
       cx="117.9867"
       cy="136.64029"
       r="6.8848186" /></g></svg>
