<?xml version="1.0" encoding="UTF-8" standalone="no"?>
<!-- Created with Inkscape (http://www.inkscape.org/) -->

<svg
   width="1000"
   height="1000"
   viewBox="0 0 264.58333 264.58335"
   version="1.1"
   id="svg10039"
   inkscape:version="1.3.2 (091e20e, 2023-11-25, custom)"
   sodipodi:docname="11.svg"
   xml:space="preserve"
   xmlns:inkscape="http://www.inkscape.org/namespaces/inkscape"
   xmlns:sodipodi="http://sodipodi.sourceforge.net/DTD/sodipodi-0.dtd"
   xmlns="http://www.w3.org/2000/svg"
   xmlns:svg="http://www.w3.org/2000/svg"><sodipodi:namedview
     id="namedview10041"
     pagecolor="#ffffff"
     bordercolor="#000000"
     borderopacity="0.25"
     inkscape:showpageshadow="2"
     inkscape:pageopacity="0"
     inkscape:pagecheckerboard="0"
     inkscape:deskcolor="#d1d1d1"
     inkscape:document-units="px"
     showgrid="false"
     inkscape:zoom="0.70710678"
     inkscape:cx="91.923882"
     inkscape:cy="450.42702"
     inkscape:window-width="1920"
     inkscape:window-height="1017"
     inkscape:window-x="-8"
     inkscape:window-y="-8"
     inkscape:window-maximized="1"
     inkscape:current-layer="layer1"
     showguides="true"><sodipodi:guide
       position="0,52.916668"
       orientation="0,1"
       id="guide294"
       inkscape:locked="false"
       inkscape:label=""
       inkscape:color="rgb(0,134,229)" /><sodipodi:guide
       position="0,79.375002"
       orientation="0,1"
       id="guide3203"
       inkscape:locked="false"
       inkscape:label=""
       inkscape:color="rgb(0,134,229)" /><sodipodi:guide
       position="13.229167,264.58334"
       orientation="-1,0"
       id="guide3205"
       inkscape:locked="false"
       inkscape:label=""
       inkscape:color="rgb(0,134,229)" /><sodipodi:guide
       position="119.0625,79.375519"
       orientation="-1,0"
       id="guide3207"
       inkscape:label=""
       inkscape:locked="false"
       inkscape:color="rgb(0,134,229)" /><sodipodi:guide
       position="0,172.71543"
       orientation="1,0"
       id="guide1"
       inkscape:locked="false" /><sodipodi:guide
       position="132.29167,79.375519"
       orientation="-1,0"
       id="guide2"
       inkscape:label=""
       inkscape:locked="false"
       inkscape:color="rgb(0,134,229)" /></sodipodi:namedview><defs
     id="defs10036"><clipPath
       clipPathUnits="userSpaceOnUse"
       id="clipPath420"><path
         d="M 591.86957,383.12061 H 908.19696 V 699.448 H 591.86957 Z"
         clip-rule="evenodd"
         id="path418" /></clipPath><clipPath
       clipPathUnits="userSpaceOnUse"
       id="clipPath420-8"><path
         d="M 591.86957,383.12061 H 908.19696 V 699.448 H 591.86957 Z"
         clip-rule="evenodd"
         id="path418-4" /></clipPath><clipPath
       clipPathUnits="userSpaceOnUse"
       id="clipPath420-3"><path
         d="M 591.86957,383.12061 H 908.19696 V 699.448 H 591.86957 Z"
         clip-rule="evenodd"
         id="path418-2" /></clipPath><clipPath
       clipPathUnits="userSpaceOnUse"
       id="clipPath420-4"><path
         d="M 591.86957,383.12061 H 908.19696 V 699.448 H 591.86957 Z"
         clip-rule="evenodd"
         id="path418-9" /></clipPath></defs><g
     inkscape:label="Layer 1"
     inkscape:groupmode="layer"
     id="layer1"
     transform="translate(-6.9272639,-79.57655)"><path
       id="path1"
       style="color:#000000;fill:#000000;fill-opacity:1;fill-rule:evenodd;-inkscape-stroke:none"
       d="M 108.73449 136.89037 C 108.73449 136.89037 105.57793 151.55086 107.06947 171.25881 C 97.868282 163.52607 86.010018 158.85698 73.074132 158.85698 C 43.888302 158.85698 20.157981 182.58937 20.157981 211.7752 C 20.157981 240.96103 43.888302 264.69135 73.074132 264.69135 C 102.25996 264.69135 125.99028 240.96103 125.99028 211.7752 C 125.99028 199.38852 121.70489 187.99314 114.55326 178.96842 C 111.34275 156.29648 115.20128 138.2815 115.20128 138.2815 L 108.73449 136.89037 z M 73.074132 165.4726 C 98.685188 165.4726 119.37673 186.16415 119.37673 211.7752 C 119.37673 237.38626 98.685188 258.07574 73.074132 258.07574 C 47.463078 258.07574 26.771531 237.38626 26.771531 211.7752 C 26.771531 186.16415 47.463078 165.4726 73.074132 165.4726 z M 84.467236 272.3622 L 71.24582 272.81334 L 73.00747 324.42518 L 86.228885 323.97404 L 84.467236 272.3622 z " /><path
       id="path51"
       style="color:#000000;fill:#ff0000;fill-rule:evenodd;stroke-linecap:round;-inkscape-stroke:none"
       d="m 140.31819,374.08608 -18.43918,3.77342 a 1.984375,1.984375 0 0 0 -1.5472,2.34146 1.984375,1.984375 0 0 0 2.34198,1.54719 l 11.53728,-2.36162 c -7.29159,9.14764 -17.42649,14.33711 -28.06082,14.33815 -10.633419,9e-4 -20.768168,-5.18566 -28.060817,-14.33039 l 11.53573,2.35747 a 1.984375,1.984375 0 0 0 2.341459,-1.54667 1.984375,1.984375 0 0 0 -1.546676,-2.34198 l -18.441251,-3.76928 -3.769796,18.43919 a 1.984375,1.984375 0 0 0 1.545125,2.34197 1.984375,1.984375 0 0 0 2.341459,-1.54667 l 2.453081,-11.99927 c 7.995119,10.31819 19.459717,16.36555 31.601686,16.36438 12.1415,-9.2e-4 23.60539,-6.05011 31.59911,-16.36903 l 2.45566,11.99772 a 1.984375,1.984375 0 0 0 2.34198,1.54719 1.984375,1.984375 0 0 0 1.5446,-2.34198 z"
       transform="matrix(1,0,0,-1,-45.459838,505.73538)" /></g></svg>
