<?xml version="1.0" encoding="UTF-8" standalone="no"?>
<!-- Created with Inkscape (http://www.inkscape.org/) -->

<svg
   width="1000"
   height="1000"
   viewBox="0 0 264.58333 264.58333"
   version="1.1"
   id="svg20980"
   inkscape:version="1.3.2 (091e20e, 2023-11-25, custom)"
   sodipodi:docname="4.svg"
   xml:space="preserve"
   xmlns:inkscape="http://www.inkscape.org/namespaces/inkscape"
   xmlns:sodipodi="http://sodipodi.sourceforge.net/DTD/sodipodi-0.dtd"
   xmlns="http://www.w3.org/2000/svg"
   xmlns:svg="http://www.w3.org/2000/svg"><sodipodi:namedview
     id="namedview20982"
     pagecolor="#ffffff"
     bordercolor="#000000"
     borderopacity="0.25"
     inkscape:showpageshadow="2"
     inkscape:pageopacity="0.0"
     inkscape:pagecheckerboard="0"
     inkscape:deskcolor="#d1d1d1"
     inkscape:document-units="px"
     showgrid="false"
     inkscape:zoom="0.74564395"
     inkscape:cx="154.22911"
     inkscape:cy="440.55879"
     inkscape:window-width="1920"
     inkscape:window-height="1017"
     inkscape:window-x="-8"
     inkscape:window-y="-8"
     inkscape:window-maximized="1"
     inkscape:current-layer="layer1"
     showguides="true"><sodipodi:guide
       position="0,52.916666"
       orientation="0,1"
       id="guide437"
       inkscape:locked="false"
       inkscape:label=""
       inkscape:color="rgb(0,134,229)" /><sodipodi:guide
       position="0,79.374999"
       orientation="0,1"
       id="guide3355"
       inkscape:locked="false"
       inkscape:label=""
       inkscape:color="rgb(0,134,229)" /><sodipodi:guide
       position="13.229166,111.64785"
       orientation="-1,0"
       id="guide3636"
       inkscape:locked="false"
       inkscape:label=""
       inkscape:color="rgb(0,134,229)" /><sodipodi:guide
       position="119.0625,132.2917"
       orientation="-1,0"
       id="guide3638"
       inkscape:label=""
       inkscape:locked="false"
       inkscape:color="rgb(0,134,229)" /><sodipodi:guide
       position="132.29166,132.2917"
       orientation="-1,0"
       id="guide428"
       inkscape:label=""
       inkscape:locked="false"
       inkscape:color="rgb(0,134,229)" /></sodipodi:namedview><defs
     id="defs20977"><clipPath
       clipPathUnits="userSpaceOnUse"
       id="clipPath420"><path
         d="M 591.86957,383.12061 H 908.19696 V 699.448 H 591.86957 Z"
         clip-rule="evenodd"
         id="path418" /></clipPath></defs><g
     inkscape:label="Layer 1"
     inkscape:groupmode="layer"
     id="layer1"
     transform="translate(-35.783184,-100.21801)"><path
       id="path1"
       style="color:#000000;fill:#000000;fill-opacity:1;fill-rule:evenodd;-inkscape-stroke:none"
       d="m 95.354224,128.43231 v 51.58393 c 2.15564,-0.26828 4.34645,-0.42271 6.573756,-0.42271 1.94561,0 3.86452,0.11334 5.75624,0.31884 v -51.05166 h 6.61458 v 52.20714 c 5.71071,1.37265 11.06058,3.67147 15.88637,6.73138 v -47.45705 h 6.61458 v 52.41127 c 11.05157,9.70433 18.04593,23.92217 18.04593,39.75622 0,29.18584 -23.73186,52.91615 -52.9177,52.91615 -29.185836,0 -52.916156,-23.73031 -52.916146,-52.91615 0,-16.23178 7.34642,-30.76853 18.88257,-40.48176 v -53.53265 h 6.61458 v 48.76705 c 4.37009,-2.65733 9.15408,-4.69904 14.23065,-6.00532 v -52.82468 z m 6.573756,57.77477 c -25.611056,0 -46.301046,20.69153 -46.301046,46.30259 0,25.61106 20.68999,46.3026 46.301046,46.3026 24.59359,0 44.63923,-19.08313 46.19408,-43.27746 l -32.23472,2.08463 -0.42685,-6.60063 32.61765,-2.10943 c -1.83373,-23.92019 -21.75227,-42.7023 -46.15016,-42.7023 z" /></g></svg>
