<?xml version="1.0" encoding="UTF-8" standalone="no"?>
<!-- Created with Inkscape (http://www.inkscape.org/) -->

<svg
   width="1000"
   height="1000"
   viewBox="0 0 264.58333 264.58335"
   version="1.1"
   id="svg10039"
   inkscape:version="1.3.2 (091e20e, 2023-11-25, custom)"
   sodipodi:docname="7.svg"
   xml:space="preserve"
   xmlns:inkscape="http://www.inkscape.org/namespaces/inkscape"
   xmlns:sodipodi="http://sodipodi.sourceforge.net/DTD/sodipodi-0.dtd"
   xmlns="http://www.w3.org/2000/svg"
   xmlns:svg="http://www.w3.org/2000/svg"><sodipodi:namedview
     id="namedview10041"
     pagecolor="#ffffff"
     bordercolor="#000000"
     borderopacity="0.25"
     inkscape:showpageshadow="2"
     inkscape:pageopacity="0"
     inkscape:pagecheckerboard="0"
     inkscape:deskcolor="#d1d1d1"
     inkscape:document-units="px"
     showgrid="false"
     inkscape:zoom="1"
     inkscape:cx="218.5"
     inkscape:cy="613.5"
     inkscape:window-width="1920"
     inkscape:window-height="1017"
     inkscape:window-x="-8"
     inkscape:window-y="-8"
     inkscape:window-maximized="1"
     inkscape:current-layer="layer1"
     showguides="true"><sodipodi:guide
       position="0,52.916668"
       orientation="0,1"
       id="guide294"
       inkscape:locked="false"
       inkscape:label=""
       inkscape:color="rgb(0,134,229)" /><sodipodi:guide
       position="0,79.375002"
       orientation="0,1"
       id="guide3203"
       inkscape:locked="false"
       inkscape:label=""
       inkscape:color="rgb(0,134,229)" /><sodipodi:guide
       position="13.229167,264.58334"
       orientation="-1,0"
       id="guide3205"
       inkscape:locked="false"
       inkscape:label=""
       inkscape:color="rgb(0,134,229)" /><sodipodi:guide
       position="0,172.71543"
       orientation="1,0"
       id="guide1"
       inkscape:locked="false" /><sodipodi:guide
       position="163.40748,79.374683"
       orientation="-1,0"
       id="guide2"
       inkscape:locked="false"
       inkscape:label=""
       inkscape:color="rgb(0,134,229)" /><sodipodi:guide
       position="150.17831,79.374683"
       orientation="1,0"
       id="guide3"
       inkscape:locked="false" /></sodipodi:namedview><defs
     id="defs10036"><clipPath
       clipPathUnits="userSpaceOnUse"
       id="clipPath420"><path
         d="M 591.86957,383.12061 H 908.19696 V 699.448 H 591.86957 Z"
         clip-rule="evenodd"
         id="path418" /></clipPath><clipPath
       clipPathUnits="userSpaceOnUse"
       id="clipPath420-8"><path
         d="M 591.86957,383.12061 H 908.19696 V 699.448 H 591.86957 Z"
         clip-rule="evenodd"
         id="path418-4" /></clipPath><clipPath
       clipPathUnits="userSpaceOnUse"
       id="clipPath420-3"><path
         d="M 591.86957,383.12061 H 908.19696 V 699.448 H 591.86957 Z"
         clip-rule="evenodd"
         id="path418-2" /></clipPath><clipPath
       clipPathUnits="userSpaceOnUse"
       id="clipPath420-2"><path
         d="M 591.86957,383.12061 H 908.19696 V 699.448 H 591.86957 Z"
         clip-rule="evenodd"
         id="path418-8" /></clipPath></defs><g
     inkscape:label="Layer 1"
     inkscape:groupmode="layer"
     id="layer1"
     transform="translate(-6.9272639,-79.57655)"><path
       id="path1"
       style="color:#000000;fill:#000000;fill-opacity:1;fill-rule:evenodd;-inkscape-stroke:none"
       d="M 104.18955 158.95104 C 75.003707 158.95104 51.273395 182.68342 51.273395 211.86925 C 51.273395 213.81699 51.386817 215.73799 51.592756 217.63169 C 37.295681 222.08557 26.771531 222.10377 26.771531 222.10377 A 6.6146002 6.6146002 0 0 0 20.156431 228.71887 A 6.6146002 6.6146002 0 0 0 26.771531 235.3319 C 26.771531 235.3319 37.355099 235.34055 52.099702 231.22208 L 52.099702 310.93659 L 58.714285 310.93659 L 58.714285 238.89293 C 67.953009 254.38498 84.872577 264.7854 104.18955 264.7854 C 133.37538 264.7854 157.1057 241.05508 157.1057 211.86925 C 157.1057 182.68342 133.37538 158.95104 104.18955 158.95104 z M 104.18955 165.56665 C 129.8006 165.56665 150.49215 186.2582 150.49215 211.86925 C 150.49215 237.48031 129.8006 258.16979 104.18955 258.16979 C 84.404405 258.16979 67.564774 245.8174 60.922936 228.39228 C 70.680477 224.85172 81.515956 219.51011 92.011478 211.42949 A 6.6146002 6.6146002 0 0 0 93.216573 202.15408 A 6.6146002 6.6146002 0 0 0 88.82821 199.62866 A 6.6146002 6.6146002 0 0 0 83.94117 200.94744 C 75.19413 207.6819 66.213922 212.26571 58.033706 215.39514 C 57.946255 214.23001 57.886945 213.05713 57.886945 211.86925 C 57.886945 186.2582 78.578483 165.56665 104.18955 165.56665 z " /></g></svg>
