<?xml version="1.0" encoding="UTF-8" standalone="no"?>
<!-- Created with Inkscape (http://www.inkscape.org/) -->

<svg
   width="1000"
   height="1000"
   viewBox="0 0 264.58335 264.58336"
   version="1.1"
   id="svg48671"
   inkscape:version="1.3.2 (091e20e, 2023-11-25, custom)"
   sodipodi:docname="8.svg"
   xml:space="preserve"
   xmlns:inkscape="http://www.inkscape.org/namespaces/inkscape"
   xmlns:sodipodi="http://sodipodi.sourceforge.net/DTD/sodipodi-0.dtd"
   xmlns="http://www.w3.org/2000/svg"
   xmlns:svg="http://www.w3.org/2000/svg"><sodipodi:namedview
     id="namedview48673"
     pagecolor="#ffffff"
     bordercolor="#000000"
     borderopacity="0.25"
     inkscape:showpageshadow="2"
     inkscape:pageopacity="0.0"
     inkscape:pagecheckerboard="0"
     inkscape:deskcolor="#d1d1d1"
     inkscape:document-units="px"
     showgrid="false"
     inkscape:zoom="0.74564395"
     inkscape:cx="102.59588"
     inkscape:cy="443.24104"
     inkscape:window-width="1920"
     inkscape:window-height="1017"
     inkscape:window-x="-8"
     inkscape:window-y="-8"
     inkscape:window-maximized="1"
     inkscape:current-layer="layer1"
     showguides="true"><sodipodi:guide
       position="0,79.375007"
       orientation="0,1"
       id="guide1122"
       inkscape:locked="false"
       inkscape:label=""
       inkscape:color="rgb(0,134,229)" /><sodipodi:guide
       position="0,52.916671"
       orientation="0,1"
       id="guide1124"
       inkscape:label=""
       inkscape:locked="false"
       inkscape:color="rgb(0,134,229)" /><sodipodi:guide
       position="13.229168,264.58336"
       orientation="-1,0"
       id="guide1126"
       inkscape:locked="false"
       inkscape:label=""
       inkscape:color="rgb(0,134,229)" /><sodipodi:guide
       position="119.06251,132.29168"
       orientation="1,0"
       id="guide1128"
       inkscape:locked="false" /><sodipodi:guide
       position="132.29168,132.29168"
       orientation="-1,0"
       id="guide1453"
       inkscape:label=""
       inkscape:locked="false"
       inkscape:color="rgb(0,134,229)" /></sodipodi:namedview><defs
     id="defs48668"><inkscape:path-effect
       effect="bspline"
       id="path-effect9613"
       is_visible="true"
       lpeversion="1"
       weight="33.333333"
       steps="2"
       helper_size="0"
       apply_no_weight="true"
       apply_with_weight="true"
       only_selected="false" /><clipPath
       clipPathUnits="userSpaceOnUse"
       id="clipPath1768"><path
         d="m 3214.0178,557.229 h 378.125 v 378.125 h -378.125 z"
         clip-rule="evenodd"
         id="path1766" /></clipPath><clipPath
       clipPathUnits="userSpaceOnUse"
       id="clipPath1780"><path
         d="M 0,0 H 6000 V 3406.25 H 0 Z"
         id="path1778" /></clipPath><clipPath
       clipPathUnits="userSpaceOnUse"
       id="clipPath1786"><path
         d="M 0,0 H 6000 V 3375 H 0 Z"
         id="path1784" /></clipPath><clipPath
       clipPathUnits="userSpaceOnUse"
       id="clipPath1792"><path
         d="M 0,0 H 6000 V 3375 H 0 Z"
         id="path1790" /></clipPath><clipPath
       clipPathUnits="userSpaceOnUse"
       id="clipPath1798"><path
         d="m 3214.021,670.82422 222.1558,-35.66199 18.8217,117.2489 -222.156,35.66199 z"
         id="path1796" /></clipPath><clipPath
       clipPathUnits="userSpaceOnUse"
       id="clipPath1804"><path
         d="m 3214.021,670.82422 225.2415,-36.15729 18.8215,117.2489 -225.2415,36.15729 z"
         id="path1802" /></clipPath><clipPath
       clipPathUnits="userSpaceOnUse"
       id="clipPath1810"><path
         d="m 3214.021,670.82422 336.3193,-53.98828 18.8216,117.2489 -336.3194,53.98828 z"
         id="path1808" /></clipPath><clipPath
       clipPathUnits="userSpaceOnUse"
       id="clipPath420"><path
         d="M 591.86957,383.12061 H 908.19696 V 699.448 H 591.86957 Z"
         clip-rule="evenodd"
         id="path418" /></clipPath></defs><g
     inkscape:label="Layer 1"
     inkscape:groupmode="layer"
     id="layer1"
     transform="translate(-40.766902,-140.47658)"
     style="display:inline"><path
       id="path1"
       style="color:#000000;fill:#000000;fill-opacity:1;fill-rule:evenodd;stroke-width:1.00012508;stroke-dasharray:none"
       d="M 106.95305 219.85159 C 77.767207 219.85159 54.036894 243.5819 54.036894 272.76774 C 54.036894 301.95357 77.767207 325.68545 106.95305 325.68545 C 136.13888 325.68545 159.87127 301.95357 159.87127 272.76774 C 159.87127 243.5819 136.13888 219.85159 106.95305 219.85159 z M 106.95305 226.46669 C 132.5641 226.46669 153.25565 247.15668 153.25565 272.76774 C 153.25565 298.3788 132.5641 319.07034 106.95305 319.07034 C 81.341983 319.07034 60.652512 298.3788 60.652512 272.76774 C 60.652512 270.96541 60.765207 269.19057 60.964637 267.44248 C 74.250511 274.72569 84.164891 278.20499 93.140454 278.9746 C 103.27022 279.84318 111.84454 277.18078 121.9356 273.39044 L 119.60912 267.19702 C 109.7164 270.91285 102.38983 273.12728 93.706827 272.38275 C 85.645244 271.69151 76.089708 268.36393 62.271534 260.60362 C 67.601771 240.91423 85.554544 226.46669 106.95305 226.46669 z " /><g
       id="path47"
       transform="translate(2.4962581,-45.550795)"><path
         id="path51"
         style="color:#000000;fill:#ff0000;fill-rule:evenodd;stroke-linecap:round;-inkscape-stroke:none"
         d="m 140.31819,374.08608 -18.43918,3.77342 a 1.984375,1.984375 0 0 0 -1.5472,2.34146 1.984375,1.984375 0 0 0 2.34198,1.54719 l 11.53728,-2.36162 c -7.29159,9.14764 -17.42649,14.33711 -28.06082,14.33815 -10.633419,9e-4 -20.768168,-5.18566 -28.060817,-14.33039 l 11.53573,2.35747 a 1.984375,1.984375 0 0 0 2.341459,-1.54667 1.984375,1.984375 0 0 0 -1.546676,-2.34198 l -18.441251,-3.76928 -3.769796,18.43919 a 1.984375,1.984375 0 0 0 1.545125,2.34197 1.984375,1.984375 0 0 0 2.341459,-1.54667 l 2.453081,-11.99927 c 7.995119,10.31819 19.459717,16.36555 31.601686,16.36438 12.1415,-9.2e-4 23.60539,-6.05011 31.59911,-16.36903 l 2.45566,11.99772 a 1.984375,1.984375 0 0 0 2.34198,1.54719 1.984375,1.984375 0 0 0 1.5446,-2.34198 z" /><g
         id="g49" /></g></g></svg>
