<?xml version="1.0" encoding="UTF-8" standalone="no"?>
<!-- Created with Inkscape (http://www.inkscape.org/) -->

<svg
   width="1000"
   height="1000"
   viewBox="0 0 264.58333 264.58335"
   version="1.1"
   id="svg10039"
   inkscape:version="1.3.2 (091e20e, 2023-11-25, custom)"
   sodipodi:docname="AwithTilde.svg"
   xml:space="preserve"
   xmlns:inkscape="http://www.inkscape.org/namespaces/inkscape"
   xmlns:sodipodi="http://sodipodi.sourceforge.net/DTD/sodipodi-0.dtd"
   xmlns="http://www.w3.org/2000/svg"
   xmlns:svg="http://www.w3.org/2000/svg"><sodipodi:namedview
     id="namedview10041"
     pagecolor="#ffffff"
     bordercolor="#000000"
     borderopacity="0.25"
     inkscape:showpageshadow="2"
     inkscape:pageopacity="0"
     inkscape:pagecheckerboard="0"
     inkscape:deskcolor="#d1d1d1"
     inkscape:document-units="px"
     showgrid="false"
     inkscape:zoom="1"
     inkscape:cx="443"
     inkscape:cy="138.5"
     inkscape:window-width="1920"
     inkscape:window-height="1017"
     inkscape:window-x="-8"
     inkscape:window-y="-8"
     inkscape:window-maximized="1"
     inkscape:current-layer="layer1"
     showguides="true"><sodipodi:guide
       position="0,52.916668"
       orientation="0,1"
       id="guide294"
       inkscape:locked="false"
       inkscape:label=""
       inkscape:color="rgb(0,134,229)" /><sodipodi:guide
       position="0,79.375002"
       orientation="0,1"
       id="guide3203"
       inkscape:locked="false"
       inkscape:label=""
       inkscape:color="rgb(0,134,229)" /><sodipodi:guide
       position="13.229167,264.58334"
       orientation="-1,0"
       id="guide3205"
       inkscape:locked="false"
       inkscape:label=""
       inkscape:color="rgb(0,134,229)" /><sodipodi:guide
       position="163.83551,132.29188"
       orientation="-1,0"
       id="guide3207"
       inkscape:label=""
       inkscape:locked="false"
       inkscape:color="rgb(0,134,229)" /><sodipodi:guide
       position="177.06468,132.29188"
       orientation="-1,0"
       id="guide310"
       inkscape:label=""
       inkscape:locked="false"
       inkscape:color="rgb(0,134,229)" /><sodipodi:guide
       position="0,172.71543"
       orientation="1,0"
       id="guide1"
       inkscape:locked="false" /><sodipodi:guide
       position="110.96533,185.20885"
       orientation="1,0"
       id="guide2"
       inkscape:locked="false" /><sodipodi:guide
       position="110.96533,191.82344"
       orientation="0,-1"
       id="guide3"
       inkscape:locked="false" /></sodipodi:namedview><defs
     id="defs10036"><clipPath
       clipPathUnits="userSpaceOnUse"
       id="clipPath420"><path
         d="M 591.86957,383.12061 H 908.19696 V 699.448 H 591.86957 Z"
         clip-rule="evenodd"
         id="path418" /></clipPath><clipPath
       clipPathUnits="userSpaceOnUse"
       id="clipPath420-8"><path
         d="M 591.86957,383.12061 H 908.19696 V 699.448 H 591.86957 Z"
         clip-rule="evenodd"
         id="path418-4" /></clipPath><clipPath
       clipPathUnits="userSpaceOnUse"
       id="clipPath420-7"><path
         d="M 591.86957,383.12061 H 908.19696 V 699.448 H 591.86957 Z"
         clip-rule="evenodd"
         id="path418-8" /></clipPath><clipPath
       clipPathUnits="userSpaceOnUse"
       id="clipPath420-2"><path
         d="M 591.86957,383.12061 H 908.19696 V 699.448 H 591.86957 Z"
         clip-rule="evenodd"
         id="path418-0" /></clipPath><clipPath
       clipPathUnits="userSpaceOnUse"
       id="clipPath420-83"><path
         d="M 591.86957,383.12061 H 908.19696 V 699.448 H 591.86957 Z"
         clip-rule="evenodd"
         id="path418-7" /></clipPath><clipPath
       clipPathUnits="userSpaceOnUse"
       id="clipPath420-2-6"><path
         d="M 591.86957,383.12061 H 908.19696 V 699.448 H 591.86957 Z"
         clip-rule="evenodd"
         id="path418-1" /></clipPath><clipPath
       clipPathUnits="userSpaceOnUse"
       id="clipPath2"><path
         d="M 9.12e-6,0 H 612.00001 V 792 H 9.12e-6 Z"
         transform="matrix(1,0,0,-1,-159.98001,250.97001)"
         clip-rule="evenodd"
         id="path2" /></clipPath><clipPath
       clipPathUnits="userSpaceOnUse"
       id="clipPath420-5"><path
         d="M 591.86957,383.12061 H 908.19696 V 699.448 H 591.86957 Z"
         clip-rule="evenodd"
         id="path418-6" /></clipPath><clipPath
       clipPathUnits="userSpaceOnUse"
       id="clipPath420-9"><path
         d="M 591.86957,383.12061 H 908.19696 V 699.448 H 591.86957 Z"
         clip-rule="evenodd"
         id="path418-5" /></clipPath><clipPath
       clipPathUnits="userSpaceOnUse"
       id="clipPath420-7-3"><path
         d="M 591.86957,383.12061 H 908.19696 V 699.448 H 591.86957 Z"
         clip-rule="evenodd"
         id="path418-3" /></clipPath><clipPath
       clipPathUnits="userSpaceOnUse"
       id="clipPath420-2-2"><path
         d="M 591.86957,383.12061 H 908.19696 V 699.448 H 591.86957 Z"
         clip-rule="evenodd"
         id="path418-1-9" /></clipPath><clipPath
       clipPathUnits="userSpaceOnUse"
       id="clipPath2-5"><path
         d="M 9.12e-6,0 H 612.00001 V 792 H 9.12e-6 Z"
         transform="matrix(1,0,0,-1,-159.98001,250.97001)"
         clip-rule="evenodd"
         id="path2-1" /></clipPath><clipPath
       clipPathUnits="userSpaceOnUse"
       id="clipPath420-5-0"><path
         d="M 591.86957,383.12061 H 908.19696 V 699.448 H 591.86957 Z"
         clip-rule="evenodd"
         id="path418-6-6" /></clipPath><clipPath
       clipPathUnits="userSpaceOnUse"
       id="clipPath420-9-1"><path
         d="M 591.86957,383.12061 H 908.19696 V 699.448 H 591.86957 Z"
         clip-rule="evenodd"
         id="path418-5-7" /></clipPath></defs><g
     inkscape:label="Layer 1"
     inkscape:groupmode="layer"
     id="layer1"
     transform="translate(-6.9272639,-79.57655)"><path
       id="path1"
       style="color:#000000;display:inline;fill:#000000;fill-opacity:1;fill-rule:evenodd;-inkscape-stroke:none"
       d="m 117.89259,158.95104 c -20.695722,0 -38.636559,11.93923 -47.329932,29.28761 C 67.773491,177.7689 60.510149,168.74723 50.280691,163.94195 35.555224,157.02467 18.02338,160.40569 6.9282974,172.30474 l 3.2251266,3.00757 c 9.801063,-10.51125 25.243895,-13.49042 38.251929,-7.37991 11.180543,5.25205 18.333359,16.17603 18.960601,28.19259 -1.552345,4.97453 -2.389519,10.26198 -2.389519,15.7422 0,29.18583 23.730315,52.91821 52.916155,52.91821 29.18583,0 52.91615,-23.73238 52.91615,-52.91821 0,-29.18584 -23.73032,-52.91615 -52.91615,-52.91615 z m 0,6.61561 c 25.61105,0 46.3026,20.68947 46.3026,46.30054 0,25.61105 -20.69155,46.3026 -46.3026,46.3026 -25.611063,0 -46.302605,-20.69155 -46.302605,-46.3026 0,-25.61107 20.691542,-46.30054 46.302605,-46.30054 z" /><g
       inkscape:label="Layer 1"
       id="layer1-8"
       transform="translate(-20.156156,-76.576037)"><path
         id="path13-3"
         style="color:#000000;fill:#000000;stroke-linecap:round;-inkscape-stroke:none"
         d="M 153.55891 201.66402 A 3.3072901 3.3072901 0 0 0 149.88781 204.561 A 3.3072901 3.3072901 0 0 0 152.78479 208.2321 L 173.14014 210.63092 C 163.16262 220.09852 156.13495 222.60186 150.73066 222.26948 C 144.99071 221.91646 140.08308 218.17172 134.75799 213.66587 C 129.4329 209.16003 123.81384 203.88603 116.10951 202.6681 C 114.18342 202.36361 112.18844 202.34667 110.1135 202.65983 L 110.1135 202.66034 C 103.88866 203.60038 96.951326 207.49795 89.042947 215.40634 L 86.703038 217.74418 L 91.380789 222.42193 L 93.718631 220.08202 C 103.50217 210.29847 109.93119 208.38739 115.07805 209.20103 C 120.22491 210.01468 125.06283 214.12548 130.48641 218.71466 C 135.91 223.30386 142.04392 228.36188 150.32448 228.87115 C 157.89552 229.33678 166.43282 225.81489 176.76266 216.28794 L 174.47288 235.71724 A 3.3072901 3.3072901 0 0 0 177.36934 239.38834 A 3.3072901 3.3072901 0 0 0 181.0425 236.49135 L 184.71463 205.33615 L 153.55891 201.66402 z " /></g></g></svg>
