<?xml version="1.0" encoding="UTF-8" standalone="no"?>
<!-- Created with Inkscape (http://www.inkscape.org/) -->

<svg
   width="1000"
   height="1000"
   viewBox="0 0 264.58333 264.58335"
   version="1.1"
   id="svg10039"
   inkscape:version="1.3.2 (091e20e, 2023-11-25, custom)"
   sodipodi:docname="AwithAcute.svg"
   xml:space="preserve"
   xmlns:inkscape="http://www.inkscape.org/namespaces/inkscape"
   xmlns:sodipodi="http://sodipodi.sourceforge.net/DTD/sodipodi-0.dtd"
   xmlns="http://www.w3.org/2000/svg"
   xmlns:svg="http://www.w3.org/2000/svg"><sodipodi:namedview
     id="namedview10041"
     pagecolor="#ffffff"
     bordercolor="#000000"
     borderopacity="0.25"
     inkscape:showpageshadow="2"
     inkscape:pageopacity="0"
     inkscape:pagecheckerboard="0"
     inkscape:deskcolor="#d1d1d1"
     inkscape:document-units="px"
     showgrid="false"
     inkscape:zoom="0.70710678"
     inkscape:cx="145.664"
     inkscape:cy="259.50819"
     inkscape:window-width="1920"
     inkscape:window-height="1017"
     inkscape:window-x="-8"
     inkscape:window-y="-8"
     inkscape:window-maximized="1"
     inkscape:current-layer="layer1"
     showguides="true"><sodipodi:guide
       position="0,52.916668"
       orientation="0,1"
       id="guide294"
       inkscape:locked="false"
       inkscape:label=""
       inkscape:color="rgb(0,134,229)" /><sodipodi:guide
       position="0,79.375002"
       orientation="0,1"
       id="guide3203"
       inkscape:locked="false"
       inkscape:label=""
       inkscape:color="rgb(0,134,229)" /><sodipodi:guide
       position="13.229167,264.58334"
       orientation="-1,0"
       id="guide3205"
       inkscape:locked="false"
       inkscape:label=""
       inkscape:color="rgb(0,134,229)" /><sodipodi:guide
       position="163.83551,132.29188"
       orientation="-1,0"
       id="guide3207"
       inkscape:label=""
       inkscape:locked="false"
       inkscape:color="rgb(0,134,229)" /><sodipodi:guide
       position="177.06468,132.29188"
       orientation="-1,0"
       id="guide310"
       inkscape:label=""
       inkscape:locked="false"
       inkscape:color="rgb(0,134,229)" /><sodipodi:guide
       position="0,172.71543"
       orientation="1,0"
       id="guide1"
       inkscape:locked="false" /><sodipodi:guide
       position="110.96533,185.20885"
       orientation="1,0"
       id="guide2"
       inkscape:locked="false" /><sodipodi:guide
       position="110.96533,191.82344"
       orientation="0,-1"
       id="guide3"
       inkscape:locked="false" /></sodipodi:namedview><defs
     id="defs10036"><clipPath
       clipPathUnits="userSpaceOnUse"
       id="clipPath420"><path
         d="M 591.86957,383.12061 H 908.19696 V 699.448 H 591.86957 Z"
         clip-rule="evenodd"
         id="path418" /></clipPath><clipPath
       clipPathUnits="userSpaceOnUse"
       id="clipPath420-8"><path
         d="M 591.86957,383.12061 H 908.19696 V 699.448 H 591.86957 Z"
         clip-rule="evenodd"
         id="path418-4" /></clipPath><clipPath
       clipPathUnits="userSpaceOnUse"
       id="clipPath420-7"><path
         d="M 591.86957,383.12061 H 908.19696 V 699.448 H 591.86957 Z"
         clip-rule="evenodd"
         id="path418-8" /></clipPath></defs><g
     inkscape:label="Layer 1"
     inkscape:groupmode="layer"
     id="layer1"
     transform="translate(-6.9272639,-79.57655)"><path
       id="path1"
       style="color:#000000;display:inline;fill:#000000;fill-opacity:1;fill-rule:evenodd;-inkscape-stroke:none"
       d="m 117.89259,158.95104 c -20.695722,0 -38.636559,11.93923 -47.329932,29.28761 C 67.773491,177.7689 60.510149,168.74723 50.280691,163.94195 35.555224,157.02467 18.02338,160.40569 6.9282974,172.30474 l 3.2251266,3.00757 c 9.801063,-10.51125 25.243895,-13.49042 38.251929,-7.37991 11.180543,5.25205 18.333359,16.17603 18.960601,28.19259 -1.552345,4.97453 -2.389519,10.26198 -2.389519,15.7422 0,29.18583 23.730315,52.91821 52.916155,52.91821 29.18583,0 52.91615,-23.73238 52.91615,-52.91821 0,-29.18584 -23.73032,-52.91615 -52.91615,-52.91615 z m 0,6.61561 c 25.61105,0 46.3026,20.68947 46.3026,46.30054 0,25.61105 -20.69155,46.3026 -46.3026,46.3026 -25.611063,0 -46.302605,-20.69155 -46.302605,-46.3026 0,-25.61107 20.691542,-46.30054 46.302605,-46.30054 z" /><g
       inkscape:label="Layer 1"
       id="layer1-3"
       transform="matrix(-1,0,0,1,226.77834,-76.575653)"><path
         style="color:#000000;fill:#000000;stroke-linecap:round;-inkscape-stroke:none"
         d="m 118.07422,182.41016 a 3.3072901,3.3072901 0 0 1 3.30664,3.30664 3.3072901,3.3072901 0 0 1 -3.30664,3.30664 H 93.318355 v 24.75781 a 3.3072901,3.3072901 0 0 1 -3.30664,3.30664 3.3072901,3.3072901 0 0 1 -3.30859,-3.30664 v -31.37109 z"
         id="path13" /><path
         style="color:#000000;fill:#000000;fill-rule:evenodd;-inkscape-stroke:none"
         d="m 93.519525,184.54687 39.687505,39.6875 -4.67773,4.67774 -39.687505,-39.6875 z"
         id="path14" /></g></g></svg>
