<?xml version="1.0" encoding="UTF-8" standalone="no"?>
<!-- Created with Inkscape (http://www.inkscape.org/) -->

<svg
   width="1000"
   height="1000"
   viewBox="0 0 264.58333 264.58333"
   version="1.1"
   id="svg36933"
   inkscape:version="1.3.2 (091e20e, 2023-11-25, custom)"
   sodipodi:docname="HwithCircumflex.svg"
   xml:space="preserve"
   xmlns:inkscape="http://www.inkscape.org/namespaces/inkscape"
   xmlns:sodipodi="http://sodipodi.sourceforge.net/DTD/sodipodi-0.dtd"
   xmlns="http://www.w3.org/2000/svg"
   xmlns:svg="http://www.w3.org/2000/svg"><sodipodi:namedview
     id="namedview36935"
     pagecolor="#ffffff"
     bordercolor="#000000"
     borderopacity="0.25"
     inkscape:showpageshadow="2"
     inkscape:pageopacity="0.0"
     inkscape:pagecheckerboard="0"
     inkscape:deskcolor="#d1d1d1"
     inkscape:document-units="px"
     showgrid="false"
     inkscape:zoom="0.5"
     inkscape:cx="-56"
     inkscape:cy="141"
     inkscape:window-width="1920"
     inkscape:window-height="1017"
     inkscape:window-x="-8"
     inkscape:window-y="-8"
     inkscape:window-maximized="1"
     inkscape:current-layer="layer1"
     showguides="true"><sodipodi:guide
       position="0,79.374999"
       orientation="0,1"
       id="guide240"
       inkscape:locked="false"
       inkscape:label=""
       inkscape:color="rgb(0,134,229)" /><sodipodi:guide
       position="0,52.916666"
       orientation="0,1"
       id="guide242"
       inkscape:label=""
       inkscape:locked="false"
       inkscape:color="rgb(0,134,229)" /><sodipodi:guide
       position="121.77219,125.95619"
       orientation="1,0"
       id="guide298"
       inkscape:locked="false" /><sodipodi:guide
       position="13.229166,264.58333"
       orientation="-1,0"
       id="guide1625"
       inkscape:locked="false"
       inkscape:label=""
       inkscape:color="rgb(0,134,229)" /><sodipodi:guide
       position="-6.778179,215.38723"
       orientation="1,0"
       id="guide1741"
       inkscape:locked="false" /><sodipodi:guide
       position="135.00136,125.95619"
       orientation="-1,0"
       id="guide1762"
       inkscape:label=""
       inkscape:locked="false"
       inkscape:color="rgb(0,134,229)" /><sodipodi:guide
       position="109.06872,70.759219"
       orientation="0,-1"
       id="guide47"
       inkscape:locked="false" /><sodipodi:guide
       position="79.423763,79.374496"
       orientation="1,0"
       id="guide48"
       inkscape:locked="false" /><sodipodi:guide
       position="79.423763,185.20831"
       orientation="0,-1"
       id="guide1"
       inkscape:locked="false" /><sodipodi:guide
       position="79.423763,191.82289"
       orientation="0,1"
       id="guide2"
       inkscape:label=""
       inkscape:locked="false"
       inkscape:color="rgb(0,134,229)" /></sodipodi:namedview><defs
     id="defs36930"><clipPath
       clipPathUnits="userSpaceOnUse"
       id="clipPath420"><path
         d="M 591.86957,383.12061 H 908.19696 V 699.448 H 591.86957 Z"
         clip-rule="evenodd"
         id="path418" /></clipPath><clipPath
       clipPathUnits="userSpaceOnUse"
       id="clipPath420-5"><path
         d="M 591.86957,383.12061 H 908.19696 V 699.448 H 591.86957 Z"
         clip-rule="evenodd"
         id="path418-2" /></clipPath><clipPath
       clipPathUnits="userSpaceOnUse"
       id="clipPath420-3"><path
         d="M 591.86957,383.12061 H 908.19696 V 699.448 H 591.86957 Z"
         clip-rule="evenodd"
         id="path418-7" /></clipPath></defs><g
     inkscape:label="Layer 1"
     inkscape:groupmode="layer"
     id="layer1"
     transform="translate(-26.726677,-186.02728)"><path
       id="path1"
       style="color:#000000;display:inline;fill:#000000;fill-opacity:1;fill-rule:evenodd;-inkscape-stroke:none"
       d="m 84.855428,194.29499 -7.227466,75.0626 -11.99875,-8.71729 -3.708301,-42.38656 -6.589262,0.57619 3.207039,36.65874 -27.923876,-20.28816 -3.888135,5.35109 32.575789,23.66781 2.241207,25.61704 c -5.276183,8.22855 -8.350395,17.99888 -8.350395,28.48198 0,29.18583 23.73031,52.9177 52.916152,52.9177 29.18583,0 52.9177,-23.73187 52.9177,-52.9177 0,-29.18583 -23.73187,-52.91615 -52.9177,-52.91615 -7.815437,0 -15.232321,1.71533 -21.914427,4.76767 l 7.244519,-75.24089 z m -18.462439,75.07604 8.55245,6.21357 c -2.680243,1.9596 -5.166869,4.16543 -7.432622,6.58306 z m 39.716441,2.64635 c 25.61105,0 46.3026,20.68999 46.3026,46.30105 0,25.61105 -20.69155,46.3026 -46.3026,46.3026 -25.611065,0 -46.301052,-20.69155 -46.301052,-46.3026 0,-25.61106 20.689987,-46.30105 46.301052,-46.30105 z" /><g
       id="path47"><path
         id="path51"
         style="color:#000000;fill:#ff0000;fill-rule:evenodd;stroke-linecap:round;-inkscape-stroke:none"
         d="M 140.31819 374.08608 L 121.87901 377.8595 A 1.984375 1.984375 0 0 0 120.33181 380.20096 A 1.984375 1.984375 0 0 0 122.67379 381.74815 L 134.21107 379.38653 C 126.91948 388.53417 116.78458 393.72364 106.15025 393.72468 C 95.516831 393.72558 85.382082 388.53902 78.089433 379.39429 L 89.625163 381.75176 A 1.984375 1.984375 0 0 0 91.966622 380.20509 A 1.984375 1.984375 0 0 0 90.419946 377.86311 L 71.978695 374.09383 L 68.208899 392.53302 A 1.984375 1.984375 0 0 0 69.754024 394.87499 A 1.984375 1.984375 0 0 0 72.095483 393.32832 L 74.548564 381.32905 C 82.543683 391.64724 94.008281 397.6946 106.15025 397.69343 C 118.29175 397.69251 129.75564 391.64332 137.74936 381.3244 L 140.20502 393.32212 A 1.984375 1.984375 0 0 0 142.547 394.86931 A 1.984375 1.984375 0 0 0 144.0916 392.52733 L 140.31819 374.08608 z " /><g
         id="g49" /></g><g
       id="path4"
       transform="translate(-22.579053,25.39905)"><path
         style="color:#000000;fill:#000000;fill-rule:evenodd;-inkscape-stroke:none"
         d="m 128.73047,184.54687 -42.027345,42.02735 4.677734,4.67773 37.349611,-37.34961 37.34765,37.34961 4.67774,-4.67773 z"
         id="path7" /><g
         id="g6"><path
           style="color:#000000;fill:#000000;stroke-linecap:round;-inkscape-stroke:none"
           d="m 169.58594,198.71094 a 3.3072901,3.3072901 0 0 0 -3.30664,3.30664 v 24.75781 h -24.75586 a 3.3072901,3.3072901 0 0 0 -3.30664,3.30664 3.3072901,3.3072901 0 0 0 3.30664,3.30664 h 31.37109 v -31.37109 a 3.3072901,3.3072901 0 0 0 -3.30859,-3.30664 z"
           id="path6" /></g></g></g></svg>
