<?xml version="1.0" encoding="UTF-8" standalone="no"?>
<!-- Created with Inkscape (http://www.inkscape.org/) -->

<svg
   width="1000"
   height="1000"
   viewBox="0 0 264.58333 264.58333"
   version="1.1"
   id="svg39445"
   inkscape:version="1.3.2 (091e20e, 2023-11-25, custom)"
   sodipodi:docname="IwithAcute.svg"
   xml:space="preserve"
   xmlns:inkscape="http://www.inkscape.org/namespaces/inkscape"
   xmlns:sodipodi="http://sodipodi.sourceforge.net/DTD/sodipodi-0.dtd"
   xmlns="http://www.w3.org/2000/svg"
   xmlns:svg="http://www.w3.org/2000/svg"><sodipodi:namedview
     id="namedview39447"
     pagecolor="#ffffff"
     bordercolor="#000000"
     borderopacity="0.25"
     inkscape:showpageshadow="2"
     inkscape:pageopacity="0.0"
     inkscape:pagecheckerboard="0"
     inkscape:deskcolor="#d1d1d1"
     inkscape:document-units="px"
     showgrid="false"
     inkscape:zoom="1.4142136"
     inkscape:cx="212.83914"
     inkscape:cy="259.15464"
     inkscape:window-width="1920"
     inkscape:window-height="1017"
     inkscape:window-x="-8"
     inkscape:window-y="-8"
     inkscape:window-maximized="1"
     inkscape:current-layer="layer1"
     showguides="true"><sodipodi:guide
       position="0,79.374999"
       orientation="0,1"
       id="guide4809"
       inkscape:locked="false"
       inkscape:label=""
       inkscape:color="rgb(0,134,229)" /><sodipodi:guide
       position="0,52.916666"
       orientation="0,1"
       id="guide4811"
       inkscape:locked="false"
       inkscape:label=""
       inkscape:color="rgb(0,134,229)" /><sodipodi:guide
       position="13.229166,264.58333"
       orientation="-1,0"
       id="guide4813"
       inkscape:locked="false"
       inkscape:label=""
       inkscape:color="rgb(0,134,229)" /><sodipodi:guide
       position="118.9853,135.16525"
       orientation="1,0"
       id="guide2072"
       inkscape:locked="false" /><sodipodi:guide
       position="132.29166,135.16525"
       orientation="-1,0"
       id="guide2086"
       inkscape:label=""
       inkscape:locked="false"
       inkscape:color="rgb(0,134,229)" /><sodipodi:guide
       position="66.067801,185.20781"
       orientation="1,0"
       id="guide1"
       inkscape:locked="false" /><sodipodi:guide
       position="66.067801,185.20781"
       orientation="0,-1"
       id="guide2"
       inkscape:locked="false" /><sodipodi:guide
       position="66.067801,191.82291"
       orientation="0,1"
       id="guide3"
       inkscape:label=""
       inkscape:locked="false"
       inkscape:color="rgb(0,134,229)" /></sodipodi:namedview><defs
     id="defs39442"><clipPath
       clipPathUnits="userSpaceOnUse"
       id="clipPath420"><path
         d="M 591.86957,383.12061 H 908.19696 V 699.448 H 591.86957 Z"
         clip-rule="evenodd"
         id="path418" /></clipPath><clipPath
       clipPathUnits="userSpaceOnUse"
       id="clipPath420-7"><path
         d="M 591.86957,383.12061 H 908.19696 V 699.448 H 591.86957 Z"
         clip-rule="evenodd"
         id="path418-2" /></clipPath></defs><g
     inkscape:label="Layer 1"
     inkscape:groupmode="layer"
     id="layer1"
     transform="translate(-26.621573,-110.98793)"><path
       id="path1"
       style="color:#000000;fill:#000000;fill-opacity:1;fill-rule:evenodd;-inkscape-stroke:none"
       d="M 143.66817 169.45775 L 137.05617 169.63086 L 138.28246 216.45694 C 129.06991 200.85444 112.08934 190.36345 92.689374 190.36345 C 63.503539 190.36345 39.773225 214.09324 39.773225 243.27908 C 39.773225 272.46491 63.503539 296.19523 92.689374 296.19523 C 121.80607 296.19523 145.49034 272.57606 145.60242 243.48527 L 145.60707 243.48527 L 145.60449 243.3938 C 145.60457 243.35535 145.60759 243.31755 145.60759 243.27908 C 145.60759 242.31348 145.57775 241.35525 145.52646 240.40225 L 143.66817 169.45775 z M 92.689374 196.97648 C 117.43228 196.97648 137.57931 216.29051 138.91704 240.69371 L 138.98836 243.42222 C 138.91099 268.96681 118.25243 289.58219 92.689374 289.58219 C 67.078317 289.58219 46.388842 268.89013 46.388842 243.27908 C 46.388842 217.66801 67.078317 196.97648 92.689374 196.97648 z " /><g
       inkscape:label="Layer 1"
       id="layer1-9"
       transform="translate(-17.26467,-45.16376)"><path
         style="color:#000000;fill:#000000;stroke-linecap:round;-inkscape-stroke:none"
         d="m 101.83594,182.41016 a 3.3072901,3.3072901 0 0 0 -3.306643,3.30664 3.3072901,3.3072901 0 0 0 3.306643,3.30664 h 24.75586 v 24.75781 a 3.3072901,3.3072901 0 0 0 3.30664,3.30664 3.3072901,3.3072901 0 0 0 3.30859,-3.30664 v -31.37109 z"
         id="path13" /><path
         style="color:#000000;fill:#000000;fill-rule:evenodd;-inkscape-stroke:none"
         d="m 126.39063,184.54687 -39.687505,39.6875 4.677734,4.67774 39.687501,-39.6875 z"
         id="path14" /></g></g></svg>
