<?xml version="1.0" encoding="UTF-8" standalone="no"?>
<!-- Created with Inkscape (http://www.inkscape.org/) -->

<svg
   width="1000"
   height="1000"
   viewBox="0 0 264.58333 264.58333"
   version="1.1"
   id="svg45588"
   inkscape:version="1.3.2 (091e20e, 2023-11-25, custom)"
   sodipodi:docname="NwithTilde.svg"
   xml:space="preserve"
   xmlns:inkscape="http://www.inkscape.org/namespaces/inkscape"
   xmlns:sodipodi="http://sodipodi.sourceforge.net/DTD/sodipodi-0.dtd"
   xmlns="http://www.w3.org/2000/svg"
   xmlns:svg="http://www.w3.org/2000/svg"><sodipodi:namedview
     id="namedview45590"
     pagecolor="#ffffff"
     bordercolor="#000000"
     borderopacity="0.25"
     inkscape:showpageshadow="2"
     inkscape:pageopacity="0.0"
     inkscape:pagecheckerboard="0"
     inkscape:deskcolor="#d1d1d1"
     inkscape:document-units="px"
     showgrid="false"
     inkscape:zoom="0.74564396"
     inkscape:cx="245.42544"
     inkscape:cy="10.05842"
     inkscape:window-width="1920"
     inkscape:window-height="1017"
     inkscape:window-x="-8"
     inkscape:window-y="-8"
     inkscape:window-maximized="1"
     inkscape:current-layer="layer1"
     showguides="true"><sodipodi:guide
       position="0,52.916666"
       orientation="0,1"
       id="guide3042"
       inkscape:locked="false"
       inkscape:label=""
       inkscape:color="rgb(0,134,229)" /><sodipodi:guide
       position="0,79.374999"
       orientation="0,1"
       id="guide3053"
       inkscape:locked="false"
       inkscape:label=""
       inkscape:color="rgb(0,134,229)" /><sodipodi:guide
       position="13.229166,264.58333"
       orientation="-1,0"
       id="guide3055"
       inkscape:locked="false"
       inkscape:label=""
       inkscape:color="rgb(0,134,229)" /><sodipodi:guide
       position="119.0625,132.29153"
       orientation="-1,0"
       id="guide3059"
       inkscape:label=""
       inkscape:locked="false"
       inkscape:color="rgb(0,134,229)" /><sodipodi:guide
       position="132.29166,132.29153"
       orientation="-1,0"
       id="guide3102"
       inkscape:label=""
       inkscape:locked="false"
       inkscape:color="rgb(0,134,229)" /><sodipodi:guide
       position="66.186145,185.20781"
       orientation="0,-1"
       id="guide1"
       inkscape:locked="false" /><sodipodi:guide
       position="66.186145,185.20781"
       orientation="1,0"
       id="guide2"
       inkscape:locked="false" /><sodipodi:guide
       position="66.186145,191.82239"
       orientation="0,1"
       id="guide3"
       inkscape:label=""
       inkscape:locked="false"
       inkscape:color="rgb(0,134,229)" /></sodipodi:namedview><defs
     id="defs45585"><clipPath
       clipPathUnits="userSpaceOnUse"
       id="clipPath420"><path
         d="M 591.86957,383.12061 H 908.19696 V 699.448 H 591.86957 Z"
         clip-rule="evenodd"
         id="path418" /></clipPath><clipPath
       clipPathUnits="userSpaceOnUse"
       id="clipPath420-3"><path
         d="M 591.86957,383.12061 H 908.19696 V 699.448 H 591.86957 Z"
         clip-rule="evenodd"
         id="path418-9" /></clipPath><clipPath
       clipPathUnits="userSpaceOnUse"
       id="clipPath420-2"><path
         d="M 591.86957,383.12061 H 908.19696 V 699.448 H 591.86957 Z"
         clip-rule="evenodd"
         id="path418-1" /></clipPath><clipPath
       clipPathUnits="userSpaceOnUse"
       id="clipPath2"><path
         d="M 9.12e-6,0 H 612.00001 V 792 H 9.12e-6 Z"
         transform="matrix(1,0,0,-1,-159.98001,250.97001)"
         clip-rule="evenodd"
         id="path2" /></clipPath><clipPath
       clipPathUnits="userSpaceOnUse"
       id="clipPath420-5"><path
         d="M 591.86957,383.12061 H 908.19696 V 699.448 H 591.86957 Z"
         clip-rule="evenodd"
         id="path418-6" /></clipPath><clipPath
       clipPathUnits="userSpaceOnUse"
       id="clipPath420-9"><path
         d="M 591.86957,383.12061 H 908.19696 V 699.448 H 591.86957 Z"
         clip-rule="evenodd"
         id="path418-5" /></clipPath><clipPath
       clipPathUnits="userSpaceOnUse"
       id="clipPath420-7"><path
         d="M 591.86957,383.12061 H 908.19696 V 699.448 H 591.86957 Z"
         clip-rule="evenodd"
         id="path418-3" /></clipPath><clipPath
       clipPathUnits="userSpaceOnUse"
       id="clipPath420-2-2"><path
         d="M 591.86957,383.12061 H 908.19696 V 699.448 H 591.86957 Z"
         clip-rule="evenodd"
         id="path418-1-9" /></clipPath><clipPath
       clipPathUnits="userSpaceOnUse"
       id="clipPath2-5"><path
         d="M 9.12e-6,0 H 612.00001 V 792 H 9.12e-6 Z"
         transform="matrix(1,0,0,-1,-159.98001,250.97001)"
         clip-rule="evenodd"
         id="path2-1" /></clipPath><clipPath
       clipPathUnits="userSpaceOnUse"
       id="clipPath420-5-0"><path
         d="M 591.86957,383.12061 H 908.19696 V 699.448 H 591.86957 Z"
         clip-rule="evenodd"
         id="path418-6-6" /></clipPath><clipPath
       clipPathUnits="userSpaceOnUse"
       id="clipPath420-9-1"><path
         d="M 591.86957,383.12061 H 908.19696 V 699.448 H 591.86957 Z"
         clip-rule="evenodd"
         id="path418-5-7" /></clipPath></defs><g
     inkscape:label="Layer 1"
     inkscape:groupmode="layer"
     id="layer1"
     transform="translate(-82.698455,-140.86843)"><path
       id="path1"
       style="color:#000000;fill:#000000;fill-opacity:1;fill-rule:evenodd;-inkscape-stroke:none"
       d="M 148.8846 220.24395 C 119.69875 220.24395 95.968963 243.97425 95.968963 273.16009 C 95.968963 291.45459 105.29446 307.60288 119.44143 317.10935 L 119.44143 367.68352 L 126.05601 367.68352 L 126.05601 320.89465 C 132.56363 324.01829 139.80831 325.83463 147.44954 326.03955 L 147.44954 376.18688 L 154.06412 376.18688 L 154.06412 325.81941 C 180.82652 323.20913 201.80281 300.59818 201.80281 273.16009 C 201.80281 243.97425 178.07043 220.24395 148.8846 220.24395 z M 148.8846 226.8575 C 174.49565 226.8575 195.18771 247.54903 195.18771 273.16009 C 195.18771 298.77115 174.49565 319.46269 148.8846 319.46269 C 123.27353 319.46269 102.58406 298.77115 102.58406 273.16009 C 102.58406 247.54903 123.27353 226.8575 148.8846 226.8575 z " /><g
       inkscape:label="Layer 1"
       id="layer1-6"
       transform="translate(13.175491,-15.282138)"><path
         id="path13-3"
         style="color:#000000;fill:#000000;stroke-linecap:round;-inkscape-stroke:none"
         d="M 153.55918 201.66407 A 3.3072901 3.3072901 0 0 0 149.88808 204.56105 A 3.3072901 3.3072901 0 0 0 152.78506 208.23163 L 173.14041 210.63096 C 163.16289 220.09857 156.1347 222.60191 150.73041 222.26953 C 144.99047 221.91651 140.08284 218.17177 134.75774 213.66592 C 129.43266 209.16007 123.8136 203.88608 116.10927 202.66814 C 114.18318 202.36365 112.1882 202.34671 110.11325 202.65987 C 103.88842 203.59991 96.951598 207.498 89.043219 215.40638 L 86.70331 217.74422 L 91.381061 222.42197 L 93.718903 220.08207 C 103.50244 210.29852 109.93146 208.38744 115.07832 209.20108 C 120.22518 210.01473 125.06258 214.12552 130.48617 218.71471 C 135.90975 223.3039 142.04367 228.36192 150.32423 228.87119 C 157.89525 229.33682 166.43262 225.81486 176.76241 216.28798 L 174.47263 235.71729 A 3.3072901 3.3072901 0 0 0 177.36961 239.38838 A 3.3072901 3.3072901 0 0 0 181.04225 236.4914 L 184.71438 205.3362 L 153.55918 201.66407 z " /></g></g></svg>
