<?xml version="1.0" encoding="UTF-8" standalone="no"?>
<!-- Created with Inkscape (http://www.inkscape.org/) -->

<svg
   width="1000"
   height="1000"
   viewBox="0 0 264.58334 264.58333"
   version="1.1"
   id="svg46614"
   inkscape:version="1.3.2 (091e20e, 2023-11-25, custom)"
   sodipodi:docname="R.svg"
   xml:space="preserve"
   xmlns:inkscape="http://www.inkscape.org/namespaces/inkscape"
   xmlns:sodipodi="http://sodipodi.sourceforge.net/DTD/sodipodi-0.dtd"
   xmlns="http://www.w3.org/2000/svg"
   xmlns:svg="http://www.w3.org/2000/svg"><sodipodi:namedview
     id="namedview46616"
     pagecolor="#ffffff"
     bordercolor="#000000"
     borderopacity="0.25"
     inkscape:showpageshadow="2"
     inkscape:pageopacity="0.0"
     inkscape:pagecheckerboard="0"
     inkscape:deskcolor="#d1d1d1"
     inkscape:document-units="px"
     showgrid="false"
     inkscape:zoom="1.0544998"
     inkscape:cx="173.542"
     inkscape:cy="495.49559"
     inkscape:window-width="1920"
     inkscape:window-height="1017"
     inkscape:window-x="-8"
     inkscape:window-y="-8"
     inkscape:window-maximized="1"
     inkscape:current-layer="layer1"
     showguides="true"><sodipodi:guide
       position="0,52.916667"
       orientation="0,1"
       id="guide951"
       inkscape:locked="false"
       inkscape:label=""
       inkscape:color="rgb(0,134,229)" /><sodipodi:guide
       position="0,79.375"
       orientation="0,1"
       id="guide953"
       inkscape:label=""
       inkscape:locked="false"
       inkscape:color="rgb(0,134,229)" /><sodipodi:guide
       position="119.12173,132.30244"
       orientation="1,0"
       id="guide977"
       inkscape:locked="false" /><sodipodi:guide
       position="132.3509,132.30244"
       orientation="-1,0"
       id="guide356"
       inkscape:label=""
       inkscape:locked="false"
       inkscape:color="rgb(0,134,229)" /></sodipodi:namedview><defs
     id="defs46611"><clipPath
       clipPathUnits="userSpaceOnUse"
       id="clipPath420"><path
         d="M 591.86957,383.12061 H 908.19696 V 699.448 H 591.86957 Z"
         clip-rule="evenodd"
         id="path418" /></clipPath></defs><g
     inkscape:label="Layer 1"
     inkscape:groupmode="layer"
     id="layer1"
     transform="translate(-86.970915,-137.29295)"><path
       id="path1"
       style="color:#000000;fill:#0b0b0b;fill-opacity:1;fill-rule:evenodd;-inkscape-stroke:none"
       d="m 103.06451,158.22087 -5.728853,3.30729 26.759603,46.34808 -3.95014,20.32176 c -12.12745,9.70409 -19.91455,24.61588 -19.91455,41.32564 0,29.18583 23.73032,52.91563 52.91615,52.91563 29.18584,0 52.91563,-23.7298 52.91563,-52.91563 0,-29.18584 -23.72979,-52.91822 -52.91563,-52.91822 -5.24646,0 -10.31214,0.7785 -15.09985,2.20607 l -6.98666,-12.10107 9.12606,-46.94959 -6.49314,-1.26194 -7.67395,39.47976 z m 26.07179,58.38662 2.61586,4.53047 c -1.3151,0.58362 -2.60804,1.20777 -3.86436,1.89291 z m 24.01042,6.61303 c 25.61107,0 46.3026,20.69205 46.3026,46.30312 0,25.61105 -20.69153,46.30053 -46.3026,46.30053 -25.61105,0 -46.30312,-20.68948 -46.30312,-46.30053 0,-27.64138 22.7844,-46.30312 46.30312,-46.30312 z"
       sodipodi:nodetypes="ccccssssccccccccccsssss" /></g></svg>
