<?xml version="1.0" encoding="UTF-8" standalone="no"?>
<!-- Created with Inkscape (http://www.inkscape.org/) -->

<svg
   width="1000"
   height="1000"
   viewBox="0 0 264.58334 264.58333"
   version="1.1"
   id="svg24777"
   inkscape:version="1.3.2 (091e20e, 2023-11-25, custom)"
   sodipodi:docname="SmallF.svg"
   xml:space="preserve"
   xmlns:inkscape="http://www.inkscape.org/namespaces/inkscape"
   xmlns:sodipodi="http://sodipodi.sourceforge.net/DTD/sodipodi-0.dtd"
   xmlns="http://www.w3.org/2000/svg"
   xmlns:svg="http://www.w3.org/2000/svg"><sodipodi:namedview
     id="namedview24779"
     pagecolor="#ffffff"
     bordercolor="#000000"
     borderopacity="0.25"
     inkscape:showpageshadow="2"
     inkscape:pageopacity="0.0"
     inkscape:pagecheckerboard="0"
     inkscape:deskcolor="#d1d1d1"
     inkscape:document-units="px"
     showgrid="false"
     inkscape:zoom="0.5"
     inkscape:cx="554"
     inkscape:cy="191"
     inkscape:window-width="1920"
     inkscape:window-height="1017"
     inkscape:window-x="-8"
     inkscape:window-y="-8"
     inkscape:window-maximized="1"
     inkscape:current-layer="layer1"
     showguides="true"><sodipodi:guide
       position="0,79.375"
       orientation="0,1"
       id="guide4712"
       inkscape:locked="false"
       inkscape:label=""
       inkscape:color="rgb(0,134,229)" /><sodipodi:guide
       position="0,52.916667"
       orientation="0,1"
       id="guide4714"
       inkscape:label=""
       inkscape:locked="false"
       inkscape:color="rgb(0,134,229)" /><sodipodi:guide
       position="178.79938,132.29167"
       orientation="1,0"
       id="guide4720"
       inkscape:locked="false" /><sodipodi:guide
       position="13.229167,264.58333"
       orientation="-1,0"
       id="guide5071"
       inkscape:locked="false"
       inkscape:label=""
       inkscape:color="rgb(0,134,229)" /><sodipodi:guide
       position="192.02855,132.29167"
       orientation="-1,0"
       id="guide1298"
       inkscape:label=""
       inkscape:locked="false"
       inkscape:color="rgb(0,134,229)" /><sodipodi:guide
       position="19.489208,264.58333"
       orientation="-1,0"
       id="guide4014"
       inkscape:label=""
       inkscape:locked="false"
       inkscape:color="rgb(0,134,229)" /><sodipodi:guide
       position="78.832809,113.71035"
       orientation="1,0"
       id="guide4070"
       inkscape:locked="false" /><sodipodi:guide
       position="69.569937,126.92584"
       orientation="0.54463904,0.83867057"
       id="guide1"
       inkscape:locked="false"
       inkscape:label=""
       inkscape:color="rgb(0,134,229)" /></sodipodi:namedview><defs
     id="defs24774"><clipPath
       clipPathUnits="userSpaceOnUse"
       id="clipPath420"><path
         d="M 591.86957,383.12061 H 908.19696 V 699.448 H 591.86957 Z"
         clip-rule="evenodd"
         id="path418" /></clipPath></defs><g
     inkscape:label="Layer 1"
     inkscape:groupmode="layer"
     id="layer1"
     transform="translate(-17.986758,-127.46743)"><path
       id="path1"
       style="color:#000000;fill:#000000;fill-opacity:1;fill-rule:evenodd;-inkscape-stroke:none"
       d="M 164.54887 159.56831 L 152.15221 207.50182 C 149.43934 207.07153 146.66048 206.84191 143.82817 206.84191 C 137.89159 206.84191 132.18742 207.83798 126.85608 209.64794 L 133.73577 160.69796 L 127.18578 159.7776 L 119.75419 212.65655 C 107.79972 218.78996 98.473828 229.33238 93.939745 242.13382 L 60.715416 247.69368 L 35.922097 231.59286 L 28.716852 242.68779 L 41.402383 250.92553 L 17.986758 254.84415 L 19.074547 261.34401 L 49.583279 256.23838 L 99.547155 288.6855 C 109.00563 303.11894 125.31398 312.67576 143.82817 312.67576 C 173.01401 312.67576 196.74587 288.94545 196.74587 259.75961 C 196.74587 247.45574 192.5169 236.13066 185.45096 227.13473 L 204.7981 178.01887 L 198.64395 175.59473 L 180.49932 221.65755 C 174.41257 215.79735 166.93368 211.38161 158.60815 208.95651 L 170.95262 161.22403 L 164.54887 159.56831 z M 143.82817 213.45701 C 169.43924 213.45701 190.13077 234.14855 190.13077 259.75961 C 190.13077 285.37067 169.43924 306.06066 143.82817 306.06066 C 118.21712 306.06066 97.527123 285.37067 97.527123 259.75961 C 97.527123 234.14855 118.21712 213.45701 143.82817 213.45701 z M 91.982242 249.14321 C 91.281211 252.57402 90.912023 256.12425 90.912023 259.75961 C 90.912023 262.45499 91.117462 265.103 91.507852 267.69091 L 68.896312 253.00654 L 91.982242 249.14321 z " /></g></svg>
