<?xml version="1.0" encoding="UTF-8" standalone="no"?>
<!-- Created with Inkscape (http://www.inkscape.org/) -->

<svg
   width="1000"
   height="1000"
   viewBox="0 0 264.58335 264.58336"
   version="1.1"
   id="svg48671"
   inkscape:version="1.3.2 (091e20e, 2023-11-25, custom)"
   sodipodi:docname="SwithCircumflex.svg"
   xml:space="preserve"
   xmlns:inkscape="http://www.inkscape.org/namespaces/inkscape"
   xmlns:sodipodi="http://sodipodi.sourceforge.net/DTD/sodipodi-0.dtd"
   xmlns="http://www.w3.org/2000/svg"
   xmlns:svg="http://www.w3.org/2000/svg"><sodipodi:namedview
     id="namedview48673"
     pagecolor="#ffffff"
     bordercolor="#000000"
     borderopacity="0.25"
     inkscape:showpageshadow="2"
     inkscape:pageopacity="0.0"
     inkscape:pagecheckerboard="0"
     inkscape:deskcolor="#d1d1d1"
     inkscape:document-units="px"
     showgrid="false"
     inkscape:zoom="1.4912879"
     inkscape:cx="195.13335"
     inkscape:cy="262.52476"
     inkscape:window-width="1920"
     inkscape:window-height="1017"
     inkscape:window-x="-8"
     inkscape:window-y="-8"
     inkscape:window-maximized="1"
     inkscape:current-layer="layer1"
     showguides="true"><sodipodi:guide
       position="0,79.375007"
       orientation="0,1"
       id="guide1122"
       inkscape:locked="false"
       inkscape:label=""
       inkscape:color="rgb(0,134,229)" /><sodipodi:guide
       position="0,52.916671"
       orientation="0,1"
       id="guide1124"
       inkscape:label=""
       inkscape:locked="false"
       inkscape:color="rgb(0,134,229)" /><sodipodi:guide
       position="13.229168,264.58336"
       orientation="-1,0"
       id="guide1126"
       inkscape:locked="false"
       inkscape:label=""
       inkscape:color="rgb(0,134,229)" /><sodipodi:guide
       position="119.06251,132.29168"
       orientation="1,0"
       id="guide1128"
       inkscape:locked="false" /><sodipodi:guide
       position="132.29168,132.29168"
       orientation="-1,0"
       id="guide1453"
       inkscape:label=""
       inkscape:locked="false"
       inkscape:color="rgb(0,134,229)" /><sodipodi:guide
       position="66.186147,185.20835"
       orientation="1,0"
       id="guide1"
       inkscape:locked="false" /><sodipodi:guide
       position="66.186146,185.20835"
       orientation="0,-1"
       id="guide2"
       inkscape:locked="false" /><sodipodi:guide
       position="66.186146,191.82294"
       orientation="0,1"
       id="guide3"
       inkscape:label=""
       inkscape:locked="false"
       inkscape:color="rgb(0,134,229)" /></sodipodi:namedview><defs
     id="defs48668"><inkscape:path-effect
       effect="bspline"
       id="path-effect9613"
       is_visible="true"
       lpeversion="1"
       weight="33.333333"
       steps="2"
       helper_size="0"
       apply_no_weight="true"
       apply_with_weight="true"
       only_selected="false" /><clipPath
       clipPathUnits="userSpaceOnUse"
       id="clipPath1768"><path
         d="m 3214.0178,557.229 h 378.125 v 378.125 h -378.125 z"
         clip-rule="evenodd"
         id="path1766" /></clipPath><clipPath
       clipPathUnits="userSpaceOnUse"
       id="clipPath1780"><path
         d="M 0,0 H 6000 V 3406.25 H 0 Z"
         id="path1778" /></clipPath><clipPath
       clipPathUnits="userSpaceOnUse"
       id="clipPath1786"><path
         d="M 0,0 H 6000 V 3375 H 0 Z"
         id="path1784" /></clipPath><clipPath
       clipPathUnits="userSpaceOnUse"
       id="clipPath1792"><path
         d="M 0,0 H 6000 V 3375 H 0 Z"
         id="path1790" /></clipPath><clipPath
       clipPathUnits="userSpaceOnUse"
       id="clipPath1798"><path
         d="m 3214.021,670.82422 222.1558,-35.66199 18.8217,117.2489 -222.156,35.66199 z"
         id="path1796" /></clipPath><clipPath
       clipPathUnits="userSpaceOnUse"
       id="clipPath1804"><path
         d="m 3214.021,670.82422 225.2415,-36.15729 18.8215,117.2489 -225.2415,36.15729 z"
         id="path1802" /></clipPath><clipPath
       clipPathUnits="userSpaceOnUse"
       id="clipPath1810"><path
         d="m 3214.021,670.82422 336.3193,-53.98828 18.8216,117.2489 -336.3194,53.98828 z"
         id="path1808" /></clipPath><clipPath
       clipPathUnits="userSpaceOnUse"
       id="clipPath420"><path
         d="M 591.86957,383.12061 H 908.19696 V 699.448 H 591.86957 Z"
         clip-rule="evenodd"
         id="path418" /></clipPath><clipPath
       clipPathUnits="userSpaceOnUse"
       id="clipPath420-2"><path
         d="M 591.86957,383.12061 H 908.19696 V 699.448 H 591.86957 Z"
         clip-rule="evenodd"
         id="path418-9" /></clipPath><clipPath
       clipPathUnits="userSpaceOnUse"
       id="clipPath420-9"><path
         d="M 591.86957,383.12061 H 908.19696 V 699.448 H 591.86957 Z"
         clip-rule="evenodd"
         id="path418-1" /></clipPath></defs><g
     inkscape:label="Layer 1"
     inkscape:groupmode="layer"
     id="layer1"
     transform="translate(-40.766902,-140.47658)"
     style="display:inline"><path
       id="path1"
       style="color:#000000;fill:#000000;fill-opacity:1;fill-rule:evenodd;stroke-width:1.00012508;stroke-dasharray:none"
       d="M 106.95305 219.85159 C 77.767207 219.85159 54.036894 243.5819 54.036894 272.76774 C 54.036894 301.95357 77.767207 325.68545 106.95305 325.68545 C 136.13888 325.68545 159.87127 301.95357 159.87127 272.76774 C 159.87127 243.5819 136.13888 219.85159 106.95305 219.85159 z M 106.95305 226.46669 C 132.5641 226.46669 153.25565 247.15668 153.25565 272.76774 C 153.25565 298.3788 132.5641 319.07034 106.95305 319.07034 C 81.341983 319.07034 60.652512 298.3788 60.652512 272.76774 C 60.652512 270.96541 60.765207 269.19057 60.964637 267.44248 C 74.250511 274.72569 84.164891 278.20499 93.140454 278.9746 C 103.27022 279.84318 111.84454 277.18078 121.9356 273.39044 L 119.60912 267.19702 C 109.7164 270.91285 102.38983 273.12728 93.706827 272.38275 C 85.645244 271.69151 76.089708 268.36393 62.271534 260.60362 C 67.601771 240.91423 85.554544 226.46669 106.95305 226.46669 z " /><g
       id="path4"
       transform="translate(-21.776443,-18.014955)"><path
         style="color:#000000;fill:#000000;fill-rule:evenodd;-inkscape-stroke:none"
         d="m 128.73047,184.54687 -42.027345,42.02735 4.677734,4.67773 37.349611,-37.34961 37.34765,37.34961 4.67774,-4.67773 z"
         id="path7" /><g
         id="g6"><path
           style="color:#000000;fill:#000000;stroke-linecap:round;-inkscape-stroke:none"
           d="m 169.58594,198.71094 a 3.3072901,3.3072901 0 0 0 -3.30664,3.30664 v 24.75781 h -24.75586 a 3.3072901,3.3072901 0 0 0 -3.30664,3.30664 3.3072901,3.3072901 0 0 0 3.30664,3.30664 h 31.37109 v -31.37109 a 3.3072901,3.3072901 0 0 0 -3.30859,-3.30664 z"
           id="path6" /></g></g></g></svg>
