<?xml version="1.0" encoding="UTF-8" standalone="no"?>
<!-- Created with Inkscape (http://www.inkscape.org/) -->

<svg
   width="1000"
   height="1000"
   viewBox="0 0 264.58333 264.58334"
   version="1.1"
   id="svg50638"
   inkscape:version="1.3.2 (091e20e, 2023-11-25, custom)"
   sodipodi:docname="UwithGrave.svg"
   xml:space="preserve"
   xmlns:inkscape="http://www.inkscape.org/namespaces/inkscape"
   xmlns:sodipodi="http://sodipodi.sourceforge.net/DTD/sodipodi-0.dtd"
   xmlns="http://www.w3.org/2000/svg"
   xmlns:svg="http://www.w3.org/2000/svg"><sodipodi:namedview
     id="namedview50640"
     pagecolor="#ffffff"
     bordercolor="#000000"
     borderopacity="0.25"
     inkscape:showpageshadow="2"
     inkscape:pageopacity="0.0"
     inkscape:pagecheckerboard="0"
     inkscape:deskcolor="#d1d1d1"
     inkscape:document-units="px"
     showgrid="false"
     inkscape:zoom="0.5272499"
     inkscape:cx="220.00952"
     inkscape:cy="164.05883"
     inkscape:window-width="1920"
     inkscape:window-height="1017"
     inkscape:window-x="-8"
     inkscape:window-y="-8"
     inkscape:window-maximized="1"
     inkscape:current-layer="layer1"
     showguides="true"><sodipodi:guide
       position="0,52.916667"
       orientation="0,1"
       id="guide2040"
       inkscape:locked="false"
       inkscape:label=""
       inkscape:color="rgb(0,134,229)" /><sodipodi:guide
       position="0,79.375"
       orientation="0,1"
       id="guide2042"
       inkscape:label=""
       inkscape:locked="false"
       inkscape:color="rgb(0,134,229)" /><sodipodi:guide
       position="13.229167,264.58333"
       orientation="-1,0"
       id="guide2044"
       inkscape:locked="false"
       inkscape:label=""
       inkscape:color="rgb(0,134,229)" /><sodipodi:guide
       position="132.29167,132.29221"
       orientation="-1,0"
       id="guide2046"
       inkscape:locked="false"
       inkscape:label=""
       inkscape:color="rgb(0,134,229)" /><sodipodi:guide
       position="119.0625,132.29222"
       orientation="1,0"
       id="guide1764"
       inkscape:locked="false" /><sodipodi:guide
       position="66.187173,79.375517"
       orientation="1,0"
       id="guide1"
       inkscape:locked="false" /><sodipodi:guide
       position="73.104577,241.23334"
       orientation="0,1"
       id="guide2"
       inkscape:locked="false"
       inkscape:label=""
       inkscape:color="rgb(0,134,229)" /><sodipodi:guide
       position="73.104577,234.61876"
       orientation="0,-1"
       id="guide3"
       inkscape:locked="false" /></sodipodi:namedview><defs
     id="defs50635"><clipPath
       clipPathUnits="userSpaceOnUse"
       id="clipPath420"><path
         d="M 591.86957,383.12061 H 908.19696 V 699.448 H 591.86957 Z"
         clip-rule="evenodd"
         id="path418" /></clipPath><clipPath
       clipPathUnits="userSpaceOnUse"
       id="clipPath420-6"><path
         d="M 591.86957,383.12061 H 908.19696 V 699.448 H 591.86957 Z"
         clip-rule="evenodd"
         id="path418-5" /></clipPath></defs><g
     inkscape:label="Layer 1"
     inkscape:groupmode="layer"
     id="layer1"
     transform="translate(-60.919272,-118.15954)"><path
       id="rect1"
       style="fill:#000000;fill-opacity:1;fill-rule:evenodd;stroke:none;stroke-width:1.80574"
       d="m 127.40927,157.05837 v 40.48237 c -0.10176,-5.8e-4 -0.20196,-0.008 -0.30386,-0.008 -4.02238,0 -7.93535,0.46612 -11.70264,1.31982 v -28.52548 h -6.61458 v 30.47626 c -20.1802,7.46649 -34.598927,26.89878 -34.598927,49.64762 0,29.18584 23.730314,52.91615 52.916147,52.91615 29.18583,0 52.91822,-23.73031 52.91822,-52.91615 0,-26.83961 -20.07515,-49.05133 -45.99978,-52.45158 v -40.94126 z m -0.30386,47.09024 c 25.61106,0 46.3026,20.69154 46.3026,46.3026 0,25.61106 -20.69154,46.30053 -46.3026,46.30053 -25.61105,0 -46.300529,-20.68947 -46.30053,-46.30053 0,-25.61106 20.68948,-46.3026 46.30053,-46.3026 z"
       sodipodi:nodetypes="ccsccccssscccsssss" /><g
       inkscape:label="Layer 1"
       id="layer1-2"
       transform="matrix(-1,0,0,1,229.49511,-64.25062)"><path
         style="color:#000000;fill:#000000;stroke-linecap:round;-inkscape-stroke:none"
         d="m 95.338863,182.41016 a 3.3072901,3.3072901 0 0 0 -3.306643,3.30664 3.3072901,3.3072901 0 0 0 3.306643,3.30664 h 24.755857 v 24.75781 a 3.3072901,3.3072901 0 0 0 3.30664,3.30664 3.3072901,3.3072901 0 0 0 3.30859,-3.30664 v -31.37109 z"
         id="path13" /><path
         style="color:#000000;fill:#000000;fill-rule:evenodd;-inkscape-stroke:none"
         d="m 119.89355,184.54687 -39.687502,39.6875 4.677734,4.67774 39.687498,-39.6875 z"
         id="path14" /></g></g></svg>
