<?xml version="1.0" encoding="UTF-8" standalone="no"?>
<!-- Created with Inkscape (http://www.inkscape.org/) -->

<svg
   width="1000"
   height="1000"
   viewBox="0 0 264.58333 264.58334"
   version="1.1"
   id="svg50638"
   inkscape:version="1.3.2 (091e20e, 2023-11-25, custom)"
   sodipodi:docname="UwithTilde.svg"
   xml:space="preserve"
   xmlns:inkscape="http://www.inkscape.org/namespaces/inkscape"
   xmlns:sodipodi="http://sodipodi.sourceforge.net/DTD/sodipodi-0.dtd"
   xmlns="http://www.w3.org/2000/svg"
   xmlns:svg="http://www.w3.org/2000/svg"><sodipodi:namedview
     id="namedview50640"
     pagecolor="#ffffff"
     bordercolor="#000000"
     borderopacity="0.25"
     inkscape:showpageshadow="2"
     inkscape:pageopacity="0.0"
     inkscape:pagecheckerboard="0"
     inkscape:deskcolor="#d1d1d1"
     inkscape:document-units="px"
     showgrid="false"
     inkscape:zoom="0.70710678"
     inkscape:cx="124.45079"
     inkscape:cy="249.60869"
     inkscape:window-width="1920"
     inkscape:window-height="1017"
     inkscape:window-x="-8"
     inkscape:window-y="-8"
     inkscape:window-maximized="1"
     inkscape:current-layer="layer1"
     showguides="true"><sodipodi:guide
       position="0,52.916667"
       orientation="0,1"
       id="guide2040"
       inkscape:locked="false"
       inkscape:label=""
       inkscape:color="rgb(0,134,229)" /><sodipodi:guide
       position="0,79.375"
       orientation="0,1"
       id="guide2042"
       inkscape:label=""
       inkscape:locked="false"
       inkscape:color="rgb(0,134,229)" /><sodipodi:guide
       position="13.229167,264.58333"
       orientation="-1,0"
       id="guide2044"
       inkscape:locked="false"
       inkscape:label=""
       inkscape:color="rgb(0,134,229)" /><sodipodi:guide
       position="132.29167,132.29221"
       orientation="-1,0"
       id="guide2046"
       inkscape:locked="false"
       inkscape:label=""
       inkscape:color="rgb(0,134,229)" /><sodipodi:guide
       position="119.0625,132.29222"
       orientation="1,0"
       id="guide1764"
       inkscape:locked="false" /><sodipodi:guide
       position="66.187173,79.375517"
       orientation="1,0"
       id="guide1"
       inkscape:locked="false" /><sodipodi:guide
       position="73.104577,241.23334"
       orientation="0,1"
       id="guide2"
       inkscape:locked="false"
       inkscape:label=""
       inkscape:color="rgb(0,134,229)" /><sodipodi:guide
       position="73.104577,234.61876"
       orientation="0,-1"
       id="guide3"
       inkscape:locked="false" /></sodipodi:namedview><defs
     id="defs50635"><clipPath
       clipPathUnits="userSpaceOnUse"
       id="clipPath420"><path
         d="M 591.86957,383.12061 H 908.19696 V 699.448 H 591.86957 Z"
         clip-rule="evenodd"
         id="path418" /></clipPath><clipPath
       clipPathUnits="userSpaceOnUse"
       id="clipPath420-6"><path
         d="M 591.86957,383.12061 H 908.19696 V 699.448 H 591.86957 Z"
         clip-rule="evenodd"
         id="path418-5" /></clipPath><clipPath
       clipPathUnits="userSpaceOnUse"
       id="clipPath420-82"><path
         d="M 591.86957,383.12061 H 908.19696 V 699.448 H 591.86957 Z"
         clip-rule="evenodd"
         id="path418-3" /></clipPath><clipPath
       clipPathUnits="userSpaceOnUse"
       id="clipPath420-2"><path
         d="M 591.86957,383.12061 H 908.19696 V 699.448 H 591.86957 Z"
         clip-rule="evenodd"
         id="path418-0" /></clipPath><clipPath
       clipPathUnits="userSpaceOnUse"
       id="clipPath420-8"><path
         d="M 591.86957,383.12061 H 908.19696 V 699.448 H 591.86957 Z"
         clip-rule="evenodd"
         id="path418-4" /></clipPath><clipPath
       clipPathUnits="userSpaceOnUse"
       id="clipPath420-1"><path
         d="M 591.86957,383.12061 H 908.19696 V 699.448 H 591.86957 Z"
         clip-rule="evenodd"
         id="path418-8" /></clipPath><clipPath
       clipPathUnits="userSpaceOnUse"
       id="clipPath3"><path
         d="M 9.12e-6,0 H 612.00001 V 792 H 9.12e-6 Z"
         transform="matrix(1,0,0,-1,-72.024002,250.37001)"
         clip-rule="evenodd"
         id="path3-7" /></clipPath><clipPath
       clipPathUnits="userSpaceOnUse"
       id="clipPath420-11"><path
         d="M 591.86957,383.12061 H 908.19696 V 699.448 H 591.86957 Z"
         clip-rule="evenodd"
         id="path418-2" /></clipPath><clipPath
       clipPathUnits="userSpaceOnUse"
       id="clipPath420-2-8"><path
         d="M 591.86957,383.12061 H 908.19696 V 699.448 H 591.86957 Z"
         clip-rule="evenodd"
         id="path418-1" /></clipPath><clipPath
       clipPathUnits="userSpaceOnUse"
       id="clipPath2"><path
         d="M 9.12e-6,0 H 612.00001 V 792 H 9.12e-6 Z"
         transform="matrix(1,0,0,-1,-159.98001,250.97001)"
         clip-rule="evenodd"
         id="path2" /></clipPath><clipPath
       clipPathUnits="userSpaceOnUse"
       id="clipPath420-5"><path
         d="M 591.86957,383.12061 H 908.19696 V 699.448 H 591.86957 Z"
         clip-rule="evenodd"
         id="path418-6" /></clipPath><clipPath
       clipPathUnits="userSpaceOnUse"
       id="clipPath420-9"><path
         d="M 591.86957,383.12061 H 908.19696 V 699.448 H 591.86957 Z"
         clip-rule="evenodd"
         id="path418-5-2" /></clipPath><clipPath
       clipPathUnits="userSpaceOnUse"
       id="clipPath420-7"><path
         d="M 591.86957,383.12061 H 908.19696 V 699.448 H 591.86957 Z"
         clip-rule="evenodd"
         id="path418-3-6" /></clipPath><clipPath
       clipPathUnits="userSpaceOnUse"
       id="clipPath420-2-2"><path
         d="M 591.86957,383.12061 H 908.19696 V 699.448 H 591.86957 Z"
         clip-rule="evenodd"
         id="path418-1-9" /></clipPath><clipPath
       clipPathUnits="userSpaceOnUse"
       id="clipPath2-5"><path
         d="M 9.12e-6,0 H 612.00001 V 792 H 9.12e-6 Z"
         transform="matrix(1,0,0,-1,-159.98001,250.97001)"
         clip-rule="evenodd"
         id="path2-1" /></clipPath><clipPath
       clipPathUnits="userSpaceOnUse"
       id="clipPath420-5-0"><path
         d="M 591.86957,383.12061 H 908.19696 V 699.448 H 591.86957 Z"
         clip-rule="evenodd"
         id="path418-6-6" /></clipPath><clipPath
       clipPathUnits="userSpaceOnUse"
       id="clipPath420-9-1"><path
         d="M 591.86957,383.12061 H 908.19696 V 699.448 H 591.86957 Z"
         clip-rule="evenodd"
         id="path418-5-7" /></clipPath></defs><g
     inkscape:label="Layer 1"
     inkscape:groupmode="layer"
     id="layer1"
     transform="translate(-60.919272,-118.15954)"><path
       id="rect1"
       style="fill:#000000;fill-opacity:1;fill-rule:evenodd;stroke:none;stroke-width:1.80574"
       d="M 127.40927 148.12412 L 127.40927 197.54074 C 127.30751 197.54016 127.20731 197.53299 127.10541 197.53299 C 123.08303 197.53299 119.17006 197.99911 115.40277 198.85281 L 115.40277 161.39308 L 108.78819 161.39308 L 108.78819 200.80359 C 88.60799 208.27008 74.189263 227.70237 74.189263 250.45121 C 74.189263 279.63705 97.919577 303.36736 127.10541 303.36736 C 156.29124 303.36736 180.02363 279.63705 180.02363 250.45121 C 180.02363 223.6116 159.94848 201.39988 134.02385 197.99963 L 134.02385 148.12412 L 127.40927 148.12412 z M 127.10541 204.14861 C 152.71647 204.14861 173.40801 224.84015 173.40801 250.45121 C 173.40801 276.06227 152.71647 296.75174 127.10541 296.75174 C 101.49436 296.75174 80.804881 276.06227 80.80488 250.45121 C 80.80488 224.84015 101.49436 204.14861 127.10541 204.14861 z " /><g
       inkscape:label="Layer 1"
       id="layer1-5"
       transform="translate(-8.6026637,-83.481852)"><path
         id="path13-3"
         style="color:#000000;fill:#000000;stroke-linecap:round;-inkscape-stroke:none"
         d="M 153.55918 201.66413 A 3.3072901 3.3072901 0 0 0 149.88809 204.56111 A 3.3072901 3.3072901 0 0 0 152.78507 208.23169 L 173.14042 210.63102 C 163.1629 220.09863 156.13471 222.60197 150.73042 222.26959 C 144.99047 221.91657 140.08284 218.17183 134.75775 213.66598 C 129.43266 209.16014 123.81361 203.88562 116.10927 202.66769 C 114.18319 202.3632 112.1882 202.34677 110.11326 202.65993 C 103.88842 203.59997 96.951604 207.49806 89.043225 215.40644 L 86.703316 217.74429 L 91.381067 222.42204 L 93.718908 220.08213 C 103.50245 210.29858 109.93146 208.3875 115.07833 209.20114 C 120.22518 210.01479 125.06259 214.12558 130.48617 218.71477 C 135.90976 223.30396 142.04368 228.36199 150.32424 228.87125 C 157.89526 229.33689 166.43263 225.81492 176.76242 216.28804 L 174.47264 235.71735 A 3.3072901 3.3072901 0 0 0 177.36962 239.38793 A 3.3072901 3.3072901 0 0 0 181.04226 236.49146 L 184.71439 205.33626 L 153.55918 201.66413 z " /></g></g></svg>
