<?xml version="1.0" encoding="UTF-8" standalone="no"?>
<!-- Created with Inkscape (http://www.inkscape.org/) -->

<svg
   width="1000"
   height="1000"
   viewBox="0 0 264.58333 264.58333"
   version="1.1"
   id="svg52475"
   inkscape:version="1.3.2 (091e20e, 2023-11-25, custom)"
   sodipodi:docname="WwithCircumflex.svg"
   xml:space="preserve"
   xmlns:inkscape="http://www.inkscape.org/namespaces/inkscape"
   xmlns:sodipodi="http://sodipodi.sourceforge.net/DTD/sodipodi-0.dtd"
   xmlns="http://www.w3.org/2000/svg"
   xmlns:svg="http://www.w3.org/2000/svg"><sodipodi:namedview
     id="namedview52477"
     pagecolor="#ffffff"
     bordercolor="#000000"
     borderopacity="0.25"
     inkscape:showpageshadow="2"
     inkscape:pageopacity="0.0"
     inkscape:pagecheckerboard="0"
     inkscape:deskcolor="#d1d1d1"
     inkscape:document-units="px"
     showgrid="false"
     inkscape:zoom="0.74564396"
     inkscape:cx="225.3086"
     inkscape:cy="276.94183"
     inkscape:window-width="1920"
     inkscape:window-height="1017"
     inkscape:window-x="-8"
     inkscape:window-y="-8"
     inkscape:window-maximized="1"
     inkscape:current-layer="layer1"
     showguides="true"><sodipodi:guide
       position="0,79.374999"
       orientation="0,1"
       id="guide2785"
       inkscape:locked="false"
       inkscape:label=""
       inkscape:color="rgb(0,134,229)" /><sodipodi:guide
       position="0,52.916666"
       orientation="0,1"
       id="guide2787"
       inkscape:locked="false"
       inkscape:label=""
       inkscape:color="rgb(0,134,229)" /><sodipodi:guide
       position="13.229166,264.58333"
       orientation="-1,0"
       id="guide2789"
       inkscape:locked="false"
       inkscape:label=""
       inkscape:color="rgb(0,134,229)" /><sodipodi:guide
       position="119.0625,132.29164"
       orientation="1,0"
       id="guide2791"
       inkscape:locked="false" /><sodipodi:guide
       position="132.29166,132.29164"
       orientation="-1,0"
       id="guide2462"
       inkscape:label=""
       inkscape:locked="false"
       inkscape:color="rgb(0,134,229)" /><sodipodi:guide
       position="66.187169,178.59375"
       orientation="1,0"
       id="guide1"
       inkscape:locked="false" /><sodipodi:guide
       position="67.540579,235.31793"
       orientation="0,-1"
       id="guide2"
       inkscape:locked="false" /><sodipodi:guide
       position="67.540579,241.93251"
       orientation="0,1"
       id="guide3"
       inkscape:label=""
       inkscape:locked="false"
       inkscape:color="rgb(0,134,229)" /></sodipodi:namedview><defs
     id="defs52472"><clipPath
       clipPathUnits="userSpaceOnUse"
       id="clipPath420"><path
         d="M 591.86957,383.12061 H 908.19696 V 699.448 H 591.86957 Z"
         clip-rule="evenodd"
         id="path418" /></clipPath><clipPath
       clipPathUnits="userSpaceOnUse"
       id="clipPath420-8"><path
         d="M 591.86957,383.12061 H 908.19696 V 699.448 H 591.86957 Z"
         clip-rule="evenodd"
         id="path418-7" /></clipPath></defs><g
     inkscape:label="Layer 1"
     inkscape:groupmode="layer"
     id="layer1"
     transform="translate(-69.207581,-100.6861)"><path
       id="rect1"
       style="fill:#000000;fill-opacity:1;fill-rule:evenodd;stroke:none;stroke-width:2.04034"
       d="m 130.13358,139.12782 0,41.19528 c -5.91416,0.58608 -11.5383,2.15929 -16.72095,4.53564 l 0,-38.71171 h -6.61458 l 0,42.33733 c -14.616884,9.42574 -24.319445,25.83961 -24.319445,44.49392 0,29.18583 23.730315,52.91615 52.916145,52.91615 29.18585,0 52.91564,-23.73032 52.91564,-52.91615 0,-18.34918 -9.38301,-34.53739 -23.60115,-44.03297 l 0,-36.87916 h -6.61458 l 0,33.11815 c -6.49796,-3.09787 -13.72492,-4.89683 -21.3465,-5.08961 l 0,-40.96687 z m 5.26117,47.54786 c 25.61106,0 46.3026,20.69154 46.3026,46.3026 0,25.61106 -20.69154,46.30105 -46.3026,46.30105 -25.61105,0 -46.303112,-20.68999 -46.303112,-46.30105 0,-25.61106 20.692062,-46.3026 46.303112,-46.3026 z"
       sodipodi:nodetypes="ccccccssscccccccsssss" /><g
       id="path4"
       transform="translate(6.66428,-83.86077)"><path
         style="color:#000000;fill:#000000;fill-rule:evenodd;-inkscape-stroke:none"
         d="m 128.73047,184.54687 -42.027345,42.02735 4.677734,4.67773 37.349611,-37.34961 37.34765,37.34961 4.67774,-4.67773 z"
         id="path7" /><g
         id="g6"><path
           style="color:#000000;fill:#000000;stroke-linecap:round;-inkscape-stroke:none"
           d="m 169.58594,198.71094 a 3.3072901,3.3072901 0 0 0 -3.30664,3.30664 v 24.75781 h -24.75586 a 3.3072901,3.3072901 0 0 0 -3.30664,3.30664 3.3072901,3.3072901 0 0 0 3.30664,3.30664 h 31.37109 v -31.37109 a 3.3072901,3.3072901 0 0 0 -3.30859,-3.30664 z"
           id="path6" /></g></g></g></svg>
