<?xml version="1.0" encoding="UTF-8" standalone="no"?>
<!-- Created with Inkscape (http://www.inkscape.org/) -->

<svg
   width="1000"
   height="1000"
   viewBox="0 0 264.58333 264.58333"
   version="1.1"
   id="svg59379"
   inkscape:version="1.3.2 (091e20e, 2023-11-25, custom)"
   sodipodi:docname="YwithAcute.svg"
   xml:space="preserve"
   xmlns:inkscape="http://www.inkscape.org/namespaces/inkscape"
   xmlns:sodipodi="http://sodipodi.sourceforge.net/DTD/sodipodi-0.dtd"
   xmlns="http://www.w3.org/2000/svg"
   xmlns:svg="http://www.w3.org/2000/svg"><sodipodi:namedview
     id="namedview59381"
     pagecolor="#ffffff"
     bordercolor="#000000"
     borderopacity="0.25"
     inkscape:showpageshadow="2"
     inkscape:pageopacity="0.0"
     inkscape:pagecheckerboard="0"
     inkscape:deskcolor="#d1d1d1"
     inkscape:document-units="px"
     showgrid="false"
     inkscape:zoom="2.1089996"
     inkscape:cx="350.87726"
     inkscape:cy="234.94552"
     inkscape:window-width="1920"
     inkscape:window-height="1001"
     inkscape:window-x="-9"
     inkscape:window-y="-9"
     inkscape:window-maximized="1"
     inkscape:current-layer="layer1"
     showguides="true"><sodipodi:guide
       position="0,79.374999"
       orientation="0,1"
       id="guide240"
       inkscape:locked="false"
       inkscape:label=""
       inkscape:color="rgb(0,134,229)" /><sodipodi:guide
       position="0,52.916666"
       orientation="0,1"
       id="guide242"
       inkscape:label=""
       inkscape:locked="false"
       inkscape:color="rgb(0,134,229)" /><sodipodi:guide
       position="200.38145,138.41291"
       orientation="-1,0"
       id="guide2782"
       inkscape:label=""
       inkscape:locked="false"
       inkscape:color="rgb(0,134,229)" /><sodipodi:guide
       position="13.229166,143.39435"
       orientation="-1,0"
       id="guide2799"
       inkscape:locked="false"
       inkscape:label=""
       inkscape:color="rgb(0,134,229)" /><sodipodi:guide
       position="213.61062,138.41291"
       orientation="-1,0"
       id="guide12"
       inkscape:label=""
       inkscape:locked="false"
       inkscape:color="rgb(0,134,229)" /><sodipodi:guide
       position="88.830237,185.25536"
       orientation="1,0"
       id="guide1"
       inkscape:locked="false" /><sodipodi:guide
       position="88.830237,185.25536"
       orientation="0,-1"
       id="guide2"
       inkscape:locked="false" /><sodipodi:guide
       position="88.830237,191.86994"
       orientation="0,1"
       id="guide3"
       inkscape:label=""
       inkscape:locked="false"
       inkscape:color="rgb(0,134,229)" /></sodipodi:namedview><defs
     id="defs59376"><clipPath
       clipPathUnits="userSpaceOnUse"
       id="clipPath420"><path
         d="M 591.86957,383.12061 H 908.19696 V 699.448 H 591.86957 Z"
         clip-rule="evenodd"
         id="path418" /></clipPath><clipPath
       clipPathUnits="userSpaceOnUse"
       id="clipPath420-9"><path
         d="M 591.86957,383.12061 H 908.19696 V 699.448 H 591.86957 Z"
         clip-rule="evenodd"
         id="path418-1" /></clipPath><clipPath
       clipPathUnits="userSpaceOnUse"
       id="clipPath420-2"><path
         d="M 591.86957,383.12061 H 908.19696 V 699.448 H 591.86957 Z"
         clip-rule="evenodd"
         id="path418-0" /></clipPath><clipPath
       clipPathUnits="userSpaceOnUse"
       id="clipPath420-8"><path
         d="M 591.86957,383.12061 H 908.19696 V 699.448 H 591.86957 Z"
         clip-rule="evenodd"
         id="path418-4" /></clipPath><clipPath
       clipPathUnits="userSpaceOnUse"
       id="clipPath420-1"><path
         d="M 591.86957,383.12061 H 908.19696 V 699.448 H 591.86957 Z"
         clip-rule="evenodd"
         id="path418-8" /></clipPath><clipPath
       clipPathUnits="userSpaceOnUse"
       id="clipPath3"><path
         d="M 9.12e-6,0 H 612.00001 V 792 H 9.12e-6 Z"
         transform="matrix(1,0,0,-1,-72.024002,250.37001)"
         clip-rule="evenodd"
         id="path3-7" /></clipPath><clipPath
       clipPathUnits="userSpaceOnUse"
       id="clipPath420-5"><path
         d="M 591.86957,383.12061 H 908.19696 V 699.448 H 591.86957 Z"
         clip-rule="evenodd"
         id="path418-2" /></clipPath></defs><g
     inkscape:label="Layer 1"
     inkscape:groupmode="layer"
     id="layer1"
     transform="translate(-54.425613,-125.33614)"><path
       id="path11"
       style="display:inline;opacity:1;color:#000000;fill:#ff0000;stroke-linecap:round;stroke:none;stroke-width:1.00012499;stroke-dasharray:none;fill-opacity:1"
       d="M 236.01349 203.94529 L 215.21683 209.40129 C 213.4508 209.865 212.3945 211.6725 212.85728 213.43877 C 213.32099 215.2048 215.1285 216.26059 216.89476 215.7978 L 227.20266 213.09409 C 224.2205 219.55974 221.4988 227.83415 220.23616 236.05083 C 219.41274 241.40925 219.21095 246.73148 220.15245 251.56048 C 221.09397 256.38946 223.28956 260.86389 227.3303 263.71684 C 230.68614 266.0862 234.54071 266.60306 237.84749 265.90844 C 241.15426 265.21383 243.98465 263.51063 246.35756 261.66218 C 251.10341 257.96529 254.22065 253.38672 254.22065 253.38672 A 3.3072901 3.3072901 0 0 0 253.37884 248.78493 A 3.3072901 3.3072901 0 0 0 248.77912 249.62674 C 248.77912 249.62674 246.04073 253.52415 242.29321 256.44338 C 240.41946 257.90299 238.34459 259.04347 236.4884 259.43338 C 234.63221 259.82329 233.06532 259.66721 231.14661 258.31252 C 228.82462 256.6731 227.37119 254.01972 226.64456 250.29285 C 225.91793 246.56598 226.02799 241.90459 226.77323 237.0549 C 227.83139 230.16887 230.16858 222.89622 232.64626 217.17911 L 234.92209 225.85145 C 235.38577 227.61845 237.19421 228.67451 238.96112 228.21048 C 240.72715 227.74678 241.78344 225.93978 241.32066 224.17352 L 236.01349 203.94529 z " /><path
       id="path1"
       style="color:#000000;display:inline;fill:#000000;fill-opacity:1;fill-rule:evenodd;-inkscape-stroke:none"
       d="m 217.96705,162.1525 -36.67373,58.69047 c -9.62751,-9.96516 -23.11438,-16.17886 -38.03747,-16.17886 -16.01661,0 -30.37924,7.15647 -40.08954,18.42937 l -31.60841,-40.45696 -5.212601,4.0721 32.693611,41.84602 c -5.491707,8.33957 -8.699211,18.3116 -8.699211,29.02562 0,29.18583 23.730321,52.9177 52.916151,52.9177 29.18583,0 52.91616,-23.73187 52.91615,-52.9177 0,-11.77048 -3.86385,-22.65061 -10.38438,-31.44769 l 37.78891,-60.47486 z m -74.7112,49.12671 c 25.61105,0 46.3026,20.68999 46.3026,46.30105 0,25.61106 -20.69155,46.3026 -46.3026,46.3026 -25.61106,0 -46.302601,-20.69154 -46.302601,-46.3026 0,-25.61106 20.691541,-46.30105 46.302601,-46.30105 z" /><g
       inkscape:label="Layer 1"
       id="layer1-5"
       transform="translate(33.300772,-30.86258)"><path
         style="color:#000000;fill:#000000;stroke-linecap:round;-inkscape-stroke:none"
         d="m 101.83594,182.41016 a 3.3072901,3.3072901 0 0 0 -3.306643,3.30664 3.3072901,3.3072901 0 0 0 3.306643,3.30664 h 24.75586 v 24.75781 a 3.3072901,3.3072901 0 0 0 3.30664,3.30664 3.3072901,3.3072901 0 0 0 3.30859,-3.30664 v -31.37109 z"
         id="path13" /><path
         style="color:#000000;fill:#000000;fill-rule:evenodd;-inkscape-stroke:none"
         d="m 126.39063,184.54687 -39.687505,39.6875 4.677734,4.67774 39.687501,-39.6875 z"
         id="path14" /></g></g></svg>
