<?xml version="1.0" encoding="UTF-8" standalone="no"?>
<!-- Created with Inkscape (http://www.inkscape.org/) -->

<svg
   width="1000"
   height="1000"
   viewBox="0 0 264.58333 264.58333"
   version="1.1"
   id="svg60350"
   inkscape:version="1.3.2 (091e20e, 2023-11-25, custom)"
   sodipodi:docname="ZwithAcute.svg"
   xml:space="preserve"
   xmlns:inkscape="http://www.inkscape.org/namespaces/inkscape"
   xmlns:sodipodi="http://sodipodi.sourceforge.net/DTD/sodipodi-0.dtd"
   xmlns="http://www.w3.org/2000/svg"
   xmlns:svg="http://www.w3.org/2000/svg"><sodipodi:namedview
     id="namedview60352"
     pagecolor="#ffffff"
     bordercolor="#000000"
     borderopacity="0.25"
     inkscape:showpageshadow="2"
     inkscape:pageopacity="0.0"
     inkscape:pagecheckerboard="0"
     inkscape:deskcolor="#d1d1d1"
     inkscape:document-units="px"
     showgrid="false"
     inkscape:zoom="1"
     inkscape:cx="231"
     inkscape:cy="357.5"
     inkscape:window-width="1920"
     inkscape:window-height="1017"
     inkscape:window-x="-8"
     inkscape:window-y="-8"
     inkscape:window-maximized="1"
     inkscape:current-layer="layer1"
     showguides="true"><sodipodi:guide
       position="0,52.916666"
       orientation="0,1"
       id="guide581"
       inkscape:locked="false"
       inkscape:label=""
       inkscape:color="rgb(0,134,229)" /><sodipodi:guide
       position="0,79.374999"
       orientation="0,1"
       id="guide583"
       inkscape:label=""
       inkscape:locked="false"
       inkscape:color="rgb(0,134,229)" /><sodipodi:guide
       position="151.44831,199.87273"
       orientation="0,-1"
       id="guide2894"
       inkscape:locked="false" /><sodipodi:guide
       position="166.31263,199.86611"
       orientation="1,0"
       id="guide3245"
       inkscape:locked="false" /><sodipodi:guide
       position="13.229166,264.58333"
       orientation="-1,0"
       id="guide466"
       inkscape:locked="false"
       inkscape:label=""
       inkscape:color="rgb(0,134,229)" /><sodipodi:guide
       position="175.57305,199.86611"
       orientation="-1,0"
       id="guide1634"
       inkscape:label=""
       inkscape:locked="false"
       inkscape:color="rgb(0,134,229)" /><sodipodi:guide
       position="68.116774,185.20781"
       orientation="1,0"
       id="guide1"
       inkscape:locked="false" /><sodipodi:guide
       position="68.116774,185.20781"
       orientation="0,-1"
       id="guide2"
       inkscape:locked="false" /><sodipodi:guide
       position="68.116774,191.82239"
       orientation="0,1"
       id="guide3"
       inkscape:label=""
       inkscape:locked="false"
       inkscape:color="rgb(0,134,229)" /></sodipodi:namedview><defs
     id="defs60347"><clipPath
       clipPathUnits="userSpaceOnUse"
       id="clipPath2659"><path
         d="m 4363.4951,2021.5996 h 88.1406 v 130.2947 h -88.1406 z"
         clip-rule="evenodd"
         id="path2657" /></clipPath><clipPath
       clipPathUnits="userSpaceOnUse"
       id="clipPath420"><path
         d="M 591.86957,383.12061 H 908.19696 V 699.448 H 591.86957 Z"
         clip-rule="evenodd"
         id="path418" /></clipPath><clipPath
       clipPathUnits="userSpaceOnUse"
       id="clipPath420-8"><path
         d="M 591.86957,383.12061 H 908.19696 V 699.448 H 591.86957 Z"
         clip-rule="evenodd"
         id="path418-9" /></clipPath></defs><g
     inkscape:label="Layer 1"
     inkscape:groupmode="layer"
     id="layer1"
     transform="translate(-75.012206,-125.79416)"><path
       id="path2663"
       style="display:inline;fill:#ff0000;fill-opacity:1;fill-rule:nonzero;stroke:none"
       d="M -1440.7687 -1015.0321 L -1440.7687 -547.51072 L -442.8592 -547.51072 L -1482.9235 570.59695 L -1482.9235 981.22192 L 233.95284 985.94617 L 40.614223 1165.6989 C -97.834857 1294.4137 158.61819 1558.56 296.36025 1424.9937 L 999.69353 742.98087 L 303.46642 39.683241 C 168.98999 -96.168187 -107.16546 155.12026 54.826565 313.20214 L 246.97236 500.68313 L -672.99763 504.81685 L 351.25542 -611.51922 L 351.25542 -1015.0321 L -1440.7687 -1015.0321 z "
       transform="matrix(0.02036174,0,0,0.02012691,220.96955,175.55723)" /><path
       id="path1"
       style="color:#000000;fill:#000000;fill-opacity:1;fill-rule:evenodd;-inkscape-stroke:none"
       d="M 94.854922 144.82349 L 88.241373 144.93873 L 90.214895 258.00159 C 90.214851 258.02983 90.212828 258.05758 90.212828 258.08582 C 90.212828 287.27166 113.94314 311.00197 143.12898 311.00197 C 172.31481 311.00197 196.04513 287.27166 196.04513 258.08582 C 196.04513 228.89998 172.31481 205.16968 143.12898 205.16968 C 122.90133 205.16968 105.30186 216.573 96.399014 233.28631 L 94.854922 144.82349 z M 143.12898 211.78323 C 168.74003 211.78323 189.43158 232.47476 189.43158 258.08582 C 189.43158 283.69688 168.74003 304.38842 143.12898 304.38842 C 117.51791 304.38842 96.826378 283.69688 96.826378 258.08582 C 96.826378 258.04717 96.829384 258.00922 96.829479 257.97059 L 96.829995 257.97059 L 96.829479 257.95353 C 96.90101 232.40391 117.56229 211.78323 143.12898 211.78323 z " /><g
       inkscape:label="Layer 1"
       id="layer1-5"
       transform="translate(33.173903,-30.35701)"><path
         style="color:#000000;fill:#000000;stroke-linecap:round;-inkscape-stroke:none"
         d="m 101.83594,182.41016 a 3.3072901,3.3072901 0 0 0 -3.306643,3.30664 3.3072901,3.3072901 0 0 0 3.306643,3.30664 h 24.75586 v 24.75781 a 3.3072901,3.3072901 0 0 0 3.30664,3.30664 3.3072901,3.3072901 0 0 0 3.30859,-3.30664 v -31.37109 z"
         id="path13" /><path
         style="color:#000000;fill:#000000;fill-rule:evenodd;-inkscape-stroke:none"
         d="m 126.39063,184.54687 -39.687505,39.6875 4.677734,4.67774 39.687501,-39.6875 z"
         id="path14" /></g></g></svg>
